%TF.GenerationSoftware,KiCad,Pcbnew,9.0.4*%
%TF.CreationDate,2025-12-22T21:15:50+01:00*%
%TF.ProjectId,tolt,746f6c74-2e6b-4696-9361-645f70636258,rev?*%
%TF.SameCoordinates,Original*%
%TF.FileFunction,Soldermask,Bot*%
%TF.FilePolarity,Negative*%
%FSLAX46Y46*%
G04 Gerber Fmt 4.6, Leading zero omitted, Abs format (unit mm)*
G04 Created by KiCad (PCBNEW 9.0.4) date 2025-12-22 21:15:50*
%MOMM*%
%LPD*%
G01*
G04 APERTURE LIST*
G04 Aperture macros list*
%AMRoundRect*
0 Rectangle with rounded corners*
0 $1 Rounding radius*
0 $2 $3 $4 $5 $6 $7 $8 $9 X,Y pos of 4 corners*
0 Add a 4 corners polygon primitive as box body*
4,1,4,$2,$3,$4,$5,$6,$7,$8,$9,$2,$3,0*
0 Add four circle primitives for the rounded corners*
1,1,$1+$1,$2,$3*
1,1,$1+$1,$4,$5*
1,1,$1+$1,$6,$7*
1,1,$1+$1,$8,$9*
0 Add four rect primitives between the rounded corners*
20,1,$1+$1,$2,$3,$4,$5,0*
20,1,$1+$1,$4,$5,$6,$7,0*
20,1,$1+$1,$6,$7,$8,$9,0*
20,1,$1+$1,$8,$9,$2,$3,0*%
%AMFreePoly0*
4,1,23,0.500000,-0.750000,0.000000,-0.750000,0.000000,-0.745722,-0.065263,-0.745722,-0.191342,-0.711940,-0.304381,-0.646677,-0.396677,-0.554381,-0.461940,-0.441342,-0.495722,-0.315263,-0.495722,-0.250000,-0.500000,-0.250000,-0.500000,0.250000,-0.495722,0.250000,-0.495722,0.315263,-0.461940,0.441342,-0.396677,0.554381,-0.304381,0.646677,-0.191342,0.711940,-0.065263,0.745722,0.000000,0.745722,
0.000000,0.750000,0.500000,0.750000,0.500000,-0.750000,0.500000,-0.750000,$1*%
%AMFreePoly1*
4,1,23,0.000000,0.745722,0.065263,0.745722,0.191342,0.711940,0.304381,0.646677,0.396677,0.554381,0.461940,0.441342,0.495722,0.315263,0.495722,0.250000,0.500000,0.250000,0.500000,-0.250000,0.495722,-0.250000,0.495722,-0.315263,0.461940,-0.441342,0.396677,-0.554381,0.304381,-0.646677,0.191342,-0.711940,0.065263,-0.745722,0.000000,-0.745722,0.000000,-0.750000,-0.500000,-0.750000,
-0.500000,0.750000,0.000000,0.750000,0.000000,0.745722,0.000000,0.745722,$1*%
%AMFreePoly2*
4,1,23,0.550000,-0.750000,0.000000,-0.750000,0.000000,-0.745722,-0.065263,-0.745722,-0.191342,-0.711940,-0.304381,-0.646677,-0.396677,-0.554381,-0.461940,-0.441342,-0.495722,-0.315263,-0.495722,-0.250000,-0.500000,-0.250000,-0.500000,0.250000,-0.495722,0.250000,-0.495722,0.315263,-0.461940,0.441342,-0.396677,0.554381,-0.304381,0.646677,-0.191342,0.711940,-0.065263,0.745722,0.000000,0.745722,
0.000000,0.750000,0.550000,0.750000,0.550000,-0.750000,0.550000,-0.750000,$1*%
%AMFreePoly3*
4,1,23,0.000000,0.745722,0.065263,0.745722,0.191342,0.711940,0.304381,0.646677,0.396677,0.554381,0.461940,0.441342,0.495722,0.315263,0.495722,0.250000,0.500000,0.250000,0.500000,-0.250000,0.495722,-0.250000,0.495722,-0.315263,0.461940,-0.441342,0.396677,-0.554381,0.304381,-0.646677,0.191342,-0.711940,0.065263,-0.745722,0.000000,-0.745722,0.000000,-0.750000,-0.550000,-0.750000,
-0.550000,0.750000,0.000000,0.750000,0.000000,0.745722,0.000000,0.745722,$1*%
G04 Aperture macros list end*
%ADD10R,2.400000X2.400000*%
%ADD11C,2.400000*%
%ADD12RoundRect,0.250001X-0.949999X0.949999X-0.949999X-0.949999X0.949999X-0.949999X0.949999X0.949999X0*%
%ADD13R,1.700000X1.700000*%
%ADD14C,1.700000*%
%ADD15RoundRect,0.250000X-0.350000X-0.625000X0.350000X-0.625000X0.350000X0.625000X-0.350000X0.625000X0*%
%ADD16O,1.200000X1.750000*%
%ADD17C,0.650000*%
%ADD18O,2.100000X1.000000*%
%ADD19O,1.800000X1.000000*%
%ADD20RoundRect,0.250001X0.949999X-0.949999X0.949999X0.949999X-0.949999X0.949999X-0.949999X-0.949999X0*%
%ADD21RoundRect,0.250000X-0.550000X-0.550000X0.550000X-0.550000X0.550000X0.550000X-0.550000X0.550000X0*%
%ADD22C,1.600000*%
%ADD23RoundRect,0.250000X0.350000X0.625000X-0.350000X0.625000X-0.350000X-0.625000X0.350000X-0.625000X0*%
%ADD24RoundRect,0.200000X0.275000X-0.200000X0.275000X0.200000X-0.275000X0.200000X-0.275000X-0.200000X0*%
%ADD25RoundRect,0.136750X0.410250X-1.185250X0.410250X1.185250X-0.410250X1.185250X-0.410250X-1.185250X0*%
%ADD26R,8.800000X5.500000*%
%ADD27RoundRect,0.075000X0.075000X-0.700000X0.075000X0.700000X-0.075000X0.700000X-0.075000X-0.700000X0*%
%ADD28RoundRect,0.075000X0.700000X-0.075000X0.700000X0.075000X-0.700000X0.075000X-0.700000X-0.075000X0*%
%ADD29RoundRect,0.237500X-0.237500X0.250000X-0.237500X-0.250000X0.237500X-0.250000X0.237500X0.250000X0*%
%ADD30RoundRect,0.140000X0.170000X-0.140000X0.170000X0.140000X-0.170000X0.140000X-0.170000X-0.140000X0*%
%ADD31FreePoly0,270.000000*%
%ADD32FreePoly1,270.000000*%
%ADD33FreePoly0,180.000000*%
%ADD34FreePoly1,180.000000*%
%ADD35R,2.000000X0.600000*%
%ADD36RoundRect,0.140000X-0.170000X0.140000X-0.170000X-0.140000X0.170000X-0.140000X0.170000X0.140000X0*%
%ADD37RoundRect,0.250000X0.350000X-0.450000X0.350000X0.450000X-0.350000X0.450000X-0.350000X-0.450000X0*%
%ADD38FreePoly0,90.000000*%
%ADD39FreePoly1,90.000000*%
%ADD40RoundRect,0.102000X-1.512500X-0.762000X1.512500X-0.762000X1.512500X0.762000X-1.512500X0.762000X0*%
%ADD41FreePoly2,0.000000*%
%ADD42R,1.000000X1.500000*%
%ADD43FreePoly3,0.000000*%
G04 APERTURE END LIST*
%TO.C,JP2*%
G36*
X116565000Y-152882000D02*
G01*
X118065000Y-152882000D01*
X118065000Y-153182000D01*
X116565000Y-153182000D01*
X116565000Y-152882000D01*
G37*
%TO.C,J14*%
G36*
X151110000Y-144310000D02*
G01*
X150810000Y-144310000D01*
X150810000Y-145810000D01*
X151110000Y-145810000D01*
X151110000Y-144310000D01*
G37*
%TO.C,J15*%
G36*
X137575000Y-153225000D02*
G01*
X136075000Y-153225000D01*
X136075000Y-152925000D01*
X137575000Y-152925000D01*
X137575000Y-153225000D01*
G37*
%TO.C,JP3*%
G36*
X155575000Y-145675000D02*
G01*
X157075000Y-145675000D01*
X157075000Y-145975000D01*
X155575000Y-145975000D01*
X155575000Y-145675000D01*
G37*
%TO.C,JP1*%
G36*
X147121000Y-154125000D02*
G01*
X148621000Y-154125000D01*
X148621000Y-152625000D01*
X147121000Y-152625000D01*
X147121000Y-154125000D01*
G37*
%TD*%
D10*
%TO.C,REF\u002A\u002A*%
X-98425000Y-9500000D03*
D11*
X-98425000Y-17000000D03*
%TD*%
D12*
%TO.C,C97*%
X123013000Y-39365000D03*
D11*
X123013000Y-46865000D03*
%TD*%
D10*
%TO.C,REF\u002A\u002A*%
X-77900000Y-9500000D03*
D11*
X-77900000Y-17000000D03*
%TD*%
D13*
%TO.C,JP6*%
X19335000Y-156690000D03*
D14*
X19335000Y-154150000D03*
%TD*%
D15*
%TO.C,J5*%
X117675000Y-159600000D03*
D16*
X119675000Y-159600000D03*
X121675000Y-159600000D03*
%TD*%
D10*
%TO.C,REF\u002A\u002A*%
X-118650000Y-9475000D03*
D11*
X-118650000Y-16975000D03*
%TD*%
D15*
%TO.C,J8*%
X101800000Y-159600000D03*
D16*
X103800000Y-159600000D03*
%TD*%
D10*
%TO.C,REF\u002A\u002A*%
X-148975000Y-33377780D03*
D11*
X-148975000Y-25877780D03*
%TD*%
D12*
%TO.C,C96*%
X140563000Y-39365000D03*
D11*
X140563000Y-46865000D03*
%TD*%
D15*
%TO.C,J10*%
X92875000Y-159600000D03*
D16*
X94875000Y-159600000D03*
X96875000Y-159600000D03*
%TD*%
D12*
%TO.C,C99*%
X87834000Y-39365000D03*
D11*
X87834000Y-46865000D03*
%TD*%
D15*
%TO.C,J7*%
X126630000Y-159600000D03*
D16*
X128630000Y-159600000D03*
X130630000Y-159600000D03*
X132630000Y-159600000D03*
X134630000Y-159600000D03*
%TD*%
D15*
%TO.C,J4*%
X92840000Y-153930000D03*
D16*
X94840000Y-153930000D03*
X96840000Y-153930000D03*
X98840000Y-153930000D03*
X100840000Y-153930000D03*
%TD*%
D15*
%TO.C,J6*%
X108750000Y-159600000D03*
D16*
X110750000Y-159600000D03*
X112750000Y-159600000D03*
%TD*%
D10*
%TO.C,REF\u002A\u002A*%
X-128850000Y-33375000D03*
D11*
X-128850000Y-25875000D03*
%TD*%
D17*
%TO.C,J2*%
X154570000Y-142390000D03*
X154570000Y-136610000D03*
D18*
X154050000Y-143820000D03*
D19*
X158250000Y-143820000D03*
D18*
X154050000Y-135180000D03*
D19*
X158250000Y-135180000D03*
%TD*%
D13*
%TO.C,J11*%
X31050000Y-160250000D03*
D14*
X28510000Y-160250000D03*
X25970000Y-160250000D03*
X23430000Y-160250000D03*
X20890000Y-160250000D03*
%TD*%
D10*
%TO.C,REF\u002A\u002A*%
X-88125000Y-33377780D03*
D11*
X-88125000Y-25877780D03*
%TD*%
D20*
%TO.C,C95*%
X149350000Y-61470000D03*
D11*
X149350000Y-53970000D03*
%TD*%
D20*
%TO.C,C89*%
X61569000Y-61470001D03*
D11*
X61569000Y-53970001D03*
%TD*%
D20*
%TO.C,C90*%
X79119000Y-61470001D03*
D11*
X79119000Y-53970001D03*
%TD*%
D20*
%TO.C,C94*%
X131800000Y-61470000D03*
D11*
X131800000Y-53970000D03*
%TD*%
D15*
%TO.C,J3*%
X148496000Y-159600000D03*
D16*
X150496000Y-159600000D03*
X152496000Y-159600000D03*
X154496000Y-159600000D03*
X156496000Y-159600000D03*
X158496000Y-159600000D03*
%TD*%
D12*
%TO.C,C98*%
X105384000Y-39365000D03*
D11*
X105384000Y-46865000D03*
%TD*%
D10*
%TO.C,REF\u002A\u002A*%
X-67800000Y-33402780D03*
D11*
X-67800000Y-25902780D03*
%TD*%
D21*
%TO.C,C74*%
X20411386Y-145575000D03*
X21082323Y-147175000D03*
D22*
X23582323Y-147175000D03*
X24253260Y-148775000D03*
%TD*%
D13*
%TO.C,J11*%
X64930000Y-160250000D03*
D14*
X62390000Y-160250000D03*
X59850000Y-160250000D03*
X57310000Y-160250000D03*
X54770000Y-160250000D03*
%TD*%
D10*
%TO.C,REF\u002A\u002A*%
X-139000000Y-9475000D03*
D11*
X-139000000Y-16975000D03*
%TD*%
D10*
%TO.C,REF\u002A\u002A*%
X-57725000Y-9500000D03*
D11*
X-57725000Y-17000000D03*
%TD*%
D20*
%TO.C,C92*%
X96669000Y-61470001D03*
D11*
X96669000Y-53970001D03*
%TD*%
D12*
%TO.C,C100*%
X70284000Y-39365000D03*
D11*
X70284000Y-46865000D03*
%TD*%
D10*
%TO.C,REF\u002A\u002A*%
X-108475000Y-33402780D03*
D11*
X-108475000Y-25902780D03*
%TD*%
D15*
%TO.C,J9*%
X139586200Y-159600000D03*
D16*
X141586200Y-159600000D03*
X143586200Y-159600000D03*
%TD*%
D23*
%TO.C,J1*%
X122290000Y-141080000D03*
D16*
X120290000Y-141080000D03*
X118290000Y-141080000D03*
X116290000Y-141080000D03*
X114290000Y-141080000D03*
%TD*%
D20*
%TO.C,C93*%
X114219000Y-61470001D03*
D11*
X114219000Y-53970001D03*
%TD*%
D24*
%TO.C,R85*%
X124422000Y-109791000D03*
X124422000Y-108141000D03*
%TD*%
D25*
%TO.C,Q14*%
X77248000Y-68054000D03*
X78448000Y-68054000D03*
X79648000Y-68054000D03*
X80848000Y-68054000D03*
X82048000Y-68054000D03*
X83248000Y-68054000D03*
X84448000Y-68054000D03*
X85648000Y-68054000D03*
X77248000Y-81534000D03*
X78448000Y-81534000D03*
X79648000Y-81534000D03*
X80848000Y-81534000D03*
X82048000Y-81534000D03*
X83248000Y-81534000D03*
X84448000Y-81534000D03*
X85648000Y-81534000D03*
%TD*%
D26*
%TO.C,R21*%
X105930000Y-110750000D03*
X105930000Y-121550000D03*
%TD*%
D25*
%TO.C,Q10*%
X89476000Y-92438000D03*
X90676000Y-92438000D03*
X91876000Y-92438000D03*
X93076000Y-92438000D03*
X94276000Y-92438000D03*
X95476000Y-92438000D03*
X96676000Y-92438000D03*
X97876000Y-92438000D03*
X89476000Y-105918000D03*
X90676000Y-105918000D03*
X91876000Y-105918000D03*
X93076000Y-105918000D03*
X94276000Y-105918000D03*
X95476000Y-105918000D03*
X96676000Y-105918000D03*
X97876000Y-105918000D03*
%TD*%
D24*
%TO.C,R87*%
X147790000Y-109791000D03*
X147790000Y-108141000D03*
%TD*%
D26*
%TO.C,R31*%
X70442000Y-110750000D03*
X70442000Y-121550000D03*
%TD*%
D27*
%TO.C,U1*%
X143196000Y-148931000D03*
X142696000Y-148931000D03*
X142196000Y-148931000D03*
X141696000Y-148931000D03*
X141196000Y-148931000D03*
X140696000Y-148931000D03*
X140196000Y-148931000D03*
X139696000Y-148931000D03*
X139196000Y-148931000D03*
X138696000Y-148931000D03*
X138196000Y-148931000D03*
X137696000Y-148931000D03*
X137196000Y-148931000D03*
X136696000Y-148931000D03*
X136196000Y-148931000D03*
X135696000Y-148931000D03*
D28*
X133771000Y-147006000D03*
X133771000Y-146506000D03*
X133771000Y-146006000D03*
X133771000Y-145506000D03*
X133771000Y-145006000D03*
X133771000Y-144506000D03*
X133771000Y-144006000D03*
X133771000Y-143506000D03*
X133771000Y-143006000D03*
X133771000Y-142506000D03*
X133771000Y-142006000D03*
X133771000Y-141506000D03*
X133771000Y-141006000D03*
X133771000Y-140506000D03*
X133771000Y-140006000D03*
X133771000Y-139506000D03*
D27*
X135696000Y-137581000D03*
X136196000Y-137581000D03*
X136696000Y-137581000D03*
X137196000Y-137581000D03*
X137696000Y-137581000D03*
X138196000Y-137581000D03*
X138696000Y-137581000D03*
X139196000Y-137581000D03*
X139696000Y-137581000D03*
X140196000Y-137581000D03*
X140696000Y-137581000D03*
X141196000Y-137581000D03*
X141696000Y-137581000D03*
X142196000Y-137581000D03*
X142696000Y-137581000D03*
X143196000Y-137581000D03*
D28*
X145121000Y-139506000D03*
X145121000Y-140006000D03*
X145121000Y-140506000D03*
X145121000Y-141006000D03*
X145121000Y-141506000D03*
X145121000Y-142006000D03*
X145121000Y-142506000D03*
X145121000Y-143006000D03*
X145121000Y-143506000D03*
X145121000Y-144006000D03*
X145121000Y-144506000D03*
X145121000Y-145006000D03*
X145121000Y-145506000D03*
X145121000Y-146006000D03*
X145121000Y-146506000D03*
X145121000Y-147006000D03*
%TD*%
D26*
%TO.C,R20*%
X94330000Y-110750000D03*
X94330000Y-121550000D03*
%TD*%
%TO.C,R22*%
X117580000Y-110750000D03*
X117580000Y-121550000D03*
%TD*%
D24*
%TO.C,R89*%
X100584000Y-109791000D03*
X100584000Y-108141000D03*
%TD*%
D29*
%TO.C,R60*%
X87570000Y-76997500D03*
X87570000Y-78822500D03*
%TD*%
D25*
%TO.C,Q8*%
X89476000Y-68054000D03*
X90676000Y-68054000D03*
X91876000Y-68054000D03*
X93076000Y-68054000D03*
X94276000Y-68054000D03*
X95476000Y-68054000D03*
X96676000Y-68054000D03*
X97876000Y-68054000D03*
X89476000Y-81534000D03*
X90676000Y-81534000D03*
X91876000Y-81534000D03*
X93076000Y-81534000D03*
X94276000Y-81534000D03*
X95476000Y-81534000D03*
X96676000Y-81534000D03*
X97876000Y-81534000D03*
%TD*%
%TO.C,Q1*%
X125066000Y-68054000D03*
X126266000Y-68054000D03*
X127466000Y-68054000D03*
X128666000Y-68054000D03*
X129866000Y-68054000D03*
X131066000Y-68054000D03*
X132266000Y-68054000D03*
X133466000Y-68054000D03*
X125066000Y-81534000D03*
X126266000Y-81534000D03*
X127466000Y-81534000D03*
X128666000Y-81534000D03*
X129866000Y-81534000D03*
X131066000Y-81534000D03*
X132266000Y-81534000D03*
X133466000Y-81534000D03*
%TD*%
D30*
%TO.C,C12*%
X138610000Y-153770000D03*
X138610000Y-152810000D03*
%TD*%
D24*
%TO.C,R92*%
X65056000Y-109791000D03*
X65056000Y-108141000D03*
%TD*%
D31*
%TO.C,JP2*%
X117315000Y-152382000D03*
D32*
X117315000Y-153682000D03*
%TD*%
D33*
%TO.C,J14*%
X151610000Y-145060000D03*
D34*
X150310000Y-145060000D03*
%TD*%
D24*
%TO.C,R86*%
X136106000Y-109791000D03*
X136106000Y-108141000D03*
%TD*%
D26*
%TO.C,R13*%
X153162000Y-110750000D03*
X153162000Y-121550000D03*
%TD*%
%TO.C,R12*%
X141512000Y-110750000D03*
X141512000Y-121550000D03*
%TD*%
D25*
%TO.C,Q11*%
X101126000Y-92438000D03*
X102326000Y-92438000D03*
X103526000Y-92438000D03*
X104726000Y-92438000D03*
X105926000Y-92438000D03*
X107126000Y-92438000D03*
X108326000Y-92438000D03*
X109526000Y-92438000D03*
X101126000Y-105918000D03*
X102326000Y-105918000D03*
X103526000Y-105918000D03*
X104726000Y-105918000D03*
X105926000Y-105918000D03*
X107126000Y-105918000D03*
X108326000Y-105918000D03*
X109526000Y-105918000D03*
%TD*%
%TO.C,Q3*%
X148366000Y-68054000D03*
X149566000Y-68054000D03*
X150766000Y-68054000D03*
X151966000Y-68054000D03*
X153166000Y-68054000D03*
X154366000Y-68054000D03*
X155566000Y-68054000D03*
X156766000Y-68054000D03*
X148366000Y-81534000D03*
X149566000Y-81534000D03*
X150766000Y-81534000D03*
X151966000Y-81534000D03*
X153166000Y-81534000D03*
X154366000Y-81534000D03*
X155566000Y-81534000D03*
X156766000Y-81534000D03*
%TD*%
%TO.C,Q12*%
X112776000Y-92438000D03*
X113976000Y-92438000D03*
X115176000Y-92438000D03*
X116376000Y-92438000D03*
X117576000Y-92438000D03*
X118776000Y-92438000D03*
X119976000Y-92438000D03*
X121176000Y-92438000D03*
X112776000Y-105918000D03*
X113976000Y-105918000D03*
X115176000Y-105918000D03*
X116376000Y-105918000D03*
X117576000Y-105918000D03*
X118776000Y-105918000D03*
X119976000Y-105918000D03*
X121176000Y-105918000D03*
%TD*%
%TO.C,Q18*%
X77248000Y-92438000D03*
X78448000Y-92438000D03*
X79648000Y-92438000D03*
X80848000Y-92438000D03*
X82048000Y-92438000D03*
X83248000Y-92438000D03*
X84448000Y-92438000D03*
X85648000Y-92438000D03*
X77248000Y-105918000D03*
X78448000Y-105918000D03*
X79648000Y-105918000D03*
X80848000Y-105918000D03*
X82048000Y-105918000D03*
X83248000Y-105918000D03*
X84448000Y-105918000D03*
X85648000Y-105918000D03*
%TD*%
D24*
%TO.C,R88*%
X88900000Y-109791000D03*
X88900000Y-108141000D03*
%TD*%
D25*
%TO.C,Q7*%
X112776000Y-68054000D03*
X113976000Y-68054000D03*
X115176000Y-68054000D03*
X116376000Y-68054000D03*
X117576000Y-68054000D03*
X118776000Y-68054000D03*
X119976000Y-68054000D03*
X121176000Y-68054000D03*
X112776000Y-81534000D03*
X113976000Y-81534000D03*
X115176000Y-81534000D03*
X116376000Y-81534000D03*
X117576000Y-81534000D03*
X118776000Y-81534000D03*
X119976000Y-81534000D03*
X121176000Y-81534000D03*
%TD*%
D24*
%TO.C,R93*%
X76740000Y-109791000D03*
X76740000Y-108141000D03*
%TD*%
D25*
%TO.C,Q2*%
X136716000Y-68054000D03*
X137916000Y-68054000D03*
X139116000Y-68054000D03*
X140316000Y-68054000D03*
X141516000Y-68054000D03*
X142716000Y-68054000D03*
X143916000Y-68054000D03*
X145116000Y-68054000D03*
X136716000Y-81534000D03*
X137916000Y-81534000D03*
X139116000Y-81534000D03*
X140316000Y-81534000D03*
X141516000Y-81534000D03*
X142716000Y-81534000D03*
X143916000Y-81534000D03*
X145116000Y-81534000D03*
%TD*%
%TO.C,Q6*%
X148366000Y-92438000D03*
X149566000Y-92438000D03*
X150766000Y-92438000D03*
X151966000Y-92438000D03*
X153166000Y-92438000D03*
X154366000Y-92438000D03*
X155566000Y-92438000D03*
X156766000Y-92438000D03*
X148366000Y-105918000D03*
X149566000Y-105918000D03*
X150766000Y-105918000D03*
X151966000Y-105918000D03*
X153166000Y-105918000D03*
X154366000Y-105918000D03*
X155566000Y-105918000D03*
X156766000Y-105918000D03*
%TD*%
D35*
%TO.C,U25*%
X28640000Y-144597500D03*
X28640000Y-143327500D03*
X28640000Y-140787500D03*
X33540000Y-140787500D03*
X33540000Y-142057500D03*
X33540000Y-143327500D03*
X33540000Y-144597500D03*
%TD*%
D36*
%TO.C,C11*%
X143256000Y-152682000D03*
X143256000Y-153642000D03*
%TD*%
D37*
%TO.C,Y1*%
X140120000Y-154262000D03*
X140120000Y-152062000D03*
X141820000Y-152062000D03*
X141820000Y-154262000D03*
%TD*%
D26*
%TO.C,R11*%
X129862000Y-110750000D03*
X129862000Y-121550000D03*
%TD*%
D24*
%TO.C,R90*%
X112268000Y-109791000D03*
X112268000Y-108141000D03*
%TD*%
D25*
%TO.C,Q5*%
X136716000Y-92438000D03*
X137916000Y-92438000D03*
X139116000Y-92438000D03*
X140316000Y-92438000D03*
X141516000Y-92438000D03*
X142716000Y-92438000D03*
X143916000Y-92438000D03*
X145116000Y-92438000D03*
X136716000Y-105918000D03*
X137916000Y-105918000D03*
X139116000Y-105918000D03*
X140316000Y-105918000D03*
X141516000Y-105918000D03*
X142716000Y-105918000D03*
X143916000Y-105918000D03*
X145116000Y-105918000D03*
%TD*%
D26*
%TO.C,R32*%
X82042000Y-110750000D03*
X82042000Y-121550000D03*
%TD*%
D25*
%TO.C,Q16*%
X53948000Y-92438000D03*
X55148000Y-92438000D03*
X56348000Y-92438000D03*
X57548000Y-92438000D03*
X58748000Y-92438000D03*
X59948000Y-92438000D03*
X61148000Y-92438000D03*
X62348000Y-92438000D03*
X53948000Y-105918000D03*
X55148000Y-105918000D03*
X56348000Y-105918000D03*
X57548000Y-105918000D03*
X58748000Y-105918000D03*
X59948000Y-105918000D03*
X61148000Y-105918000D03*
X62348000Y-105918000D03*
%TD*%
D26*
%TO.C,R30*%
X58792000Y-110750000D03*
X58792000Y-121550000D03*
%TD*%
D38*
%TO.C,J15*%
X136825000Y-153725000D03*
D39*
X136825000Y-152425000D03*
%TD*%
D25*
%TO.C,Q13*%
X65598000Y-68054000D03*
X66798000Y-68054000D03*
X67998000Y-68054000D03*
X69198000Y-68054000D03*
X70398000Y-68054000D03*
X71598000Y-68054000D03*
X72798000Y-68054000D03*
X73998000Y-68054000D03*
X65598000Y-81534000D03*
X66798000Y-81534000D03*
X67998000Y-81534000D03*
X69198000Y-81534000D03*
X70398000Y-81534000D03*
X71598000Y-81534000D03*
X72798000Y-81534000D03*
X73998000Y-81534000D03*
%TD*%
D31*
%TO.C,JP3*%
X156325000Y-145175000D03*
D32*
X156325000Y-146475000D03*
%TD*%
D25*
%TO.C,Q9*%
X101126000Y-68054000D03*
X102326000Y-68054000D03*
X103526000Y-68054000D03*
X104726000Y-68054000D03*
X105926000Y-68054000D03*
X107126000Y-68054000D03*
X108326000Y-68054000D03*
X109526000Y-68054000D03*
X101126000Y-81534000D03*
X102326000Y-81534000D03*
X103526000Y-81534000D03*
X104726000Y-81534000D03*
X105926000Y-81534000D03*
X107126000Y-81534000D03*
X108326000Y-81534000D03*
X109526000Y-81534000D03*
%TD*%
D40*
%TO.C,U18*%
X86160000Y-141695000D03*
X86160000Y-144235000D03*
X86160000Y-146775000D03*
X86160000Y-149315000D03*
X86160000Y-154395000D03*
X86160000Y-151855000D03*
X70190000Y-159475000D03*
X86160000Y-159475000D03*
X70190000Y-156935000D03*
X70190000Y-154395000D03*
X70190000Y-151855000D03*
X70190000Y-149315000D03*
X70190000Y-146775000D03*
X70190000Y-144235000D03*
X70190000Y-141695000D03*
X86160000Y-156935000D03*
%TD*%
D41*
%TO.C,JP1*%
X146571000Y-153375000D03*
D42*
X147871000Y-153375000D03*
D43*
X149171000Y-153375000D03*
%TD*%
D25*
%TO.C,Q17*%
X65598000Y-92438000D03*
X66798000Y-92438000D03*
X67998000Y-92438000D03*
X69198000Y-92438000D03*
X70398000Y-92438000D03*
X71598000Y-92438000D03*
X72798000Y-92438000D03*
X73998000Y-92438000D03*
X65598000Y-105918000D03*
X66798000Y-105918000D03*
X67998000Y-105918000D03*
X69198000Y-105918000D03*
X70398000Y-105918000D03*
X71598000Y-105918000D03*
X72798000Y-105918000D03*
X73998000Y-105918000D03*
%TD*%
D29*
%TO.C,R58*%
X87570000Y-102977500D03*
X87570000Y-104802500D03*
%TD*%
D25*
%TO.C,Q15*%
X53948000Y-68054000D03*
X55148000Y-68054000D03*
X56348000Y-68054000D03*
X57548000Y-68054000D03*
X58748000Y-68054000D03*
X59948000Y-68054000D03*
X61148000Y-68054000D03*
X62348000Y-68054000D03*
X53948000Y-81534000D03*
X55148000Y-81534000D03*
X56348000Y-81534000D03*
X57548000Y-81534000D03*
X58748000Y-81534000D03*
X59948000Y-81534000D03*
X61148000Y-81534000D03*
X62348000Y-81534000D03*
%TD*%
D29*
%TO.C,R59*%
X123110000Y-103427500D03*
X123110000Y-105252500D03*
%TD*%
D25*
%TO.C,Q4*%
X125066000Y-92438000D03*
X126266000Y-92438000D03*
X127466000Y-92438000D03*
X128666000Y-92438000D03*
X129866000Y-92438000D03*
X131066000Y-92438000D03*
X132266000Y-92438000D03*
X133466000Y-92438000D03*
X125066000Y-105918000D03*
X126266000Y-105918000D03*
X127466000Y-105918000D03*
X128666000Y-105918000D03*
X129866000Y-105918000D03*
X131066000Y-105918000D03*
X132266000Y-105918000D03*
X133466000Y-105918000D03*
%TD*%
D24*
%TO.C,R91*%
X53372000Y-109791000D03*
X53372000Y-108141000D03*
%TD*%
G36*
X58354361Y-37049685D02*
G01*
X58400116Y-37102489D01*
X58411322Y-37153891D01*
X58429450Y-57784999D01*
X58429451Y-57785000D01*
X152140000Y-57785000D01*
X152140000Y-37299210D01*
X152159685Y-37232171D01*
X152212489Y-37186416D01*
X152263695Y-37175210D01*
X160140545Y-37155809D01*
X160207632Y-37175329D01*
X160253517Y-37228020D01*
X160264850Y-37279872D01*
X160250063Y-66426063D01*
X160230344Y-66493092D01*
X160177517Y-66538820D01*
X160126063Y-66550000D01*
X50724000Y-66550000D01*
X50656961Y-66530315D01*
X50611206Y-66477511D01*
X50600000Y-66426000D01*
X50600000Y-37154000D01*
X50619685Y-37086961D01*
X50672489Y-37041206D01*
X50724000Y-37030000D01*
X58287322Y-37030000D01*
X58354361Y-37049685D01*
G37*
G36*
X157809039Y-82819685D02*
G01*
X157854794Y-82872489D01*
X157866000Y-82924000D01*
X157866000Y-91036000D01*
X157846315Y-91103039D01*
X157793511Y-91148794D01*
X157742000Y-91160000D01*
X124090000Y-91160000D01*
X124022961Y-91140315D01*
X123977206Y-91087511D01*
X123966000Y-91036000D01*
X123966000Y-82924000D01*
X123985685Y-82856961D01*
X124038489Y-82811206D01*
X124090000Y-82800000D01*
X157742000Y-82800000D01*
X157809039Y-82819685D01*
G37*
G36*
X158343313Y-124309685D02*
G01*
X158389068Y-124362489D01*
X158400274Y-124414132D01*
X158390527Y-133546078D01*
X158370771Y-133613097D01*
X158317918Y-133658795D01*
X158266563Y-133669946D01*
X53634036Y-133700036D01*
X53566991Y-133680371D01*
X53521220Y-133627580D01*
X53510000Y-133576036D01*
X53510000Y-124414000D01*
X53529685Y-124346961D01*
X53582489Y-124301206D01*
X53634000Y-124290000D01*
X158276274Y-124290000D01*
X158343313Y-124309685D01*
G37*
G36*
X122213039Y-82819685D02*
G01*
X122258794Y-82872489D01*
X122270000Y-82924000D01*
X122270000Y-91036000D01*
X122250315Y-91103039D01*
X122197511Y-91148794D01*
X122146000Y-91160000D01*
X88494000Y-91160000D01*
X88426961Y-91140315D01*
X88381206Y-91087511D01*
X88370000Y-91036000D01*
X88370000Y-82924000D01*
X88389685Y-82856961D01*
X88442489Y-82811206D01*
X88494000Y-82800000D01*
X122146000Y-82800000D01*
X122213039Y-82819685D01*
G37*
G36*
X86693039Y-82819685D02*
G01*
X86738794Y-82872489D01*
X86750000Y-82924000D01*
X86750000Y-91036000D01*
X86730315Y-91103039D01*
X86677511Y-91148794D01*
X86626000Y-91160000D01*
X52974000Y-91160000D01*
X52906961Y-91140315D01*
X52861206Y-91087511D01*
X52850000Y-91036000D01*
X52850000Y-82924000D01*
X52869685Y-82856961D01*
X52922489Y-82811206D01*
X52974000Y-82800000D01*
X86626000Y-82800000D01*
X86693039Y-82819685D01*
G37*
M02*
