M48
; DRILL file {KiCad 9.0.4} date 2026-03-14T17:49:08+0100
; FORMAT={-:-/ absolute / metric / decimal}
; #@! TF.CreationDate,2026-03-14T17:49:08+01:00
; #@! TF.GenerationSoftware,Kicad,Pcbnew,9.0.4
; #@! TF.FileFunction,Plated,1,6,PTH
FMAT,2
METRIC
; #@! TA.AperFunction,Plated,PTH,ViaDrill
T1C0.300
; #@! TA.AperFunction,Plated,PTH,ComponentDrill
T2C0.300
; #@! TA.AperFunction,Plated,PTH,ComponentDrill
T3C0.600
; #@! TA.AperFunction,Plated,PTH,ComponentDrill
T4C0.750
; #@! TA.AperFunction,Plated,PTH,ComponentDrill
T5C0.800
; #@! TA.AperFunction,Plated,PTH,ComponentDrill
T6C1.000
; #@! TA.AperFunction,Plated,PTH,ComponentDrill
T7C1.200
; #@! TA.AperFunction,Plated,PTH,ViaDrill
T8C6.000
; #@! TA.AperFunction,Plated,PTH,ViaDrill
T9C6.050
%
G90
G05
T1
X20.94Y-139.95
X28.327Y-148.325
X28.69Y-140.825
X29.965Y-143.375
X30.365Y-153.9
X33.54Y-140.787
X33.54Y-142.075
X33.54Y-143.325
X33.54Y-144.597
X36.815Y-159.375
X51.475Y-123.05
X51.8Y-160.775
X52.102Y-82.359
X52.21Y-149.19
X52.21Y-149.82
X52.845Y-149.19
X52.845Y-149.82
X53.125Y-153.925
X53.48Y-149.19
X53.48Y-149.82
X54.007Y-80.09
X54.05Y-106.0
X54.115Y-149.19
X54.115Y-149.82
X55.714Y-69.81
X55.774Y-74.84
X55.774Y-97.16
X55.774Y-102.35
X56.73Y-69.81
X56.79Y-74.84
X56.79Y-97.16
X56.79Y-102.35
X56.827Y-144.04
X57.575Y-154.075
X57.746Y-69.81
X57.806Y-74.84
X57.806Y-97.16
X57.806Y-102.35
X60.175Y-155.85
X60.575Y-148.79
X60.575Y-149.42
X60.625Y-151.312
X61.21Y-148.79
X61.21Y-149.42
X61.845Y-148.79
X61.845Y-149.42
X62.48Y-148.79
X62.48Y-149.42
X62.644Y-69.81
X62.704Y-74.84
X62.704Y-97.16
X62.704Y-102.35
X62.72Y-137.76
X62.72Y-138.39
X63.115Y-148.79
X63.115Y-149.42
X63.355Y-137.76
X63.355Y-138.39
X63.66Y-69.81
X63.72Y-74.84
X63.72Y-97.16
X63.72Y-102.35
X63.72Y-117.27
X63.75Y-148.79
X63.75Y-149.42
X63.756Y-82.359
X63.99Y-137.76
X63.99Y-138.39
X64.012Y-112.5
X64.125Y-155.6
X64.56Y-116.84
X64.625Y-137.76
X64.625Y-138.39
X64.676Y-69.81
X64.736Y-74.84
X64.736Y-97.16
X64.736Y-102.35
X65.26Y-137.76
X65.26Y-138.39
X65.3Y-148.525
X65.691Y-80.09
X65.725Y-106.0
X65.895Y-137.76
X65.895Y-138.39
X65.95Y-117.46
X66.287Y-151.925
X66.475Y-148.45
X66.485Y-147.815
X66.515Y-137.76
X66.515Y-138.39
X67.15Y-137.76
X67.15Y-138.39
X67.17Y-135.195
X67.17Y-135.83
X67.17Y-136.465
X67.17Y-137.1
X67.275Y-148.45
X67.285Y-147.815
X67.785Y-137.76
X67.785Y-138.39
X67.8Y-135.195
X67.8Y-135.83
X67.8Y-136.465
X67.8Y-137.1
X68.075Y-160.1
X68.42Y-137.76
X68.42Y-138.39
X68.43Y-135.195
X68.43Y-135.83
X68.43Y-136.465
X68.43Y-137.1
X68.55Y-117.39
X69.27Y-137.67
X69.27Y-138.3
X69.4Y-114.175
X69.594Y-69.81
X69.654Y-74.84
X69.654Y-97.16
X69.654Y-102.35
X69.905Y-137.67
X69.905Y-138.3
X70.54Y-137.67
X70.54Y-138.3
X70.55Y-134.975
X70.61Y-69.81
X70.67Y-74.84
X70.67Y-97.16
X70.67Y-102.35
X71.175Y-137.67
X71.175Y-138.3
X71.626Y-69.81
X71.686Y-74.84
X71.686Y-97.16
X71.686Y-102.35
X71.75Y-140.0
X71.81Y-137.67
X71.81Y-138.3
X72.7Y-143.35
X73.43Y-153.59
X73.59Y-117.38
X73.63Y-159.79
X74.16Y-152.34
X75.47Y-82.359
X75.93Y-147.74
X76.025Y-142.45
X76.5Y-154.425
X76.524Y-69.81
X76.575Y-153.8
X76.584Y-74.84
X76.584Y-97.16
X76.584Y-102.35
X76.625Y-140.25
X76.775Y-152.925
X76.798Y-155.677
X76.875Y-143.375
X77.0Y-146.2
X77.142Y-111.35
X77.15Y-149.55
X77.248Y-80.09
X77.248Y-105.918
X77.26Y-159.76
X77.26Y-160.39
X77.388Y-156.575
X77.4Y-153.775
X77.4Y-154.45
X77.54Y-69.81
X77.6Y-74.84
X77.6Y-97.16
X77.6Y-102.35
X77.75Y-134.5
X77.75Y-146.2
X77.895Y-159.76
X77.895Y-160.39
X78.05Y-149.525
X78.425Y-146.225
X78.53Y-159.76
X78.53Y-160.39
X78.556Y-69.81
X78.616Y-74.84
X78.616Y-97.16
X78.616Y-102.35
X78.675Y-154.75
X78.675Y-156.75
X79.125Y-146.225
X79.825Y-146.225
X79.925Y-139.95
X79.95Y-141.0
X79.975Y-141.9
X80.56Y-159.78
X80.56Y-160.41
X80.575Y-156.75
X80.715Y-152.695
X80.715Y-153.325
X81.138Y-154.212
X81.195Y-159.78
X81.195Y-160.41
X81.35Y-152.695
X81.35Y-153.325
X81.83Y-159.78
X81.83Y-160.41
X81.985Y-152.695
X81.985Y-153.325
X82.0Y-135.275
X82.2Y-144.875
X82.5Y-145.875
X82.85Y-141.85
X82.875Y-141.125
X82.885Y-115.729
X82.885Y-116.579
X82.9Y-139.625
X82.9Y-140.325
X83.175Y-143.975
X83.175Y-146.4
X83.5Y-145.775
X83.524Y-69.81
X83.584Y-74.84
X83.59Y-156.57
X83.75Y-128.525
X83.75Y-129.2
X83.75Y-129.95
X83.75Y-130.625
X83.775Y-143.525
X83.875Y-145.1
X84.125Y-135.425
X84.25Y-137.52
X84.54Y-69.81
X84.6Y-74.84
X84.75Y-135.375
X84.988Y-157.612
X85.0Y-138.01
X85.475Y-135.425
X85.556Y-69.81
X85.616Y-74.84
X85.75Y-137.54
X85.75Y-161.749
X86.05Y-135.425
X86.16Y-157.133
X87.07Y-161.749
X87.57Y-76.94
X87.58Y-78.83
X87.58Y-102.977
X87.58Y-104.79
X87.58Y-111.5
X87.6Y-82.359
X87.725Y-158.1
X88.0Y-135.275
X88.131Y-161.749
X88.2Y-121.175
X88.725Y-110.925
X88.875Y-148.675
X89.0Y-148.025
X89.075Y-139.725
X89.1Y-149.7
X89.43Y-122.05
X89.475Y-106.0
X89.535Y-80.09
X89.55Y-148.2
X89.675Y-148.975
X89.75Y-139.725
X90.25Y-148.25
X90.33Y-149.73
X90.45Y-139.725
X90.454Y-69.81
X90.5Y-148.85
X90.514Y-74.84
X90.514Y-97.16
X90.514Y-102.35
X91.0Y-135.1
X91.0Y-138.4
X91.125Y-139.725
X91.47Y-69.81
X91.47Y-150.8
X91.53Y-74.84
X91.53Y-97.16
X91.53Y-102.35
X92.42Y-150.99
X92.486Y-69.81
X92.546Y-74.84
X92.546Y-97.16
X92.546Y-102.35
X94.07Y-147.65
X94.07Y-148.285
X94.07Y-148.92
X94.7Y-147.65
X94.7Y-148.285
X94.7Y-148.92
X94.85Y-145.675
X95.85Y-150.865
X97.404Y-69.81
X97.464Y-74.84
X97.464Y-97.16
X97.464Y-102.35
X97.602Y-143.764
X98.42Y-69.81
X98.48Y-74.84
X98.48Y-97.16
X98.48Y-102.35
X98.725Y-137.375
X99.06Y-116.067
X99.314Y-82.359
X99.36Y-114.5
X99.436Y-69.81
X99.496Y-74.84
X99.496Y-97.16
X99.496Y-102.35
X99.5Y-112.55
X99.625Y-115.5
X100.525Y-141.919
X100.56Y-134.98
X101.125Y-106.0
X101.219Y-80.09
X101.58Y-143.73
X101.825Y-117.425
X102.0Y-137.375
X102.0Y-139.47
X102.0Y-141.919
X102.08Y-144.78
X102.875Y-148.71
X102.875Y-149.34
X103.152Y-144.78
X103.51Y-148.71
X103.51Y-149.34
X103.525Y-141.919
X104.02Y-117.48
X104.145Y-148.71
X104.145Y-149.34
X104.334Y-69.81
X104.394Y-74.84
X104.394Y-97.16
X104.394Y-102.35
X104.59Y-143.16
X104.772Y-153.183
X104.825Y-114.05
X104.989Y-139.476
X105.0Y-141.9
X105.225Y-134.45
X105.35Y-69.81
X105.4Y-137.45
X105.41Y-74.84
X105.41Y-97.16
X105.41Y-102.35
X106.0Y-134.975
X106.366Y-69.81
X106.426Y-74.84
X106.426Y-97.16
X106.426Y-102.35
X106.725Y-137.4
X106.95Y-135.55
X107.1Y-134.425
X108.125Y-128.575
X108.125Y-129.25
X108.125Y-130.0
X108.125Y-130.675
X108.36Y-152.96
X108.36Y-153.595
X108.36Y-154.23
X108.375Y-141.91
X108.41Y-147.76
X108.41Y-148.66
X108.99Y-152.96
X108.99Y-153.595
X108.99Y-154.23
X109.02Y-141.91
X109.16Y-117.44
X110.071Y-136.246
X110.125Y-139.475
X110.2Y-136.975
X110.37Y-154.04
X110.9Y-146.9
X110.998Y-82.359
X111.011Y-144.601
X111.125Y-134.925
X111.324Y-69.84
X111.384Y-74.87
X111.384Y-97.19
X111.384Y-102.38
X111.68Y-153.19
X111.68Y-153.825
X111.68Y-154.46
X111.85Y-156.5
X112.31Y-153.19
X112.31Y-153.825
X112.31Y-154.46
X112.34Y-69.84
X112.4Y-74.87
X112.4Y-97.19
X112.4Y-102.38
X112.45Y-134.625
X112.525Y-146.8
X112.68Y-111.5
X112.776Y-80.09
X112.776Y-105.999
X113.15Y-134.4
X113.356Y-69.84
X113.416Y-74.87
X113.416Y-97.19
X113.416Y-102.38
X114.006Y-136.99
X114.38Y-150.44
X114.45Y-143.82
X115.21Y-156.39
X115.75Y-153.05
X115.9Y-150.425
X116.0Y-132.85
X116.01Y-132.14
X117.425Y-150.425
X117.69Y-158.08
X118.254Y-69.84
X118.314Y-74.87
X118.42Y-115.765
X118.42Y-116.615
X118.71Y-149.99
X118.725Y-146.127
X119.27Y-69.84
X119.33Y-74.87
X119.65Y-154.18
X120.286Y-69.84
X120.346Y-74.87
X120.525Y-134.775
X120.83Y-153.5
X120.83Y-154.135
X120.83Y-154.77
X121.14Y-156.6
X121.21Y-143.293
X121.403Y-146.057
X121.46Y-153.5
X121.46Y-154.135
X121.46Y-154.77
X122.094Y-147.075
X122.975Y-146.26
X123.025Y-131.925
X123.11Y-103.42
X123.152Y-82.359
X123.612Y-147.125
X124.1Y-111.55
X124.175Y-137.573
X124.51Y-149.79
X124.75Y-134.575
X124.75Y-135.45
X124.75Y-150.766
X125.057Y-80.09
X125.066Y-105.918
X125.142Y-147.075
X125.204Y-69.84
X125.264Y-74.87
X125.264Y-97.19
X125.264Y-102.38
X125.35Y-136.15
X125.925Y-146.075
X126.22Y-69.84
X126.28Y-74.87
X126.28Y-97.19
X126.28Y-102.38
X126.425Y-116.0
X126.66Y-147.125
X126.795Y-154.432
X126.829Y-136.38
X126.835Y-143.105
X127.236Y-69.84
X127.296Y-74.87
X127.296Y-97.19
X127.296Y-102.38
X127.55Y-141.243
X127.679Y-136.38
X127.76Y-146.73
X127.775Y-156.125
X127.902Y-150.038
X128.38Y-153.551
X128.44Y-140.816
X128.52Y-146.04
X128.575Y-155.325
X128.58Y-149.11
X128.593Y-147.624
X128.66Y-150.52
X128.875Y-134.675
X129.63Y-137.05
X129.65Y-143.041
X129.76Y-135.45
X129.78Y-136.14
X130.3Y-130.85
X130.3Y-131.7
X130.3Y-132.6
X130.357Y-138.454
X130.558Y-147.465
X131.186Y-146.525
X131.441Y-148.466
X131.54Y-140.04
X131.99Y-150.0
X132.134Y-69.84
X132.194Y-74.87
X132.194Y-97.19
X132.194Y-102.38
X132.262Y-138.481
X132.35Y-153.038
X132.42Y-135.29
X132.43Y-146.48
X132.58Y-136.49
X132.6Y-139.99
X133.15Y-69.84
X133.21Y-74.87
X133.21Y-97.19
X133.21Y-102.38
X133.43Y-150.12
X133.466Y-151.11
X133.55Y-155.38
X134.166Y-69.84
X134.226Y-74.87
X134.226Y-97.19
X134.226Y-102.38
X134.37Y-149.22
X134.426Y-151.11
X134.52Y-117.99
X134.65Y-116.94
X134.703Y-136.0
X134.836Y-82.359
X134.99Y-147.65
X135.046Y-144.579
X135.082Y-112.55
X135.366Y-145.871
X135.475Y-150.325
X135.553Y-136.0
X135.835Y-147.268
X136.1Y-126.05
X136.1Y-130.925
X136.105Y-130.166
X136.2Y-155.25
X136.25Y-146.11
X136.475Y-135.325
X136.725Y-106.0
X136.741Y-80.09
X136.83Y-150.897
X137.075Y-152.5
X137.11Y-117.05
X137.4Y-150.194
X137.458Y-147.5
X137.49Y-134.47
X138.121Y-135.673
X138.4Y-147.55
X138.44Y-134.39
X138.481Y-150.841
X138.621Y-152.676
X139.132Y-136.25
X139.134Y-69.84
X139.194Y-74.87
X139.194Y-97.19
X139.194Y-102.38
X139.2Y-147.36
X139.362Y-142.627
X139.57Y-117.19
X139.573Y-134.53
X139.634Y-144.668
X139.748Y-152.686
X139.827Y-139.89
X139.874Y-156.274
X140.12Y-152.062
X140.15Y-69.84
X140.189Y-138.856
X140.21Y-74.87
X140.21Y-97.19
X140.21Y-102.38
X140.225Y-134.993
X140.425Y-114.175
X140.5Y-147.081
X140.663Y-150.806
X140.75Y-142.19
X140.78Y-135.69
X140.843Y-144.333
X140.877Y-145.033
X140.953Y-141.083
X140.985Y-146.15
X141.166Y-69.84
X141.226Y-74.87
X141.226Y-97.19
X141.226Y-102.38
X141.61Y-134.3
X142.113Y-146.07
X142.113Y-147.082
X142.301Y-143.782
X142.43Y-155.35
X142.52Y-134.29
X142.55Y-153.3
X142.68Y-145.175
X142.837Y-144.376
X142.85Y-142.96
X142.89Y-151.29
X142.9Y-147.48
X143.21Y-156.22
X143.25Y-141.01
X143.49Y-134.28
X143.71Y-146.18
X143.75Y-145.34
X144.173Y-147.864
X144.316Y-154.261
X144.56Y-136.552
X144.666Y-148.96
X144.71Y-151.29
X144.75Y-117.38
X144.75Y-134.49
X144.96Y-147.72
X145.402Y-137.03
X145.443Y-156.208
X146.0Y-134.529
X146.064Y-69.84
X146.073Y-138.478
X146.124Y-74.87
X146.124Y-97.19
X146.124Y-102.38
X146.32Y-146.382
X146.52Y-82.359
X146.571Y-153.375
X146.64Y-154.89
X146.81Y-157.09
X146.84Y-144.094
X146.945Y-137.283
X147.08Y-69.84
X147.13Y-134.5
X147.14Y-74.87
X147.14Y-97.19
X147.14Y-102.38
X147.17Y-142.62
X147.667Y-138.963
X147.871Y-153.375
X147.948Y-148.257
X148.015Y-117.62
X148.09Y-146.07
X148.096Y-69.84
X148.156Y-74.87
X148.156Y-97.19
X148.156Y-102.38
X148.262Y-111.475
X148.382Y-139.321
X148.425Y-80.09
X148.425Y-106.0
X148.595Y-141.668
X148.6Y-149.32
X148.62Y-142.6
X148.65Y-117.62
X148.65Y-138.478
X148.667Y-147.905
X148.975Y-137.4
X149.075Y-134.45
X149.12Y-144.26
X149.2Y-157.73
X149.44Y-151.28
X149.61Y-146.707
X149.64Y-154.7
X149.653Y-139.803
X149.765Y-140.596
X149.811Y-142.49
X149.814Y-141.394
X149.825Y-145.006
X150.003Y-137.88
X150.507Y-151.537
X150.9Y-138.76
X151.15Y-147.26
X151.45Y-144.4
X151.667Y-138.435
X151.667Y-139.285
X153.014Y-69.84
X153.074Y-74.87
X153.171Y-149.275
X153.171Y-151.175
X153.211Y-115.719
X153.211Y-116.569
X153.45Y-141.9
X153.78Y-146.04
X153.81Y-147.01
X154.03Y-69.84
X154.09Y-74.87
X154.925Y-137.65
X155.046Y-69.84
X155.106Y-74.87
X155.446Y-149.275
X155.446Y-151.175
X156.25Y-137.125
X156.48Y-150.22
X157.775Y-147.55
X158.225Y-145.3
X158.69Y-154.14
X158.71Y-155.68
X159.11Y-147.89
T2
X74.2Y-134.855
X74.2Y-135.605
X74.2Y-136.355
T4
X92.84Y-153.93
X92.875Y-159.6
X94.84Y-153.93
X94.875Y-159.6
X96.84Y-153.93
X96.875Y-159.6
X98.84Y-153.93
X100.84Y-153.93
X101.8Y-159.6
X103.8Y-159.6
X108.75Y-159.6
X110.75Y-159.6
X112.75Y-159.6
X114.29Y-141.08
X116.29Y-141.08
X117.675Y-159.6
X118.29Y-141.08
X119.675Y-159.6
X120.29Y-141.08
X121.675Y-159.6
X122.29Y-141.08
X126.63Y-159.6
X128.63Y-159.6
X130.63Y-159.6
X132.63Y-159.6
X134.63Y-159.6
X139.586Y-159.6
X141.586Y-159.6
X143.586Y-159.6
X148.496Y-159.6
X150.496Y-159.6
X152.496Y-159.6
X154.496Y-159.6
X156.496Y-159.6
X158.496Y-159.6
T5
X20.411Y-145.575
X21.082Y-147.175
X23.582Y-147.175
X24.253Y-148.775
T6
X19.335Y-154.15
X19.335Y-156.69
X20.89Y-160.25
X23.43Y-160.25
X25.97Y-160.25
X28.51Y-160.25
X31.05Y-160.25
X54.77Y-160.25
X57.31Y-160.25
X59.85Y-160.25
X62.39Y-160.25
X64.93Y-160.25
T7
X-148.975Y-25.878
X-148.975Y-33.378
X-139.0Y-9.475
X-139.0Y-16.975
X-128.85Y-25.875
X-128.85Y-33.375
X-118.65Y-9.475
X-118.65Y-16.975
X-108.475Y-25.903
X-108.475Y-33.403
X-98.425Y-9.5
X-98.425Y-17.0
X-88.125Y-25.878
X-88.125Y-33.378
X-77.9Y-9.5
X-77.9Y-17.0
X-67.8Y-25.903
X-67.8Y-33.403
X-57.725Y-9.5
X-57.725Y-17.0
X61.569Y-53.97
X61.569Y-61.47
X70.284Y-39.365
X70.284Y-46.865
X79.119Y-53.97
X79.119Y-61.47
X87.834Y-39.365
X87.834Y-46.865
X96.669Y-53.97
X96.669Y-61.47
X105.384Y-39.365
X105.384Y-46.865
X114.219Y-53.97
X114.219Y-61.47
X123.013Y-39.365
X123.013Y-46.865
X131.8Y-53.97
X131.8Y-61.47
X140.563Y-39.365
X140.563Y-46.865
X149.35Y-53.97
X149.35Y-61.47
T8
X93.724Y-86.985
T9
X54.51Y-41.49
X58.01Y-129.09
X58.19Y-87.0
X69.86Y-86.99
X81.56Y-87.01
X105.394Y-86.975
X117.094Y-86.995
X129.246Y-86.985
X140.916Y-86.975
X152.616Y-86.995
X153.162Y-129.286
X156.22Y-41.64
T3
G00X153.5Y-135.18
M15
G01X154.6Y-135.18
M16
G05
G00X153.5Y-143.82
M15
G01X154.6Y-143.82
M16
G05
G00X157.85Y-135.18
M15
G01X158.65Y-135.18
M16
G05
G00X157.85Y-143.82
M15
G01X158.65Y-143.82
M16
G05
M30
