%TF.GenerationSoftware,KiCad,Pcbnew,9.0.4*%
%TF.CreationDate,2025-12-22T21:15:50+01:00*%
%TF.ProjectId,tolt,746f6c74-2e6b-4696-9361-645f70636258,rev?*%
%TF.SameCoordinates,Original*%
%TF.FileFunction,Paste,Top*%
%TF.FilePolarity,Positive*%
%FSLAX46Y46*%
G04 Gerber Fmt 4.6, Leading zero omitted, Abs format (unit mm)*
G04 Created by KiCad (PCBNEW 9.0.4) date 2025-12-22 21:15:50*
%MOMM*%
%LPD*%
G01*
G04 APERTURE LIST*
G04 Aperture macros list*
%AMRoundRect*
0 Rectangle with rounded corners*
0 $1 Rounding radius*
0 $2 $3 $4 $5 $6 $7 $8 $9 X,Y pos of 4 corners*
0 Add a 4 corners polygon primitive as box body*
4,1,4,$2,$3,$4,$5,$6,$7,$8,$9,$2,$3,0*
0 Add four circle primitives for the rounded corners*
1,1,$1+$1,$2,$3*
1,1,$1+$1,$4,$5*
1,1,$1+$1,$6,$7*
1,1,$1+$1,$8,$9*
0 Add four rect primitives between the rounded corners*
20,1,$1+$1,$2,$3,$4,$5,0*
20,1,$1+$1,$4,$5,$6,$7,0*
20,1,$1+$1,$6,$7,$8,$9,0*
20,1,$1+$1,$8,$9,$2,$3,0*%
G04 Aperture macros list end*
%ADD10RoundRect,0.150000X0.825000X0.150000X-0.825000X0.150000X-0.825000X-0.150000X0.825000X-0.150000X0*%
%ADD11RoundRect,0.250000X0.650000X-1.000000X0.650000X1.000000X-0.650000X1.000000X-0.650000X-1.000000X0*%
%ADD12RoundRect,0.250000X-0.650000X1.000000X-0.650000X-1.000000X0.650000X-1.000000X0.650000X1.000000X0*%
%ADD13RoundRect,0.225000X-0.375000X0.225000X-0.375000X-0.225000X0.375000X-0.225000X0.375000X0.225000X0*%
%ADD14RoundRect,0.250000X0.625000X-0.312500X0.625000X0.312500X-0.625000X0.312500X-0.625000X-0.312500X0*%
%ADD15RoundRect,0.200000X0.275000X-0.200000X0.275000X0.200000X-0.275000X0.200000X-0.275000X-0.200000X0*%
%ADD16RoundRect,0.150000X-0.587500X-0.150000X0.587500X-0.150000X0.587500X0.150000X-0.587500X0.150000X0*%
%ADD17R,7.500000X3.000000*%
%ADD18RoundRect,0.140000X0.140000X0.170000X-0.140000X0.170000X-0.140000X-0.170000X0.140000X-0.170000X0*%
%ADD19RoundRect,0.140000X-0.140000X-0.170000X0.140000X-0.170000X0.140000X0.170000X-0.140000X0.170000X0*%
%ADD20RoundRect,0.225000X0.375000X-0.225000X0.375000X0.225000X-0.375000X0.225000X-0.375000X-0.225000X0*%
%ADD21RoundRect,0.100000X-0.225000X-0.100000X0.225000X-0.100000X0.225000X0.100000X-0.225000X0.100000X0*%
%ADD22RoundRect,0.250000X-0.925000X0.412500X-0.925000X-0.412500X0.925000X-0.412500X0.925000X0.412500X0*%
%ADD23RoundRect,0.200000X-0.200000X-0.275000X0.200000X-0.275000X0.200000X0.275000X-0.200000X0.275000X0*%
%ADD24RoundRect,0.250000X-0.325000X-1.100000X0.325000X-1.100000X0.325000X1.100000X-0.325000X1.100000X0*%
%ADD25RoundRect,0.225000X0.250000X-0.225000X0.250000X0.225000X-0.250000X0.225000X-0.250000X-0.225000X0*%
%ADD26RoundRect,0.200000X-0.275000X0.200000X-0.275000X-0.200000X0.275000X-0.200000X0.275000X0.200000X0*%
%ADD27RoundRect,0.225000X-0.250000X0.225000X-0.250000X-0.225000X0.250000X-0.225000X0.250000X0.225000X0*%
%ADD28RoundRect,0.250000X-1.100000X0.325000X-1.100000X-0.325000X1.100000X-0.325000X1.100000X0.325000X0*%
%ADD29RoundRect,0.250000X-2.450000X0.650000X-2.450000X-0.650000X2.450000X-0.650000X2.450000X0.650000X0*%
%ADD30RoundRect,0.250000X1.100000X-0.325000X1.100000X0.325000X-1.100000X0.325000X-1.100000X-0.325000X0*%
%ADD31RoundRect,0.140000X-0.170000X0.140000X-0.170000X-0.140000X0.170000X-0.140000X0.170000X0.140000X0*%
%ADD32RoundRect,0.250000X-0.625000X0.312500X-0.625000X-0.312500X0.625000X-0.312500X0.625000X0.312500X0*%
%ADD33RoundRect,0.200000X0.200000X0.275000X-0.200000X0.275000X-0.200000X-0.275000X0.200000X-0.275000X0*%
%ADD34RoundRect,0.125000X0.125000X-0.125000X0.125000X0.125000X-0.125000X0.125000X-0.125000X-0.125000X0*%
%ADD35RoundRect,0.140000X0.170000X-0.140000X0.170000X0.140000X-0.170000X0.140000X-0.170000X-0.140000X0*%
%ADD36RoundRect,0.250000X-0.450000X0.262500X-0.450000X-0.262500X0.450000X-0.262500X0.450000X0.262500X0*%
%ADD37RoundRect,0.250000X0.450000X-0.262500X0.450000X0.262500X-0.450000X0.262500X-0.450000X-0.262500X0*%
%ADD38RoundRect,0.218750X0.256250X-0.218750X0.256250X0.218750X-0.256250X0.218750X-0.256250X-0.218750X0*%
%ADD39RoundRect,0.250000X0.445000X-0.457500X0.445000X0.457500X-0.445000X0.457500X-0.445000X-0.457500X0*%
%ADD40RoundRect,0.125000X-0.537500X-0.125000X0.537500X-0.125000X0.537500X0.125000X-0.537500X0.125000X0*%
%ADD41R,1.450000X3.900000*%
%ADD42RoundRect,0.225000X0.225000X0.250000X-0.225000X0.250000X-0.225000X-0.250000X0.225000X-0.250000X0*%
%ADD43RoundRect,0.250000X0.325000X1.100000X-0.325000X1.100000X-0.325000X-1.100000X0.325000X-1.100000X0*%
%ADD44RoundRect,0.250000X-0.312500X-0.625000X0.312500X-0.625000X0.312500X0.625000X-0.312500X0.625000X0*%
%ADD45RoundRect,0.250000X1.775000X-0.262500X1.775000X0.262500X-1.775000X0.262500X-1.775000X-0.262500X0*%
%ADD46RoundRect,0.250000X-0.550000X1.500000X-0.550000X-1.500000X0.550000X-1.500000X0.550000X1.500000X0*%
%ADD47RoundRect,0.137500X-0.337500X-0.137500X0.337500X-0.137500X0.337500X0.137500X-0.337500X0.137500X0*%
%ADD48RoundRect,0.125000X-0.187500X-0.125000X0.187500X-0.125000X0.187500X0.125000X-0.187500X0.125000X0*%
%ADD49RoundRect,0.150000X0.512500X0.150000X-0.512500X0.150000X-0.512500X-0.150000X0.512500X-0.150000X0*%
%ADD50RoundRect,0.150000X0.150000X-0.825000X0.150000X0.825000X-0.150000X0.825000X-0.150000X-0.825000X0*%
%ADD51RoundRect,0.250000X-0.475000X0.250000X-0.475000X-0.250000X0.475000X-0.250000X0.475000X0.250000X0*%
%ADD52R,3.900000X1.450000*%
%ADD53RoundRect,0.225000X-0.225000X-0.250000X0.225000X-0.250000X0.225000X0.250000X-0.225000X0.250000X0*%
%ADD54RoundRect,0.135000X0.185000X-0.135000X0.185000X0.135000X-0.185000X0.135000X-0.185000X-0.135000X0*%
%ADD55RoundRect,0.250000X-0.250000X-0.475000X0.250000X-0.475000X0.250000X0.475000X-0.250000X0.475000X0*%
%ADD56RoundRect,0.150000X-0.512500X-0.150000X0.512500X-0.150000X0.512500X0.150000X-0.512500X0.150000X0*%
%ADD57RoundRect,0.250000X-0.650000X-2.450000X0.650000X-2.450000X0.650000X2.450000X-0.650000X2.450000X0*%
%ADD58RoundRect,0.375000X-0.375000X0.625000X-0.375000X-0.625000X0.375000X-0.625000X0.375000X0.625000X0*%
%ADD59RoundRect,0.500000X-1.400000X0.500000X-1.400000X-0.500000X1.400000X-0.500000X1.400000X0.500000X0*%
%ADD60R,0.675000X0.250000*%
%ADD61R,0.250000X0.675000*%
%ADD62RoundRect,0.135000X-0.185000X0.135000X-0.185000X-0.135000X0.185000X-0.135000X0.185000X0.135000X0*%
%ADD63R,1.240000X0.600000*%
%ADD64R,1.240000X0.300000*%
%ADD65RoundRect,0.250000X0.475000X-0.250000X0.475000X0.250000X-0.475000X0.250000X-0.475000X-0.250000X0*%
%ADD66RoundRect,0.250000X-0.325000X-0.650000X0.325000X-0.650000X0.325000X0.650000X-0.325000X0.650000X0*%
%ADD67R,2.850000X6.600000*%
%ADD68RoundRect,0.250000X1.050000X0.550000X-1.050000X0.550000X-1.050000X-0.550000X1.050000X-0.550000X0*%
%ADD69RoundRect,0.250000X-0.262500X-1.775000X0.262500X-1.775000X0.262500X1.775000X-0.262500X1.775000X0*%
%ADD70RoundRect,0.135000X0.135000X0.185000X-0.135000X0.185000X-0.135000X-0.185000X0.135000X-0.185000X0*%
%ADD71RoundRect,0.250000X0.250000X0.475000X-0.250000X0.475000X-0.250000X-0.475000X0.250000X-0.475000X0*%
%ADD72RoundRect,0.250000X0.312500X0.625000X-0.312500X0.625000X-0.312500X-0.625000X0.312500X-0.625000X0*%
%ADD73RoundRect,0.225000X0.225000X0.375000X-0.225000X0.375000X-0.225000X-0.375000X0.225000X-0.375000X0*%
%ADD74RoundRect,0.250000X1.425000X-0.362500X1.425000X0.362500X-1.425000X0.362500X-1.425000X-0.362500X0*%
%ADD75RoundRect,0.250000X-1.000000X-0.900000X1.000000X-0.900000X1.000000X0.900000X-1.000000X0.900000X0*%
%ADD76RoundRect,0.250000X1.000000X0.900000X-1.000000X0.900000X-1.000000X-0.900000X1.000000X-0.900000X0*%
%ADD77RoundRect,0.172500X-0.422500X0.172500X-0.422500X-0.172500X0.422500X-0.172500X0.422500X0.172500X0*%
%ADD78RoundRect,0.076250X-0.076250X0.368250X-0.076250X-0.368250X0.076250X-0.368250X0.076250X0.368250X0*%
%ADD79RoundRect,0.250000X0.262500X1.775000X-0.262500X1.775000X-0.262500X-1.775000X0.262500X-1.775000X0*%
G04 APERTURE END LIST*
D10*
%TO.C,U20*%
X100975000Y-149990000D03*
X100975000Y-148720000D03*
X100975000Y-147450000D03*
X100975000Y-146180000D03*
X105925000Y-146180000D03*
X105925000Y-147450000D03*
X105925000Y-148720000D03*
X105925000Y-149990000D03*
%TD*%
D11*
%TO.C,D32*%
X52800000Y-141225000D03*
X52800000Y-137225000D03*
%TD*%
%TO.C,D31*%
X57000000Y-141225000D03*
X57000000Y-137225000D03*
%TD*%
D12*
%TO.C,D30*%
X57400000Y-147490000D03*
X57400000Y-151490000D03*
%TD*%
D13*
%TO.C,D23*%
X51775000Y-158000000D03*
X51775000Y-161300000D03*
%TD*%
D14*
%TO.C,R96*%
X60625000Y-154237500D03*
X60625000Y-151312500D03*
%TD*%
D15*
%TO.C,R97*%
X57775000Y-157500000D03*
X57775000Y-155850000D03*
%TD*%
D16*
%TO.C,Q20*%
X54037500Y-155625000D03*
X54037500Y-157525000D03*
X55912500Y-156575000D03*
%TD*%
D17*
%TO.C,L5*%
X72490000Y-150050000D03*
X72510000Y-156650000D03*
%TD*%
D18*
%TO.C,C76*%
X53080000Y-153025000D03*
X52120000Y-153025000D03*
%TD*%
D19*
%TO.C,C49*%
X137680000Y-151080000D03*
X138640000Y-151080000D03*
%TD*%
D20*
%TO.C,D16*%
X56166000Y-82168000D03*
X56166000Y-78868000D03*
%TD*%
D21*
%TO.C,U10*%
X129860000Y-143368000D03*
X129860000Y-144018000D03*
X129860000Y-144668000D03*
X131760000Y-144668000D03*
X131760000Y-143368000D03*
%TD*%
D22*
%TO.C,C86*%
X66875000Y-145052500D03*
X66875000Y-148127500D03*
%TD*%
D23*
%TO.C,R38*%
X150675000Y-145700000D03*
X152325000Y-145700000D03*
%TD*%
D24*
%TO.C,C88*%
X86409000Y-159004000D03*
X89359000Y-159004000D03*
%TD*%
D25*
%TO.C,C7*%
X142030000Y-142755000D03*
X142030000Y-141205000D03*
%TD*%
D26*
%TO.C,R50*%
X100520000Y-139420000D03*
X100520000Y-141070000D03*
%TD*%
D27*
%TO.C,C59*%
X126660000Y-147125000D03*
X126660000Y-148675000D03*
%TD*%
D28*
%TO.C,C85*%
X77919000Y-158799000D03*
X77919000Y-161749000D03*
%TD*%
D15*
%TO.C,R66*%
X117400000Y-149417500D03*
X117400000Y-147767500D03*
%TD*%
D29*
%TO.C,C137*%
X91491400Y-69759700D03*
X91491400Y-74859700D03*
%TD*%
D15*
%TO.C,R67*%
X114390000Y-149417500D03*
X114390000Y-147767500D03*
%TD*%
D18*
%TO.C,C18*%
X108512000Y-118300000D03*
X107552000Y-118300000D03*
%TD*%
D30*
%TO.C,C70*%
X82000000Y-138225000D03*
X82000000Y-135275000D03*
%TD*%
D19*
%TO.C,C125*%
X93484000Y-150875600D03*
X94444000Y-150875600D03*
%TD*%
D20*
%TO.C,D5*%
X142152000Y-108076000D03*
X142152000Y-104776000D03*
%TD*%
%TO.C,D6*%
X130468000Y-108076000D03*
X130468000Y-104776000D03*
%TD*%
D26*
%TO.C,R37*%
X148600000Y-114500000D03*
X148600000Y-116150000D03*
%TD*%
D25*
%TO.C,C13*%
X133700000Y-142805000D03*
X133700000Y-141255000D03*
%TD*%
D31*
%TO.C,C28*%
X130357000Y-137494000D03*
X130357000Y-138454000D03*
%TD*%
D32*
%TO.C,R45*%
X108646000Y-135008500D03*
X108646000Y-137933500D03*
%TD*%
D15*
%TO.C,R105*%
X146520000Y-82359000D03*
X146520000Y-80709000D03*
%TD*%
D33*
%TO.C,R120*%
X30065000Y-157650000D03*
X28415000Y-157650000D03*
%TD*%
D25*
%TO.C,C40*%
X147295500Y-141645000D03*
X147295500Y-140095000D03*
%TD*%
D34*
%TO.C,D28*%
X89408000Y-156802000D03*
X89408000Y-154602000D03*
%TD*%
D35*
%TO.C,C34*%
X140740000Y-144230000D03*
X140740000Y-143270000D03*
%TD*%
D26*
%TO.C,R119*%
X22210000Y-153615000D03*
X22210000Y-155265000D03*
%TD*%
%TO.C,R33*%
X130079000Y-140020000D03*
X130079000Y-141670000D03*
%TD*%
D23*
%TO.C,R41*%
X100975000Y-120100000D03*
X102625000Y-120100000D03*
%TD*%
D35*
%TO.C,C1*%
X133410000Y-146740000D03*
X133410000Y-145780000D03*
%TD*%
D36*
%TO.C,R10*%
X128309000Y-105998000D03*
X128309000Y-107823000D03*
%TD*%
D37*
%TO.C,R9*%
X139993000Y-107823000D03*
X139993000Y-105998000D03*
%TD*%
D38*
%TO.C,D27*%
X114390000Y-145885000D03*
X114390000Y-144310000D03*
%TD*%
D39*
%TO.C,C151*%
X33415000Y-150877500D03*
X33415000Y-148172500D03*
%TD*%
D12*
%TO.C,D3*%
X61137000Y-111350000D03*
X61137000Y-115350000D03*
%TD*%
D15*
%TO.C,R26*%
X151450000Y-143125000D03*
X151450000Y-141475000D03*
%TD*%
D35*
%TO.C,C46*%
X136648000Y-148286000D03*
X136648000Y-147326000D03*
%TD*%
D33*
%TO.C,R102*%
X155653700Y-153370000D03*
X154003700Y-153370000D03*
%TD*%
D26*
%TO.C,R99*%
X82154000Y-154795000D03*
X82154000Y-156445000D03*
%TD*%
D15*
%TO.C,R108*%
X99314000Y-82359000D03*
X99314000Y-80709000D03*
%TD*%
D26*
%TO.C,R61*%
X119046000Y-147075000D03*
X119046000Y-148725000D03*
%TD*%
D19*
%TO.C,C31*%
X129450000Y-145920000D03*
X130410000Y-145920000D03*
%TD*%
D20*
%TO.C,D11*%
X91694000Y-82168000D03*
X91694000Y-78868000D03*
%TD*%
D29*
%TO.C,C104*%
X105423000Y-97250000D03*
X105423000Y-102350000D03*
%TD*%
D28*
%TO.C,C147*%
X24810000Y-154164999D03*
X24810000Y-157115001D03*
%TD*%
D40*
%TO.C,U7*%
X133990500Y-137820000D03*
X133990500Y-138470000D03*
X133990500Y-139120000D03*
X133990500Y-139770000D03*
X136265500Y-139770000D03*
X136265500Y-139120000D03*
X136265500Y-138470000D03*
X136265500Y-137820000D03*
%TD*%
D33*
%TO.C,R77*%
X158689500Y-156448000D03*
X157039500Y-156448000D03*
%TD*%
D29*
%TO.C,C103*%
X112373000Y-97250000D03*
X112373000Y-102350000D03*
%TD*%
D26*
%TO.C,R107*%
X87600000Y-80709000D03*
X87600000Y-82359000D03*
%TD*%
D15*
%TO.C,R103*%
X123152000Y-82359000D03*
X123152000Y-80709000D03*
%TD*%
D41*
%TO.C,L2*%
X78520000Y-141350000D03*
X81480000Y-141350000D03*
%TD*%
D25*
%TO.C,FB9*%
X89525000Y-81650000D03*
X89525000Y-80100000D03*
%TD*%
D42*
%TO.C,C5*%
X134685000Y-144590000D03*
X133135000Y-144590000D03*
%TD*%
D43*
%TO.C,C117*%
X143985000Y-153990000D03*
X141035000Y-153990000D03*
%TD*%
D42*
%TO.C,FB6*%
X55600000Y-106000000D03*
X54050000Y-106000000D03*
%TD*%
D44*
%TO.C,R118*%
X28402500Y-150600000D03*
X31327500Y-150600000D03*
%TD*%
D42*
%TO.C,C54*%
X114006000Y-136990000D03*
X112456000Y-136990000D03*
%TD*%
D45*
%TO.C,R68*%
X64410000Y-136227500D03*
X64410000Y-134352500D03*
%TD*%
D37*
%TO.C,R28*%
X68943000Y-107823000D03*
X68943000Y-105998000D03*
%TD*%
D46*
%TO.C,C152*%
X36765000Y-153950000D03*
X36765000Y-159550000D03*
%TD*%
D20*
%TO.C,D13*%
X116187000Y-109528000D03*
X116187000Y-106228000D03*
%TD*%
D47*
%TO.C,U16*%
X74200000Y-134975000D03*
X74200000Y-135605000D03*
X74200000Y-136235000D03*
D48*
X73137500Y-134630000D03*
X73137500Y-135280000D03*
X73137500Y-135930000D03*
X73137500Y-136580000D03*
X75262500Y-136580000D03*
X75262500Y-135930000D03*
X75262500Y-135280000D03*
X75262500Y-134630000D03*
%TD*%
D26*
%TO.C,R104*%
X134836000Y-80709000D03*
X134836000Y-82359000D03*
%TD*%
D27*
%TO.C,C53*%
X78900000Y-114425000D03*
X78900000Y-115975000D03*
%TD*%
%TO.C,C60*%
X123612000Y-147125500D03*
X123612000Y-148675500D03*
%TD*%
D35*
%TO.C,C64*%
X88089000Y-143927000D03*
X88089000Y-142967000D03*
%TD*%
D23*
%TO.C,R98*%
X140536200Y-156600000D03*
X142186200Y-156600000D03*
%TD*%
D18*
%TO.C,C16*%
X144030000Y-118237000D03*
X143070000Y-118237000D03*
%TD*%
D26*
%TO.C,R36*%
X148600000Y-111475000D03*
X148600000Y-113125000D03*
%TD*%
D29*
%TO.C,C106*%
X147101000Y-97250000D03*
X147101000Y-102350000D03*
%TD*%
%TO.C,C113*%
X70682000Y-97250000D03*
X70682000Y-102350000D03*
%TD*%
D36*
%TO.C,R25*%
X64659000Y-83850000D03*
X64659000Y-85675000D03*
%TD*%
D27*
%TO.C,C58*%
X120564000Y-147125500D03*
X120564000Y-148675500D03*
%TD*%
D29*
%TO.C,C107*%
X140151000Y-97250000D03*
X140151000Y-102350000D03*
%TD*%
D49*
%TO.C,U22*%
X107047500Y-154132500D03*
X107047500Y-153182500D03*
X107047500Y-152232500D03*
X104772500Y-152232500D03*
X104772500Y-153182500D03*
X104772500Y-154132500D03*
%TD*%
D29*
%TO.C,C143*%
X62275000Y-144040000D03*
X62275000Y-149140000D03*
%TD*%
D30*
%TO.C,C71*%
X70512500Y-137965000D03*
X70512500Y-135015000D03*
%TD*%
%TO.C,C63*%
X82200000Y-147825000D03*
X82200000Y-144875000D03*
%TD*%
D50*
%TO.C,U3*%
X101516000Y-115623000D03*
X102786000Y-115623000D03*
X104056000Y-115623000D03*
X105326000Y-115623000D03*
X106596000Y-115623000D03*
X107866000Y-115623000D03*
X109136000Y-115623000D03*
X109136000Y-110673000D03*
X107866000Y-110673000D03*
X106596000Y-110673000D03*
X105326000Y-110673000D03*
X104056000Y-110673000D03*
X102786000Y-110673000D03*
X101516000Y-110673000D03*
%TD*%
D35*
%TO.C,C66*%
X87100000Y-143925000D03*
X87100000Y-142965000D03*
%TD*%
D51*
%TO.C,C19*%
X64012000Y-110600000D03*
X64012000Y-112500000D03*
%TD*%
D42*
%TO.C,C9*%
X139535000Y-146150000D03*
X137985000Y-146150000D03*
%TD*%
D35*
%TO.C,C87*%
X139261200Y-156880000D03*
X139261200Y-155920000D03*
%TD*%
D26*
%TO.C,R51*%
X112725000Y-111500000D03*
X112725000Y-113150000D03*
%TD*%
D18*
%TO.C,C62*%
X85300000Y-144275000D03*
X84340000Y-144275000D03*
%TD*%
D16*
%TO.C,Q19*%
X84772500Y-154670000D03*
X84772500Y-156570000D03*
X86647500Y-155620000D03*
%TD*%
D20*
%TO.C,D14*%
X106503000Y-108076000D03*
X106503000Y-104776000D03*
%TD*%
D37*
%TO.C,R24*%
X76216000Y-85675000D03*
X76216000Y-83850000D03*
%TD*%
D23*
%TO.C,R2*%
X109150000Y-119600000D03*
X110800000Y-119600000D03*
%TD*%
D30*
%TO.C,C65*%
X90200000Y-143800000D03*
X90200000Y-140850000D03*
%TD*%
D29*
%TO.C,C129*%
X147101000Y-69759700D03*
X147101000Y-74859700D03*
%TD*%
D27*
%TO.C,C29*%
X128270000Y-143243000D03*
X128270000Y-144793000D03*
%TD*%
D52*
%TO.C,L1*%
X78400000Y-144745000D03*
X78400000Y-147705000D03*
%TD*%
D27*
%TO.C,C55*%
X110125000Y-139475000D03*
X110125000Y-141025000D03*
%TD*%
D53*
%TO.C,C78*%
X149847000Y-150622000D03*
X151397000Y-150622000D03*
%TD*%
D21*
%TO.C,U8*%
X145608000Y-143368000D03*
X145608000Y-144018000D03*
X145608000Y-144668000D03*
X147508000Y-144668000D03*
X147508000Y-143368000D03*
%TD*%
D33*
%TO.C,R115*%
X55925000Y-154075000D03*
X57575000Y-154075000D03*
%TD*%
D26*
%TO.C,R110*%
X75470000Y-80709000D03*
X75470000Y-82359000D03*
%TD*%
D24*
%TO.C,C121*%
X119650000Y-154175000D03*
X122600000Y-154175000D03*
%TD*%
D42*
%TO.C,FB10*%
X102675000Y-106000000D03*
X101125000Y-106000000D03*
%TD*%
D15*
%TO.C,R71*%
X151130000Y-148907000D03*
X151130000Y-147257000D03*
%TD*%
D19*
%TO.C,C123*%
X126520000Y-156718000D03*
X127480000Y-156718000D03*
%TD*%
D20*
%TO.C,D9*%
X127216000Y-82168000D03*
X127216000Y-78868000D03*
%TD*%
D42*
%TO.C,C14*%
X147079000Y-136144000D03*
X145529000Y-136144000D03*
%TD*%
%TO.C,FB4*%
X67275000Y-106000000D03*
X65725000Y-106000000D03*
%TD*%
D26*
%TO.C,R35*%
X145820500Y-140045000D03*
X145820500Y-141695000D03*
%TD*%
D36*
%TO.C,R29*%
X57259000Y-105998000D03*
X57259000Y-107823000D03*
%TD*%
D27*
%TO.C,C41*%
X143950000Y-142705000D03*
X143950000Y-144255000D03*
%TD*%
D31*
%TO.C,C122*%
X125348000Y-142138000D03*
X125348000Y-143098000D03*
%TD*%
D37*
%TO.C,R27*%
X78500000Y-109275000D03*
X78500000Y-107450000D03*
%TD*%
D18*
%TO.C,C26*%
X70737000Y-118325000D03*
X69777000Y-118325000D03*
%TD*%
D26*
%TO.C,R62*%
X125142000Y-147074500D03*
X125142000Y-148724500D03*
%TD*%
D50*
%TO.C,U4*%
X65988000Y-115623000D03*
X67258000Y-115623000D03*
X68528000Y-115623000D03*
X69798000Y-115623000D03*
X71068000Y-115623000D03*
X72338000Y-115623000D03*
X73608000Y-115623000D03*
X73608000Y-110673000D03*
X72338000Y-110673000D03*
X71068000Y-110673000D03*
X69798000Y-110673000D03*
X68528000Y-110673000D03*
X67258000Y-110673000D03*
X65988000Y-110673000D03*
%TD*%
D23*
%TO.C,R1*%
X144679000Y-119507000D03*
X146329000Y-119507000D03*
%TD*%
D25*
%TO.C,FB5*%
X65675000Y-81675000D03*
X65675000Y-80125000D03*
%TD*%
D42*
%TO.C,FB8*%
X91025000Y-106000000D03*
X89475000Y-106000000D03*
%TD*%
D54*
%TO.C,R94*%
X77012500Y-135000000D03*
X77012500Y-133980000D03*
%TD*%
D31*
%TO.C,C32*%
X138231000Y-137506900D03*
X138231000Y-138466900D03*
%TD*%
D29*
%TO.C,C112*%
X77610000Y-97250000D03*
X77610000Y-102350000D03*
%TD*%
D20*
%TO.C,D18*%
X67850000Y-82168000D03*
X67850000Y-78868000D03*
%TD*%
D42*
%TO.C,C10*%
X142535000Y-146150000D03*
X140985000Y-146150000D03*
%TD*%
D15*
%TO.C,R112*%
X60975000Y-157500000D03*
X60975000Y-155850000D03*
%TD*%
D29*
%TO.C,C139*%
X77591400Y-69759700D03*
X77591400Y-74859700D03*
%TD*%
D55*
%TO.C,C84*%
X78675000Y-156750000D03*
X80575000Y-156750000D03*
%TD*%
D26*
%TO.C,R84*%
X151375000Y-135275000D03*
X151375000Y-136925000D03*
%TD*%
D37*
%TO.C,R6*%
X135709000Y-85675000D03*
X135709000Y-83850000D03*
%TD*%
D26*
%TO.C,R52*%
X112725000Y-114575000D03*
X112725000Y-116225000D03*
%TD*%
D51*
%TO.C,C17*%
X99500000Y-110650000D03*
X99500000Y-112550000D03*
%TD*%
D26*
%TO.C,R46*%
X108646000Y-139426000D03*
X108646000Y-141076000D03*
%TD*%
D19*
%TO.C,C48*%
X141930000Y-151290000D03*
X142890000Y-151290000D03*
%TD*%
D29*
%TO.C,C131*%
X133201000Y-69759700D03*
X133201000Y-74859700D03*
%TD*%
D55*
%TO.C,C73*%
X73112500Y-138990000D03*
X75012500Y-138990000D03*
%TD*%
D26*
%TO.C,R54*%
X77350000Y-114375000D03*
X77350000Y-116025000D03*
%TD*%
D18*
%TO.C,C3*%
X144210000Y-141010000D03*
X143250000Y-141010000D03*
%TD*%
D24*
%TO.C,C119*%
X110350000Y-154000000D03*
X113300000Y-154000000D03*
%TD*%
D20*
%TO.C,D10*%
X103378000Y-82168000D03*
X103378000Y-78868000D03*
%TD*%
D56*
%TO.C,U15*%
X84112500Y-139800000D03*
X84112500Y-140750000D03*
X84112500Y-141700000D03*
X86387500Y-141700000D03*
X86387500Y-139800000D03*
%TD*%
D57*
%TO.C,C105*%
X52450000Y-119500000D03*
X57550000Y-119500000D03*
%TD*%
D58*
%TO.C,U14*%
X89875000Y-146025000D03*
X87575000Y-146025000D03*
D59*
X87575000Y-152325000D03*
D58*
X85275000Y-146025000D03*
%TD*%
D24*
%TO.C,C44*%
X141395000Y-122682000D03*
X144345000Y-122682000D03*
%TD*%
D36*
%TO.C,R16*%
X111744000Y-83850000D03*
X111744000Y-85675000D03*
%TD*%
D20*
%TO.C,D20*%
X71102000Y-108076000D03*
X71102000Y-104776000D03*
%TD*%
D23*
%TO.C,R57*%
X65412000Y-118575000D03*
X67062000Y-118575000D03*
%TD*%
D29*
%TO.C,C115*%
X56782000Y-97250000D03*
X56782000Y-102350000D03*
%TD*%
D23*
%TO.C,R56*%
X100975000Y-118500000D03*
X102625000Y-118500000D03*
%TD*%
D18*
%TO.C,C127*%
X96810000Y-150865000D03*
X95850000Y-150865000D03*
%TD*%
D31*
%TO.C,C27*%
X131307000Y-137494000D03*
X131307000Y-138454000D03*
%TD*%
D24*
%TO.C,C75*%
X27415000Y-153900000D03*
X30365000Y-153900000D03*
%TD*%
D33*
%TO.C,R76*%
X158689500Y-154910000D03*
X157039500Y-154910000D03*
%TD*%
D15*
%TO.C,R106*%
X110998000Y-82359000D03*
X110998000Y-80709000D03*
%TD*%
D40*
%TO.C,U9*%
X141833000Y-137820000D03*
X141833000Y-138470000D03*
X141833000Y-139120000D03*
X141833000Y-139770000D03*
X144108000Y-139770000D03*
X144108000Y-139120000D03*
X144108000Y-138470000D03*
X144108000Y-137820000D03*
%TD*%
D19*
%TO.C,C2*%
X131570000Y-136540000D03*
X132530000Y-136540000D03*
%TD*%
D25*
%TO.C,FB1*%
X54000000Y-81700000D03*
X54000000Y-80150000D03*
%TD*%
D53*
%TO.C,C6*%
X130700000Y-135320000D03*
X132250000Y-135320000D03*
%TD*%
D51*
%TO.C,C15*%
X135082000Y-110650000D03*
X135082000Y-112550000D03*
%TD*%
D37*
%TO.C,R5*%
X147393000Y-85675000D03*
X147393000Y-83850000D03*
%TD*%
D25*
%TO.C,C35*%
X139453000Y-141645000D03*
X139453000Y-140095000D03*
%TD*%
D60*
%TO.C,U17*%
X147073500Y-147332000D03*
X147073500Y-147832000D03*
X147073500Y-148332000D03*
X147073500Y-148832000D03*
D61*
X147836000Y-149094500D03*
X148336000Y-149094500D03*
X148836000Y-149094500D03*
D60*
X149598500Y-148832000D03*
X149598500Y-148332000D03*
X149598500Y-147832000D03*
X149598500Y-147332000D03*
D61*
X148836000Y-147069500D03*
X148336000Y-147069500D03*
X147836000Y-147069500D03*
%TD*%
D26*
%TO.C,R48*%
X103489500Y-139430000D03*
X103489500Y-141080000D03*
%TD*%
D18*
%TO.C,C20*%
X73119000Y-118325000D03*
X72159000Y-118325000D03*
%TD*%
D20*
%TO.C,D15*%
X94946000Y-108077000D03*
X94946000Y-104777000D03*
%TD*%
D33*
%TO.C,R74*%
X152593500Y-156448000D03*
X150943500Y-156448000D03*
%TD*%
D15*
%TO.C,R70*%
X145542000Y-148907000D03*
X145542000Y-147257000D03*
%TD*%
D42*
%TO.C,FB2*%
X78800000Y-105950000D03*
X77250000Y-105950000D03*
%TD*%
D62*
%TO.C,R95*%
X78512500Y-133980000D03*
X78512500Y-135000000D03*
%TD*%
D63*
%TO.C,J2*%
X153450000Y-142700000D03*
X153450000Y-141900000D03*
D64*
X153450000Y-140750000D03*
X153450000Y-139750000D03*
X153450000Y-139250000D03*
X153450000Y-138250000D03*
D63*
X153450000Y-137100000D03*
X153450000Y-136300000D03*
X153450000Y-136300000D03*
X153450000Y-137100000D03*
D64*
X153450000Y-137750000D03*
X153450000Y-138750000D03*
X153450000Y-140250000D03*
X153450000Y-141250000D03*
D63*
X153450000Y-141900000D03*
X153450000Y-142700000D03*
%TD*%
D65*
%TO.C,C145*%
X110950000Y-116125000D03*
X110950000Y-114225000D03*
%TD*%
D66*
%TO.C,C150*%
X28415000Y-148325000D03*
X31365000Y-148325000D03*
%TD*%
D33*
%TO.C,R73*%
X152593500Y-153370000D03*
X150943500Y-153370000D03*
%TD*%
D29*
%TO.C,C142*%
X56709200Y-69759700D03*
X56709200Y-74859700D03*
%TD*%
D67*
%TO.C,L4*%
X33665000Y-142825000D03*
X39315000Y-142825000D03*
%TD*%
D37*
%TO.C,R18*%
X104344000Y-107823000D03*
X104344000Y-105998000D03*
%TD*%
D29*
%TO.C,C135*%
X105391400Y-69759700D03*
X105391400Y-74859700D03*
%TD*%
D32*
%TO.C,R47*%
X103489500Y-135012500D03*
X103489500Y-137937500D03*
%TD*%
D29*
%TO.C,C141*%
X63659200Y-69759700D03*
X63659200Y-74859700D03*
%TD*%
D56*
%TO.C,U23*%
X132472500Y-154040000D03*
X132472500Y-154990000D03*
X132472500Y-155940000D03*
X134747500Y-155940000D03*
X134747500Y-154990000D03*
X134747500Y-154040000D03*
%TD*%
D19*
%TO.C,C39*%
X146078000Y-145930500D03*
X147038000Y-145930500D03*
%TD*%
D68*
%TO.C,C61*%
X82225000Y-151200000D03*
X78625000Y-151200000D03*
%TD*%
D49*
%TO.C,U21*%
X155446000Y-151175000D03*
X155446000Y-150225000D03*
X155446000Y-149275000D03*
X153171000Y-149275000D03*
X153171000Y-150225000D03*
X153171000Y-151175000D03*
%TD*%
D18*
%TO.C,C79*%
X148554500Y-150626000D03*
X147594500Y-150626000D03*
%TD*%
D33*
%TO.C,R75*%
X152593500Y-154910000D03*
X150943500Y-154910000D03*
%TD*%
%TO.C,R82*%
X114174000Y-156540000D03*
X112524000Y-156540000D03*
%TD*%
D28*
%TO.C,C149*%
X63450000Y-154375000D03*
X63450000Y-157325000D03*
%TD*%
D12*
%TO.C,D1*%
X132282000Y-111400000D03*
X132282000Y-115400000D03*
%TD*%
D31*
%TO.C,C37*%
X147023500Y-137518200D03*
X147023500Y-138478200D03*
%TD*%
D12*
%TO.C,D2*%
X96700000Y-111400000D03*
X96700000Y-115400000D03*
%TD*%
D29*
%TO.C,C133*%
X119301000Y-69759700D03*
X119301000Y-74859700D03*
%TD*%
D33*
%TO.C,R101*%
X155653700Y-156448000D03*
X154003700Y-156448000D03*
%TD*%
D20*
%TO.C,D8*%
X138900000Y-82168000D03*
X138900000Y-78868000D03*
%TD*%
D33*
%TO.C,R81*%
X111126000Y-156540000D03*
X109476000Y-156540000D03*
%TD*%
D30*
%TO.C,C68*%
X88000000Y-138225000D03*
X88000000Y-135275000D03*
%TD*%
D29*
%TO.C,C136*%
X98441400Y-69759700D03*
X98441400Y-74859700D03*
%TD*%
D25*
%TO.C,FB7*%
X112825000Y-81650000D03*
X112825000Y-80100000D03*
%TD*%
D24*
%TO.C,C43*%
X105725000Y-122600000D03*
X108675000Y-122600000D03*
%TD*%
D69*
%TO.C,R4*%
X65472500Y-126490000D03*
X67347500Y-126490000D03*
%TD*%
D21*
%TO.C,U11*%
X142018000Y-148563500D03*
X142018000Y-149213500D03*
X142018000Y-149863500D03*
X143918000Y-149863500D03*
X143918000Y-148563500D03*
%TD*%
D27*
%TO.C,C57*%
X104988500Y-139480000D03*
X104988500Y-141030000D03*
%TD*%
%TO.C,C8*%
X149890000Y-142490000D03*
X149890000Y-144040000D03*
%TD*%
D65*
%TO.C,C111*%
X75475000Y-116000000D03*
X75475000Y-114100000D03*
%TD*%
D29*
%TO.C,C130*%
X140151000Y-69759700D03*
X140151000Y-74859700D03*
%TD*%
D70*
%TO.C,C72*%
X74772500Y-133240000D03*
X73752500Y-133240000D03*
%TD*%
D18*
%TO.C,C116*%
X144316200Y-156900000D03*
X143356200Y-156900000D03*
%TD*%
D38*
%TO.C,D22*%
X115890000Y-145885000D03*
X115890000Y-144310000D03*
%TD*%
D71*
%TO.C,C23*%
X71987000Y-119925000D03*
X70087000Y-119925000D03*
%TD*%
D55*
%TO.C,C81*%
X97602000Y-143764000D03*
X99502000Y-143764000D03*
%TD*%
D21*
%TO.C,U12*%
X137798000Y-148566000D03*
X137798000Y-149216000D03*
X137798000Y-149866000D03*
X139698000Y-149866000D03*
X139698000Y-148566000D03*
%TD*%
D18*
%TO.C,C82*%
X102080000Y-144780000D03*
X101120000Y-144780000D03*
%TD*%
D20*
%TO.C,D7*%
X150584000Y-82168000D03*
X150584000Y-78868000D03*
%TD*%
D33*
%TO.C,R100*%
X155653700Y-154910000D03*
X154003700Y-154910000D03*
%TD*%
D28*
%TO.C,C77*%
X81153000Y-158799000D03*
X81153000Y-161749000D03*
%TD*%
D23*
%TO.C,R42*%
X65412000Y-120100000D03*
X67062000Y-120100000D03*
%TD*%
D20*
%TO.C,D4*%
X151836000Y-109528000D03*
X151836000Y-106228000D03*
%TD*%
D15*
%TO.C,R83*%
X98925000Y-148910000D03*
X98925000Y-147260000D03*
%TD*%
D35*
%TO.C,C45*%
X140868000Y-148286000D03*
X140868000Y-147326000D03*
%TD*%
D23*
%TO.C,R3*%
X73762000Y-119675000D03*
X75412000Y-119675000D03*
%TD*%
D29*
%TO.C,C128*%
X154051000Y-69759700D03*
X154051000Y-74859700D03*
%TD*%
D55*
%TO.C,C91*%
X102682000Y-143256000D03*
X104582000Y-143256000D03*
%TD*%
D31*
%TO.C,C38*%
X146073500Y-137518200D03*
X146073500Y-138478200D03*
%TD*%
D72*
%TO.C,R43*%
X118462500Y-135500000D03*
X115537500Y-135500000D03*
%TD*%
D42*
%TO.C,FB12*%
X114325000Y-105800000D03*
X112775000Y-105800000D03*
%TD*%
D50*
%TO.C,U2*%
X137106000Y-115623000D03*
X138376000Y-115623000D03*
X139646000Y-115623000D03*
X140916000Y-115623000D03*
X142186000Y-115623000D03*
X143456000Y-115623000D03*
X144726000Y-115623000D03*
X144726000Y-110673000D03*
X143456000Y-110673000D03*
X142186000Y-110673000D03*
X140916000Y-110673000D03*
X139646000Y-110673000D03*
X138376000Y-110673000D03*
X137106000Y-110673000D03*
%TD*%
D20*
%TO.C,D19*%
X80659000Y-109528000D03*
X80659000Y-106228000D03*
%TD*%
D26*
%TO.C,R53*%
X77350000Y-111350000D03*
X77350000Y-113000000D03*
%TD*%
D37*
%TO.C,R15*%
X88503000Y-85675000D03*
X88503000Y-83850000D03*
%TD*%
%TO.C,R23*%
X52975000Y-85675000D03*
X52975000Y-83850000D03*
%TD*%
D33*
%TO.C,R80*%
X123474000Y-156588000D03*
X121824000Y-156588000D03*
%TD*%
%TO.C,R78*%
X158689500Y-153370000D03*
X157039500Y-153370000D03*
%TD*%
D37*
%TO.C,R17*%
X114028000Y-109276000D03*
X114028000Y-107451000D03*
%TD*%
D42*
%TO.C,FB17*%
X138275000Y-106000000D03*
X136725000Y-106000000D03*
%TD*%
D21*
%TO.C,U13*%
X133570000Y-148570000D03*
X133570000Y-149220000D03*
X133570000Y-149870000D03*
X135470000Y-149870000D03*
X135470000Y-148570000D03*
%TD*%
D37*
%TO.C,R14*%
X100187000Y-85675000D03*
X100187000Y-83850000D03*
%TD*%
D44*
%TO.C,R114*%
X63362500Y-151925000D03*
X66287500Y-151925000D03*
%TD*%
D40*
%TO.C,U5*%
X126116500Y-137820000D03*
X126116500Y-138470000D03*
X126116500Y-139120000D03*
X126116500Y-139770000D03*
X128391500Y-139770000D03*
X128391500Y-139120000D03*
X128391500Y-138470000D03*
X128391500Y-137820000D03*
%TD*%
D24*
%TO.C,C42*%
X70181000Y-122682000D03*
X73131000Y-122682000D03*
%TD*%
D25*
%TO.C,C30*%
X131579000Y-141620000D03*
X131579000Y-140070000D03*
%TD*%
D19*
%TO.C,C80*%
X103152000Y-144780000D03*
X104112000Y-144780000D03*
%TD*%
D18*
%TO.C,C24*%
X141810000Y-118240000D03*
X140850000Y-118240000D03*
%TD*%
D31*
%TO.C,C33*%
X139181000Y-137519400D03*
X139181000Y-138479400D03*
%TD*%
D73*
%TO.C,D29*%
X75162500Y-141490000D03*
X71862500Y-141490000D03*
%TD*%
D28*
%TO.C,C148*%
X66690000Y-154385000D03*
X66690000Y-157335000D03*
%TD*%
D15*
%TO.C,R39*%
X137075000Y-154150000D03*
X137075000Y-152500000D03*
%TD*%
%TO.C,R65*%
X115890000Y-149415500D03*
X115890000Y-147765500D03*
%TD*%
D35*
%TO.C,C144*%
X153810000Y-147970000D03*
X153810000Y-147010000D03*
%TD*%
D74*
%TO.C,R117*%
X29940000Y-144712500D03*
X29940000Y-138787500D03*
%TD*%
D27*
%TO.C,C56*%
X102000000Y-139470000D03*
X102000000Y-141020000D03*
%TD*%
D26*
%TO.C,R34*%
X137953000Y-140045000D03*
X137953000Y-141695000D03*
%TD*%
D25*
%TO.C,FB11*%
X101175000Y-81675000D03*
X101175000Y-80125000D03*
%TD*%
D71*
%TO.C,C21*%
X143042000Y-119891000D03*
X141142000Y-119891000D03*
%TD*%
D19*
%TO.C,C118*%
X107309000Y-156794000D03*
X108269000Y-156794000D03*
%TD*%
D26*
%TO.C,R63*%
X122094000Y-147075000D03*
X122094000Y-148725000D03*
%TD*%
D15*
%TO.C,R111*%
X52102000Y-82359000D03*
X52102000Y-80709000D03*
%TD*%
D29*
%TO.C,C132*%
X126251000Y-69759700D03*
X126251000Y-74859700D03*
%TD*%
D54*
%TO.C,R64*%
X77012500Y-137000000D03*
X77012500Y-135980000D03*
%TD*%
D42*
%TO.C,FB18*%
X149975000Y-106000000D03*
X148425000Y-106000000D03*
%TD*%
D20*
%TO.C,D17*%
X79407000Y-82143500D03*
X79407000Y-78843500D03*
%TD*%
D29*
%TO.C,C108*%
X133201000Y-97250000D03*
X133201000Y-102350000D03*
%TD*%
D38*
%TO.C,D26*%
X117400000Y-145885000D03*
X117400000Y-144310000D03*
%TD*%
D33*
%TO.C,R44*%
X114055000Y-135500000D03*
X112405000Y-135500000D03*
%TD*%
D42*
%TO.C,FB16*%
X126650000Y-106000000D03*
X125100000Y-106000000D03*
%TD*%
D27*
%TO.C,C52*%
X114275000Y-114625000D03*
X114275000Y-116175000D03*
%TD*%
D15*
%TO.C,R109*%
X63756000Y-82359000D03*
X63756000Y-80709000D03*
%TD*%
D75*
%TO.C,D34*%
X36015000Y-149550000D03*
X40315000Y-149550000D03*
%TD*%
D57*
%TO.C,C102*%
X52450000Y-113500000D03*
X57550000Y-113500000D03*
%TD*%
D19*
%TO.C,C4*%
X148020000Y-145940000D03*
X148980000Y-145940000D03*
%TD*%
D20*
%TO.C,D25*%
X91000000Y-138400000D03*
X91000000Y-135100000D03*
%TD*%
D32*
%TO.C,R49*%
X100520000Y-135012500D03*
X100520000Y-137937500D03*
%TD*%
D76*
%TO.C,D33*%
X25240000Y-139675000D03*
X20940000Y-139675000D03*
%TD*%
D65*
%TO.C,C146*%
X146750000Y-116050000D03*
X146750000Y-114150000D03*
%TD*%
D36*
%TO.C,R19*%
X92787000Y-105999000D03*
X92787000Y-107824000D03*
%TD*%
D35*
%TO.C,C47*%
X132440000Y-148430000D03*
X132440000Y-147470000D03*
%TD*%
D29*
%TO.C,C101*%
X126273000Y-97250000D03*
X126273000Y-102350000D03*
%TD*%
D26*
%TO.C,R116*%
X51800000Y-154850000D03*
X51800000Y-156500000D03*
%TD*%
D19*
%TO.C,C120*%
X116355000Y-156842000D03*
X117315000Y-156842000D03*
%TD*%
D29*
%TO.C,C114*%
X63732000Y-97250000D03*
X63732000Y-102350000D03*
%TD*%
%TO.C,C138*%
X84541400Y-69759700D03*
X84541400Y-74859700D03*
%TD*%
D24*
%TO.C,C126*%
X92505000Y-148590000D03*
X95455000Y-148590000D03*
%TD*%
D25*
%TO.C,FB13*%
X125075000Y-81650000D03*
X125075000Y-80100000D03*
%TD*%
D27*
%TO.C,C36*%
X136144000Y-143243000D03*
X136144000Y-144793000D03*
%TD*%
D25*
%TO.C,FB14*%
X136750000Y-81650000D03*
X136750000Y-80100000D03*
%TD*%
D19*
%TO.C,C50*%
X133466000Y-151110000D03*
X134426000Y-151110000D03*
%TD*%
D24*
%TO.C,C124*%
X126795000Y-154432000D03*
X129745000Y-154432000D03*
%TD*%
D71*
%TO.C,C22*%
X107490000Y-119900000D03*
X105590000Y-119900000D03*
%TD*%
D33*
%TO.C,R72*%
X149346000Y-155690000D03*
X147696000Y-155690000D03*
%TD*%
D35*
%TO.C,C67*%
X85750000Y-138500000D03*
X85750000Y-137540000D03*
%TD*%
D29*
%TO.C,C134*%
X112341400Y-69759700D03*
X112341400Y-74859700D03*
%TD*%
D25*
%TO.C,FB15*%
X148450000Y-81650000D03*
X148450000Y-80100000D03*
%TD*%
D33*
%TO.C,R79*%
X120426000Y-156588000D03*
X118776000Y-156588000D03*
%TD*%
D37*
%TO.C,R8*%
X149677000Y-109362500D03*
X149677000Y-107537500D03*
%TD*%
D35*
%TO.C,C69*%
X84250000Y-138480000D03*
X84250000Y-137520000D03*
%TD*%
D25*
%TO.C,FB3*%
X77225000Y-81650000D03*
X77225000Y-80100000D03*
%TD*%
D29*
%TO.C,C140*%
X70609200Y-69759700D03*
X70609200Y-74859700D03*
%TD*%
D27*
%TO.C,C51*%
X150159000Y-114541000D03*
X150159000Y-116091000D03*
%TD*%
D18*
%TO.C,C25*%
X106200000Y-118300000D03*
X105240000Y-118300000D03*
%TD*%
D23*
%TO.C,R55*%
X136297000Y-118491000D03*
X137947000Y-118491000D03*
%TD*%
D20*
%TO.C,D24*%
X92975000Y-143800000D03*
X92975000Y-140500000D03*
%TD*%
%TO.C,D21*%
X59418000Y-108076000D03*
X59418000Y-104776000D03*
%TD*%
%TO.C,D12*%
X114935000Y-82168000D03*
X114935000Y-78868000D03*
%TD*%
D77*
%TO.C,U24*%
X53820000Y-149075000D03*
X52400000Y-149075000D03*
X53820000Y-149905000D03*
X52400000Y-149905000D03*
D78*
X54860000Y-147384500D03*
X53860000Y-147384500D03*
X52860000Y-147384500D03*
X52360000Y-147384500D03*
X51860000Y-147384500D03*
X51360000Y-147384500D03*
X51360000Y-151595500D03*
X51860000Y-151595500D03*
X52360000Y-151595500D03*
X52860000Y-151595500D03*
X53860000Y-151595500D03*
X54860000Y-151595500D03*
%TD*%
D36*
%TO.C,R7*%
X124025000Y-83850000D03*
X124025000Y-85675000D03*
%TD*%
D21*
%TO.C,U6*%
X137734000Y-143368000D03*
X137734000Y-144018000D03*
X137734000Y-144668000D03*
X139634000Y-144668000D03*
X139634000Y-143368000D03*
%TD*%
D29*
%TO.C,C109*%
X98460000Y-97250000D03*
X98460000Y-102350000D03*
%TD*%
D55*
%TO.C,C83*%
X78675000Y-154750000D03*
X80575000Y-154750000D03*
%TD*%
D29*
%TO.C,C110*%
X91510000Y-97250000D03*
X91510000Y-102350000D03*
%TD*%
D79*
%TO.C,R69*%
X67347500Y-131062000D03*
X65472500Y-131062000D03*
%TD*%
D33*
%TO.C,R40*%
X137947000Y-120015000D03*
X136297000Y-120015000D03*
%TD*%
D26*
%TO.C,R113*%
X59375000Y-155850000D03*
X59375000Y-157500000D03*
%TD*%
M02*
