%TF.GenerationSoftware,KiCad,Pcbnew,9.0.4*%
%TF.CreationDate,2026-03-14T17:48:34+01:00*%
%TF.ProjectId,tolt,746f6c74-2e6b-4696-9361-645f70636258,rev?*%
%TF.SameCoordinates,Original*%
%TF.FileFunction,Legend,Bot*%
%TF.FilePolarity,Positive*%
%FSLAX46Y46*%
G04 Gerber Fmt 4.6, Leading zero omitted, Abs format (unit mm)*
G04 Created by KiCad (PCBNEW 9.0.4) date 2026-03-14 17:48:34*
%MOMM*%
%LPD*%
G01*
G04 APERTURE LIST*
%ADD10C,0.000000*%
%ADD11C,0.100000*%
%ADD12C,0.375000*%
%ADD13C,0.200000*%
%ADD14C,0.150000*%
%ADD15C,0.120000*%
%ADD16C,0.127000*%
G04 APERTURE END LIST*
D10*
G36*
X99650225Y-139029664D02*
G01*
X99650329Y-139029735D01*
X99650411Y-139029942D01*
X99650518Y-139030729D01*
X99650558Y-139031955D01*
X99650542Y-139033548D01*
X99650388Y-139037558D01*
X99650151Y-139042193D01*
X99649923Y-139046890D01*
X99649797Y-139051085D01*
X99649802Y-139052818D01*
X99649867Y-139054215D01*
X99650005Y-139055203D01*
X99650104Y-139055523D01*
X99650225Y-139055714D01*
X99651057Y-139056471D01*
X99651983Y-139057162D01*
X99654108Y-139058351D01*
X99656575Y-139059298D01*
X99659357Y-139060021D01*
X99662430Y-139060537D01*
X99665766Y-139060864D01*
X99669339Y-139061018D01*
X99673125Y-139061018D01*
X99677097Y-139060881D01*
X99681228Y-139060624D01*
X99689868Y-139059821D01*
X99698837Y-139058748D01*
X99707927Y-139057546D01*
X99710833Y-139056936D01*
X99713750Y-139056392D01*
X99716676Y-139055914D01*
X99719610Y-139055501D01*
X99722550Y-139055155D01*
X99725497Y-139054875D01*
X99728449Y-139054661D01*
X99731404Y-139054513D01*
X99734361Y-139054431D01*
X99737321Y-139054415D01*
X99740280Y-139054465D01*
X99743239Y-139054582D01*
X99746196Y-139054766D01*
X99749150Y-139055015D01*
X99752100Y-139055331D01*
X99755044Y-139055714D01*
X99756070Y-139056176D01*
X99757196Y-139056848D01*
X99759725Y-139058767D01*
X99762582Y-139061364D01*
X99765719Y-139064533D01*
X99769086Y-139068166D01*
X99772635Y-139072157D01*
X99780077Y-139080785D01*
X99787653Y-139089560D01*
X99791369Y-139093736D01*
X99794970Y-139097628D01*
X99798407Y-139101130D01*
X99801633Y-139104134D01*
X99804596Y-139106534D01*
X99805964Y-139107474D01*
X99807248Y-139108222D01*
X99814084Y-139111431D01*
X99820789Y-139114086D01*
X99827383Y-139116261D01*
X99833887Y-139118029D01*
X99840319Y-139119464D01*
X99846701Y-139120639D01*
X99859391Y-139122505D01*
X99872114Y-139124213D01*
X99878538Y-139125191D01*
X99885030Y-139126351D01*
X99891609Y-139127766D01*
X99898297Y-139129508D01*
X99905111Y-139131652D01*
X99912073Y-139134272D01*
X99933616Y-139161608D01*
X99955553Y-139188622D01*
X99977880Y-139215309D01*
X100000593Y-139241666D01*
X100023690Y-139267687D01*
X100047165Y-139293369D01*
X100071016Y-139318707D01*
X100095239Y-139343698D01*
X100098521Y-139392887D01*
X100098976Y-139395706D01*
X100099517Y-139398438D01*
X100100155Y-139401073D01*
X100100898Y-139403601D01*
X100101755Y-139406013D01*
X100102737Y-139408300D01*
X100103854Y-139410452D01*
X100105113Y-139412458D01*
X100106526Y-139414311D01*
X100108100Y-139416000D01*
X100109847Y-139417515D01*
X100111776Y-139418848D01*
X100113895Y-139419987D01*
X100116215Y-139420925D01*
X100118744Y-139421652D01*
X100121493Y-139422157D01*
X100121493Y-139631583D01*
X100121282Y-139631781D01*
X100118903Y-139647030D01*
X100115825Y-139662321D01*
X100112065Y-139677619D01*
X100107646Y-139692890D01*
X100102585Y-139708098D01*
X100096904Y-139723211D01*
X100083757Y-139753008D01*
X100068362Y-139782006D01*
X100050878Y-139809927D01*
X100031463Y-139836495D01*
X100021080Y-139849186D01*
X100010273Y-139861434D01*
X99999063Y-139873206D01*
X99987468Y-139884468D01*
X99975509Y-139895184D01*
X99963204Y-139905319D01*
X99950575Y-139914841D01*
X99937641Y-139923713D01*
X99924421Y-139931901D01*
X99910935Y-139939371D01*
X99897203Y-139946089D01*
X99883244Y-139952019D01*
X99869079Y-139957127D01*
X99854727Y-139961379D01*
X99840208Y-139964740D01*
X99825541Y-139967176D01*
X99810747Y-139968651D01*
X99795845Y-139969132D01*
X99783685Y-139968533D01*
X99771622Y-139967340D01*
X99759676Y-139965563D01*
X99747865Y-139963210D01*
X99736211Y-139960289D01*
X99724733Y-139956810D01*
X99713450Y-139952781D01*
X99702382Y-139948211D01*
X99691550Y-139943109D01*
X99680973Y-139937483D01*
X99670670Y-139931342D01*
X99660662Y-139924695D01*
X99650968Y-139917550D01*
X99641609Y-139909917D01*
X99632603Y-139901804D01*
X99623971Y-139893219D01*
X99623019Y-139877547D01*
X99623074Y-139862881D01*
X99624070Y-139849155D01*
X99625937Y-139836300D01*
X99628607Y-139824247D01*
X99632013Y-139812929D01*
X99636085Y-139802277D01*
X99640756Y-139792224D01*
X99645957Y-139782700D01*
X99651619Y-139773637D01*
X99657676Y-139764968D01*
X99664058Y-139756624D01*
X99677526Y-139740638D01*
X99691476Y-139725134D01*
X99705364Y-139709565D01*
X99718642Y-139693386D01*
X99724882Y-139684897D01*
X99730765Y-139676051D01*
X99736222Y-139666779D01*
X99741186Y-139657013D01*
X99745588Y-139646686D01*
X99749361Y-139635728D01*
X99752434Y-139624072D01*
X99754741Y-139611649D01*
X99756214Y-139598391D01*
X99756783Y-139584230D01*
X99756380Y-139569097D01*
X99754939Y-139552925D01*
X99749403Y-139534762D01*
X99742495Y-139517971D01*
X99734309Y-139502458D01*
X99724937Y-139488128D01*
X99714475Y-139474889D01*
X99703015Y-139462646D01*
X99690651Y-139451306D01*
X99677478Y-139440775D01*
X99663588Y-139430958D01*
X99649076Y-139421762D01*
X99618560Y-139404857D01*
X99586680Y-139389310D01*
X99554186Y-139374370D01*
X99521828Y-139359285D01*
X99490356Y-139343305D01*
X99475186Y-139334745D01*
X99460520Y-139325680D01*
X99446450Y-139316015D01*
X99433070Y-139305657D01*
X99420474Y-139294512D01*
X99408756Y-139282487D01*
X99398010Y-139269487D01*
X99388329Y-139255418D01*
X99379808Y-139240187D01*
X99372539Y-139223700D01*
X99366617Y-139205863D01*
X99362135Y-139186582D01*
X99373548Y-139167641D01*
X99386173Y-139149737D01*
X99399938Y-139132908D01*
X99414772Y-139117193D01*
X99430604Y-139102632D01*
X99447363Y-139089262D01*
X99464977Y-139077123D01*
X99483376Y-139066254D01*
X99502486Y-139056693D01*
X99522239Y-139048479D01*
X99542561Y-139041652D01*
X99563382Y-139036249D01*
X99584630Y-139032310D01*
X99606234Y-139029874D01*
X99628123Y-139028979D01*
X99650225Y-139029664D01*
G37*
G36*
X96594168Y-140860213D02*
G01*
X96603852Y-140860901D01*
X96613944Y-140861997D01*
X96638929Y-140868092D01*
X96663395Y-140874707D01*
X96687158Y-140882025D01*
X96710038Y-140890225D01*
X96731852Y-140899491D01*
X96752419Y-140910003D01*
X96762178Y-140915784D01*
X96771557Y-140921944D01*
X96780533Y-140928507D01*
X96789084Y-140935494D01*
X96797187Y-140942930D01*
X96804820Y-140950835D01*
X96811958Y-140959235D01*
X96818581Y-140968150D01*
X96824664Y-140977603D01*
X96830186Y-140987618D01*
X96835124Y-140998217D01*
X96839454Y-141009422D01*
X96843155Y-141021257D01*
X96846203Y-141033744D01*
X96848576Y-141046905D01*
X96850252Y-141060764D01*
X96851206Y-141075343D01*
X96851417Y-141090665D01*
X96850862Y-141106752D01*
X96849519Y-141123628D01*
X96846089Y-141124247D01*
X96842926Y-141125142D01*
X96840015Y-141126295D01*
X96837340Y-141127692D01*
X96834888Y-141129316D01*
X96832641Y-141131153D01*
X96830587Y-141133187D01*
X96828708Y-141135401D01*
X96826991Y-141137781D01*
X96825419Y-141140310D01*
X96823979Y-141142974D01*
X96822654Y-141145756D01*
X96820292Y-141151612D01*
X96818211Y-141157755D01*
X96814412Y-141170398D01*
X96812452Y-141176648D01*
X96810290Y-141182684D01*
X96807806Y-141188381D01*
X96806405Y-141191064D01*
X96804878Y-141193614D01*
X96803210Y-141196017D01*
X96801386Y-141198257D01*
X96799390Y-141200319D01*
X96797208Y-141202186D01*
X96791264Y-141206468D01*
X96785136Y-141210307D01*
X96778840Y-141213731D01*
X96772390Y-141216766D01*
X96765800Y-141219440D01*
X96759085Y-141221781D01*
X96752259Y-141223814D01*
X96745338Y-141225568D01*
X96731263Y-141228347D01*
X96716977Y-141230333D01*
X96702594Y-141231745D01*
X96688231Y-141232801D01*
X96660025Y-141234710D01*
X96646412Y-141235999D01*
X96633282Y-141237801D01*
X96620747Y-141240334D01*
X96614740Y-141241942D01*
X96608926Y-141243815D01*
X96603318Y-141245978D01*
X96597932Y-141248461D01*
X96592782Y-141251289D01*
X96587882Y-141254490D01*
X96585866Y-141256051D01*
X96583918Y-141257773D01*
X96582034Y-141259644D01*
X96580209Y-141261654D01*
X96576718Y-141266052D01*
X96573412Y-141270884D01*
X96570256Y-141276070D01*
X96567214Y-141281527D01*
X96561337Y-141292928D01*
X96555502Y-141304434D01*
X96552513Y-141310022D01*
X96549431Y-141315392D01*
X96546221Y-141320461D01*
X96542847Y-141325148D01*
X96539276Y-141329371D01*
X96537405Y-141331283D01*
X96535472Y-141333048D01*
X96529121Y-141361079D01*
X96523780Y-141390114D01*
X96515052Y-141450128D01*
X96507140Y-141510943D01*
X96502819Y-141540981D01*
X96497895Y-141570413D01*
X96492101Y-141598972D01*
X96485168Y-141626391D01*
X96476827Y-141652399D01*
X96472045Y-141664791D01*
X96466810Y-141676730D01*
X96461089Y-141688182D01*
X96454848Y-141699114D01*
X96448053Y-141709492D01*
X96440672Y-141719284D01*
X96432670Y-141728454D01*
X96424013Y-141736971D01*
X96414670Y-141744799D01*
X96404604Y-141751906D01*
X96397023Y-141752546D01*
X96389550Y-141753091D01*
X96382187Y-141753544D01*
X96374939Y-141753904D01*
X96367806Y-141754174D01*
X96360791Y-141754355D01*
X96353897Y-141754447D01*
X96347127Y-141754453D01*
X96324425Y-141754117D01*
X96301785Y-141752846D01*
X96279236Y-141750646D01*
X96256806Y-141747520D01*
X96234523Y-141743474D01*
X96212416Y-141738511D01*
X96190514Y-141732638D01*
X96168843Y-141725857D01*
X96155490Y-141697109D01*
X96144066Y-141668083D01*
X96134507Y-141638827D01*
X96126748Y-141609392D01*
X96120726Y-141579827D01*
X96116374Y-141550183D01*
X96113629Y-141520508D01*
X96112426Y-141490853D01*
X96112701Y-141461267D01*
X96114389Y-141431800D01*
X96117425Y-141402501D01*
X96121745Y-141373422D01*
X96127285Y-141344610D01*
X96133979Y-141316117D01*
X96141764Y-141287991D01*
X96150575Y-141260282D01*
X96160346Y-141233041D01*
X96171015Y-141206317D01*
X96194783Y-141154617D01*
X96221363Y-141105583D01*
X96250239Y-141059610D01*
X96280893Y-141017098D01*
X96312811Y-140978444D01*
X96345475Y-140944045D01*
X96378368Y-140914301D01*
X96386584Y-140913521D01*
X96394513Y-140912454D01*
X96409605Y-140909554D01*
X96423829Y-140905786D01*
X96437371Y-140901335D01*
X96450415Y-140896386D01*
X96463146Y-140891125D01*
X96488409Y-140880402D01*
X96501312Y-140875312D01*
X96514641Y-140870648D01*
X96528582Y-140866597D01*
X96543321Y-140863343D01*
X96551047Y-140862073D01*
X96559041Y-140861071D01*
X96567327Y-140860361D01*
X96575928Y-140859966D01*
X96584867Y-140859909D01*
X96594168Y-140860213D01*
G37*
G36*
X101917121Y-140064426D02*
G01*
X101937855Y-140071511D01*
X101958305Y-140078879D01*
X101978277Y-140086725D01*
X101997578Y-140095240D01*
X102016015Y-140104619D01*
X102024849Y-140109693D01*
X102033394Y-140115055D01*
X102041627Y-140120729D01*
X102049523Y-140126740D01*
X102057057Y-140133112D01*
X102064207Y-140139869D01*
X102070947Y-140147034D01*
X102077253Y-140154633D01*
X102083102Y-140162689D01*
X102088468Y-140171227D01*
X102093329Y-140180271D01*
X102097660Y-140189844D01*
X102101436Y-140199971D01*
X102104633Y-140210676D01*
X102107228Y-140221984D01*
X102109195Y-140233918D01*
X102110512Y-140246503D01*
X102111154Y-140259762D01*
X102111406Y-140277980D01*
X102110821Y-140295366D01*
X102109425Y-140311945D01*
X102107241Y-140327740D01*
X102104293Y-140342775D01*
X102100604Y-140357073D01*
X102096199Y-140370658D01*
X102091102Y-140383554D01*
X102085337Y-140395784D01*
X102078926Y-140407373D01*
X102071896Y-140418343D01*
X102064268Y-140428718D01*
X102056068Y-140438523D01*
X102047319Y-140447781D01*
X102038045Y-140456515D01*
X102028270Y-140464750D01*
X102018018Y-140472508D01*
X102007314Y-140479814D01*
X101984640Y-140493163D01*
X101960441Y-140504986D01*
X101934909Y-140515474D01*
X101908234Y-140524815D01*
X101880608Y-140533198D01*
X101852222Y-140540814D01*
X101823269Y-140547852D01*
X101822859Y-140547951D01*
X101806602Y-140560714D01*
X101790765Y-140573895D01*
X101759669Y-140600824D01*
X101728201Y-140627364D01*
X101711900Y-140640059D01*
X101694992Y-140652143D01*
X101677307Y-140663443D01*
X101658673Y-140673788D01*
X101638920Y-140683006D01*
X101628570Y-140687139D01*
X101617875Y-140690926D01*
X101606815Y-140694345D01*
X101595369Y-140697376D01*
X101583514Y-140699996D01*
X101571229Y-140702185D01*
X101558493Y-140703920D01*
X101545285Y-140705181D01*
X101531583Y-140705945D01*
X101517365Y-140706192D01*
X101509028Y-140706103D01*
X101500499Y-140705837D01*
X101491779Y-140705392D01*
X101482869Y-140704769D01*
X101469840Y-140695368D01*
X101457378Y-140685348D01*
X101445502Y-140674739D01*
X101434227Y-140663565D01*
X101423571Y-140651855D01*
X101413550Y-140639635D01*
X101404182Y-140626933D01*
X101395483Y-140613775D01*
X101387469Y-140600188D01*
X101380159Y-140586199D01*
X101373568Y-140571836D01*
X101367714Y-140557125D01*
X101362614Y-140542093D01*
X101358283Y-140526768D01*
X101354740Y-140511175D01*
X101352001Y-140495343D01*
X101356542Y-140469621D01*
X101361916Y-140444731D01*
X101368117Y-140420666D01*
X101375137Y-140397419D01*
X101382970Y-140374983D01*
X101391608Y-140353352D01*
X101401044Y-140332517D01*
X101411271Y-140312473D01*
X101422282Y-140293211D01*
X101434070Y-140274726D01*
X101446627Y-140257010D01*
X101459948Y-140240057D01*
X101474023Y-140223859D01*
X101488848Y-140208409D01*
X101504413Y-140193700D01*
X101520713Y-140179726D01*
X101537740Y-140166480D01*
X101555487Y-140153954D01*
X101573947Y-140142141D01*
X101593113Y-140131035D01*
X101633534Y-140110914D01*
X101676692Y-140093537D01*
X101722533Y-140078846D01*
X101770997Y-140066786D01*
X101822029Y-140057301D01*
X101875572Y-140050336D01*
X101917121Y-140064426D01*
G37*
G36*
X98140215Y-135575066D02*
G01*
X98205540Y-135579856D01*
X98237033Y-135583462D01*
X98267696Y-135587912D01*
X98297491Y-135593234D01*
X98326379Y-135599455D01*
X98354323Y-135606603D01*
X98381285Y-135614705D01*
X98407226Y-135623788D01*
X98432110Y-135633880D01*
X98455897Y-135645009D01*
X98478551Y-135657201D01*
X98500032Y-135670485D01*
X98520304Y-135684889D01*
X98539328Y-135700438D01*
X98557065Y-135717162D01*
X98573480Y-135735086D01*
X98588532Y-135754240D01*
X98602184Y-135774650D01*
X98614399Y-135796344D01*
X98625139Y-135819350D01*
X98634364Y-135843694D01*
X98642039Y-135869404D01*
X98648123Y-135896508D01*
X98652581Y-135925034D01*
X98655373Y-135955008D01*
X98656461Y-135986459D01*
X98655808Y-136019413D01*
X98648773Y-136028677D01*
X98641574Y-136037807D01*
X98634215Y-136046800D01*
X98626697Y-136055655D01*
X98619022Y-136064370D01*
X98611193Y-136072942D01*
X98603211Y-136081370D01*
X98595078Y-136089651D01*
X98586797Y-136097783D01*
X98578370Y-136105765D01*
X98569798Y-136113594D01*
X98561083Y-136121269D01*
X98552228Y-136128787D01*
X98543235Y-136136146D01*
X98534105Y-136143345D01*
X98524841Y-136150380D01*
X98524524Y-136150269D01*
X98518494Y-136150799D01*
X98512537Y-136151249D01*
X98506650Y-136151622D01*
X98500828Y-136151924D01*
X98489369Y-136152333D01*
X98478133Y-136152517D01*
X98464210Y-136152301D01*
X98450687Y-136151683D01*
X98437542Y-136150684D01*
X98424758Y-136149324D01*
X98400188Y-136145600D01*
X98376818Y-136140671D01*
X98354489Y-136134694D01*
X98333042Y-136127831D01*
X98312319Y-136120239D01*
X98292160Y-136112080D01*
X98252899Y-136094692D01*
X98213989Y-136076944D01*
X98194269Y-136068332D01*
X98174159Y-136060109D01*
X98153502Y-136052432D01*
X98132137Y-136045462D01*
X98105353Y-136039590D01*
X98079620Y-136032651D01*
X98055010Y-136024573D01*
X98031596Y-136015287D01*
X98009451Y-136004720D01*
X97998876Y-135998935D01*
X97988647Y-135992804D01*
X97978771Y-135986317D01*
X97969258Y-135979467D01*
X97960116Y-135972243D01*
X97951355Y-135964638D01*
X97942984Y-135956642D01*
X97935013Y-135948247D01*
X97927449Y-135939444D01*
X97920303Y-135930223D01*
X97913583Y-135920577D01*
X97907298Y-135910496D01*
X97901458Y-135899971D01*
X97896072Y-135888994D01*
X97891148Y-135877556D01*
X97886696Y-135865647D01*
X97882725Y-135853260D01*
X97879244Y-135840385D01*
X97876262Y-135827014D01*
X97873788Y-135813137D01*
X97871831Y-135798746D01*
X97870401Y-135783832D01*
X97870942Y-135773744D01*
X97871975Y-135764148D01*
X97873474Y-135755016D01*
X97875412Y-135746322D01*
X97877762Y-135738040D01*
X97880500Y-135730144D01*
X97883598Y-135722608D01*
X97887030Y-135715406D01*
X97890769Y-135708510D01*
X97894791Y-135701896D01*
X97899067Y-135695536D01*
X97903573Y-135689405D01*
X97913165Y-135677723D01*
X97923358Y-135666641D01*
X97965924Y-135624116D01*
X97975964Y-135612886D01*
X97980748Y-135607038D01*
X97985341Y-135600998D01*
X97989716Y-135594741D01*
X97993846Y-135588241D01*
X97997706Y-135581471D01*
X98001269Y-135574406D01*
X98072023Y-135573322D01*
X98140215Y-135575066D01*
G37*
G36*
X99600037Y-137105027D02*
G01*
X99629598Y-137116355D01*
X99659998Y-137126845D01*
X99690986Y-137136748D01*
X99753710Y-137155807D01*
X99815747Y-137175556D01*
X99845876Y-137186322D01*
X99875074Y-137198020D01*
X99903090Y-137210902D01*
X99929670Y-137225221D01*
X99942343Y-137232999D01*
X99954561Y-137241231D01*
X99966295Y-137249949D01*
X99977511Y-137259184D01*
X99988179Y-137268969D01*
X99998267Y-137279334D01*
X100007743Y-137290311D01*
X100016575Y-137301932D01*
X100018833Y-137314930D01*
X100020790Y-137327965D01*
X100022446Y-137341031D01*
X100023800Y-137354122D01*
X100024854Y-137367235D01*
X100025607Y-137380363D01*
X100026058Y-137393502D01*
X100026209Y-137406645D01*
X100026058Y-137419789D01*
X100025607Y-137432928D01*
X100024854Y-137446056D01*
X100023800Y-137459169D01*
X100022446Y-137472260D01*
X100020790Y-137485326D01*
X100018833Y-137498360D01*
X100016575Y-137511359D01*
X100003511Y-137523945D01*
X99989768Y-137535580D01*
X99975397Y-137546249D01*
X99960451Y-137555935D01*
X99944981Y-137564623D01*
X99929038Y-137572298D01*
X99912674Y-137578944D01*
X99895941Y-137584546D01*
X99878889Y-137589088D01*
X99861571Y-137592555D01*
X99844037Y-137594932D01*
X99826340Y-137596202D01*
X99808530Y-137596352D01*
X99790660Y-137595364D01*
X99772781Y-137593224D01*
X99754945Y-137589917D01*
X99740516Y-137585665D01*
X99727199Y-137581203D01*
X99714840Y-137576603D01*
X99703286Y-137571938D01*
X99662064Y-137554085D01*
X99652242Y-137550187D01*
X99642307Y-137546662D01*
X99632107Y-137543582D01*
X99621489Y-137541020D01*
X99610299Y-137539048D01*
X99598385Y-137537741D01*
X99585594Y-137537170D01*
X99578822Y-137537183D01*
X99571773Y-137537408D01*
X99310142Y-137537408D01*
X99309925Y-137537501D01*
X99301165Y-137538051D01*
X99292804Y-137538997D01*
X99284815Y-137540312D01*
X99277169Y-137541968D01*
X99269840Y-137543938D01*
X99262801Y-137546196D01*
X99256024Y-137548713D01*
X99249482Y-137551464D01*
X99236994Y-137557555D01*
X99225120Y-137564254D01*
X99202339Y-137578602D01*
X99190997Y-137585819D01*
X99179397Y-137592775D01*
X99167320Y-137599253D01*
X99161035Y-137602245D01*
X99154549Y-137605036D01*
X99147835Y-137607600D01*
X99140866Y-137609908D01*
X99133614Y-137611934D01*
X99126053Y-137613651D01*
X99118154Y-137615032D01*
X99109891Y-137616049D01*
X99101237Y-137616676D01*
X99092164Y-137616885D01*
X99089989Y-137616872D01*
X99087789Y-137616834D01*
X99083313Y-137616681D01*
X99078733Y-137616427D01*
X99074052Y-137616072D01*
X99042817Y-137598270D01*
X99011917Y-137580130D01*
X98996913Y-137570612D01*
X98982377Y-137560626D01*
X98968436Y-137550042D01*
X98955219Y-137538732D01*
X98948922Y-137532765D01*
X98942854Y-137526568D01*
X98937030Y-137520126D01*
X98931467Y-137513422D01*
X98926181Y-137506441D01*
X98921188Y-137499166D01*
X98916504Y-137491582D01*
X98912144Y-137483672D01*
X98908126Y-137475420D01*
X98904464Y-137466810D01*
X98901175Y-137457827D01*
X98898274Y-137448454D01*
X98895778Y-137438676D01*
X98893704Y-137428475D01*
X98892065Y-137417837D01*
X98890880Y-137406745D01*
X98891872Y-137389717D01*
X98893574Y-137373400D01*
X98895961Y-137357770D01*
X98899008Y-137342801D01*
X98902691Y-137328470D01*
X98906985Y-137314752D01*
X98911867Y-137301623D01*
X98917310Y-137289056D01*
X98923291Y-137277029D01*
X98929785Y-137265517D01*
X98936768Y-137254494D01*
X98944215Y-137243936D01*
X98952101Y-137233819D01*
X98960403Y-137224118D01*
X98969095Y-137214809D01*
X98978152Y-137205866D01*
X98997267Y-137188983D01*
X99017552Y-137173272D01*
X99038809Y-137158537D01*
X99060842Y-137144580D01*
X99083456Y-137131205D01*
X99106453Y-137118216D01*
X99152815Y-137092606D01*
X99571568Y-137092606D01*
X99600037Y-137105027D01*
G37*
G36*
X97747801Y-138274712D02*
G01*
X97764044Y-138275683D01*
X97780206Y-138277390D01*
X97796261Y-138279827D01*
X97812183Y-138282988D01*
X97827945Y-138286868D01*
X97843521Y-138291461D01*
X97858884Y-138296760D01*
X97874009Y-138302761D01*
X97888869Y-138309457D01*
X97903438Y-138316842D01*
X97917689Y-138324911D01*
X97931596Y-138333657D01*
X97945133Y-138343076D01*
X97958274Y-138353160D01*
X97970992Y-138363904D01*
X97983261Y-138375303D01*
X97995054Y-138387350D01*
X98006346Y-138400040D01*
X98017109Y-138413366D01*
X98027319Y-138427323D01*
X98024845Y-138440382D01*
X98021897Y-138452967D01*
X98018485Y-138465089D01*
X98014619Y-138476759D01*
X98010311Y-138487987D01*
X98005570Y-138498784D01*
X98000409Y-138509161D01*
X97994836Y-138519128D01*
X97988863Y-138528695D01*
X97982501Y-138537875D01*
X97975760Y-138546676D01*
X97968651Y-138555110D01*
X97961185Y-138563187D01*
X97953372Y-138570918D01*
X97936747Y-138585384D01*
X97918864Y-138598594D01*
X97899806Y-138610632D01*
X97879660Y-138621583D01*
X97858510Y-138631532D01*
X97836442Y-138640564D01*
X97813542Y-138648765D01*
X97789893Y-138656218D01*
X97765582Y-138663010D01*
X97764036Y-138670429D01*
X97762217Y-138677741D01*
X97757788Y-138692022D01*
X97752338Y-138705809D01*
X97745912Y-138719057D01*
X97738553Y-138731724D01*
X97730304Y-138743766D01*
X97721211Y-138755138D01*
X97711316Y-138765796D01*
X97700664Y-138775698D01*
X97689297Y-138784798D01*
X97677261Y-138793054D01*
X97664599Y-138800421D01*
X97651355Y-138806856D01*
X97637572Y-138812314D01*
X97623294Y-138816752D01*
X97615983Y-138818575D01*
X97608566Y-138820126D01*
X97608354Y-138820331D01*
X97601506Y-138823015D01*
X97594562Y-138825408D01*
X97587529Y-138827510D01*
X97580419Y-138829318D01*
X97573238Y-138830830D01*
X97565998Y-138832043D01*
X97558707Y-138832956D01*
X97551373Y-138833567D01*
X97538997Y-138831183D01*
X97526587Y-138828995D01*
X97514146Y-138827005D01*
X97501675Y-138825213D01*
X97489178Y-138823619D01*
X97476656Y-138822223D01*
X97464112Y-138821025D01*
X97451549Y-138820027D01*
X97448108Y-138816094D01*
X97444891Y-138811937D01*
X97441882Y-138807574D01*
X97439064Y-138803020D01*
X97433938Y-138793402D01*
X97429387Y-138783212D01*
X97425281Y-138772578D01*
X97421493Y-138761627D01*
X97414358Y-138739290D01*
X97410754Y-138728160D01*
X97406955Y-138717225D01*
X97402834Y-138706615D01*
X97398260Y-138696456D01*
X97393108Y-138686878D01*
X97390274Y-138682347D01*
X97387247Y-138678008D01*
X97384012Y-138673879D01*
X97380551Y-138669974D01*
X97376850Y-138666311D01*
X97372891Y-138662904D01*
X97375038Y-138650444D01*
X97377570Y-138638079D01*
X97380486Y-138625817D01*
X97383780Y-138613667D01*
X97387451Y-138601639D01*
X97391492Y-138589739D01*
X97395902Y-138577977D01*
X97400677Y-138566362D01*
X97405812Y-138554902D01*
X97411304Y-138543605D01*
X97417149Y-138532480D01*
X97423345Y-138521535D01*
X97429886Y-138510780D01*
X97436769Y-138500222D01*
X97443992Y-138489870D01*
X97451549Y-138479733D01*
X97456886Y-138469975D01*
X97462068Y-138459767D01*
X97472240Y-138438383D01*
X97482603Y-138416335D01*
X97488025Y-138405298D01*
X97493697Y-138394380D01*
X97499687Y-138383673D01*
X97506061Y-138373273D01*
X97512887Y-138363275D01*
X97520232Y-138353772D01*
X97524121Y-138349237D01*
X97528165Y-138344860D01*
X97532372Y-138340655D01*
X97536751Y-138336633D01*
X97541311Y-138332805D01*
X97546059Y-138329184D01*
X97551005Y-138325782D01*
X97556156Y-138322610D01*
X97571317Y-138314291D01*
X97586713Y-138306779D01*
X97602317Y-138300067D01*
X97618104Y-138294149D01*
X97634046Y-138289020D01*
X97650119Y-138284675D01*
X97666294Y-138281106D01*
X97682547Y-138278308D01*
X97698850Y-138276276D01*
X97715177Y-138275003D01*
X97731503Y-138274484D01*
X97747801Y-138274712D01*
G37*
G36*
X102087484Y-138620844D02*
G01*
X102099877Y-138622034D01*
X102112243Y-138624191D01*
X102124567Y-138627255D01*
X102136832Y-138631164D01*
X102149022Y-138635858D01*
X102161121Y-138641276D01*
X102173111Y-138647355D01*
X102184978Y-138654035D01*
X102196703Y-138661256D01*
X102219667Y-138677070D01*
X102241872Y-138694309D01*
X102263187Y-138712482D01*
X102283481Y-138731101D01*
X102302622Y-138749676D01*
X102320480Y-138767717D01*
X102345782Y-138847092D01*
X102372520Y-138925031D01*
X102427930Y-139078997D01*
X102455409Y-139156217D01*
X102481946Y-139234394D01*
X102506943Y-139314122D01*
X102529807Y-139396001D01*
X102537086Y-139434447D01*
X102546788Y-139474734D01*
X102570744Y-139559533D01*
X102596229Y-139647802D01*
X102607842Y-139692427D01*
X102617795Y-139736946D01*
X102625408Y-139781034D01*
X102629998Y-139824367D01*
X102630948Y-139845649D01*
X102630886Y-139866620D01*
X102629729Y-139887241D01*
X102627391Y-139907470D01*
X102623787Y-139927267D01*
X102618832Y-139946591D01*
X102612441Y-139965401D01*
X102604528Y-139983658D01*
X102595009Y-140001321D01*
X102583798Y-140018348D01*
X102570811Y-140034700D01*
X102555962Y-140050336D01*
X102555757Y-140050528D01*
X102547909Y-140051526D01*
X102540047Y-140052384D01*
X102532172Y-140053103D01*
X102524286Y-140053683D01*
X102516390Y-140054124D01*
X102508487Y-140054426D01*
X102500578Y-140054590D01*
X102492665Y-140054615D01*
X102465327Y-140053533D01*
X102440090Y-140050355D01*
X102416852Y-140045179D01*
X102395514Y-140038106D01*
X102375975Y-140029234D01*
X102358137Y-140018665D01*
X102341898Y-140006498D01*
X102327159Y-139992832D01*
X102313820Y-139977767D01*
X102301781Y-139961403D01*
X102290941Y-139943840D01*
X102281202Y-139925177D01*
X102272463Y-139905514D01*
X102264624Y-139884951D01*
X102251246Y-139841523D01*
X102240269Y-139795691D01*
X102230892Y-139748252D01*
X102213742Y-139651747D01*
X102204370Y-139604277D01*
X102193399Y-139558391D01*
X102180030Y-139514888D01*
X102172197Y-139494280D01*
X102163464Y-139474566D01*
X102152237Y-139423546D01*
X102139931Y-139373627D01*
X102112797Y-139276373D01*
X102053420Y-139087129D01*
X102024028Y-138992243D01*
X101996733Y-138895251D01*
X101984318Y-138845513D01*
X101972961Y-138794705D01*
X101962842Y-138742648D01*
X101954137Y-138689159D01*
X101965734Y-138675660D01*
X101977486Y-138663803D01*
X101989375Y-138653526D01*
X102001386Y-138644767D01*
X102013501Y-138637466D01*
X102025706Y-138631562D01*
X102037982Y-138626993D01*
X102050315Y-138623698D01*
X102062687Y-138621615D01*
X102075082Y-138620685D01*
X102087484Y-138620844D01*
G37*
G36*
X96276010Y-142413576D02*
G01*
X96279040Y-142420111D01*
X96282406Y-142426444D01*
X96286098Y-142432564D01*
X96290102Y-142438459D01*
X96294410Y-142444118D01*
X96299009Y-142449531D01*
X96303888Y-142454686D01*
X96309037Y-142459572D01*
X96314444Y-142464178D01*
X96320098Y-142468493D01*
X96325987Y-142472505D01*
X96332102Y-142476205D01*
X96338431Y-142479580D01*
X96344962Y-142482620D01*
X96351685Y-142485314D01*
X96354628Y-142524534D01*
X96356731Y-142563794D01*
X96357992Y-142603080D01*
X96358412Y-142642381D01*
X96357992Y-142681681D01*
X96356731Y-142720968D01*
X96354628Y-142760228D01*
X96351685Y-142799447D01*
X96346969Y-142801267D01*
X96342739Y-142803573D01*
X96338961Y-142806333D01*
X96335601Y-142809512D01*
X96332624Y-142813075D01*
X96329998Y-142816990D01*
X96327688Y-142821221D01*
X96325661Y-142825735D01*
X96323881Y-142830498D01*
X96322316Y-142835476D01*
X96319692Y-142845939D01*
X96315520Y-142867945D01*
X96313428Y-142878943D01*
X96310971Y-142889574D01*
X96309520Y-142894667D01*
X96307876Y-142899566D01*
X96306004Y-142904238D01*
X96303872Y-142908648D01*
X96301444Y-142912761D01*
X96298686Y-142916545D01*
X96295566Y-142919965D01*
X96292048Y-142922987D01*
X96288099Y-142925577D01*
X96283685Y-142927701D01*
X96278772Y-142929325D01*
X96273377Y-142930404D01*
X96274750Y-142938085D01*
X96275427Y-142945304D01*
X96275402Y-142951820D01*
X96274718Y-142957677D01*
X96273421Y-142962919D01*
X96271555Y-142967591D01*
X96269163Y-142971737D01*
X96266291Y-142975403D01*
X96262982Y-142978633D01*
X96259282Y-142981471D01*
X96255234Y-142983962D01*
X96250883Y-142986151D01*
X96246273Y-142988083D01*
X96241449Y-142989801D01*
X96231334Y-142992776D01*
X96210484Y-142998132D01*
X96200459Y-143001226D01*
X96195701Y-143003033D01*
X96191172Y-143005073D01*
X96186917Y-143007391D01*
X96182980Y-143010031D01*
X96179406Y-143013038D01*
X96176238Y-143016456D01*
X96173521Y-143020330D01*
X96171299Y-143024704D01*
X96169617Y-143029624D01*
X96168520Y-143035134D01*
X96141958Y-143031664D01*
X96117224Y-143025938D01*
X96094286Y-143018082D01*
X96073110Y-143008223D01*
X96053665Y-142996486D01*
X96035917Y-142983000D01*
X96019835Y-142967891D01*
X96005385Y-142951284D01*
X95992536Y-142933308D01*
X95981254Y-142914088D01*
X95971507Y-142893751D01*
X95963262Y-142872424D01*
X95956488Y-142850234D01*
X95951151Y-142827307D01*
X95947219Y-142803769D01*
X95944659Y-142779748D01*
X95943440Y-142755371D01*
X95943527Y-142730763D01*
X95944889Y-142706051D01*
X95947494Y-142681363D01*
X95951308Y-142656824D01*
X95956300Y-142632562D01*
X95962436Y-142608703D01*
X95969684Y-142585373D01*
X95978012Y-142562700D01*
X95987386Y-142540810D01*
X95997776Y-142519829D01*
X96009147Y-142499885D01*
X96021468Y-142481104D01*
X96034705Y-142463612D01*
X96048827Y-142447537D01*
X96063801Y-142433004D01*
X96065739Y-142432491D01*
X96067735Y-142432034D01*
X96071865Y-142431258D01*
X96076132Y-142430616D01*
X96080474Y-142430048D01*
X96089140Y-142428887D01*
X96093343Y-142428174D01*
X96097378Y-142427291D01*
X96099313Y-142426768D01*
X96101184Y-142426179D01*
X96102982Y-142425517D01*
X96104700Y-142424775D01*
X96106331Y-142423945D01*
X96107866Y-142423020D01*
X96109298Y-142421992D01*
X96110620Y-142420853D01*
X96111824Y-142419596D01*
X96112903Y-142418213D01*
X96113848Y-142416697D01*
X96114652Y-142415039D01*
X96115308Y-142413234D01*
X96115808Y-142411272D01*
X96116144Y-142409146D01*
X96116309Y-142406849D01*
X96273326Y-142406849D01*
X96276010Y-142413576D01*
G37*
G36*
X98622415Y-141111201D02*
G01*
X98639415Y-141126420D01*
X98654368Y-141143020D01*
X98667346Y-141160895D01*
X98678422Y-141179940D01*
X98687669Y-141200049D01*
X98695160Y-141221119D01*
X98700967Y-141243042D01*
X98705164Y-141265714D01*
X98707824Y-141289031D01*
X98709019Y-141312886D01*
X98708823Y-141337174D01*
X98707307Y-141361790D01*
X98704546Y-141386629D01*
X98700613Y-141411586D01*
X98695579Y-141436556D01*
X98682503Y-141486112D01*
X98665901Y-141534455D01*
X98646359Y-141580743D01*
X98624457Y-141624135D01*
X98600781Y-141663790D01*
X98575913Y-141698864D01*
X98550436Y-141728517D01*
X98537651Y-141741047D01*
X98524934Y-141751906D01*
X98341657Y-141751701D01*
X98337654Y-141744520D01*
X98333525Y-141737416D01*
X98329271Y-141730392D01*
X98324892Y-141723448D01*
X98320391Y-141716586D01*
X98315767Y-141709808D01*
X98311023Y-141703116D01*
X98306160Y-141696510D01*
X98301178Y-141689993D01*
X98296080Y-141683566D01*
X98290865Y-141677231D01*
X98285536Y-141670989D01*
X98280094Y-141664843D01*
X98274539Y-141658793D01*
X98268874Y-141652841D01*
X98263098Y-141646988D01*
X98282195Y-141554912D01*
X98292711Y-141509835D01*
X98304190Y-141465717D01*
X98316867Y-141422795D01*
X98330981Y-141381305D01*
X98346769Y-141341486D01*
X98355364Y-141322277D01*
X98364467Y-141303575D01*
X98374106Y-141285409D01*
X98384312Y-141267810D01*
X98395115Y-141250805D01*
X98406543Y-141234427D01*
X98418627Y-141218703D01*
X98431396Y-141203664D01*
X98444880Y-141189340D01*
X98459108Y-141175759D01*
X98474111Y-141162953D01*
X98489917Y-141150950D01*
X98506556Y-141139780D01*
X98524059Y-141129473D01*
X98542454Y-141120058D01*
X98561772Y-141111566D01*
X98582042Y-141104026D01*
X98603293Y-141097467D01*
X98622415Y-141111201D01*
G37*
G36*
X101942311Y-141917031D02*
G01*
X101965054Y-141918445D01*
X101987602Y-141920895D01*
X102009886Y-141924369D01*
X102031841Y-141928858D01*
X102053399Y-141934351D01*
X102074493Y-141940838D01*
X102095058Y-141948310D01*
X102115025Y-141956755D01*
X102134330Y-141966165D01*
X102152903Y-141976528D01*
X102170680Y-141987834D01*
X102187593Y-142000074D01*
X102203575Y-142013237D01*
X102218560Y-142027313D01*
X102232482Y-142042292D01*
X102245272Y-142058164D01*
X102256865Y-142074918D01*
X102267193Y-142092545D01*
X102276191Y-142111034D01*
X102283791Y-142130375D01*
X102289926Y-142150558D01*
X102294530Y-142171573D01*
X102296035Y-142183715D01*
X102296961Y-142195277D01*
X102297336Y-142206288D01*
X102297186Y-142216773D01*
X102296538Y-142226760D01*
X102295419Y-142236276D01*
X102293858Y-142245349D01*
X102291879Y-142254004D01*
X102289512Y-142262270D01*
X102286782Y-142270173D01*
X102283716Y-142277741D01*
X102280343Y-142285001D01*
X102276688Y-142291979D01*
X102272779Y-142298703D01*
X102268644Y-142305200D01*
X102264308Y-142311496D01*
X102255145Y-142323598D01*
X102245506Y-142335225D01*
X102225669Y-142357920D01*
X102215904Y-142369422D01*
X102206529Y-142381316D01*
X102202056Y-142387478D01*
X102197762Y-142393819D01*
X102193673Y-142400366D01*
X102189817Y-142407147D01*
X102180457Y-142408913D01*
X102171064Y-142410161D01*
X102161658Y-142410895D01*
X102152260Y-142411120D01*
X102142889Y-142410840D01*
X102133566Y-142410060D01*
X102124310Y-142408784D01*
X102115142Y-142407016D01*
X102106081Y-142404761D01*
X102097148Y-142402023D01*
X102088362Y-142398807D01*
X102079744Y-142395118D01*
X102071314Y-142390958D01*
X102063090Y-142386334D01*
X102055095Y-142381248D01*
X102047347Y-142375707D01*
X102031620Y-142365786D01*
X102024000Y-142361043D01*
X102016510Y-142356560D01*
X102009123Y-142352425D01*
X102001815Y-142348723D01*
X101994560Y-142345541D01*
X101987333Y-142342967D01*
X101983722Y-142341935D01*
X101980108Y-142341087D01*
X101976488Y-142340434D01*
X101972860Y-142339988D01*
X101969220Y-142339758D01*
X101965564Y-142339756D01*
X101961890Y-142339992D01*
X101958194Y-142340478D01*
X101954474Y-142341224D01*
X101950726Y-142342241D01*
X101946946Y-142343540D01*
X101943133Y-142345132D01*
X101939282Y-142347028D01*
X101935390Y-142349238D01*
X101931455Y-142351773D01*
X101927473Y-142354644D01*
X101927473Y-142354036D01*
X101918278Y-142385750D01*
X101909636Y-142418015D01*
X101892723Y-142482909D01*
X101883806Y-142514896D01*
X101874154Y-142546146D01*
X101863444Y-142576338D01*
X101857591Y-142590937D01*
X101851352Y-142605151D01*
X101844688Y-142618939D01*
X101837558Y-142632261D01*
X101829922Y-142645077D01*
X101821739Y-142657348D01*
X101812969Y-142669031D01*
X101803572Y-142680089D01*
X101793507Y-142690479D01*
X101782735Y-142700163D01*
X101771215Y-142709099D01*
X101758907Y-142717247D01*
X101745770Y-142724568D01*
X101731764Y-142731021D01*
X101716849Y-142736566D01*
X101700984Y-142741162D01*
X101684130Y-142744770D01*
X101666246Y-142747348D01*
X101655787Y-142746367D01*
X101645770Y-142744944D01*
X101636175Y-142743097D01*
X101626982Y-142740846D01*
X101618175Y-142738210D01*
X101609733Y-142735208D01*
X101601638Y-142731857D01*
X101593870Y-142728178D01*
X101586412Y-142724189D01*
X101579244Y-142719909D01*
X101572348Y-142715357D01*
X101565705Y-142710552D01*
X101559295Y-142705512D01*
X101553101Y-142700257D01*
X101541281Y-142689176D01*
X101530096Y-142677459D01*
X101519395Y-142665258D01*
X101498843Y-142640006D01*
X101478419Y-142614628D01*
X101467878Y-142602269D01*
X101456919Y-142590332D01*
X101457445Y-142546088D01*
X101460238Y-142502138D01*
X101465262Y-142458562D01*
X101472487Y-142415438D01*
X101481878Y-142372846D01*
X101493403Y-142330865D01*
X101507029Y-142289574D01*
X101522722Y-142249051D01*
X101540451Y-142209377D01*
X101560181Y-142170629D01*
X101581880Y-142132888D01*
X101605515Y-142096232D01*
X101631053Y-142060740D01*
X101658461Y-142026491D01*
X101687705Y-141993565D01*
X101718754Y-141962040D01*
X101739791Y-141952547D01*
X101761299Y-141944190D01*
X101783211Y-141936960D01*
X101805461Y-141930846D01*
X101827982Y-141925837D01*
X101850706Y-141921925D01*
X101873568Y-141919098D01*
X101896501Y-141917347D01*
X101919437Y-141916661D01*
X101942311Y-141917031D01*
G37*
G36*
X97323553Y-142005818D02*
G01*
X97333660Y-142006508D01*
X97343712Y-142007576D01*
X97353698Y-142009017D01*
X97363607Y-142010829D01*
X97373429Y-142013008D01*
X97383155Y-142015549D01*
X97392774Y-142018450D01*
X97402274Y-142021705D01*
X97411647Y-142025313D01*
X97420882Y-142029268D01*
X97429969Y-142033567D01*
X97438896Y-142038207D01*
X97447655Y-142043183D01*
X97456234Y-142048492D01*
X97464624Y-142054130D01*
X97472814Y-142060093D01*
X97480793Y-142066378D01*
X97488552Y-142072981D01*
X97496080Y-142079898D01*
X97503366Y-142087125D01*
X97510402Y-142094659D01*
X97517175Y-142102496D01*
X97523677Y-142110632D01*
X97529896Y-142119063D01*
X97531754Y-142155287D01*
X97532683Y-142190583D01*
X97532642Y-142224911D01*
X97531591Y-142258230D01*
X97529487Y-142290496D01*
X97526290Y-142321669D01*
X97521957Y-142351706D01*
X97516448Y-142380567D01*
X97509722Y-142408208D01*
X97501737Y-142434590D01*
X97492452Y-142459669D01*
X97481825Y-142483404D01*
X97469816Y-142505753D01*
X97463279Y-142516395D01*
X97456382Y-142526675D01*
X97449118Y-142536588D01*
X97441483Y-142546128D01*
X97433471Y-142555291D01*
X97425077Y-142564071D01*
X97425077Y-142563568D01*
X97422628Y-142576882D01*
X97419582Y-142589947D01*
X97415955Y-142602748D01*
X97411762Y-142615274D01*
X97407020Y-142627510D01*
X97401746Y-142639446D01*
X97395954Y-142651066D01*
X97389660Y-142662360D01*
X97382882Y-142673313D01*
X97375634Y-142683912D01*
X97367932Y-142694146D01*
X97359794Y-142704001D01*
X97351234Y-142713464D01*
X97342268Y-142722523D01*
X97332914Y-142731164D01*
X97323185Y-142739374D01*
X97313099Y-142747141D01*
X97302672Y-142754452D01*
X97291919Y-142761294D01*
X97280857Y-142767654D01*
X97269501Y-142773519D01*
X97257867Y-142778876D01*
X97245972Y-142783713D01*
X97233831Y-142788016D01*
X97221460Y-142791773D01*
X97208876Y-142794970D01*
X97196094Y-142797596D01*
X97183130Y-142799636D01*
X97170000Y-142801079D01*
X97156721Y-142801910D01*
X97143307Y-142802118D01*
X97129776Y-142801690D01*
X97124374Y-142801682D01*
X97118908Y-142801608D01*
X97113380Y-142801467D01*
X97107789Y-142801259D01*
X97102135Y-142800985D01*
X97096418Y-142800643D01*
X97090638Y-142800234D01*
X97084795Y-142799758D01*
X97064972Y-142779653D01*
X97047668Y-142758309D01*
X97032789Y-142735819D01*
X97020244Y-142712280D01*
X97009940Y-142687787D01*
X97001785Y-142662435D01*
X96995688Y-142636319D01*
X96991555Y-142609536D01*
X96989294Y-142582180D01*
X96988814Y-142554347D01*
X96990022Y-142526133D01*
X96992825Y-142497631D01*
X96997132Y-142468939D01*
X97002850Y-142440151D01*
X97009886Y-142411363D01*
X97018150Y-142382670D01*
X97037988Y-142325951D01*
X97061626Y-142270757D01*
X97088326Y-142217851D01*
X97117350Y-142167996D01*
X97147960Y-142121956D01*
X97179417Y-142080493D01*
X97210984Y-142044370D01*
X97241924Y-142014351D01*
X97252106Y-142011883D01*
X97262315Y-142009823D01*
X97272541Y-142008167D01*
X97282772Y-142006912D01*
X97292999Y-142006053D01*
X97303212Y-142005587D01*
X97313400Y-142005510D01*
X97323553Y-142005818D01*
G37*
G36*
X101152157Y-136824585D02*
G01*
X101181689Y-136827154D01*
X101211017Y-136831285D01*
X101239929Y-136836955D01*
X101268213Y-136844144D01*
X101295659Y-136852831D01*
X101322055Y-136862995D01*
X101347190Y-136874615D01*
X101370852Y-136887669D01*
X101392831Y-136902137D01*
X101412914Y-136917998D01*
X101430890Y-136935230D01*
X101446549Y-136953812D01*
X101459678Y-136973724D01*
X101470067Y-136994945D01*
X101477504Y-137017452D01*
X101481777Y-137041226D01*
X101482676Y-137066246D01*
X101482565Y-137066438D01*
X101481178Y-137079751D01*
X101479055Y-137092614D01*
X101476218Y-137105030D01*
X101472689Y-137117001D01*
X101468491Y-137128527D01*
X101463646Y-137139612D01*
X101458177Y-137150255D01*
X101452105Y-137160460D01*
X101445453Y-137170228D01*
X101438243Y-137179560D01*
X101430498Y-137188458D01*
X101422239Y-137196924D01*
X101413489Y-137204960D01*
X101404271Y-137212567D01*
X101394606Y-137219747D01*
X101384517Y-137226502D01*
X101363156Y-137238742D01*
X101340365Y-137249301D01*
X101316324Y-137258193D01*
X101291211Y-137265432D01*
X101265204Y-137271030D01*
X101238480Y-137275001D01*
X101211219Y-137277360D01*
X101183599Y-137278119D01*
X101166418Y-137277818D01*
X101149208Y-137276919D01*
X101132013Y-137275424D01*
X101114874Y-137273336D01*
X101097834Y-137270659D01*
X101080934Y-137267397D01*
X101064216Y-137263552D01*
X101047722Y-137259127D01*
X101031494Y-137254127D01*
X101015575Y-137248554D01*
X101000006Y-137242411D01*
X100984829Y-137235703D01*
X100970087Y-137228431D01*
X100955820Y-137220600D01*
X100942072Y-137212212D01*
X100928885Y-137203272D01*
X100916299Y-137193782D01*
X100904358Y-137183745D01*
X100893103Y-137173165D01*
X100882576Y-137162045D01*
X100872819Y-137150389D01*
X100863875Y-137138199D01*
X100855784Y-137125479D01*
X100848590Y-137112232D01*
X100842335Y-137098462D01*
X100837059Y-137084172D01*
X100832806Y-137069364D01*
X100829617Y-137054043D01*
X100827534Y-137038212D01*
X100826599Y-137021873D01*
X100826854Y-137005031D01*
X100828342Y-136987688D01*
X100835581Y-136964315D01*
X100845786Y-136942819D01*
X100858745Y-136923179D01*
X100874247Y-136905373D01*
X100892081Y-136889382D01*
X100912035Y-136875182D01*
X100933897Y-136862755D01*
X100957458Y-136852078D01*
X100982504Y-136843130D01*
X101008825Y-136835891D01*
X101036210Y-136830340D01*
X101064447Y-136826454D01*
X101093324Y-136824214D01*
X101122632Y-136823598D01*
X101152157Y-136824585D01*
G37*
G36*
X104807125Y-140531031D02*
G01*
X104857138Y-140709441D01*
X104896799Y-140889691D01*
X104926125Y-141071339D01*
X104945133Y-141253941D01*
X104953839Y-141437053D01*
X104952258Y-141620231D01*
X104940407Y-141803033D01*
X104918303Y-141985014D01*
X104885961Y-142165731D01*
X104843398Y-142344740D01*
X104790631Y-142521598D01*
X104727675Y-142695862D01*
X104654546Y-142867086D01*
X104571262Y-143034829D01*
X104562797Y-143056067D01*
X104553919Y-143077118D01*
X104544630Y-143097976D01*
X104534935Y-143118636D01*
X104524837Y-143139092D01*
X104514338Y-143159338D01*
X104503443Y-143179368D01*
X104492154Y-143199176D01*
X104480476Y-143218757D01*
X104468411Y-143238105D01*
X104455963Y-143257214D01*
X104443136Y-143276079D01*
X104429932Y-143294693D01*
X104416355Y-143313051D01*
X104402409Y-143331147D01*
X104388096Y-143348975D01*
X104387380Y-143349698D01*
X104386789Y-143350582D01*
X104386316Y-143351617D01*
X104385952Y-143352793D01*
X104385690Y-143354099D01*
X104385522Y-143355524D01*
X104385436Y-143358696D01*
X104385630Y-143362226D01*
X104386041Y-143366033D01*
X104387258Y-143374150D01*
X104388580Y-143382397D01*
X104389122Y-143386364D01*
X104389499Y-143390119D01*
X104389649Y-143393580D01*
X104389507Y-143396666D01*
X104389307Y-143398042D01*
X104389011Y-143399294D01*
X104388610Y-143400412D01*
X104388096Y-143401384D01*
X104386096Y-143404207D01*
X104383676Y-143407137D01*
X104380891Y-143410163D01*
X104377794Y-143413276D01*
X104374438Y-143416465D01*
X104370879Y-143419721D01*
X104363358Y-143426390D01*
X104355662Y-143433203D01*
X104348216Y-143440077D01*
X104344722Y-143443513D01*
X104341450Y-143446933D01*
X104338456Y-143450328D01*
X104335793Y-143453688D01*
X104332092Y-143458726D01*
X104328567Y-143463732D01*
X104321940Y-143473659D01*
X104315712Y-143483497D01*
X104309680Y-143493270D01*
X104303644Y-143503005D01*
X104297401Y-143512729D01*
X104290750Y-143522467D01*
X104287208Y-143527350D01*
X104283489Y-143532246D01*
X104276417Y-143540910D01*
X104268938Y-143549401D01*
X104261107Y-143557743D01*
X104252981Y-143565959D01*
X104236062Y-143582105D01*
X104218628Y-143598023D01*
X104201122Y-143613898D01*
X104183989Y-143629915D01*
X104175701Y-143638034D01*
X104167674Y-143646259D01*
X104159962Y-143654611D01*
X104152621Y-143663114D01*
X104145181Y-143672382D01*
X104138095Y-143681950D01*
X104131311Y-143691769D01*
X104124778Y-143701790D01*
X104112269Y-143722245D01*
X104100162Y-143742925D01*
X104088055Y-143763444D01*
X104081876Y-143773521D01*
X104075545Y-143783411D01*
X104069013Y-143793067D01*
X104062229Y-143802438D01*
X104055142Y-143811478D01*
X104047703Y-143820137D01*
X104023031Y-143844681D01*
X103997923Y-143868765D01*
X103972385Y-143892385D01*
X103946425Y-143915534D01*
X103920047Y-143938207D01*
X103893258Y-143960398D01*
X103866066Y-143982100D01*
X103838475Y-144003309D01*
X103810574Y-144027312D01*
X103783758Y-144051463D01*
X103732197Y-144099283D01*
X103706859Y-144122487D01*
X103681419Y-144144909D01*
X103668569Y-144155755D01*
X103655582Y-144166318D01*
X103642421Y-144176570D01*
X103629049Y-144186481D01*
X103558733Y-144234646D01*
X103486873Y-144280338D01*
X103413537Y-144323522D01*
X103338790Y-144364164D01*
X103262699Y-144402229D01*
X103185329Y-144437683D01*
X103106747Y-144470492D01*
X103027019Y-144500620D01*
X102966288Y-144525914D01*
X102904999Y-144549611D01*
X102843182Y-144571704D01*
X102780871Y-144592187D01*
X102718095Y-144611054D01*
X102654888Y-144628298D01*
X102591280Y-144643912D01*
X102527304Y-144657891D01*
X102462991Y-144670227D01*
X102398373Y-144680914D01*
X102333481Y-144689946D01*
X102268348Y-144697315D01*
X102203004Y-144703017D01*
X102137483Y-144707043D01*
X102071814Y-144709389D01*
X102006031Y-144710046D01*
X101976847Y-144725149D01*
X101947352Y-144739566D01*
X101917558Y-144753292D01*
X101887478Y-144766324D01*
X101857123Y-144778659D01*
X101826505Y-144790291D01*
X101795638Y-144801218D01*
X101764533Y-144811436D01*
X101733203Y-144820940D01*
X101701660Y-144829727D01*
X101669916Y-144837792D01*
X101637983Y-144845133D01*
X101605875Y-144851745D01*
X101573602Y-144857624D01*
X101541178Y-144862767D01*
X101508614Y-144867169D01*
X101433930Y-144871485D01*
X101362656Y-144872394D01*
X101294419Y-144870269D01*
X101228847Y-144865481D01*
X101165565Y-144858406D01*
X101104203Y-144849415D01*
X101044386Y-144838881D01*
X100985743Y-144827178D01*
X100755442Y-144776128D01*
X100697071Y-144764171D01*
X100637637Y-144753282D01*
X100576766Y-144743835D01*
X100514085Y-144736201D01*
X100445666Y-144718035D01*
X100377976Y-144697537D01*
X100311073Y-144674729D01*
X100245015Y-144649635D01*
X100179862Y-144622279D01*
X100115672Y-144592685D01*
X100052503Y-144560875D01*
X99990414Y-144526874D01*
X99983056Y-144536698D01*
X99975196Y-144546021D01*
X99966865Y-144554872D01*
X99958090Y-144563279D01*
X99948901Y-144571272D01*
X99939327Y-144578880D01*
X99919139Y-144593055D01*
X99897759Y-144606035D01*
X99875416Y-144618053D01*
X99852345Y-144629339D01*
X99828775Y-144640126D01*
X99781071Y-144661125D01*
X99757399Y-144671801D01*
X99734157Y-144682903D01*
X99711576Y-144694662D01*
X99689889Y-144707311D01*
X99669326Y-144721080D01*
X99650120Y-144736201D01*
X99641474Y-144735722D01*
X99633170Y-144735587D01*
X99625189Y-144735776D01*
X99617510Y-144736267D01*
X99610111Y-144737040D01*
X99602972Y-144738074D01*
X99596073Y-144739348D01*
X99589392Y-144740842D01*
X99576603Y-144744406D01*
X99564439Y-144748599D01*
X99552735Y-144753255D01*
X99541324Y-144758209D01*
X99518719Y-144768343D01*
X99507193Y-144773192D01*
X99495297Y-144777674D01*
X99482865Y-144781623D01*
X99476396Y-144783345D01*
X99469731Y-144784872D01*
X99462849Y-144786183D01*
X99455729Y-144787257D01*
X99448351Y-144788073D01*
X99440694Y-144788611D01*
X99435698Y-144792601D01*
X99430380Y-144796271D01*
X99424761Y-144799640D01*
X99418865Y-144802733D01*
X99406328Y-144808175D01*
X99392946Y-144812776D01*
X99378897Y-144816713D01*
X99364360Y-144820165D01*
X99334532Y-144826324D01*
X99304884Y-144832680D01*
X99290574Y-144836376D01*
X99276842Y-144840655D01*
X99263868Y-144845696D01*
X99257720Y-144848558D01*
X99251828Y-144851677D01*
X99246215Y-144855075D01*
X99240902Y-144858775D01*
X99235913Y-144862799D01*
X99231268Y-144867169D01*
X99037624Y-144878055D01*
X98848018Y-144892950D01*
X98474175Y-144928015D01*
X98286566Y-144944810D01*
X98096250Y-144958866D01*
X97901540Y-144968493D01*
X97700751Y-144972006D01*
X97634913Y-144972006D01*
X97520219Y-144955826D01*
X97409240Y-144935931D01*
X97301651Y-144912645D01*
X97197128Y-144886291D01*
X97095348Y-144857192D01*
X96995988Y-144825672D01*
X96898722Y-144792054D01*
X96803229Y-144756662D01*
X96616260Y-144681846D01*
X96432492Y-144603811D01*
X96249335Y-144525145D01*
X96064198Y-144448434D01*
X95986289Y-144388984D01*
X95907158Y-144330725D01*
X95747323Y-144215717D01*
X95667666Y-144157934D01*
X95588881Y-144099278D01*
X95511491Y-144039232D01*
X95436019Y-143977279D01*
X95405041Y-143963836D01*
X95374466Y-143949545D01*
X95344311Y-143934415D01*
X95314593Y-143918455D01*
X95285330Y-143901676D01*
X95256540Y-143884085D01*
X95228239Y-143865694D01*
X95200444Y-143846510D01*
X95189136Y-143845539D01*
X95178337Y-143844060D01*
X95168017Y-143842104D01*
X95158144Y-143839700D01*
X95148688Y-143836881D01*
X95139618Y-143833675D01*
X95130903Y-143830116D01*
X95122514Y-143826232D01*
X95114418Y-143822055D01*
X95106586Y-143817615D01*
X95098987Y-143812943D01*
X95091590Y-143808070D01*
X95077278Y-143797843D01*
X95063407Y-143787180D01*
X95036002Y-143765527D01*
X95021977Y-143755029D01*
X95007409Y-143745076D01*
X94999846Y-143740382D01*
X94992055Y-143735916D01*
X94984005Y-143731709D01*
X94975666Y-143727793D01*
X94967008Y-143724197D01*
X94957999Y-143720953D01*
X94948609Y-143718091D01*
X94938808Y-143715641D01*
X94937505Y-143707118D01*
X94935805Y-143698993D01*
X94933730Y-143691243D01*
X94931302Y-143683847D01*
X94928542Y-143676783D01*
X94925472Y-143670031D01*
X94922113Y-143663567D01*
X94918487Y-143657370D01*
X94914617Y-143651420D01*
X94910522Y-143645693D01*
X94906227Y-143640168D01*
X94901751Y-143634824D01*
X94892346Y-143624591D01*
X94882482Y-143614820D01*
X94862068Y-143595971D01*
X94851866Y-143586546D01*
X94841898Y-143576888D01*
X94832338Y-143566825D01*
X94823359Y-143556184D01*
X94819142Y-143550591D01*
X94815135Y-143544790D01*
X94811361Y-143538756D01*
X94807840Y-143532470D01*
X94703021Y-143296789D01*
X94679321Y-143238737D01*
X94657167Y-143179123D01*
X94614866Y-143057849D01*
X94593401Y-142997512D01*
X94570848Y-142938255D01*
X94558957Y-142909239D01*
X94546548Y-142880740D01*
X94533538Y-142852842D01*
X94519843Y-142825627D01*
X94462184Y-142549519D01*
X94434449Y-142410329D01*
X94409311Y-142268538D01*
X94388169Y-142122764D01*
X94379535Y-142047952D01*
X94372425Y-141971626D01*
X94367014Y-141893614D01*
X94363478Y-141813741D01*
X94361990Y-141731837D01*
X94362727Y-141647728D01*
X94372666Y-141540536D01*
X94386349Y-141433858D01*
X94403756Y-141327790D01*
X94413042Y-141281446D01*
X94991229Y-141281446D01*
X94993170Y-141408035D01*
X95000216Y-141534287D01*
X95012342Y-141660051D01*
X95029525Y-141785171D01*
X95051741Y-141909498D01*
X95078966Y-142032876D01*
X95111175Y-142155155D01*
X95148345Y-142276180D01*
X95159925Y-142302193D01*
X95172191Y-142327525D01*
X95185041Y-142352280D01*
X95198369Y-142376562D01*
X95226044Y-142424119D01*
X95254382Y-142471028D01*
X95282547Y-142518118D01*
X95309704Y-142566220D01*
X95322645Y-142590909D01*
X95335020Y-142616163D01*
X95346727Y-142642085D01*
X95357660Y-142668778D01*
X95381678Y-142715771D01*
X95406316Y-142762433D01*
X95431573Y-142808758D01*
X95457443Y-142854740D01*
X95483924Y-142900374D01*
X95511013Y-142945652D01*
X95538706Y-142990570D01*
X95566999Y-143035122D01*
X95597133Y-143076941D01*
X95628551Y-143117480D01*
X95661097Y-143156892D01*
X95694617Y-143195333D01*
X95728957Y-143232956D01*
X95763961Y-143269918D01*
X95835345Y-143342473D01*
X95979280Y-143486447D01*
X96014605Y-143523106D01*
X96049356Y-143560341D01*
X96083380Y-143598307D01*
X96116521Y-143637158D01*
X96164647Y-143659073D01*
X96212155Y-143682238D01*
X96259019Y-143706638D01*
X96305217Y-143732259D01*
X96350725Y-143759088D01*
X96395517Y-143787111D01*
X96439572Y-143816314D01*
X96482864Y-143846683D01*
X96530966Y-143868635D01*
X96578455Y-143891821D01*
X96625307Y-143916228D01*
X96671500Y-143941843D01*
X96717010Y-143968651D01*
X96761814Y-143996641D01*
X96805888Y-144025798D01*
X96849208Y-144056110D01*
X96905339Y-144071935D01*
X96959683Y-144089553D01*
X97012611Y-144108593D01*
X97064489Y-144128686D01*
X97268874Y-144212215D01*
X97321029Y-144232040D01*
X97374345Y-144250704D01*
X97429189Y-144267838D01*
X97485930Y-144283073D01*
X97544935Y-144296040D01*
X97606574Y-144306370D01*
X97671213Y-144313693D01*
X97739223Y-144317641D01*
X97731398Y-144285049D01*
X97725074Y-144252385D01*
X97720385Y-144219895D01*
X97718697Y-144203792D01*
X97717468Y-144187825D01*
X97716716Y-144172024D01*
X97716459Y-144156420D01*
X97716712Y-144141044D01*
X97717492Y-144125926D01*
X97718818Y-144111098D01*
X97720705Y-144096589D01*
X97723171Y-144082431D01*
X97726233Y-144068654D01*
X97729907Y-144055290D01*
X97734211Y-144042368D01*
X97739162Y-144029919D01*
X97744776Y-144017975D01*
X97751071Y-144006565D01*
X97758063Y-143995721D01*
X97765770Y-143985473D01*
X97774208Y-143975853D01*
X97783395Y-143966889D01*
X97793347Y-143958615D01*
X97804082Y-143951059D01*
X97815616Y-143944253D01*
X97827966Y-143938228D01*
X97841149Y-143933014D01*
X97855183Y-143928642D01*
X97870084Y-143925142D01*
X97888803Y-143927699D01*
X97906281Y-143931494D01*
X97922575Y-143936472D01*
X97937740Y-143942578D01*
X97951834Y-143949755D01*
X97964912Y-143957947D01*
X97977029Y-143967099D01*
X97988242Y-143977154D01*
X97998608Y-143988056D01*
X98008181Y-143999750D01*
X98017018Y-144012179D01*
X98025176Y-144025288D01*
X98039675Y-144053320D01*
X98052127Y-144083400D01*
X98062979Y-144115078D01*
X98072681Y-144147908D01*
X98090424Y-144215232D01*
X98108942Y-144281789D01*
X98119612Y-144313662D01*
X98131821Y-144344001D01*
X98146337Y-144343173D01*
X98160862Y-144342582D01*
X98175394Y-144342227D01*
X98189929Y-144342109D01*
X98204465Y-144342226D01*
X98218997Y-144342580D01*
X98233524Y-144343169D01*
X98248042Y-144343995D01*
X98260648Y-144345999D01*
X98273287Y-144347507D01*
X98285948Y-144348522D01*
X98298614Y-144349045D01*
X98311273Y-144349078D01*
X98323910Y-144348623D01*
X98336510Y-144347682D01*
X98349061Y-144346256D01*
X98361547Y-144344349D01*
X98373955Y-144341961D01*
X98386270Y-144339094D01*
X98398479Y-144335750D01*
X98410567Y-144331932D01*
X98422520Y-144327641D01*
X98434324Y-144322879D01*
X98445966Y-144317647D01*
X98445960Y-144317349D01*
X98439049Y-144274831D01*
X98429104Y-144229896D01*
X98403688Y-144134850D01*
X98376876Y-144036349D01*
X98365184Y-143987098D01*
X98355829Y-143938536D01*
X98349706Y-143891180D01*
X98348136Y-143868116D01*
X98347710Y-143845549D01*
X98348540Y-143823541D01*
X98350738Y-143802159D01*
X98354415Y-143781467D01*
X98359683Y-143761529D01*
X98366655Y-143742411D01*
X98375443Y-143724176D01*
X98386157Y-143706890D01*
X98398911Y-143690617D01*
X98413816Y-143675422D01*
X98430983Y-143661370D01*
X98450526Y-143648525D01*
X98472556Y-143636953D01*
X98483334Y-143640913D01*
X98493500Y-143645484D01*
X98503090Y-143650630D01*
X98512135Y-143656318D01*
X98520671Y-143662515D01*
X98528730Y-143669186D01*
X98536348Y-143676299D01*
X98543557Y-143683819D01*
X98550391Y-143691712D01*
X98556885Y-143699945D01*
X98568985Y-143717296D01*
X98580128Y-143735602D01*
X98590585Y-143754592D01*
X98610519Y-143793548D01*
X98620539Y-143812974D01*
X98630954Y-143832005D01*
X98642036Y-143850372D01*
X98654054Y-143867805D01*
X98660498Y-143876086D01*
X98667279Y-143884034D01*
X98674429Y-143891612D01*
X98681982Y-143898789D01*
X98684803Y-143925385D01*
X98689018Y-143950583D01*
X98694435Y-143974575D01*
X98700860Y-143997557D01*
X98708103Y-144019721D01*
X98715971Y-144041263D01*
X98732810Y-144083256D01*
X98749841Y-144125086D01*
X98757947Y-144146425D01*
X98765524Y-144168307D01*
X98772380Y-144190924D01*
X98778322Y-144214471D01*
X98783157Y-144239142D01*
X98786695Y-144265132D01*
X98819582Y-144265276D01*
X98850806Y-144263759D01*
X98880533Y-144260745D01*
X98908927Y-144256398D01*
X98936153Y-144250885D01*
X98962375Y-144244370D01*
X98987759Y-144237018D01*
X99012469Y-144228994D01*
X99060525Y-144211592D01*
X99107863Y-144193482D01*
X99155799Y-144175987D01*
X99180404Y-144167882D01*
X99205653Y-144160425D01*
X99203611Y-144141750D01*
X99201180Y-144123135D01*
X99198360Y-144104589D01*
X99195153Y-144086115D01*
X99191561Y-144067721D01*
X99187585Y-144049412D01*
X99183228Y-144031194D01*
X99178490Y-144013074D01*
X99173374Y-143995056D01*
X99167880Y-143977148D01*
X99162011Y-143959355D01*
X99155769Y-143941683D01*
X99149154Y-143924137D01*
X99142169Y-143906725D01*
X99134816Y-143889452D01*
X99127095Y-143872323D01*
X99125916Y-143855061D01*
X99124224Y-143837868D01*
X99122023Y-143820756D01*
X99119316Y-143803737D01*
X99116105Y-143786821D01*
X99112395Y-143770019D01*
X99108188Y-143753342D01*
X99103489Y-143736801D01*
X99098299Y-143720407D01*
X99092623Y-143704172D01*
X99086464Y-143688106D01*
X99079825Y-143672220D01*
X99072710Y-143656525D01*
X99065121Y-143641033D01*
X99057062Y-143625753D01*
X99048537Y-143610698D01*
X99047221Y-143593567D01*
X99044777Y-143576447D01*
X99041318Y-143559349D01*
X99036952Y-143542281D01*
X99031791Y-143525252D01*
X99025946Y-143508271D01*
X99012645Y-143474491D01*
X98954202Y-143343111D01*
X98942708Y-143311564D01*
X98938037Y-143296034D01*
X98934231Y-143280680D01*
X98931402Y-143265510D01*
X98929658Y-143250533D01*
X98929112Y-143235759D01*
X98929874Y-143221195D01*
X98932054Y-143206852D01*
X98935764Y-143192739D01*
X98941113Y-143178864D01*
X98948213Y-143165236D01*
X98957174Y-143151865D01*
X98968107Y-143138759D01*
X98981123Y-143125929D01*
X98996332Y-143113382D01*
X99012444Y-143109041D01*
X99028158Y-143106276D01*
X99043484Y-143105014D01*
X99058432Y-143105184D01*
X99073011Y-143106714D01*
X99087231Y-143109534D01*
X99101103Y-143113572D01*
X99114635Y-143118756D01*
X99127836Y-143125014D01*
X99140718Y-143132277D01*
X99153289Y-143140471D01*
X99165560Y-143149526D01*
X99177539Y-143159370D01*
X99189237Y-143169932D01*
X99211826Y-143192924D01*
X99233405Y-143217930D01*
X99254052Y-143244379D01*
X99273843Y-143271699D01*
X99292856Y-143299319D01*
X99328858Y-143353174D01*
X99346001Y-143378266D01*
X99362676Y-143401372D01*
X99379289Y-143432062D01*
X99395232Y-143463074D01*
X99410500Y-143494397D01*
X99425090Y-143526020D01*
X99438998Y-143557933D01*
X99452219Y-143590122D01*
X99464751Y-143622579D01*
X99476589Y-143655290D01*
X99487729Y-143688246D01*
X99498168Y-143721435D01*
X99507901Y-143754846D01*
X99516925Y-143788468D01*
X99525235Y-143822289D01*
X99532828Y-143856298D01*
X99539701Y-143890485D01*
X99545848Y-143924838D01*
X99559093Y-143923353D01*
X99571734Y-143921263D01*
X99583799Y-143918596D01*
X99595315Y-143915381D01*
X99606310Y-143911644D01*
X99616811Y-143907413D01*
X99626847Y-143902717D01*
X99636446Y-143897584D01*
X99645634Y-143892040D01*
X99654441Y-143886115D01*
X99662892Y-143879835D01*
X99671018Y-143873230D01*
X99686399Y-143859151D01*
X99700807Y-143844102D01*
X99714464Y-143828305D01*
X99727591Y-143811983D01*
X99753148Y-143778657D01*
X99766020Y-143762098D01*
X99779253Y-143745905D01*
X99793066Y-143730302D01*
X99807683Y-143715511D01*
X99779572Y-143642935D01*
X99749155Y-143571362D01*
X99716460Y-143500845D01*
X99681515Y-143431438D01*
X99644348Y-143363196D01*
X99604987Y-143296170D01*
X99563461Y-143230417D01*
X99519798Y-143165989D01*
X99512498Y-143147111D01*
X99504546Y-143128884D01*
X99486927Y-143094146D01*
X99467416Y-143061301D01*
X99446489Y-143029871D01*
X99358134Y-142908808D01*
X99337262Y-142877329D01*
X99317828Y-142844412D01*
X99300308Y-142809584D01*
X99292414Y-142791304D01*
X99285177Y-142772367D01*
X99278657Y-142752715D01*
X99272912Y-142732288D01*
X99268002Y-142711026D01*
X99263987Y-142688869D01*
X99260926Y-142665760D01*
X99258878Y-142641637D01*
X99257904Y-142616441D01*
X99258062Y-142590114D01*
X99259447Y-142584133D01*
X99261037Y-142578359D01*
X99262826Y-142572782D01*
X99264804Y-142567395D01*
X99266962Y-142562188D01*
X99269293Y-142557155D01*
X99271788Y-142552285D01*
X99274438Y-142547571D01*
X99277235Y-142543004D01*
X99280170Y-142538576D01*
X99286423Y-142530103D01*
X99293128Y-142522084D01*
X99300218Y-142514453D01*
X99307626Y-142507141D01*
X99315283Y-142500081D01*
X99331075Y-142486448D01*
X99347053Y-142473016D01*
X99354942Y-142466207D01*
X99362676Y-142459246D01*
X99391440Y-142458292D01*
X99418777Y-142458765D01*
X99444749Y-142460603D01*
X99469420Y-142463743D01*
X99492851Y-142468121D01*
X99515105Y-142473677D01*
X99536246Y-142480346D01*
X99556336Y-142488066D01*
X99575437Y-142496775D01*
X99593613Y-142506409D01*
X99610925Y-142516906D01*
X99627438Y-142528203D01*
X99643213Y-142540237D01*
X99658314Y-142552946D01*
X99672802Y-142566267D01*
X99686741Y-142580138D01*
X99713223Y-142609276D01*
X99738260Y-142639858D01*
X99786007Y-142703350D01*
X99809722Y-142735255D01*
X99833999Y-142766598D01*
X99859340Y-142796877D01*
X99886248Y-142825589D01*
X99889757Y-142835990D01*
X99893556Y-142846101D01*
X99901943Y-142865533D01*
X99911250Y-142884047D01*
X99921316Y-142901801D01*
X99931983Y-142918955D01*
X99943090Y-142935669D01*
X99965992Y-142968414D01*
X99988746Y-143001311D01*
X99999669Y-143018216D01*
X100010076Y-143035637D01*
X100019810Y-143053735D01*
X100028710Y-143072668D01*
X100036616Y-143092596D01*
X100040147Y-143102983D01*
X100043370Y-143113679D01*
X100051206Y-143119753D01*
X100058439Y-143126429D01*
X100065125Y-143133651D01*
X100071323Y-143141361D01*
X100077089Y-143149502D01*
X100082481Y-143158017D01*
X100087557Y-143166848D01*
X100092372Y-143175939D01*
X100101454Y-143194668D01*
X100110186Y-143213748D01*
X100119025Y-143232719D01*
X100128429Y-143251124D01*
X100133487Y-143259971D01*
X100138859Y-143268504D01*
X100144601Y-143276667D01*
X100150771Y-143284402D01*
X100157426Y-143291652D01*
X100164624Y-143298359D01*
X100172422Y-143304467D01*
X100180877Y-143309918D01*
X100190046Y-143314655D01*
X100199987Y-143318620D01*
X100210758Y-143321757D01*
X100222414Y-143324008D01*
X100235015Y-143325315D01*
X100248616Y-143325622D01*
X100263275Y-143324872D01*
X100279050Y-143323006D01*
X100286220Y-143305608D01*
X100291726Y-143288711D01*
X100295662Y-143272282D01*
X100298121Y-143256289D01*
X100299197Y-143240697D01*
X100298984Y-143225475D01*
X100297576Y-143210590D01*
X100295066Y-143196009D01*
X100291548Y-143181698D01*
X100287116Y-143167626D01*
X100281864Y-143153759D01*
X100275885Y-143140065D01*
X100262122Y-143113062D01*
X100246578Y-143086355D01*
X100213145Y-143032779D01*
X100196755Y-143005385D01*
X100181585Y-142977235D01*
X100174690Y-142962795D01*
X100168382Y-142948069D01*
X100162753Y-142933022D01*
X100157897Y-142917622D01*
X100153909Y-142901836D01*
X100150881Y-142885632D01*
X100148908Y-142868977D01*
X100148083Y-142851838D01*
X100123512Y-142799970D01*
X100097518Y-142748839D01*
X100070116Y-142698475D01*
X100041324Y-142648905D01*
X100011160Y-142600158D01*
X99979640Y-142552262D01*
X99946781Y-142505247D01*
X99912601Y-142459140D01*
X99881929Y-142411282D01*
X99850380Y-142364308D01*
X99818099Y-142318069D01*
X99785231Y-142272422D01*
X99718308Y-142182309D01*
X99650766Y-142092797D01*
X99643780Y-142080157D01*
X99636212Y-142068098D01*
X99628114Y-142056568D01*
X99619534Y-142045518D01*
X99610525Y-142034897D01*
X99601136Y-142024654D01*
X99581420Y-142005103D01*
X99560790Y-141986464D01*
X99539651Y-141968333D01*
X99497458Y-141931988D01*
X99477212Y-141912968D01*
X99467478Y-141903070D01*
X99458070Y-141892847D01*
X99449040Y-141882247D01*
X99440437Y-141871222D01*
X99432313Y-141859719D01*
X99424717Y-141847690D01*
X99417700Y-141835084D01*
X99411312Y-141821850D01*
X99405604Y-141807939D01*
X99400627Y-141793299D01*
X99396430Y-141777881D01*
X99393065Y-141761634D01*
X99390581Y-141744508D01*
X99389030Y-141726453D01*
X99388131Y-141719019D01*
X99387760Y-141712111D01*
X99387886Y-141705699D01*
X99388478Y-141699752D01*
X99389504Y-141694239D01*
X99390934Y-141689128D01*
X99392736Y-141684389D01*
X99394879Y-141679990D01*
X99397331Y-141675900D01*
X99400062Y-141672088D01*
X99403041Y-141668523D01*
X99406235Y-141665173D01*
X99409615Y-141662009D01*
X99413148Y-141658998D01*
X99420552Y-141653312D01*
X99435831Y-141642414D01*
X99443209Y-141636704D01*
X99446723Y-141633675D01*
X99450078Y-141630488D01*
X99453245Y-141627112D01*
X99456191Y-141623517D01*
X99458885Y-141619671D01*
X99461296Y-141615542D01*
X99463393Y-141611101D01*
X99465145Y-141606315D01*
X99466520Y-141601153D01*
X99467488Y-141595585D01*
X99490359Y-141596432D01*
X99512544Y-141597965D01*
X99534063Y-141600162D01*
X99554939Y-141603004D01*
X99575192Y-141606468D01*
X99594845Y-141610533D01*
X99613918Y-141615177D01*
X99632433Y-141620380D01*
X99650411Y-141626119D01*
X99667873Y-141632375D01*
X99684842Y-141639124D01*
X99701338Y-141646347D01*
X99717383Y-141654020D01*
X99732997Y-141662125D01*
X99748203Y-141670637D01*
X99763022Y-141679538D01*
X99791584Y-141698415D01*
X99818853Y-141718587D01*
X99845001Y-141739881D01*
X99870199Y-141762127D01*
X99894617Y-141785154D01*
X99918427Y-141808792D01*
X99964905Y-141857216D01*
X99990800Y-141877357D01*
X100016129Y-141898142D01*
X100040881Y-141919561D01*
X100065046Y-141941599D01*
X100088612Y-141964244D01*
X100111569Y-141987484D01*
X100133905Y-142011305D01*
X100155609Y-142035697D01*
X100176671Y-142060645D01*
X100197080Y-142086137D01*
X100216825Y-142112161D01*
X100235894Y-142138704D01*
X100254277Y-142165753D01*
X100271963Y-142193296D01*
X100288941Y-142221320D01*
X100305199Y-142249814D01*
X100311467Y-142244323D01*
X100316881Y-142238458D01*
X100321483Y-142232243D01*
X100325312Y-142225705D01*
X100328407Y-142218868D01*
X100330807Y-142211757D01*
X100332553Y-142204399D01*
X100333683Y-142196819D01*
X100334238Y-142189042D01*
X100334256Y-142181094D01*
X100333778Y-142172999D01*
X100332843Y-142164783D01*
X100331490Y-142156472D01*
X100329759Y-142148092D01*
X100325322Y-142131222D01*
X100319847Y-142114377D01*
X100313651Y-142097761D01*
X100300360Y-142066025D01*
X100287981Y-142037640D01*
X100282924Y-142025213D01*
X100279044Y-142014232D01*
X100272350Y-142001326D01*
X100266263Y-141987801D01*
X100260658Y-141973783D01*
X100255410Y-141959402D01*
X100235448Y-141900783D01*
X100230085Y-141886492D01*
X100224320Y-141872601D01*
X100218027Y-141859239D01*
X100211080Y-141846531D01*
X100207322Y-141840464D01*
X100203353Y-141834607D01*
X100199157Y-141828978D01*
X100194719Y-141823593D01*
X100190022Y-141818468D01*
X100185052Y-141813617D01*
X100179792Y-141809058D01*
X100174226Y-141804806D01*
X100149317Y-141756218D01*
X100123074Y-141708374D01*
X100095512Y-141661302D01*
X100066650Y-141615029D01*
X100036505Y-141569581D01*
X100005094Y-141524987D01*
X99972435Y-141481271D01*
X99938545Y-141438462D01*
X99866711Y-141356489D01*
X99792896Y-141276361D01*
X99717138Y-141198115D01*
X99639472Y-141121786D01*
X99559936Y-141047408D01*
X99478565Y-140975016D01*
X99395396Y-140904646D01*
X99310465Y-140836333D01*
X99223771Y-140769253D01*
X99134226Y-140705018D01*
X99041880Y-140643579D01*
X98946781Y-140584888D01*
X98848980Y-140528896D01*
X98748525Y-140475555D01*
X98645466Y-140424817D01*
X98539853Y-140376632D01*
X98431734Y-140330953D01*
X98321160Y-140287732D01*
X98208178Y-140246918D01*
X98092840Y-140208465D01*
X97975193Y-140172324D01*
X97855289Y-140138446D01*
X97733175Y-140106783D01*
X97608901Y-140077286D01*
X97566906Y-140078327D01*
X97524911Y-140078557D01*
X97482925Y-140077977D01*
X97440962Y-140076587D01*
X97399033Y-140074388D01*
X97357149Y-140071379D01*
X97315322Y-140067563D01*
X97273563Y-140062938D01*
X97227327Y-140057758D01*
X97181003Y-140053633D01*
X97134610Y-140050561D01*
X97088166Y-140048545D01*
X97041689Y-140047584D01*
X96995197Y-140047678D01*
X96948707Y-140048830D01*
X96902239Y-140051038D01*
X96787473Y-140061097D01*
X96673607Y-140075987D01*
X96560782Y-140095647D01*
X96449139Y-140120017D01*
X96338819Y-140149037D01*
X96229965Y-140182645D01*
X96122716Y-140220781D01*
X96017214Y-140263385D01*
X95913601Y-140310395D01*
X95812019Y-140361752D01*
X95712607Y-140417395D01*
X95615508Y-140477263D01*
X95520863Y-140541295D01*
X95428813Y-140609432D01*
X95339500Y-140681612D01*
X95253065Y-140757775D01*
X95231256Y-140787508D01*
X95210144Y-140817699D01*
X95189734Y-140848336D01*
X95170034Y-140879406D01*
X95151049Y-140910897D01*
X95132786Y-140942795D01*
X95115251Y-140975088D01*
X95098450Y-141007764D01*
X95082390Y-141040811D01*
X95067076Y-141074215D01*
X95052516Y-141107964D01*
X95038715Y-141142045D01*
X95025679Y-141176447D01*
X95013416Y-141211156D01*
X95001930Y-141246160D01*
X94991229Y-141281446D01*
X94413042Y-141281446D01*
X94424866Y-141222431D01*
X94449657Y-141117876D01*
X94478108Y-141014223D01*
X94510198Y-140911569D01*
X94545905Y-140810010D01*
X94566828Y-140781876D01*
X94587037Y-140753028D01*
X94625968Y-140693840D01*
X94702431Y-140574035D01*
X94722205Y-140544731D01*
X94742566Y-140516010D01*
X94763679Y-140488034D01*
X94785705Y-140460965D01*
X94808808Y-140434966D01*
X94833149Y-140410198D01*
X94858892Y-140386823D01*
X94886199Y-140365003D01*
X94895850Y-140350125D01*
X94905991Y-140335737D01*
X94927637Y-140308320D01*
X94950921Y-140282538D01*
X94975628Y-140258177D01*
X95001544Y-140235021D01*
X95028454Y-140212858D01*
X95056143Y-140191473D01*
X95084396Y-140170651D01*
X95198754Y-140088716D01*
X95226605Y-140067498D01*
X95253732Y-140045559D01*
X95279919Y-140022684D01*
X95304952Y-139998659D01*
X95342812Y-139982585D01*
X95380187Y-139965470D01*
X95417054Y-139947324D01*
X95453393Y-139928159D01*
X95489184Y-139907986D01*
X95524403Y-139886816D01*
X95559032Y-139864660D01*
X95593048Y-139841531D01*
X95633779Y-139828979D01*
X95674129Y-139815325D01*
X95714076Y-139800578D01*
X95753598Y-139784747D01*
X95792671Y-139767842D01*
X95831275Y-139749872D01*
X95869386Y-139730846D01*
X95906982Y-139710774D01*
X95892948Y-139656113D01*
X95877904Y-139602453D01*
X95862026Y-139549622D01*
X95845488Y-139497451D01*
X95811126Y-139394396D01*
X95776214Y-139291916D01*
X95776817Y-139278134D01*
X95776887Y-139264376D01*
X95776427Y-139250656D01*
X95775440Y-139236989D01*
X95773932Y-139223389D01*
X95771904Y-139209872D01*
X95769362Y-139196453D01*
X95766307Y-139183145D01*
X95762746Y-139169965D01*
X95758680Y-139156926D01*
X95754113Y-139144043D01*
X95749050Y-139131331D01*
X95743494Y-139118805D01*
X95737448Y-139106480D01*
X95730917Y-139094370D01*
X95723904Y-139082490D01*
X95725172Y-139067082D01*
X95725815Y-139051679D01*
X95725838Y-139036301D01*
X95725244Y-139020965D01*
X95724038Y-139005689D01*
X95722223Y-138990491D01*
X95719804Y-138975390D01*
X95716784Y-138960403D01*
X95713168Y-138945549D01*
X95708960Y-138930846D01*
X95704163Y-138916312D01*
X95698782Y-138901965D01*
X95692820Y-138887823D01*
X95686283Y-138873904D01*
X95679173Y-138860227D01*
X95671494Y-138846809D01*
X95673619Y-138797214D01*
X95674129Y-138749237D01*
X95673217Y-138702687D01*
X95671074Y-138657372D01*
X95667891Y-138613099D01*
X95663859Y-138569678D01*
X95654015Y-138484620D01*
X95632566Y-138316274D01*
X95624022Y-138229915D01*
X95620965Y-138185518D01*
X95618974Y-138140053D01*
X95620712Y-138035098D01*
X95620774Y-138033012D01*
X96220352Y-138033012D01*
X96223823Y-138153750D01*
X96230586Y-138274333D01*
X96247190Y-138506590D01*
X96270860Y-138600650D01*
X96295828Y-138693385D01*
X96308966Y-138739104D01*
X96322629Y-138784309D01*
X96336884Y-138828939D01*
X96351798Y-138872933D01*
X96358655Y-138893894D01*
X96364786Y-138915582D01*
X96370339Y-138937849D01*
X96375460Y-138960548D01*
X96394562Y-139052735D01*
X96399728Y-139075394D01*
X96405344Y-139097605D01*
X96411556Y-139119221D01*
X96418512Y-139140094D01*
X96426359Y-139160078D01*
X96435244Y-139179026D01*
X96445314Y-139196792D01*
X96450839Y-139205185D01*
X96456715Y-139213228D01*
X96466440Y-139321221D01*
X96471530Y-139375011D01*
X96477968Y-139427461D01*
X96481974Y-139452902D01*
X96486654Y-139477669D01*
X96492120Y-139501651D01*
X96498485Y-139524734D01*
X96505860Y-139546805D01*
X96514359Y-139567753D01*
X96524092Y-139587464D01*
X96535174Y-139605825D01*
X96727636Y-139612931D01*
X96915179Y-139624995D01*
X97283812Y-139655624D01*
X97469051Y-139670004D01*
X97657673Y-139680969D01*
X97851751Y-139686427D01*
X97951485Y-139686436D01*
X98053362Y-139684284D01*
X98179224Y-139708840D01*
X98303857Y-139737786D01*
X98427154Y-139771068D01*
X98549007Y-139808634D01*
X98669309Y-139850431D01*
X98787952Y-139896406D01*
X98904829Y-139946505D01*
X99019833Y-140000677D01*
X99132857Y-140058868D01*
X99243793Y-140121026D01*
X99352534Y-140187096D01*
X99458972Y-140257027D01*
X99563000Y-140330766D01*
X99664511Y-140408259D01*
X99763398Y-140489455D01*
X99859552Y-140574299D01*
X99954731Y-140657836D01*
X100045917Y-140745113D01*
X100133021Y-140835980D01*
X100215956Y-140930288D01*
X100294636Y-141027886D01*
X100368971Y-141128626D01*
X100438875Y-141232358D01*
X100504261Y-141338931D01*
X100565041Y-141448197D01*
X100621127Y-141560006D01*
X100672433Y-141674207D01*
X100718870Y-141790653D01*
X100760352Y-141909192D01*
X100796790Y-142029675D01*
X100828097Y-142151953D01*
X100834232Y-142181094D01*
X100854187Y-142275876D01*
X100854187Y-142851751D01*
X100839705Y-142929039D01*
X100823153Y-143005806D01*
X100804547Y-143082013D01*
X100783902Y-143157618D01*
X100761236Y-143232583D01*
X100736564Y-143306868D01*
X100709902Y-143380432D01*
X100681268Y-143453235D01*
X100650677Y-143525238D01*
X100618146Y-143596401D01*
X100583690Y-143666684D01*
X100547327Y-143736047D01*
X100509073Y-143804450D01*
X100468943Y-143871854D01*
X100426955Y-143938217D01*
X100383124Y-144003502D01*
X100389888Y-144013919D01*
X100397409Y-144023580D01*
X100405646Y-144032525D01*
X100414559Y-144040793D01*
X100424109Y-144048425D01*
X100434254Y-144055461D01*
X100444955Y-144061942D01*
X100456172Y-144067906D01*
X100479992Y-144078448D01*
X100505394Y-144087409D01*
X100532055Y-144095108D01*
X100559655Y-144101868D01*
X100673022Y-144125927D01*
X100700500Y-144132802D01*
X100726990Y-144140662D01*
X100752171Y-144149829D01*
X100775722Y-144160624D01*
X100775722Y-144160326D01*
X100784264Y-144160684D01*
X100792302Y-144160540D01*
X100799868Y-144159924D01*
X100806994Y-144158871D01*
X100813713Y-144157411D01*
X100820055Y-144155578D01*
X100826055Y-144153402D01*
X100831744Y-144150917D01*
X100837154Y-144148154D01*
X100842317Y-144145146D01*
X100847266Y-144141924D01*
X100852033Y-144138521D01*
X100861150Y-144131302D01*
X100869926Y-144123743D01*
X100878617Y-144116104D01*
X100887484Y-144108641D01*
X100892063Y-144105056D01*
X100896782Y-144101611D01*
X100901674Y-144098339D01*
X100906771Y-144095272D01*
X100912104Y-144092441D01*
X100917707Y-144089880D01*
X100923611Y-144087621D01*
X100929849Y-144085694D01*
X100936453Y-144084134D01*
X100943455Y-144082971D01*
X100950887Y-144082238D01*
X100958782Y-144081967D01*
X101033811Y-144099861D01*
X101115863Y-144117459D01*
X101202857Y-144133290D01*
X101247557Y-144140083D01*
X101292713Y-144145883D01*
X101338064Y-144150507D01*
X101383351Y-144153769D01*
X101428314Y-144155487D01*
X101472693Y-144155477D01*
X101516227Y-144153554D01*
X101558658Y-144149536D01*
X101599723Y-144143237D01*
X101639165Y-144134475D01*
X101644866Y-144119127D01*
X101649063Y-144102626D01*
X101651892Y-144085072D01*
X101653487Y-144066561D01*
X101653983Y-144047192D01*
X101653514Y-144027064D01*
X101650221Y-143984920D01*
X101625405Y-143805581D01*
X101621677Y-143761979D01*
X101620925Y-143740903D01*
X101621094Y-143720441D01*
X101622319Y-143700691D01*
X101624734Y-143681751D01*
X101628474Y-143663720D01*
X101633674Y-143646695D01*
X101640468Y-143630774D01*
X101648991Y-143616056D01*
X101659378Y-143602639D01*
X101671764Y-143590621D01*
X101686283Y-143580100D01*
X101703069Y-143571174D01*
X101722258Y-143563942D01*
X101743984Y-143558500D01*
X101767012Y-143560019D01*
X101788406Y-143563173D01*
X101808237Y-143567888D01*
X101826580Y-143574093D01*
X101843507Y-143581713D01*
X101859092Y-143590676D01*
X101873406Y-143600908D01*
X101886524Y-143612338D01*
X101898518Y-143624892D01*
X101909461Y-143638497D01*
X101919427Y-143653080D01*
X101928487Y-143668567D01*
X101936716Y-143684887D01*
X101944185Y-143701967D01*
X101957140Y-143738110D01*
X101967935Y-143776415D01*
X101977154Y-143816296D01*
X101993200Y-143898456D01*
X102009950Y-143979919D01*
X102020048Y-144018931D01*
X102032074Y-144056016D01*
X102067961Y-144052636D01*
X102102227Y-144047635D01*
X102135081Y-144041222D01*
X102166733Y-144033608D01*
X102197394Y-144025003D01*
X102227273Y-144015617D01*
X102285527Y-143995343D01*
X102343174Y-143974468D01*
X102372296Y-143964330D01*
X102401897Y-143954673D01*
X102432186Y-143945706D01*
X102463374Y-143937639D01*
X102495670Y-143930684D01*
X102529285Y-143925049D01*
X102526616Y-143862291D01*
X102521832Y-143801645D01*
X102515137Y-143742907D01*
X102506733Y-143685876D01*
X102496820Y-143630350D01*
X102485603Y-143576127D01*
X102473283Y-143523005D01*
X102460061Y-143470781D01*
X102431724Y-143368220D01*
X102402207Y-143266829D01*
X102373130Y-143164989D01*
X102346108Y-143061084D01*
X102350811Y-143047168D01*
X102356330Y-143033664D01*
X102362636Y-143020602D01*
X102369701Y-143008010D01*
X102377495Y-142995917D01*
X102385990Y-142984351D01*
X102395157Y-142973342D01*
X102404966Y-142962919D01*
X102415390Y-142953109D01*
X102426400Y-142943943D01*
X102437966Y-142935448D01*
X102450060Y-142927654D01*
X102462652Y-142920589D01*
X102475715Y-142914283D01*
X102489220Y-142908764D01*
X102503137Y-142904061D01*
X102533239Y-142910783D01*
X102561289Y-142919555D01*
X102587377Y-142930288D01*
X102611593Y-142942892D01*
X102634028Y-142957275D01*
X102654771Y-142973349D01*
X102673914Y-142991023D01*
X102691545Y-143010206D01*
X102707755Y-143030810D01*
X102722635Y-143052743D01*
X102736275Y-143075916D01*
X102748764Y-143100239D01*
X102770654Y-143151972D01*
X102789025Y-143207223D01*
X102804599Y-143265270D01*
X102818099Y-143325393D01*
X102841761Y-143448983D01*
X102865784Y-143572228D01*
X102879734Y-143631919D01*
X102895940Y-143689362D01*
X102909885Y-143686966D01*
X102923381Y-143684120D01*
X102936444Y-143680844D01*
X102949094Y-143677154D01*
X102961349Y-143673070D01*
X102973227Y-143668609D01*
X102984746Y-143663789D01*
X102995925Y-143658630D01*
X103006783Y-143653148D01*
X103017337Y-143647363D01*
X103037609Y-143634953D01*
X103056888Y-143621547D01*
X103075321Y-143607289D01*
X103093055Y-143592325D01*
X103110238Y-143576800D01*
X103127015Y-143560860D01*
X103143535Y-143544651D01*
X103176388Y-143512006D01*
X103193016Y-143495861D01*
X103209973Y-143480029D01*
X103197528Y-143391000D01*
X103183962Y-143302146D01*
X103169275Y-143213478D01*
X103153470Y-143125007D01*
X103136550Y-143036742D01*
X103118515Y-142948695D01*
X103099368Y-142860875D01*
X103079112Y-142773292D01*
X103074557Y-142764749D01*
X103070429Y-142755778D01*
X103066692Y-142746414D01*
X103063314Y-142736693D01*
X103057493Y-142716314D01*
X103052691Y-142694916D01*
X103048632Y-142672776D01*
X103045041Y-142650170D01*
X103038166Y-142604660D01*
X103034330Y-142582310D01*
X103029864Y-142560597D01*
X103024490Y-142539797D01*
X103017935Y-142520186D01*
X103014129Y-142510912D01*
X103009923Y-142502040D01*
X103005285Y-142493603D01*
X103000180Y-142485635D01*
X102994573Y-142478172D01*
X102988430Y-142471247D01*
X102981717Y-142464896D01*
X102974398Y-142459153D01*
X102965142Y-142439575D01*
X102956862Y-142420450D01*
X102949661Y-142401773D01*
X102943640Y-142383538D01*
X102938902Y-142365742D01*
X102937046Y-142357006D01*
X102935549Y-142348378D01*
X102934423Y-142339856D01*
X102933681Y-142331441D01*
X102933337Y-142323131D01*
X102933402Y-142314927D01*
X102933890Y-142306827D01*
X102934812Y-142298830D01*
X102936183Y-142290937D01*
X102938014Y-142283146D01*
X102940319Y-142275457D01*
X102943110Y-142267869D01*
X102946400Y-142260382D01*
X102950201Y-142252994D01*
X102954526Y-142245706D01*
X102959389Y-142238517D01*
X102964801Y-142231425D01*
X102970775Y-142224431D01*
X102977325Y-142217534D01*
X102984463Y-142210733D01*
X102992202Y-142204027D01*
X103000553Y-142197416D01*
X103019499Y-142199726D01*
X103037555Y-142202928D01*
X103054760Y-142206981D01*
X103071156Y-142211845D01*
X103086783Y-142217477D01*
X103101683Y-142223839D01*
X103115895Y-142230888D01*
X103129461Y-142238585D01*
X103142421Y-142246888D01*
X103154816Y-142255757D01*
X103166686Y-142265151D01*
X103178073Y-142275029D01*
X103199558Y-142296073D01*
X103219597Y-142318565D01*
X103238514Y-142342178D01*
X103256636Y-142366586D01*
X103291797Y-142416481D01*
X103309486Y-142441316D01*
X103327682Y-142465641D01*
X103346710Y-142489130D01*
X103366897Y-142511457D01*
X103375197Y-142544048D01*
X103384492Y-142575650D01*
X103394611Y-142606430D01*
X103405386Y-142636559D01*
X103428221Y-142695540D01*
X103451640Y-142753944D01*
X103474286Y-142813126D01*
X103484896Y-142843431D01*
X103494803Y-142874439D01*
X103503839Y-142906318D01*
X103511833Y-142939237D01*
X103518617Y-142973366D01*
X103524019Y-143008873D01*
X103531521Y-143009010D01*
X103538599Y-143008724D01*
X103545270Y-143008030D01*
X103551547Y-143006944D01*
X103557446Y-143005479D01*
X103562981Y-143003652D01*
X103568169Y-143001478D01*
X103573024Y-142998970D01*
X103577561Y-142996145D01*
X103581794Y-142993017D01*
X103585740Y-142989601D01*
X103589413Y-142985912D01*
X103592829Y-142981966D01*
X103596001Y-142977776D01*
X103598946Y-142973359D01*
X103601678Y-142968728D01*
X103606564Y-142958889D01*
X103610779Y-142948377D01*
X103614445Y-142937313D01*
X103617681Y-142925817D01*
X103623344Y-142902007D01*
X103628733Y-142877906D01*
X103636714Y-142869934D01*
X103644318Y-142861652D01*
X103651537Y-142853073D01*
X103658363Y-142844211D01*
X103664792Y-142835081D01*
X103670814Y-142825696D01*
X103676423Y-142816070D01*
X103681613Y-142806216D01*
X103686376Y-142796150D01*
X103690706Y-142785884D01*
X103694595Y-142775433D01*
X103698037Y-142764811D01*
X103701025Y-142754030D01*
X103703551Y-142743106D01*
X103705609Y-142732053D01*
X103707191Y-142720883D01*
X103694355Y-142642113D01*
X103679017Y-142565843D01*
X103661471Y-142491778D01*
X103642014Y-142419623D01*
X103620940Y-142349083D01*
X103598545Y-142279864D01*
X103550973Y-142144206D01*
X103452967Y-141875754D01*
X103407259Y-141738239D01*
X103386262Y-141667628D01*
X103366897Y-141595386D01*
X103373747Y-141582601D01*
X103380411Y-141569631D01*
X103393681Y-141543631D01*
X103400536Y-141530851D01*
X103407704Y-141518383D01*
X103415310Y-141506352D01*
X103423478Y-141494882D01*
X103427812Y-141489396D01*
X103432333Y-141484098D01*
X103437057Y-141479002D01*
X103441999Y-141474124D01*
X103447176Y-141469480D01*
X103452602Y-141465085D01*
X103458293Y-141460955D01*
X103464265Y-141457105D01*
X103470534Y-141453551D01*
X103477114Y-141450308D01*
X103484022Y-141447393D01*
X103491273Y-141444819D01*
X103498883Y-141442605D01*
X103506866Y-141440763D01*
X103515240Y-141439311D01*
X103524019Y-141438264D01*
X103553418Y-141441623D01*
X103581087Y-141446708D01*
X103607105Y-141453439D01*
X103631548Y-141461739D01*
X103654497Y-141471530D01*
X103676029Y-141482734D01*
X103696222Y-141495272D01*
X103715155Y-141509067D01*
X103732907Y-141524041D01*
X103749555Y-141540115D01*
X103765177Y-141557212D01*
X103779853Y-141575252D01*
X103806678Y-141613855D01*
X103830656Y-141655297D01*
X103852414Y-141698956D01*
X103872577Y-141744205D01*
X103910630Y-141836979D01*
X103929772Y-141883255D01*
X103949827Y-141928623D01*
X103971421Y-141972459D01*
X103995182Y-142014139D01*
X104003374Y-142009243D01*
X104010966Y-142003749D01*
X104017988Y-141997685D01*
X104024467Y-141991080D01*
X104030432Y-141983961D01*
X104035910Y-141976357D01*
X104040930Y-141968296D01*
X104045521Y-141959805D01*
X104053524Y-141941647D01*
X104060146Y-141922106D01*
X104065611Y-141901408D01*
X104070147Y-141879777D01*
X104073977Y-141857436D01*
X104077328Y-141834609D01*
X104083495Y-141788395D01*
X104090451Y-141742928D01*
X104094789Y-141721035D01*
X104100000Y-141700000D01*
X104091036Y-141661550D01*
X104081166Y-141624004D01*
X104070514Y-141587239D01*
X104059203Y-141551132D01*
X104035096Y-141480394D01*
X104009828Y-141410803D01*
X103984384Y-141341368D01*
X103959746Y-141271103D01*
X103936900Y-141199018D01*
X103926456Y-141161984D01*
X103916829Y-141124125D01*
X103892554Y-141061778D01*
X103865236Y-140996008D01*
X103837994Y-140927152D01*
X103825376Y-140891671D01*
X103813948Y-140855545D01*
X103804098Y-140818816D01*
X103796217Y-140781526D01*
X103790695Y-140743716D01*
X103787922Y-140705429D01*
X103787687Y-140686119D01*
X103788287Y-140666706D01*
X103789769Y-140647195D01*
X103792181Y-140627591D01*
X103795573Y-140607899D01*
X103799994Y-140588124D01*
X103805492Y-140568272D01*
X103812116Y-140548349D01*
X103822432Y-140543969D01*
X103832321Y-140539155D01*
X103851313Y-140528724D01*
X103870083Y-140518049D01*
X103879694Y-140512932D01*
X103889622Y-140508126D01*
X103899989Y-140503757D01*
X103910921Y-140499949D01*
X103922540Y-140496826D01*
X103928646Y-140495560D01*
X103934971Y-140494513D01*
X103941529Y-140493698D01*
X103948337Y-140493133D01*
X103955409Y-140492832D01*
X103962762Y-140492811D01*
X103970411Y-140493086D01*
X103978371Y-140493672D01*
X103986658Y-140494585D01*
X103995287Y-140495840D01*
X103997946Y-140494803D01*
X104000559Y-140493940D01*
X104003130Y-140493246D01*
X104005657Y-140492714D01*
X104008142Y-140492339D01*
X104010586Y-140492116D01*
X104012989Y-140492039D01*
X104015353Y-140492103D01*
X104017677Y-140492301D01*
X104019964Y-140492629D01*
X104022213Y-140493080D01*
X104024426Y-140493650D01*
X104026603Y-140494332D01*
X104028745Y-140495121D01*
X104030853Y-140496012D01*
X104032928Y-140496998D01*
X104034970Y-140498075D01*
X104036981Y-140499237D01*
X104038961Y-140500478D01*
X104040910Y-140501792D01*
X104044722Y-140504620D01*
X104048424Y-140507675D01*
X104052021Y-140510913D01*
X104055520Y-140514290D01*
X104058927Y-140517761D01*
X104062249Y-140521281D01*
X104070700Y-140530531D01*
X104074788Y-140534889D01*
X104078801Y-140538923D01*
X104082754Y-140542523D01*
X104084711Y-140544126D01*
X104086659Y-140545579D01*
X104088598Y-140546869D01*
X104090530Y-140547982D01*
X104092457Y-140548904D01*
X104094381Y-140549621D01*
X104096303Y-140550121D01*
X104098224Y-140550388D01*
X104100148Y-140550410D01*
X104102074Y-140550172D01*
X104104006Y-140549661D01*
X104105944Y-140548863D01*
X104107890Y-140547765D01*
X104109846Y-140546353D01*
X104111814Y-140544612D01*
X104113795Y-140542530D01*
X104115792Y-140540093D01*
X104117804Y-140537286D01*
X104119836Y-140534097D01*
X104121887Y-140530511D01*
X104123960Y-140526515D01*
X104126056Y-140522094D01*
X104106555Y-140445067D01*
X104083821Y-140371272D01*
X104058216Y-140300348D01*
X104030103Y-140231934D01*
X103999843Y-140165667D01*
X103967797Y-140101186D01*
X103934328Y-140038130D01*
X103899797Y-139976136D01*
X103758291Y-139731559D01*
X103723878Y-139669455D01*
X103690573Y-139606245D01*
X103658740Y-139541566D01*
X103628739Y-139475057D01*
X103262395Y-139160917D01*
X103257416Y-139159054D01*
X103252862Y-139157646D01*
X103248713Y-139156671D01*
X103244947Y-139156106D01*
X103241544Y-139155927D01*
X103238483Y-139156113D01*
X103235743Y-139156639D01*
X103233303Y-139157483D01*
X103231141Y-139158621D01*
X103229238Y-139160032D01*
X103227571Y-139161690D01*
X103226121Y-139163575D01*
X103224865Y-139165662D01*
X103223784Y-139167929D01*
X103222856Y-139170353D01*
X103222059Y-139172910D01*
X103220780Y-139178334D01*
X103219777Y-139184015D01*
X103217933Y-139195417D01*
X103216755Y-139200769D01*
X103216030Y-139203278D01*
X103215184Y-139205643D01*
X103214199Y-139207844D01*
X103213052Y-139209855D01*
X103211723Y-139211656D01*
X103210191Y-139213221D01*
X103208027Y-139215020D01*
X103205847Y-139216647D01*
X103203650Y-139218113D01*
X103201437Y-139219428D01*
X103199206Y-139220604D01*
X103196958Y-139221652D01*
X103192409Y-139223404D01*
X103187788Y-139224772D01*
X103183092Y-139225843D01*
X103178321Y-139226704D01*
X103173471Y-139227442D01*
X103163530Y-139228899D01*
X103158435Y-139229791D01*
X103153254Y-139230909D01*
X103147985Y-139232340D01*
X103142627Y-139234169D01*
X103139913Y-139235261D01*
X103137176Y-139236486D01*
X103134416Y-139237854D01*
X103131633Y-139239376D01*
X103128263Y-139241470D01*
X103124974Y-139243805D01*
X103118565Y-139249087D01*
X103112263Y-139255006D01*
X103105923Y-139261347D01*
X103092556Y-139274432D01*
X103085241Y-139280746D01*
X103077314Y-139286619D01*
X103073076Y-139289323D01*
X103068631Y-139291836D01*
X103063961Y-139294131D01*
X103059048Y-139296181D01*
X103053875Y-139297960D01*
X103048422Y-139299440D01*
X103042673Y-139300595D01*
X103036609Y-139301396D01*
X103030212Y-139301819D01*
X103023465Y-139301834D01*
X103016348Y-139301417D01*
X103008846Y-139300539D01*
X103000938Y-139299174D01*
X102992609Y-139297294D01*
X102983838Y-139294874D01*
X102974610Y-139291885D01*
X102976768Y-139308773D01*
X102978344Y-139325078D01*
X102979345Y-139340807D01*
X102979779Y-139355968D01*
X102979652Y-139370569D01*
X102978973Y-139384616D01*
X102977748Y-139398117D01*
X102975985Y-139411079D01*
X102973691Y-139423511D01*
X102970874Y-139435418D01*
X102967541Y-139446809D01*
X102963699Y-139457691D01*
X102959357Y-139468071D01*
X102954520Y-139477956D01*
X102949198Y-139487355D01*
X102943396Y-139496274D01*
X102937122Y-139504721D01*
X102930384Y-139512703D01*
X102923190Y-139520227D01*
X102915545Y-139527301D01*
X102907459Y-139533933D01*
X102898938Y-139540129D01*
X102889989Y-139545897D01*
X102880621Y-139551245D01*
X102870840Y-139556179D01*
X102860653Y-139560708D01*
X102850069Y-139564838D01*
X102839094Y-139568577D01*
X102827736Y-139571932D01*
X102816003Y-139574911D01*
X102803901Y-139577521D01*
X102791438Y-139579770D01*
X102772870Y-139578704D01*
X102755304Y-139576636D01*
X102738707Y-139573599D01*
X102723047Y-139569626D01*
X102708289Y-139564750D01*
X102694400Y-139559005D01*
X102681348Y-139552424D01*
X102669098Y-139545040D01*
X102657618Y-139536886D01*
X102646875Y-139527996D01*
X102636835Y-139518402D01*
X102627464Y-139508139D01*
X102618730Y-139497239D01*
X102610600Y-139485736D01*
X102603039Y-139473663D01*
X102596015Y-139461053D01*
X102583445Y-139434356D01*
X102572624Y-139405910D01*
X102563284Y-139375982D01*
X102555160Y-139344839D01*
X102547986Y-139312745D01*
X102541496Y-139279968D01*
X102529503Y-139213426D01*
X102516787Y-139185008D01*
X102504894Y-139156255D01*
X102493829Y-139127187D01*
X102483599Y-139097822D01*
X102474209Y-139068177D01*
X102465666Y-139038270D01*
X102457975Y-139008121D01*
X102451144Y-138977745D01*
X102443689Y-138965533D01*
X102437122Y-138952443D01*
X102431324Y-138938591D01*
X102426178Y-138924093D01*
X102421567Y-138909067D01*
X102417373Y-138893628D01*
X102409768Y-138861979D01*
X102402426Y-138830077D01*
X102398559Y-138814321D01*
X102394407Y-138798852D01*
X102389850Y-138783786D01*
X102384773Y-138769238D01*
X102379057Y-138755325D01*
X102372585Y-138742164D01*
X102241618Y-138244748D01*
X102230885Y-138221281D01*
X102220630Y-138194199D01*
X102211197Y-138164199D01*
X102202932Y-138131979D01*
X102196178Y-138098236D01*
X102191281Y-138063668D01*
X102188584Y-138028971D01*
X102188168Y-138011793D01*
X102188431Y-137994844D01*
X102189418Y-137978211D01*
X102191169Y-137961983D01*
X102193729Y-137946245D01*
X102197141Y-137931086D01*
X102201447Y-137916591D01*
X102206691Y-137902850D01*
X102212915Y-137889947D01*
X102220164Y-137877972D01*
X102228479Y-137867011D01*
X102237904Y-137857151D01*
X102248483Y-137848479D01*
X102260257Y-137841082D01*
X102273270Y-137835048D01*
X102287566Y-137830464D01*
X102303187Y-137827417D01*
X102320176Y-137825995D01*
X102337318Y-137827657D01*
X102353274Y-137830507D01*
X102368105Y-137834482D01*
X102381873Y-137839523D01*
X102394637Y-137845567D01*
X102406459Y-137852556D01*
X102417399Y-137860427D01*
X102427518Y-137869119D01*
X102436877Y-137878573D01*
X102445536Y-137888728D01*
X102453557Y-137899522D01*
X102460999Y-137910894D01*
X102474393Y-137935133D01*
X102486204Y-137960958D01*
X102527334Y-138070388D01*
X102538519Y-138096847D01*
X102551036Y-138121975D01*
X102557946Y-138133887D01*
X102565372Y-138145284D01*
X102573373Y-138156105D01*
X102582012Y-138166289D01*
X102590017Y-138195909D01*
X102599039Y-138224510D01*
X102608912Y-138252260D01*
X102619469Y-138279324D01*
X102641971Y-138332063D01*
X102665216Y-138384060D01*
X102687875Y-138436649D01*
X102698569Y-138463582D01*
X102708617Y-138491162D01*
X102717854Y-138519558D01*
X102726114Y-138548934D01*
X102733229Y-138579458D01*
X102739035Y-138611297D01*
X102746086Y-138601071D01*
X102752070Y-138590666D01*
X102757042Y-138580090D01*
X102761059Y-138569353D01*
X102764176Y-138558466D01*
X102766450Y-138547440D01*
X102767937Y-138536283D01*
X102768692Y-138525007D01*
X102768771Y-138513622D01*
X102768231Y-138502137D01*
X102765515Y-138478910D01*
X102760993Y-138455409D01*
X102755112Y-138431714D01*
X102726957Y-138336626D01*
X102720999Y-138313184D01*
X102716370Y-138290037D01*
X102713516Y-138267266D01*
X102712895Y-138256047D01*
X102712886Y-138244953D01*
X102694644Y-138206498D01*
X102676939Y-138167801D01*
X102659774Y-138128865D01*
X102643151Y-138089698D01*
X102627071Y-138050303D01*
X102611537Y-138010687D01*
X102596552Y-137970856D01*
X102582117Y-137930814D01*
X102494582Y-137765079D01*
X102405700Y-137601319D01*
X102360120Y-137519927D01*
X102313441Y-137438723D01*
X102265410Y-137357608D01*
X102215774Y-137276479D01*
X102212287Y-137270643D01*
X102208880Y-137264466D01*
X102205542Y-137258001D01*
X102202260Y-137251301D01*
X102195824Y-137237407D01*
X102189482Y-137223205D01*
X102183144Y-137209118D01*
X102176722Y-137195568D01*
X102173451Y-137189126D01*
X102170125Y-137182976D01*
X102166734Y-137177172D01*
X102163265Y-137171766D01*
X102161008Y-137168504D01*
X102158704Y-137165373D01*
X102153971Y-137159471D01*
X102149091Y-137153997D01*
X102144093Y-137148888D01*
X102139004Y-137144081D01*
X102133851Y-137139514D01*
X102123463Y-137130847D01*
X102113145Y-137122386D01*
X102108082Y-137118075D01*
X102103118Y-137113627D01*
X102098281Y-137108979D01*
X102093599Y-137104068D01*
X102089098Y-137098832D01*
X102084806Y-137093208D01*
X102076240Y-137080777D01*
X102067950Y-137067986D01*
X102052007Y-137041553D01*
X102021317Y-136986930D01*
X102005800Y-136959677D01*
X101997830Y-136946271D01*
X101989655Y-136933090D01*
X101981226Y-136920191D01*
X101972496Y-136907635D01*
X101963416Y-136895479D01*
X101953938Y-136883782D01*
X101927744Y-136854204D01*
X101900009Y-136825217D01*
X101870878Y-136796746D01*
X101840494Y-136768714D01*
X101809001Y-136741046D01*
X101776542Y-136713664D01*
X101709303Y-136659458D01*
X101569564Y-136551136D01*
X101499362Y-136495802D01*
X101430472Y-136438874D01*
X101298781Y-136351311D01*
X101161835Y-136269006D01*
X101020267Y-136191324D01*
X100874714Y-136117631D01*
X100725809Y-136047290D01*
X100574188Y-135979668D01*
X100265339Y-135850034D01*
X99642989Y-135595432D01*
X99339649Y-135460301D01*
X99192161Y-135388554D01*
X99048307Y-135313173D01*
X99000743Y-135313552D01*
X98953186Y-135313288D01*
X98905640Y-135312382D01*
X98858113Y-135310833D01*
X98810611Y-135308641D01*
X98763141Y-135305808D01*
X98715710Y-135302333D01*
X98668324Y-135298216D01*
X98611226Y-135293101D01*
X98554057Y-135289046D01*
X98496832Y-135286052D01*
X98439567Y-135284121D01*
X98382275Y-135283252D01*
X98324972Y-135283446D01*
X98267673Y-135284703D01*
X98210391Y-135287024D01*
X98202134Y-135293896D01*
X98193581Y-135300317D01*
X98184751Y-135306280D01*
X98175662Y-135311779D01*
X98166334Y-135316809D01*
X98156786Y-135321362D01*
X98147035Y-135325432D01*
X98137100Y-135329014D01*
X98127001Y-135332101D01*
X98116756Y-135334687D01*
X98106384Y-135336765D01*
X98095903Y-135338330D01*
X98085333Y-135339374D01*
X98074691Y-135339893D01*
X98063996Y-135339880D01*
X98053268Y-135339328D01*
X97977709Y-135388254D01*
X97903560Y-135439099D01*
X97830857Y-135491830D01*
X97759632Y-135546413D01*
X97689920Y-135602818D01*
X97621753Y-135661009D01*
X97555166Y-135720956D01*
X97490191Y-135782625D01*
X97426863Y-135845984D01*
X97365215Y-135911000D01*
X97305280Y-135977640D01*
X97247093Y-136045872D01*
X97190686Y-136115663D01*
X97136094Y-136186980D01*
X97083349Y-136259790D01*
X97032485Y-136334061D01*
X97005603Y-136372657D01*
X96979429Y-136411953D01*
X96928184Y-136491627D01*
X96902602Y-136531498D01*
X96876708Y-136571054D01*
X96850246Y-136610039D01*
X96822960Y-136648201D01*
X96820959Y-136661742D01*
X96818269Y-136674597D01*
X96814934Y-136686809D01*
X96810999Y-136698424D01*
X96806509Y-136709485D01*
X96801509Y-136720039D01*
X96796044Y-136730129D01*
X96790160Y-136739800D01*
X96783900Y-136749096D01*
X96777310Y-136758063D01*
X96770435Y-136766745D01*
X96763320Y-136775187D01*
X96748548Y-136791528D01*
X96733355Y-136807444D01*
X96718100Y-136823292D01*
X96703143Y-136839430D01*
X96688842Y-136856215D01*
X96682051Y-136864961D01*
X96675559Y-136874003D01*
X96669410Y-136883386D01*
X96663651Y-136893154D01*
X96658326Y-136903351D01*
X96653479Y-136914023D01*
X96649157Y-136925213D01*
X96645403Y-136936968D01*
X96642263Y-136949330D01*
X96639782Y-136962346D01*
X96616106Y-137002916D01*
X96593561Y-137044096D01*
X96572157Y-137085861D01*
X96551907Y-137128188D01*
X96532821Y-137171053D01*
X96514912Y-137214432D01*
X96498189Y-137258300D01*
X96482665Y-137302634D01*
X96473935Y-137309436D01*
X96465534Y-137316568D01*
X96449642Y-137331746D01*
X96434842Y-137348019D01*
X96420981Y-137365236D01*
X96407910Y-137383246D01*
X96395479Y-137401900D01*
X96383538Y-137421046D01*
X96371937Y-137440535D01*
X96349152Y-137479938D01*
X96325925Y-137518906D01*
X96313770Y-137537851D01*
X96301054Y-137556236D01*
X96287627Y-137573910D01*
X96273338Y-137590724D01*
X96258635Y-137639681D01*
X96246664Y-137690974D01*
X96237215Y-137744340D01*
X96230074Y-137799513D01*
X96225030Y-137856231D01*
X96221869Y-137914229D01*
X96220381Y-137973244D01*
X96220352Y-138033012D01*
X95620774Y-138033012D01*
X95623831Y-137930189D01*
X95628330Y-137825339D01*
X95634208Y-137720562D01*
X95641464Y-137615871D01*
X95650097Y-137511281D01*
X95660108Y-137406804D01*
X95671494Y-137302454D01*
X95677278Y-137295158D01*
X95682684Y-137287484D01*
X95687740Y-137279459D01*
X95692472Y-137271109D01*
X95701072Y-137253543D01*
X95708699Y-137235002D01*
X95715566Y-137215699D01*
X95721890Y-137195850D01*
X95733761Y-137155368D01*
X95746028Y-137115273D01*
X95752846Y-137095906D01*
X95760407Y-137077279D01*
X95768925Y-137059607D01*
X95773609Y-137051196D01*
X95778613Y-137043104D01*
X95783964Y-137035358D01*
X95789688Y-137027985D01*
X95795812Y-137021011D01*
X95802363Y-137014464D01*
X95805248Y-137004243D01*
X95808432Y-136994325D01*
X95815608Y-136975309D01*
X95823713Y-136957237D01*
X95832571Y-136939928D01*
X95842005Y-136923204D01*
X95851838Y-136906884D01*
X95871994Y-136874742D01*
X95881964Y-136858561D01*
X95891626Y-136842066D01*
X95900803Y-136825079D01*
X95909318Y-136807420D01*
X95916996Y-136788909D01*
X95923658Y-136769367D01*
X95926553Y-136759154D01*
X95929129Y-136748615D01*
X95931362Y-136737729D01*
X95933231Y-136726473D01*
X95957423Y-136698274D01*
X95980524Y-136668989D01*
X96002731Y-136638815D01*
X96024241Y-136607949D01*
X96107240Y-136481505D01*
X96128213Y-136450135D01*
X96149670Y-136419255D01*
X96171807Y-136389063D01*
X96194820Y-136359755D01*
X96218907Y-136331529D01*
X96244263Y-136304582D01*
X96271087Y-136279110D01*
X96299574Y-136255311D01*
X96392787Y-136139033D01*
X96487820Y-136024600D01*
X96584470Y-135911805D01*
X96682534Y-135800442D01*
X96781811Y-135690305D01*
X96882096Y-135581187D01*
X97084882Y-135365184D01*
X97100573Y-135359381D01*
X97115985Y-135352991D01*
X97131106Y-135346026D01*
X97145918Y-135338496D01*
X97160409Y-135330413D01*
X97174562Y-135321788D01*
X97188364Y-135312631D01*
X97201798Y-135302955D01*
X97214852Y-135292771D01*
X97227509Y-135282089D01*
X97239754Y-135270920D01*
X97251574Y-135259277D01*
X97262953Y-135247169D01*
X97273876Y-135234609D01*
X97284328Y-135221607D01*
X97294296Y-135208174D01*
X97311234Y-135202117D01*
X97327934Y-135195522D01*
X97344383Y-135188396D01*
X97360569Y-135180746D01*
X97376481Y-135172582D01*
X97392106Y-135163910D01*
X97407433Y-135154740D01*
X97422450Y-135145078D01*
X97437145Y-135134932D01*
X97451505Y-135124311D01*
X97465521Y-135113223D01*
X97479178Y-135101675D01*
X97492466Y-135089675D01*
X97505373Y-135077232D01*
X97517887Y-135064352D01*
X97529995Y-135051045D01*
X97541078Y-135050670D01*
X97551768Y-135049903D01*
X97562086Y-135048763D01*
X97572052Y-135047272D01*
X97581688Y-135045450D01*
X97591013Y-135043317D01*
X97600048Y-135040895D01*
X97608814Y-135038204D01*
X97617331Y-135035264D01*
X97625620Y-135032096D01*
X97641595Y-135025157D01*
X97656904Y-135017554D01*
X97671711Y-135009449D01*
X97729209Y-134975315D01*
X97743973Y-134967175D01*
X97759221Y-134959521D01*
X97775119Y-134952519D01*
X97783363Y-134949313D01*
X97791830Y-134946332D01*
X97807688Y-134937648D01*
X97824454Y-134929866D01*
X97841996Y-134922852D01*
X97860179Y-134916475D01*
X97878871Y-134910604D01*
X97897937Y-134905105D01*
X97936659Y-134894700D01*
X97975276Y-134884204D01*
X97994212Y-134878593D01*
X98012720Y-134872562D01*
X98030669Y-134865982D01*
X98047923Y-134858719D01*
X98064349Y-134850642D01*
X98079815Y-134841619D01*
X98655690Y-134841619D01*
X98658732Y-134841831D01*
X98661607Y-134842211D01*
X98664328Y-134842746D01*
X98666908Y-134843423D01*
X98669361Y-134844229D01*
X98671697Y-134845151D01*
X98673932Y-134846176D01*
X98676077Y-134847292D01*
X98680149Y-134849743D01*
X98684017Y-134852401D01*
X98691551Y-134857926D01*
X98695422Y-134860585D01*
X98699499Y-134863040D01*
X98701648Y-134864157D01*
X98703886Y-134865185D01*
X98706227Y-134866109D01*
X98708684Y-134866918D01*
X98711270Y-134867598D01*
X98713997Y-134868136D01*
X98716879Y-134868520D01*
X98719927Y-134868736D01*
X98723156Y-134868772D01*
X98726577Y-134868615D01*
X98730204Y-134868251D01*
X98734050Y-134867668D01*
X98894914Y-134876998D01*
X99054872Y-134887217D01*
X99133750Y-134893414D01*
X99211489Y-134900738D01*
X99287785Y-134909490D01*
X99362334Y-134919972D01*
X99682919Y-135014254D01*
X99999478Y-135120205D01*
X100311699Y-135237688D01*
X100619269Y-135366566D01*
X100921877Y-135506700D01*
X101219210Y-135657952D01*
X101510956Y-135820186D01*
X101796803Y-135993264D01*
X101840703Y-136034694D01*
X101885156Y-136075517D01*
X101930157Y-136115728D01*
X101975699Y-136155321D01*
X102021775Y-136194290D01*
X102068379Y-136232631D01*
X102115505Y-136270337D01*
X102163147Y-136307403D01*
X102206970Y-136364983D01*
X102251641Y-136421727D01*
X102297019Y-136477776D01*
X102342960Y-136533266D01*
X102435958Y-136643125D01*
X102529491Y-136752411D01*
X102545338Y-136787272D01*
X102562296Y-136821573D01*
X102580350Y-136855287D01*
X102599484Y-136888389D01*
X102619683Y-136920852D01*
X102640932Y-136952650D01*
X102663213Y-136983757D01*
X102686514Y-137014147D01*
X102706830Y-137047582D01*
X102726090Y-137080746D01*
X102763167Y-137146402D01*
X102781848Y-137178961D01*
X102801198Y-137211388D01*
X102821651Y-137243717D01*
X102832425Y-137259856D01*
X102843636Y-137275982D01*
X102981279Y-137557075D01*
X103049293Y-137698451D01*
X103114552Y-137842594D01*
X103145629Y-137916222D01*
X103175394Y-137991163D01*
X103203639Y-138067627D01*
X103230156Y-138145819D01*
X103254738Y-138225949D01*
X103277176Y-138308222D01*
X103297264Y-138392847D01*
X103314792Y-138480031D01*
X103321109Y-138480462D01*
X103327378Y-138481105D01*
X103333596Y-138481958D01*
X103339758Y-138483017D01*
X103345860Y-138484280D01*
X103351897Y-138485743D01*
X103357865Y-138487405D01*
X103363759Y-138489261D01*
X103369576Y-138491309D01*
X103375311Y-138493547D01*
X103380960Y-138495970D01*
X103386518Y-138498577D01*
X103391981Y-138501365D01*
X103397344Y-138504330D01*
X103402604Y-138507469D01*
X103407755Y-138510781D01*
X103412794Y-138514261D01*
X103417716Y-138517907D01*
X103422517Y-138521716D01*
X103427193Y-138525685D01*
X103431738Y-138529812D01*
X103436149Y-138534092D01*
X103440422Y-138538525D01*
X103444552Y-138543105D01*
X103448534Y-138547832D01*
X103452365Y-138552701D01*
X103456039Y-138557710D01*
X103459554Y-138562855D01*
X103462903Y-138568135D01*
X103466084Y-138573546D01*
X103469091Y-138579086D01*
X103471921Y-138584750D01*
X103476145Y-138588756D01*
X103480529Y-138592595D01*
X103489729Y-138599822D01*
X103499429Y-138606527D01*
X103509536Y-138612804D01*
X103519958Y-138618749D01*
X103530602Y-138624457D01*
X103552188Y-138635544D01*
X103573555Y-138646826D01*
X103583925Y-138652778D01*
X103593963Y-138659065D01*
X103603576Y-138665781D01*
X103612672Y-138673023D01*
X103616997Y-138676871D01*
X103621159Y-138680885D01*
X103625145Y-138685079D01*
X103628944Y-138689463D01*
X103671012Y-138714991D01*
X103712324Y-138741674D01*
X103752854Y-138769494D01*
X103792581Y-138798433D01*
X103831480Y-138828475D01*
X103869529Y-138859603D01*
X103906705Y-138891798D01*
X103942984Y-138925044D01*
X103943569Y-138927750D01*
X103944256Y-138930353D01*
X103945040Y-138932858D01*
X103945919Y-138935269D01*
X103946889Y-138937587D01*
X103947947Y-138939817D01*
X103949090Y-138941961D01*
X103950314Y-138944024D01*
X103951616Y-138946008D01*
X103952992Y-138947916D01*
X103954440Y-138949753D01*
X103955956Y-138951520D01*
X103959179Y-138954862D01*
X103962635Y-138957967D01*
X103966297Y-138960863D01*
X103970139Y-138963575D01*
X103974134Y-138966129D01*
X103978257Y-138968553D01*
X103982481Y-138970871D01*
X103986779Y-138973111D01*
X103995492Y-138977460D01*
X104049462Y-139045691D01*
X104101970Y-139114971D01*
X104153003Y-139185275D01*
X104202548Y-139256581D01*
X104250590Y-139328863D01*
X104297116Y-139402097D01*
X104342112Y-139476260D01*
X104385565Y-139551327D01*
X104427460Y-139627273D01*
X104467785Y-139704076D01*
X104506525Y-139781710D01*
X104543668Y-139860151D01*
X104579198Y-139939376D01*
X104613103Y-140019360D01*
X104645369Y-140100079D01*
X104675981Y-140181508D01*
X104746745Y-140354906D01*
X104804062Y-140522094D01*
X104807125Y-140531031D01*
G37*
D11*
X100682419Y-151396741D02*
X100658609Y-151349122D01*
X100658609Y-151349122D02*
X100658609Y-151277693D01*
X100658609Y-151277693D02*
X100682419Y-151206265D01*
X100682419Y-151206265D02*
X100730038Y-151158646D01*
X100730038Y-151158646D02*
X100777657Y-151134836D01*
X100777657Y-151134836D02*
X100872895Y-151111027D01*
X100872895Y-151111027D02*
X100944323Y-151111027D01*
X100944323Y-151111027D02*
X101039561Y-151134836D01*
X101039561Y-151134836D02*
X101087180Y-151158646D01*
X101087180Y-151158646D02*
X101134800Y-151206265D01*
X101134800Y-151206265D02*
X101158609Y-151277693D01*
X101158609Y-151277693D02*
X101158609Y-151325312D01*
X101158609Y-151325312D02*
X101134800Y-151396741D01*
X101134800Y-151396741D02*
X101110990Y-151420550D01*
X101110990Y-151420550D02*
X100944323Y-151420550D01*
X100944323Y-151420550D02*
X100944323Y-151325312D01*
X101158609Y-151634836D02*
X100658609Y-151634836D01*
X100658609Y-151634836D02*
X101158609Y-151920550D01*
X101158609Y-151920550D02*
X100658609Y-151920550D01*
X101158609Y-152158646D02*
X100658609Y-152158646D01*
X100658609Y-152158646D02*
X100658609Y-152277694D01*
X100658609Y-152277694D02*
X100682419Y-152349122D01*
X100682419Y-152349122D02*
X100730038Y-152396741D01*
X100730038Y-152396741D02*
X100777657Y-152420551D01*
X100777657Y-152420551D02*
X100872895Y-152444360D01*
X100872895Y-152444360D02*
X100944323Y-152444360D01*
X100944323Y-152444360D02*
X101039561Y-152420551D01*
X101039561Y-152420551D02*
X101087180Y-152396741D01*
X101087180Y-152396741D02*
X101134800Y-152349122D01*
X101134800Y-152349122D02*
X101158609Y-152277694D01*
X101158609Y-152277694D02*
X101158609Y-152158646D01*
X102035990Y-156845550D02*
X102059800Y-156821741D01*
X102059800Y-156821741D02*
X102083609Y-156750312D01*
X102083609Y-156750312D02*
X102083609Y-156702693D01*
X102083609Y-156702693D02*
X102059800Y-156631265D01*
X102059800Y-156631265D02*
X102012180Y-156583646D01*
X102012180Y-156583646D02*
X101964561Y-156559836D01*
X101964561Y-156559836D02*
X101869323Y-156536027D01*
X101869323Y-156536027D02*
X101797895Y-156536027D01*
X101797895Y-156536027D02*
X101702657Y-156559836D01*
X101702657Y-156559836D02*
X101655038Y-156583646D01*
X101655038Y-156583646D02*
X101607419Y-156631265D01*
X101607419Y-156631265D02*
X101583609Y-156702693D01*
X101583609Y-156702693D02*
X101583609Y-156750312D01*
X101583609Y-156750312D02*
X101607419Y-156821741D01*
X101607419Y-156821741D02*
X101631228Y-156845550D01*
X102083609Y-157274122D02*
X101821704Y-157274122D01*
X101821704Y-157274122D02*
X101774085Y-157250312D01*
X101774085Y-157250312D02*
X101750276Y-157202693D01*
X101750276Y-157202693D02*
X101750276Y-157107455D01*
X101750276Y-157107455D02*
X101774085Y-157059836D01*
X102059800Y-157274122D02*
X102083609Y-157226503D01*
X102083609Y-157226503D02*
X102083609Y-157107455D01*
X102083609Y-157107455D02*
X102059800Y-157059836D01*
X102059800Y-157059836D02*
X102012180Y-157036027D01*
X102012180Y-157036027D02*
X101964561Y-157036027D01*
X101964561Y-157036027D02*
X101916942Y-157059836D01*
X101916942Y-157059836D02*
X101893133Y-157107455D01*
X101893133Y-157107455D02*
X101893133Y-157226503D01*
X101893133Y-157226503D02*
X101869323Y-157274122D01*
X101750276Y-157512217D02*
X102083609Y-157512217D01*
X101797895Y-157512217D02*
X101774085Y-157536027D01*
X101774085Y-157536027D02*
X101750276Y-157583646D01*
X101750276Y-157583646D02*
X101750276Y-157655074D01*
X101750276Y-157655074D02*
X101774085Y-157702693D01*
X101774085Y-157702693D02*
X101821704Y-157726503D01*
X101821704Y-157726503D02*
X102083609Y-157726503D01*
X102083609Y-158202693D02*
X102083609Y-157964598D01*
X102083609Y-157964598D02*
X101583609Y-157964598D01*
X98910990Y-151120550D02*
X98934800Y-151096741D01*
X98934800Y-151096741D02*
X98958609Y-151025312D01*
X98958609Y-151025312D02*
X98958609Y-150977693D01*
X98958609Y-150977693D02*
X98934800Y-150906265D01*
X98934800Y-150906265D02*
X98887180Y-150858646D01*
X98887180Y-150858646D02*
X98839561Y-150834836D01*
X98839561Y-150834836D02*
X98744323Y-150811027D01*
X98744323Y-150811027D02*
X98672895Y-150811027D01*
X98672895Y-150811027D02*
X98577657Y-150834836D01*
X98577657Y-150834836D02*
X98530038Y-150858646D01*
X98530038Y-150858646D02*
X98482419Y-150906265D01*
X98482419Y-150906265D02*
X98458609Y-150977693D01*
X98458609Y-150977693D02*
X98458609Y-151025312D01*
X98458609Y-151025312D02*
X98482419Y-151096741D01*
X98482419Y-151096741D02*
X98506228Y-151120550D01*
X98958609Y-151549122D02*
X98696704Y-151549122D01*
X98696704Y-151549122D02*
X98649085Y-151525312D01*
X98649085Y-151525312D02*
X98625276Y-151477693D01*
X98625276Y-151477693D02*
X98625276Y-151382455D01*
X98625276Y-151382455D02*
X98649085Y-151334836D01*
X98934800Y-151549122D02*
X98958609Y-151501503D01*
X98958609Y-151501503D02*
X98958609Y-151382455D01*
X98958609Y-151382455D02*
X98934800Y-151334836D01*
X98934800Y-151334836D02*
X98887180Y-151311027D01*
X98887180Y-151311027D02*
X98839561Y-151311027D01*
X98839561Y-151311027D02*
X98791942Y-151334836D01*
X98791942Y-151334836D02*
X98768133Y-151382455D01*
X98768133Y-151382455D02*
X98768133Y-151501503D01*
X98768133Y-151501503D02*
X98744323Y-151549122D01*
X98625276Y-151787217D02*
X98958609Y-151787217D01*
X98672895Y-151787217D02*
X98649085Y-151811027D01*
X98649085Y-151811027D02*
X98625276Y-151858646D01*
X98625276Y-151858646D02*
X98625276Y-151930074D01*
X98625276Y-151930074D02*
X98649085Y-151977693D01*
X98649085Y-151977693D02*
X98696704Y-152001503D01*
X98696704Y-152001503D02*
X98958609Y-152001503D01*
X98958609Y-152239598D02*
X98458609Y-152239598D01*
X98696704Y-152239598D02*
X98696704Y-152525312D01*
X98958609Y-152525312D02*
X98458609Y-152525312D01*
X134382419Y-157321741D02*
X134358609Y-157274122D01*
X134358609Y-157274122D02*
X134358609Y-157202693D01*
X134358609Y-157202693D02*
X134382419Y-157131265D01*
X134382419Y-157131265D02*
X134430038Y-157083646D01*
X134430038Y-157083646D02*
X134477657Y-157059836D01*
X134477657Y-157059836D02*
X134572895Y-157036027D01*
X134572895Y-157036027D02*
X134644323Y-157036027D01*
X134644323Y-157036027D02*
X134739561Y-157059836D01*
X134739561Y-157059836D02*
X134787180Y-157083646D01*
X134787180Y-157083646D02*
X134834800Y-157131265D01*
X134834800Y-157131265D02*
X134858609Y-157202693D01*
X134858609Y-157202693D02*
X134858609Y-157250312D01*
X134858609Y-157250312D02*
X134834800Y-157321741D01*
X134834800Y-157321741D02*
X134810990Y-157345550D01*
X134810990Y-157345550D02*
X134644323Y-157345550D01*
X134644323Y-157345550D02*
X134644323Y-157250312D01*
X134858609Y-157559836D02*
X134358609Y-157559836D01*
X134358609Y-157559836D02*
X134858609Y-157845550D01*
X134858609Y-157845550D02*
X134358609Y-157845550D01*
X134858609Y-158083646D02*
X134358609Y-158083646D01*
X134358609Y-158083646D02*
X134358609Y-158202694D01*
X134358609Y-158202694D02*
X134382419Y-158274122D01*
X134382419Y-158274122D02*
X134430038Y-158321741D01*
X134430038Y-158321741D02*
X134477657Y-158345551D01*
X134477657Y-158345551D02*
X134572895Y-158369360D01*
X134572895Y-158369360D02*
X134644323Y-158369360D01*
X134644323Y-158369360D02*
X134739561Y-158345551D01*
X134739561Y-158345551D02*
X134787180Y-158321741D01*
X134787180Y-158321741D02*
X134834800Y-158274122D01*
X134834800Y-158274122D02*
X134858609Y-158202694D01*
X134858609Y-158202694D02*
X134858609Y-158083646D01*
X148733609Y-155559836D02*
X148233609Y-155559836D01*
X148471704Y-155559836D02*
X148471704Y-155845550D01*
X148733609Y-155845550D02*
X148233609Y-155845550D01*
X148733609Y-156297932D02*
X148471704Y-156297932D01*
X148471704Y-156297932D02*
X148424085Y-156274122D01*
X148424085Y-156274122D02*
X148400276Y-156226503D01*
X148400276Y-156226503D02*
X148400276Y-156131265D01*
X148400276Y-156131265D02*
X148424085Y-156083646D01*
X148709800Y-156297932D02*
X148733609Y-156250313D01*
X148733609Y-156250313D02*
X148733609Y-156131265D01*
X148733609Y-156131265D02*
X148709800Y-156083646D01*
X148709800Y-156083646D02*
X148662180Y-156059837D01*
X148662180Y-156059837D02*
X148614561Y-156059837D01*
X148614561Y-156059837D02*
X148566942Y-156083646D01*
X148566942Y-156083646D02*
X148543133Y-156131265D01*
X148543133Y-156131265D02*
X148543133Y-156250313D01*
X148543133Y-156250313D02*
X148519323Y-156297932D01*
X148733609Y-156607456D02*
X148709800Y-156559837D01*
X148709800Y-156559837D02*
X148662180Y-156536027D01*
X148662180Y-156536027D02*
X148233609Y-156536027D01*
X148733609Y-156869361D02*
X148709800Y-156821742D01*
X148709800Y-156821742D02*
X148662180Y-156797932D01*
X148662180Y-156797932D02*
X148233609Y-156797932D01*
X148400276Y-157012218D02*
X148733609Y-157131266D01*
X148733609Y-157131266D02*
X148400276Y-157250313D01*
X148709800Y-157655075D02*
X148733609Y-157607456D01*
X148733609Y-157607456D02*
X148733609Y-157512218D01*
X148733609Y-157512218D02*
X148709800Y-157464599D01*
X148709800Y-157464599D02*
X148685990Y-157440789D01*
X148685990Y-157440789D02*
X148638371Y-157416980D01*
X148638371Y-157416980D02*
X148495514Y-157416980D01*
X148495514Y-157416980D02*
X148447895Y-157440789D01*
X148447895Y-157440789D02*
X148424085Y-157464599D01*
X148424085Y-157464599D02*
X148400276Y-157512218D01*
X148400276Y-157512218D02*
X148400276Y-157607456D01*
X148400276Y-157607456D02*
X148424085Y-157655075D01*
X148709800Y-158083646D02*
X148733609Y-158036027D01*
X148733609Y-158036027D02*
X148733609Y-157940789D01*
X148733609Y-157940789D02*
X148709800Y-157893170D01*
X148709800Y-157893170D02*
X148685990Y-157869360D01*
X148685990Y-157869360D02*
X148638371Y-157845551D01*
X148638371Y-157845551D02*
X148495514Y-157845551D01*
X148495514Y-157845551D02*
X148447895Y-157869360D01*
X148447895Y-157869360D02*
X148424085Y-157893170D01*
X148424085Y-157893170D02*
X148400276Y-157940789D01*
X148400276Y-157940789D02*
X148400276Y-158036027D01*
X148400276Y-158036027D02*
X148424085Y-158083646D01*
X94943133Y-156434836D02*
X94943133Y-156815789D01*
X95133609Y-156625312D02*
X94752657Y-156625312D01*
X95133609Y-157315789D02*
X95133609Y-157030075D01*
X95133609Y-157172932D02*
X94633609Y-157172932D01*
X94633609Y-157172932D02*
X94705038Y-157125313D01*
X94705038Y-157125313D02*
X94752657Y-157077694D01*
X94752657Y-157077694D02*
X94776466Y-157030075D01*
X94681228Y-157506265D02*
X94657419Y-157530074D01*
X94657419Y-157530074D02*
X94633609Y-157577693D01*
X94633609Y-157577693D02*
X94633609Y-157696741D01*
X94633609Y-157696741D02*
X94657419Y-157744360D01*
X94657419Y-157744360D02*
X94681228Y-157768169D01*
X94681228Y-157768169D02*
X94728847Y-157791979D01*
X94728847Y-157791979D02*
X94776466Y-157791979D01*
X94776466Y-157791979D02*
X94847895Y-157768169D01*
X94847895Y-157768169D02*
X95133609Y-157482455D01*
X95133609Y-157482455D02*
X95133609Y-157791979D01*
X94800276Y-157958645D02*
X95133609Y-158077693D01*
X95133609Y-158077693D02*
X94800276Y-158196740D01*
X158282419Y-157321741D02*
X158258609Y-157274122D01*
X158258609Y-157274122D02*
X158258609Y-157202693D01*
X158258609Y-157202693D02*
X158282419Y-157131265D01*
X158282419Y-157131265D02*
X158330038Y-157083646D01*
X158330038Y-157083646D02*
X158377657Y-157059836D01*
X158377657Y-157059836D02*
X158472895Y-157036027D01*
X158472895Y-157036027D02*
X158544323Y-157036027D01*
X158544323Y-157036027D02*
X158639561Y-157059836D01*
X158639561Y-157059836D02*
X158687180Y-157083646D01*
X158687180Y-157083646D02*
X158734800Y-157131265D01*
X158734800Y-157131265D02*
X158758609Y-157202693D01*
X158758609Y-157202693D02*
X158758609Y-157250312D01*
X158758609Y-157250312D02*
X158734800Y-157321741D01*
X158734800Y-157321741D02*
X158710990Y-157345550D01*
X158710990Y-157345550D02*
X158544323Y-157345550D01*
X158544323Y-157345550D02*
X158544323Y-157250312D01*
X158758609Y-157559836D02*
X158258609Y-157559836D01*
X158258609Y-157559836D02*
X158758609Y-157845550D01*
X158758609Y-157845550D02*
X158258609Y-157845550D01*
X158758609Y-158083646D02*
X158258609Y-158083646D01*
X158258609Y-158083646D02*
X158258609Y-158202694D01*
X158258609Y-158202694D02*
X158282419Y-158274122D01*
X158282419Y-158274122D02*
X158330038Y-158321741D01*
X158330038Y-158321741D02*
X158377657Y-158345551D01*
X158377657Y-158345551D02*
X158472895Y-158369360D01*
X158472895Y-158369360D02*
X158544323Y-158369360D01*
X158544323Y-158369360D02*
X158639561Y-158345551D01*
X158639561Y-158345551D02*
X158687180Y-158321741D01*
X158687180Y-158321741D02*
X158734800Y-158274122D01*
X158734800Y-158274122D02*
X158758609Y-158202694D01*
X158758609Y-158202694D02*
X158758609Y-158083646D01*
X92868133Y-151034836D02*
X92868133Y-151415789D01*
X93058609Y-151225312D02*
X92677657Y-151225312D01*
X92558609Y-151891979D02*
X92558609Y-151653884D01*
X92558609Y-151653884D02*
X92796704Y-151630075D01*
X92796704Y-151630075D02*
X92772895Y-151653884D01*
X92772895Y-151653884D02*
X92749085Y-151701503D01*
X92749085Y-151701503D02*
X92749085Y-151820551D01*
X92749085Y-151820551D02*
X92772895Y-151868170D01*
X92772895Y-151868170D02*
X92796704Y-151891979D01*
X92796704Y-151891979D02*
X92844323Y-151915789D01*
X92844323Y-151915789D02*
X92963371Y-151915789D01*
X92963371Y-151915789D02*
X93010990Y-151891979D01*
X93010990Y-151891979D02*
X93034800Y-151868170D01*
X93034800Y-151868170D02*
X93058609Y-151820551D01*
X93058609Y-151820551D02*
X93058609Y-151701503D01*
X93058609Y-151701503D02*
X93034800Y-151653884D01*
X93034800Y-151653884D02*
X93010990Y-151630075D01*
X92725276Y-152082455D02*
X93058609Y-152201503D01*
X93058609Y-152201503D02*
X92725276Y-152320550D01*
X128740752Y-155686027D02*
X128740752Y-155924122D01*
X128883609Y-155638408D02*
X128383609Y-155805074D01*
X128383609Y-155805074D02*
X128883609Y-155971741D01*
X128883609Y-156138407D02*
X128383609Y-156138407D01*
X128383609Y-156138407D02*
X128383609Y-156257455D01*
X128383609Y-156257455D02*
X128407419Y-156328883D01*
X128407419Y-156328883D02*
X128455038Y-156376502D01*
X128455038Y-156376502D02*
X128502657Y-156400312D01*
X128502657Y-156400312D02*
X128597895Y-156424121D01*
X128597895Y-156424121D02*
X128669323Y-156424121D01*
X128669323Y-156424121D02*
X128764561Y-156400312D01*
X128764561Y-156400312D02*
X128812180Y-156376502D01*
X128812180Y-156376502D02*
X128859800Y-156328883D01*
X128859800Y-156328883D02*
X128883609Y-156257455D01*
X128883609Y-156257455D02*
X128883609Y-156138407D01*
X128835990Y-156924121D02*
X128859800Y-156900312D01*
X128859800Y-156900312D02*
X128883609Y-156828883D01*
X128883609Y-156828883D02*
X128883609Y-156781264D01*
X128883609Y-156781264D02*
X128859800Y-156709836D01*
X128859800Y-156709836D02*
X128812180Y-156662217D01*
X128812180Y-156662217D02*
X128764561Y-156638407D01*
X128764561Y-156638407D02*
X128669323Y-156614598D01*
X128669323Y-156614598D02*
X128597895Y-156614598D01*
X128597895Y-156614598D02*
X128502657Y-156638407D01*
X128502657Y-156638407D02*
X128455038Y-156662217D01*
X128455038Y-156662217D02*
X128407419Y-156709836D01*
X128407419Y-156709836D02*
X128383609Y-156781264D01*
X128383609Y-156781264D02*
X128383609Y-156828883D01*
X128383609Y-156828883D02*
X128407419Y-156900312D01*
X128407419Y-156900312D02*
X128431228Y-156924121D01*
X128931228Y-157019360D02*
X128931228Y-157400312D01*
X128883609Y-157781264D02*
X128883609Y-157495550D01*
X128883609Y-157638407D02*
X128383609Y-157638407D01*
X128383609Y-157638407D02*
X128455038Y-157590788D01*
X128455038Y-157590788D02*
X128502657Y-157543169D01*
X128502657Y-157543169D02*
X128526466Y-157495550D01*
X128383609Y-158233644D02*
X128383609Y-157995549D01*
X128383609Y-157995549D02*
X128621704Y-157971740D01*
X128621704Y-157971740D02*
X128597895Y-157995549D01*
X128597895Y-157995549D02*
X128574085Y-158043168D01*
X128574085Y-158043168D02*
X128574085Y-158162216D01*
X128574085Y-158162216D02*
X128597895Y-158209835D01*
X128597895Y-158209835D02*
X128621704Y-158233644D01*
X128621704Y-158233644D02*
X128669323Y-158257454D01*
X128669323Y-158257454D02*
X128788371Y-158257454D01*
X128788371Y-158257454D02*
X128835990Y-158233644D01*
X128835990Y-158233644D02*
X128859800Y-158209835D01*
X128859800Y-158209835D02*
X128883609Y-158162216D01*
X128883609Y-158162216D02*
X128883609Y-158043168D01*
X128883609Y-158043168D02*
X128859800Y-157995549D01*
X128859800Y-157995549D02*
X128835990Y-157971740D01*
X94868133Y-150834836D02*
X94868133Y-151215789D01*
X95058609Y-151025312D02*
X94677657Y-151025312D01*
X94558609Y-151406265D02*
X94558609Y-151715789D01*
X94558609Y-151715789D02*
X94749085Y-151549122D01*
X94749085Y-151549122D02*
X94749085Y-151620551D01*
X94749085Y-151620551D02*
X94772895Y-151668170D01*
X94772895Y-151668170D02*
X94796704Y-151691979D01*
X94796704Y-151691979D02*
X94844323Y-151715789D01*
X94844323Y-151715789D02*
X94963371Y-151715789D01*
X94963371Y-151715789D02*
X95010990Y-151691979D01*
X95010990Y-151691979D02*
X95034800Y-151668170D01*
X95034800Y-151668170D02*
X95058609Y-151620551D01*
X95058609Y-151620551D02*
X95058609Y-151477694D01*
X95058609Y-151477694D02*
X95034800Y-151430075D01*
X95034800Y-151430075D02*
X95010990Y-151406265D01*
X94725276Y-151882455D02*
X95058609Y-152001503D01*
X95058609Y-152001503D02*
X94725276Y-152120550D01*
X94558609Y-152263407D02*
X94558609Y-152572931D01*
X94558609Y-152572931D02*
X94749085Y-152406264D01*
X94749085Y-152406264D02*
X94749085Y-152477693D01*
X94749085Y-152477693D02*
X94772895Y-152525312D01*
X94772895Y-152525312D02*
X94796704Y-152549121D01*
X94796704Y-152549121D02*
X94844323Y-152572931D01*
X94844323Y-152572931D02*
X94963371Y-152572931D01*
X94963371Y-152572931D02*
X95010990Y-152549121D01*
X95010990Y-152549121D02*
X95034800Y-152525312D01*
X95034800Y-152525312D02*
X95058609Y-152477693D01*
X95058609Y-152477693D02*
X95058609Y-152334836D01*
X95058609Y-152334836D02*
X95034800Y-152287217D01*
X95034800Y-152287217D02*
X95010990Y-152263407D01*
X97060990Y-151095550D02*
X97084800Y-151071741D01*
X97084800Y-151071741D02*
X97108609Y-151000312D01*
X97108609Y-151000312D02*
X97108609Y-150952693D01*
X97108609Y-150952693D02*
X97084800Y-150881265D01*
X97084800Y-150881265D02*
X97037180Y-150833646D01*
X97037180Y-150833646D02*
X96989561Y-150809836D01*
X96989561Y-150809836D02*
X96894323Y-150786027D01*
X96894323Y-150786027D02*
X96822895Y-150786027D01*
X96822895Y-150786027D02*
X96727657Y-150809836D01*
X96727657Y-150809836D02*
X96680038Y-150833646D01*
X96680038Y-150833646D02*
X96632419Y-150881265D01*
X96632419Y-150881265D02*
X96608609Y-150952693D01*
X96608609Y-150952693D02*
X96608609Y-151000312D01*
X96608609Y-151000312D02*
X96632419Y-151071741D01*
X96632419Y-151071741D02*
X96656228Y-151095550D01*
X97108609Y-151524122D02*
X96846704Y-151524122D01*
X96846704Y-151524122D02*
X96799085Y-151500312D01*
X96799085Y-151500312D02*
X96775276Y-151452693D01*
X96775276Y-151452693D02*
X96775276Y-151357455D01*
X96775276Y-151357455D02*
X96799085Y-151309836D01*
X97084800Y-151524122D02*
X97108609Y-151476503D01*
X97108609Y-151476503D02*
X97108609Y-151357455D01*
X97108609Y-151357455D02*
X97084800Y-151309836D01*
X97084800Y-151309836D02*
X97037180Y-151286027D01*
X97037180Y-151286027D02*
X96989561Y-151286027D01*
X96989561Y-151286027D02*
X96941942Y-151309836D01*
X96941942Y-151309836D02*
X96918133Y-151357455D01*
X96918133Y-151357455D02*
X96918133Y-151476503D01*
X96918133Y-151476503D02*
X96894323Y-151524122D01*
X96775276Y-151762217D02*
X97108609Y-151762217D01*
X96822895Y-151762217D02*
X96799085Y-151786027D01*
X96799085Y-151786027D02*
X96775276Y-151833646D01*
X96775276Y-151833646D02*
X96775276Y-151905074D01*
X96775276Y-151905074D02*
X96799085Y-151952693D01*
X96799085Y-151952693D02*
X96846704Y-151976503D01*
X96846704Y-151976503D02*
X97108609Y-151976503D01*
X97108609Y-152452693D02*
X97108609Y-152214598D01*
X97108609Y-152214598D02*
X96608609Y-152214598D01*
X97084800Y-156236027D02*
X97108609Y-156307455D01*
X97108609Y-156307455D02*
X97108609Y-156426503D01*
X97108609Y-156426503D02*
X97084800Y-156474122D01*
X97084800Y-156474122D02*
X97060990Y-156497931D01*
X97060990Y-156497931D02*
X97013371Y-156521741D01*
X97013371Y-156521741D02*
X96965752Y-156521741D01*
X96965752Y-156521741D02*
X96918133Y-156497931D01*
X96918133Y-156497931D02*
X96894323Y-156474122D01*
X96894323Y-156474122D02*
X96870514Y-156426503D01*
X96870514Y-156426503D02*
X96846704Y-156331265D01*
X96846704Y-156331265D02*
X96822895Y-156283646D01*
X96822895Y-156283646D02*
X96799085Y-156259836D01*
X96799085Y-156259836D02*
X96751466Y-156236027D01*
X96751466Y-156236027D02*
X96703847Y-156236027D01*
X96703847Y-156236027D02*
X96656228Y-156259836D01*
X96656228Y-156259836D02*
X96632419Y-156283646D01*
X96632419Y-156283646D02*
X96608609Y-156331265D01*
X96608609Y-156331265D02*
X96608609Y-156450312D01*
X96608609Y-156450312D02*
X96632419Y-156521741D01*
X97084800Y-156926502D02*
X97108609Y-156878883D01*
X97108609Y-156878883D02*
X97108609Y-156783645D01*
X97108609Y-156783645D02*
X97084800Y-156736026D01*
X97084800Y-156736026D02*
X97037180Y-156712217D01*
X97037180Y-156712217D02*
X96846704Y-156712217D01*
X96846704Y-156712217D02*
X96799085Y-156736026D01*
X96799085Y-156736026D02*
X96775276Y-156783645D01*
X96775276Y-156783645D02*
X96775276Y-156878883D01*
X96775276Y-156878883D02*
X96799085Y-156926502D01*
X96799085Y-156926502D02*
X96846704Y-156950312D01*
X96846704Y-156950312D02*
X96894323Y-156950312D01*
X96894323Y-156950312D02*
X96941942Y-156712217D01*
X97108609Y-157164597D02*
X96775276Y-157164597D01*
X96870514Y-157164597D02*
X96822895Y-157188407D01*
X96822895Y-157188407D02*
X96799085Y-157212216D01*
X96799085Y-157212216D02*
X96775276Y-157259835D01*
X96775276Y-157259835D02*
X96775276Y-157307454D01*
X96775276Y-157426502D02*
X97108609Y-157545550D01*
X97108609Y-157545550D02*
X96775276Y-157664597D01*
X97108609Y-157926502D02*
X97084800Y-157878883D01*
X97084800Y-157878883D02*
X97060990Y-157855073D01*
X97060990Y-157855073D02*
X97013371Y-157831264D01*
X97013371Y-157831264D02*
X96870514Y-157831264D01*
X96870514Y-157831264D02*
X96822895Y-157855073D01*
X96822895Y-157855073D02*
X96799085Y-157878883D01*
X96799085Y-157878883D02*
X96775276Y-157926502D01*
X96775276Y-157926502D02*
X96775276Y-157997930D01*
X96775276Y-157997930D02*
X96799085Y-158045549D01*
X96799085Y-158045549D02*
X96822895Y-158069359D01*
X96822895Y-158069359D02*
X96870514Y-158093168D01*
X96870514Y-158093168D02*
X97013371Y-158093168D01*
X97013371Y-158093168D02*
X97060990Y-158069359D01*
X97060990Y-158069359D02*
X97084800Y-158045549D01*
X97084800Y-158045549D02*
X97108609Y-157997930D01*
X97108609Y-157997930D02*
X97108609Y-157926502D01*
X130458609Y-157263408D02*
X130458609Y-157549122D01*
X130958609Y-157406265D02*
X130458609Y-157406265D01*
X130458609Y-157668169D02*
X130958609Y-158001502D01*
X130458609Y-158001502D02*
X130958609Y-157668169D01*
D12*
X105914004Y-146463357D02*
X105914004Y-149463357D01*
X105914004Y-146606214D02*
X105628290Y-146463357D01*
X105628290Y-146463357D02*
X105056861Y-146463357D01*
X105056861Y-146463357D02*
X104771147Y-146606214D01*
X104771147Y-146606214D02*
X104628290Y-146749071D01*
X104628290Y-146749071D02*
X104485432Y-147034785D01*
X104485432Y-147034785D02*
X104485432Y-147891928D01*
X104485432Y-147891928D02*
X104628290Y-148177642D01*
X104628290Y-148177642D02*
X104771147Y-148320500D01*
X104771147Y-148320500D02*
X105056861Y-148463357D01*
X105056861Y-148463357D02*
X105628290Y-148463357D01*
X105628290Y-148463357D02*
X105914004Y-148320500D01*
X102771146Y-148463357D02*
X103056861Y-148320500D01*
X103056861Y-148320500D02*
X103199718Y-148177642D01*
X103199718Y-148177642D02*
X103342575Y-147891928D01*
X103342575Y-147891928D02*
X103342575Y-147034785D01*
X103342575Y-147034785D02*
X103199718Y-146749071D01*
X103199718Y-146749071D02*
X103056861Y-146606214D01*
X103056861Y-146606214D02*
X102771146Y-146463357D01*
X102771146Y-146463357D02*
X102342575Y-146463357D01*
X102342575Y-146463357D02*
X102056861Y-146606214D01*
X102056861Y-146606214D02*
X101914004Y-146749071D01*
X101914004Y-146749071D02*
X101771146Y-147034785D01*
X101771146Y-147034785D02*
X101771146Y-147891928D01*
X101771146Y-147891928D02*
X101914004Y-148177642D01*
X101914004Y-148177642D02*
X102056861Y-148320500D01*
X102056861Y-148320500D02*
X102342575Y-148463357D01*
X102342575Y-148463357D02*
X102771146Y-148463357D01*
X100914003Y-146463357D02*
X99771146Y-146463357D01*
X100485432Y-145463357D02*
X100485432Y-148034785D01*
X100485432Y-148034785D02*
X100342575Y-148320500D01*
X100342575Y-148320500D02*
X100056860Y-148463357D01*
X100056860Y-148463357D02*
X99771146Y-148463357D01*
X97485432Y-148463357D02*
X97485432Y-146891928D01*
X97485432Y-146891928D02*
X97628289Y-146606214D01*
X97628289Y-146606214D02*
X97914003Y-146463357D01*
X97914003Y-146463357D02*
X98485432Y-146463357D01*
X98485432Y-146463357D02*
X98771146Y-146606214D01*
X97485432Y-148320500D02*
X97771146Y-148463357D01*
X97771146Y-148463357D02*
X98485432Y-148463357D01*
X98485432Y-148463357D02*
X98771146Y-148320500D01*
X98771146Y-148320500D02*
X98914003Y-148034785D01*
X98914003Y-148034785D02*
X98914003Y-147749071D01*
X98914003Y-147749071D02*
X98771146Y-147463357D01*
X98771146Y-147463357D02*
X98485432Y-147320500D01*
X98485432Y-147320500D02*
X97771146Y-147320500D01*
X97771146Y-147320500D02*
X97485432Y-147177642D01*
X96485431Y-146463357D02*
X95342574Y-146463357D01*
X96056860Y-145463357D02*
X96056860Y-148034785D01*
X96056860Y-148034785D02*
X95914003Y-148320500D01*
X95914003Y-148320500D02*
X95628288Y-148463357D01*
X95628288Y-148463357D02*
X95342574Y-148463357D01*
X93914002Y-148463357D02*
X94199717Y-148320500D01*
X94199717Y-148320500D02*
X94342574Y-148177642D01*
X94342574Y-148177642D02*
X94485431Y-147891928D01*
X94485431Y-147891928D02*
X94485431Y-147034785D01*
X94485431Y-147034785D02*
X94342574Y-146749071D01*
X94342574Y-146749071D02*
X94199717Y-146606214D01*
X94199717Y-146606214D02*
X93914002Y-146463357D01*
X93914002Y-146463357D02*
X93485431Y-146463357D01*
X93485431Y-146463357D02*
X93199717Y-146606214D01*
X93199717Y-146606214D02*
X93056860Y-146749071D01*
X93056860Y-146749071D02*
X92914002Y-147034785D01*
X92914002Y-147034785D02*
X92914002Y-147891928D01*
X92914002Y-147891928D02*
X93056860Y-148177642D01*
X93056860Y-148177642D02*
X93199717Y-148320500D01*
X93199717Y-148320500D02*
X93485431Y-148463357D01*
X93485431Y-148463357D02*
X93914002Y-148463357D01*
D11*
X132808609Y-157645550D02*
X132570514Y-157478884D01*
X132808609Y-157359836D02*
X132308609Y-157359836D01*
X132308609Y-157359836D02*
X132308609Y-157550312D01*
X132308609Y-157550312D02*
X132332419Y-157597931D01*
X132332419Y-157597931D02*
X132356228Y-157621741D01*
X132356228Y-157621741D02*
X132403847Y-157645550D01*
X132403847Y-157645550D02*
X132475276Y-157645550D01*
X132475276Y-157645550D02*
X132522895Y-157621741D01*
X132522895Y-157621741D02*
X132546704Y-157597931D01*
X132546704Y-157597931D02*
X132570514Y-157550312D01*
X132570514Y-157550312D02*
X132570514Y-157359836D01*
X132308609Y-157812217D02*
X132808609Y-158145550D01*
X132308609Y-158145550D02*
X132808609Y-157812217D01*
X153188721Y-157359836D02*
X152688721Y-157359836D01*
X152926816Y-157359836D02*
X152926816Y-157645550D01*
X153188721Y-157645550D02*
X152688721Y-157645550D01*
X153188721Y-158145551D02*
X153188721Y-157859837D01*
X153188721Y-158002694D02*
X152688721Y-158002694D01*
X152688721Y-158002694D02*
X152760150Y-157955075D01*
X152760150Y-157955075D02*
X152807769Y-157907456D01*
X152807769Y-157907456D02*
X152831578Y-157859837D01*
X154798665Y-157359836D02*
X154298665Y-157359836D01*
X154536760Y-157359836D02*
X154536760Y-157645550D01*
X154798665Y-157645550D02*
X154298665Y-157645550D01*
X154346284Y-157859837D02*
X154322475Y-157883646D01*
X154322475Y-157883646D02*
X154298665Y-157931265D01*
X154298665Y-157931265D02*
X154298665Y-158050313D01*
X154298665Y-158050313D02*
X154322475Y-158097932D01*
X154322475Y-158097932D02*
X154346284Y-158121741D01*
X154346284Y-158121741D02*
X154393903Y-158145551D01*
X154393903Y-158145551D02*
X154441522Y-158145551D01*
X154441522Y-158145551D02*
X154512951Y-158121741D01*
X154512951Y-158121741D02*
X154798665Y-157836027D01*
X154798665Y-157836027D02*
X154798665Y-158145551D01*
X156408609Y-157359836D02*
X155908609Y-157359836D01*
X156146704Y-157359836D02*
X156146704Y-157645550D01*
X156408609Y-157645550D02*
X155908609Y-157645550D01*
X155908609Y-157836027D02*
X155908609Y-158145551D01*
X155908609Y-158145551D02*
X156099085Y-157978884D01*
X156099085Y-157978884D02*
X156099085Y-158050313D01*
X156099085Y-158050313D02*
X156122895Y-158097932D01*
X156122895Y-158097932D02*
X156146704Y-158121741D01*
X156146704Y-158121741D02*
X156194323Y-158145551D01*
X156194323Y-158145551D02*
X156313371Y-158145551D01*
X156313371Y-158145551D02*
X156360990Y-158121741D01*
X156360990Y-158121741D02*
X156384800Y-158097932D01*
X156384800Y-158097932D02*
X156408609Y-158050313D01*
X156408609Y-158050313D02*
X156408609Y-157907456D01*
X156408609Y-157907456D02*
X156384800Y-157859837D01*
X156384800Y-157859837D02*
X156360990Y-157836027D01*
D13*
X114802443Y-137320863D02*
X114802443Y-136844673D01*
X114802443Y-136844673D02*
X115278633Y-136797054D01*
X115278633Y-136797054D02*
X115231014Y-136844673D01*
X115231014Y-136844673D02*
X115183395Y-136939911D01*
X115183395Y-136939911D02*
X115183395Y-137178006D01*
X115183395Y-137178006D02*
X115231014Y-137273244D01*
X115231014Y-137273244D02*
X115278633Y-137320863D01*
X115278633Y-137320863D02*
X115373871Y-137368482D01*
X115373871Y-137368482D02*
X115611966Y-137368482D01*
X115611966Y-137368482D02*
X115707204Y-137320863D01*
X115707204Y-137320863D02*
X115754824Y-137273244D01*
X115754824Y-137273244D02*
X115802443Y-137178006D01*
X115802443Y-137178006D02*
X115802443Y-136939911D01*
X115802443Y-136939911D02*
X115754824Y-136844673D01*
X115754824Y-136844673D02*
X115707204Y-136797054D01*
X115135776Y-137701816D02*
X115802443Y-137939911D01*
X115802443Y-137939911D02*
X115135776Y-138178006D01*
X117412387Y-136844673D02*
X116745720Y-136844673D01*
X116936196Y-136844673D02*
X116840958Y-136892292D01*
X116840958Y-136892292D02*
X116793339Y-136939911D01*
X116793339Y-136939911D02*
X116745720Y-137035149D01*
X116745720Y-137035149D02*
X116745720Y-137130387D01*
X117364768Y-137416102D02*
X117412387Y-137511340D01*
X117412387Y-137511340D02*
X117412387Y-137701816D01*
X117412387Y-137701816D02*
X117364768Y-137797054D01*
X117364768Y-137797054D02*
X117269529Y-137844673D01*
X117269529Y-137844673D02*
X117221910Y-137844673D01*
X117221910Y-137844673D02*
X117126672Y-137797054D01*
X117126672Y-137797054D02*
X117079053Y-137701816D01*
X117079053Y-137701816D02*
X117079053Y-137558959D01*
X117079053Y-137558959D02*
X117031434Y-137463721D01*
X117031434Y-137463721D02*
X116936196Y-137416102D01*
X116936196Y-137416102D02*
X116888577Y-137416102D01*
X116888577Y-137416102D02*
X116793339Y-137463721D01*
X116793339Y-137463721D02*
X116745720Y-137558959D01*
X116745720Y-137558959D02*
X116745720Y-137701816D01*
X116745720Y-137701816D02*
X116793339Y-137797054D01*
X116745720Y-138130388D02*
X116745720Y-138511340D01*
X116412387Y-138273245D02*
X117269529Y-138273245D01*
X117269529Y-138273245D02*
X117364768Y-138320864D01*
X117364768Y-138320864D02*
X117412387Y-138416102D01*
X117412387Y-138416102D02*
X117412387Y-138511340D01*
X119022331Y-137273244D02*
X118022331Y-137273244D01*
X118974712Y-137273244D02*
X119022331Y-137178006D01*
X119022331Y-137178006D02*
X119022331Y-136987530D01*
X119022331Y-136987530D02*
X118974712Y-136892292D01*
X118974712Y-136892292D02*
X118927092Y-136844673D01*
X118927092Y-136844673D02*
X118831854Y-136797054D01*
X118831854Y-136797054D02*
X118546140Y-136797054D01*
X118546140Y-136797054D02*
X118450902Y-136844673D01*
X118450902Y-136844673D02*
X118403283Y-136892292D01*
X118403283Y-136892292D02*
X118355664Y-136987530D01*
X118355664Y-136987530D02*
X118355664Y-137178006D01*
X118355664Y-137178006D02*
X118403283Y-137273244D01*
X119022331Y-137749435D02*
X118355664Y-137749435D01*
X118022331Y-137749435D02*
X118069950Y-137701816D01*
X118069950Y-137701816D02*
X118117569Y-137749435D01*
X118117569Y-137749435D02*
X118069950Y-137797054D01*
X118069950Y-137797054D02*
X118022331Y-137749435D01*
X118022331Y-137749435D02*
X118117569Y-137749435D01*
X119022331Y-138368482D02*
X118974712Y-138273244D01*
X118974712Y-138273244D02*
X118927092Y-138225625D01*
X118927092Y-138225625D02*
X118831854Y-138178006D01*
X118831854Y-138178006D02*
X118546140Y-138178006D01*
X118546140Y-138178006D02*
X118450902Y-138225625D01*
X118450902Y-138225625D02*
X118403283Y-138273244D01*
X118403283Y-138273244D02*
X118355664Y-138368482D01*
X118355664Y-138368482D02*
X118355664Y-138511339D01*
X118355664Y-138511339D02*
X118403283Y-138606577D01*
X118403283Y-138606577D02*
X118450902Y-138654196D01*
X118450902Y-138654196D02*
X118546140Y-138701815D01*
X118546140Y-138701815D02*
X118831854Y-138701815D01*
X118831854Y-138701815D02*
X118927092Y-138654196D01*
X118927092Y-138654196D02*
X118974712Y-138606577D01*
X118974712Y-138606577D02*
X119022331Y-138511339D01*
X119022331Y-138511339D02*
X119022331Y-138368482D01*
X120584656Y-137273244D02*
X120632275Y-137178006D01*
X120632275Y-137178006D02*
X120632275Y-136987530D01*
X120632275Y-136987530D02*
X120584656Y-136892292D01*
X120584656Y-136892292D02*
X120537036Y-136844673D01*
X120537036Y-136844673D02*
X120441798Y-136797054D01*
X120441798Y-136797054D02*
X120156084Y-136797054D01*
X120156084Y-136797054D02*
X120060846Y-136844673D01*
X120060846Y-136844673D02*
X120013227Y-136892292D01*
X120013227Y-136892292D02*
X119965608Y-136987530D01*
X119965608Y-136987530D02*
X119965608Y-137178006D01*
X119965608Y-137178006D02*
X120013227Y-137273244D01*
X120632275Y-137844673D02*
X120584656Y-137749435D01*
X120584656Y-137749435D02*
X120489417Y-137701816D01*
X120489417Y-137701816D02*
X119632275Y-137701816D01*
X120632275Y-138225626D02*
X119632275Y-138225626D01*
X120251322Y-138320864D02*
X120632275Y-138606578D01*
X119965608Y-138606578D02*
X120346560Y-138225626D01*
X121575552Y-137273244D02*
X122385076Y-137273244D01*
X122385076Y-137273244D02*
X122480314Y-137225625D01*
X122480314Y-137225625D02*
X122527933Y-137178006D01*
X122527933Y-137178006D02*
X122575552Y-137082768D01*
X122575552Y-137082768D02*
X122575552Y-136939911D01*
X122575552Y-136939911D02*
X122527933Y-136844673D01*
X122194600Y-137273244D02*
X122242219Y-137178006D01*
X122242219Y-137178006D02*
X122242219Y-136987530D01*
X122242219Y-136987530D02*
X122194600Y-136892292D01*
X122194600Y-136892292D02*
X122146980Y-136844673D01*
X122146980Y-136844673D02*
X122051742Y-136797054D01*
X122051742Y-136797054D02*
X121766028Y-136797054D01*
X121766028Y-136797054D02*
X121670790Y-136844673D01*
X121670790Y-136844673D02*
X121623171Y-136892292D01*
X121623171Y-136892292D02*
X121575552Y-136987530D01*
X121575552Y-136987530D02*
X121575552Y-137178006D01*
X121575552Y-137178006D02*
X121623171Y-137273244D01*
X121575552Y-137749435D02*
X122242219Y-137749435D01*
X121670790Y-137749435D02*
X121623171Y-137797054D01*
X121623171Y-137797054D02*
X121575552Y-137892292D01*
X121575552Y-137892292D02*
X121575552Y-138035149D01*
X121575552Y-138035149D02*
X121623171Y-138130387D01*
X121623171Y-138130387D02*
X121718409Y-138178006D01*
X121718409Y-138178006D02*
X122242219Y-138178006D01*
X122242219Y-139082768D02*
X121242219Y-139082768D01*
X122194600Y-139082768D02*
X122242219Y-138987530D01*
X122242219Y-138987530D02*
X122242219Y-138797054D01*
X122242219Y-138797054D02*
X122194600Y-138701816D01*
X122194600Y-138701816D02*
X122146980Y-138654197D01*
X122146980Y-138654197D02*
X122051742Y-138606578D01*
X122051742Y-138606578D02*
X121766028Y-138606578D01*
X121766028Y-138606578D02*
X121670790Y-138654197D01*
X121670790Y-138654197D02*
X121623171Y-138701816D01*
X121623171Y-138701816D02*
X121575552Y-138797054D01*
X121575552Y-138797054D02*
X121575552Y-138987530D01*
X121575552Y-138987530D02*
X121623171Y-139082768D01*
D11*
X139432419Y-157321741D02*
X139408609Y-157274122D01*
X139408609Y-157274122D02*
X139408609Y-157202693D01*
X139408609Y-157202693D02*
X139432419Y-157131265D01*
X139432419Y-157131265D02*
X139480038Y-157083646D01*
X139480038Y-157083646D02*
X139527657Y-157059836D01*
X139527657Y-157059836D02*
X139622895Y-157036027D01*
X139622895Y-157036027D02*
X139694323Y-157036027D01*
X139694323Y-157036027D02*
X139789561Y-157059836D01*
X139789561Y-157059836D02*
X139837180Y-157083646D01*
X139837180Y-157083646D02*
X139884800Y-157131265D01*
X139884800Y-157131265D02*
X139908609Y-157202693D01*
X139908609Y-157202693D02*
X139908609Y-157250312D01*
X139908609Y-157250312D02*
X139884800Y-157321741D01*
X139884800Y-157321741D02*
X139860990Y-157345550D01*
X139860990Y-157345550D02*
X139694323Y-157345550D01*
X139694323Y-157345550D02*
X139694323Y-157250312D01*
X139908609Y-157559836D02*
X139408609Y-157559836D01*
X139408609Y-157559836D02*
X139908609Y-157845550D01*
X139908609Y-157845550D02*
X139408609Y-157845550D01*
X139908609Y-158083646D02*
X139408609Y-158083646D01*
X139408609Y-158083646D02*
X139408609Y-158202694D01*
X139408609Y-158202694D02*
X139432419Y-158274122D01*
X139432419Y-158274122D02*
X139480038Y-158321741D01*
X139480038Y-158321741D02*
X139527657Y-158345551D01*
X139527657Y-158345551D02*
X139622895Y-158369360D01*
X139622895Y-158369360D02*
X139694323Y-158369360D01*
X139694323Y-158369360D02*
X139789561Y-158345551D01*
X139789561Y-158345551D02*
X139837180Y-158321741D01*
X139837180Y-158321741D02*
X139884800Y-158274122D01*
X139884800Y-158274122D02*
X139908609Y-158202694D01*
X139908609Y-158202694D02*
X139908609Y-158083646D01*
X143668133Y-156484836D02*
X143668133Y-156865789D01*
X143858609Y-156675312D02*
X143477657Y-156675312D01*
X143358609Y-157056265D02*
X143358609Y-157365789D01*
X143358609Y-157365789D02*
X143549085Y-157199122D01*
X143549085Y-157199122D02*
X143549085Y-157270551D01*
X143549085Y-157270551D02*
X143572895Y-157318170D01*
X143572895Y-157318170D02*
X143596704Y-157341979D01*
X143596704Y-157341979D02*
X143644323Y-157365789D01*
X143644323Y-157365789D02*
X143763371Y-157365789D01*
X143763371Y-157365789D02*
X143810990Y-157341979D01*
X143810990Y-157341979D02*
X143834800Y-157318170D01*
X143834800Y-157318170D02*
X143858609Y-157270551D01*
X143858609Y-157270551D02*
X143858609Y-157127694D01*
X143858609Y-157127694D02*
X143834800Y-157080075D01*
X143834800Y-157080075D02*
X143810990Y-157056265D01*
X143525276Y-157532455D02*
X143858609Y-157651503D01*
X143858609Y-157651503D02*
X143525276Y-157770550D01*
X143358609Y-157913407D02*
X143358609Y-158222931D01*
X143358609Y-158222931D02*
X143549085Y-158056264D01*
X143549085Y-158056264D02*
X143549085Y-158127693D01*
X143549085Y-158127693D02*
X143572895Y-158175312D01*
X143572895Y-158175312D02*
X143596704Y-158199121D01*
X143596704Y-158199121D02*
X143644323Y-158222931D01*
X143644323Y-158222931D02*
X143763371Y-158222931D01*
X143763371Y-158222931D02*
X143810990Y-158199121D01*
X143810990Y-158199121D02*
X143834800Y-158175312D01*
X143834800Y-158175312D02*
X143858609Y-158127693D01*
X143858609Y-158127693D02*
X143858609Y-157984836D01*
X143858609Y-157984836D02*
X143834800Y-157937217D01*
X143834800Y-157937217D02*
X143810990Y-157913407D01*
X117813721Y-157734211D02*
X117813721Y-157496116D01*
X117813721Y-157496116D02*
X118051816Y-157472307D01*
X118051816Y-157472307D02*
X118028007Y-157496116D01*
X118028007Y-157496116D02*
X118004197Y-157543735D01*
X118004197Y-157543735D02*
X118004197Y-157662783D01*
X118004197Y-157662783D02*
X118028007Y-157710402D01*
X118028007Y-157710402D02*
X118051816Y-157734211D01*
X118051816Y-157734211D02*
X118099435Y-157758021D01*
X118099435Y-157758021D02*
X118218483Y-157758021D01*
X118218483Y-157758021D02*
X118266102Y-157734211D01*
X118266102Y-157734211D02*
X118289912Y-157710402D01*
X118289912Y-157710402D02*
X118313721Y-157662783D01*
X118313721Y-157662783D02*
X118313721Y-157543735D01*
X118313721Y-157543735D02*
X118289912Y-157496116D01*
X118289912Y-157496116D02*
X118266102Y-157472307D01*
X117980388Y-157924687D02*
X118313721Y-158043735D01*
X118313721Y-158043735D02*
X117980388Y-158162782D01*
X119780808Y-156043736D02*
X119780808Y-156281831D01*
X119923665Y-155996117D02*
X119423665Y-156162783D01*
X119423665Y-156162783D02*
X119923665Y-156329450D01*
X119923665Y-156496116D02*
X119423665Y-156496116D01*
X119423665Y-156496116D02*
X119423665Y-156615164D01*
X119423665Y-156615164D02*
X119447475Y-156686592D01*
X119447475Y-156686592D02*
X119495094Y-156734211D01*
X119495094Y-156734211D02*
X119542713Y-156758021D01*
X119542713Y-156758021D02*
X119637951Y-156781830D01*
X119637951Y-156781830D02*
X119709379Y-156781830D01*
X119709379Y-156781830D02*
X119804617Y-156758021D01*
X119804617Y-156758021D02*
X119852236Y-156734211D01*
X119852236Y-156734211D02*
X119899856Y-156686592D01*
X119899856Y-156686592D02*
X119923665Y-156615164D01*
X119923665Y-156615164D02*
X119923665Y-156496116D01*
X119876046Y-157281830D02*
X119899856Y-157258021D01*
X119899856Y-157258021D02*
X119923665Y-157186592D01*
X119923665Y-157186592D02*
X119923665Y-157138973D01*
X119923665Y-157138973D02*
X119899856Y-157067545D01*
X119899856Y-157067545D02*
X119852236Y-157019926D01*
X119852236Y-157019926D02*
X119804617Y-156996116D01*
X119804617Y-156996116D02*
X119709379Y-156972307D01*
X119709379Y-156972307D02*
X119637951Y-156972307D01*
X119637951Y-156972307D02*
X119542713Y-156996116D01*
X119542713Y-156996116D02*
X119495094Y-157019926D01*
X119495094Y-157019926D02*
X119447475Y-157067545D01*
X119447475Y-157067545D02*
X119423665Y-157138973D01*
X119423665Y-157138973D02*
X119423665Y-157186592D01*
X119423665Y-157186592D02*
X119447475Y-157258021D01*
X119447475Y-157258021D02*
X119471284Y-157281830D01*
X119971284Y-157377069D02*
X119971284Y-157758021D01*
X119923665Y-158138973D02*
X119923665Y-157853259D01*
X119923665Y-157996116D02*
X119423665Y-157996116D01*
X119423665Y-157996116D02*
X119495094Y-157948497D01*
X119495094Y-157948497D02*
X119542713Y-157900878D01*
X119542713Y-157900878D02*
X119566522Y-157853259D01*
X121057419Y-157091353D02*
X121033609Y-157043734D01*
X121033609Y-157043734D02*
X121033609Y-156972305D01*
X121033609Y-156972305D02*
X121057419Y-156900877D01*
X121057419Y-156900877D02*
X121105038Y-156853258D01*
X121105038Y-156853258D02*
X121152657Y-156829448D01*
X121152657Y-156829448D02*
X121247895Y-156805639D01*
X121247895Y-156805639D02*
X121319323Y-156805639D01*
X121319323Y-156805639D02*
X121414561Y-156829448D01*
X121414561Y-156829448D02*
X121462180Y-156853258D01*
X121462180Y-156853258D02*
X121509800Y-156900877D01*
X121509800Y-156900877D02*
X121533609Y-156972305D01*
X121533609Y-156972305D02*
X121533609Y-157019924D01*
X121533609Y-157019924D02*
X121509800Y-157091353D01*
X121509800Y-157091353D02*
X121485990Y-157115162D01*
X121485990Y-157115162D02*
X121319323Y-157115162D01*
X121319323Y-157115162D02*
X121319323Y-157019924D01*
X121533609Y-157329448D02*
X121033609Y-157329448D01*
X121033609Y-157329448D02*
X121533609Y-157615162D01*
X121533609Y-157615162D02*
X121033609Y-157615162D01*
X121533609Y-157853258D02*
X121033609Y-157853258D01*
X121033609Y-157853258D02*
X121033609Y-157972306D01*
X121033609Y-157972306D02*
X121057419Y-158043734D01*
X121057419Y-158043734D02*
X121105038Y-158091353D01*
X121105038Y-158091353D02*
X121152657Y-158115163D01*
X121152657Y-158115163D02*
X121247895Y-158138972D01*
X121247895Y-158138972D02*
X121319323Y-158138972D01*
X121319323Y-158138972D02*
X121414561Y-158115163D01*
X121414561Y-158115163D02*
X121462180Y-158091353D01*
X121462180Y-158091353D02*
X121509800Y-158043734D01*
X121509800Y-158043734D02*
X121533609Y-157972306D01*
X121533609Y-157972306D02*
X121533609Y-157853258D01*
X126668133Y-156559836D02*
X126668133Y-156940789D01*
X126858609Y-156750312D02*
X126477657Y-156750312D01*
X126358609Y-157131265D02*
X126358609Y-157440789D01*
X126358609Y-157440789D02*
X126549085Y-157274122D01*
X126549085Y-157274122D02*
X126549085Y-157345551D01*
X126549085Y-157345551D02*
X126572895Y-157393170D01*
X126572895Y-157393170D02*
X126596704Y-157416979D01*
X126596704Y-157416979D02*
X126644323Y-157440789D01*
X126644323Y-157440789D02*
X126763371Y-157440789D01*
X126763371Y-157440789D02*
X126810990Y-157416979D01*
X126810990Y-157416979D02*
X126834800Y-157393170D01*
X126834800Y-157393170D02*
X126858609Y-157345551D01*
X126858609Y-157345551D02*
X126858609Y-157202694D01*
X126858609Y-157202694D02*
X126834800Y-157155075D01*
X126834800Y-157155075D02*
X126810990Y-157131265D01*
X126525276Y-157607455D02*
X126858609Y-157726503D01*
X126858609Y-157726503D02*
X126525276Y-157845550D01*
X126358609Y-157988407D02*
X126358609Y-158297931D01*
X126358609Y-158297931D02*
X126549085Y-158131264D01*
X126549085Y-158131264D02*
X126549085Y-158202693D01*
X126549085Y-158202693D02*
X126572895Y-158250312D01*
X126572895Y-158250312D02*
X126596704Y-158274121D01*
X126596704Y-158274121D02*
X126644323Y-158297931D01*
X126644323Y-158297931D02*
X126763371Y-158297931D01*
X126763371Y-158297931D02*
X126810990Y-158274121D01*
X126810990Y-158274121D02*
X126834800Y-158250312D01*
X126834800Y-158250312D02*
X126858609Y-158202693D01*
X126858609Y-158202693D02*
X126858609Y-158059836D01*
X126858609Y-158059836D02*
X126834800Y-158012217D01*
X126834800Y-158012217D02*
X126810990Y-157988407D01*
X108913721Y-157609211D02*
X108913721Y-157371116D01*
X108913721Y-157371116D02*
X109151816Y-157347307D01*
X109151816Y-157347307D02*
X109128007Y-157371116D01*
X109128007Y-157371116D02*
X109104197Y-157418735D01*
X109104197Y-157418735D02*
X109104197Y-157537783D01*
X109104197Y-157537783D02*
X109128007Y-157585402D01*
X109128007Y-157585402D02*
X109151816Y-157609211D01*
X109151816Y-157609211D02*
X109199435Y-157633021D01*
X109199435Y-157633021D02*
X109318483Y-157633021D01*
X109318483Y-157633021D02*
X109366102Y-157609211D01*
X109366102Y-157609211D02*
X109389912Y-157585402D01*
X109389912Y-157585402D02*
X109413721Y-157537783D01*
X109413721Y-157537783D02*
X109413721Y-157418735D01*
X109413721Y-157418735D02*
X109389912Y-157371116D01*
X109389912Y-157371116D02*
X109366102Y-157347307D01*
X109080388Y-157799687D02*
X109413721Y-157918735D01*
X109413721Y-157918735D02*
X109080388Y-158037782D01*
X110880808Y-155918736D02*
X110880808Y-156156831D01*
X111023665Y-155871117D02*
X110523665Y-156037783D01*
X110523665Y-156037783D02*
X111023665Y-156204450D01*
X111023665Y-156371116D02*
X110523665Y-156371116D01*
X110523665Y-156371116D02*
X110523665Y-156490164D01*
X110523665Y-156490164D02*
X110547475Y-156561592D01*
X110547475Y-156561592D02*
X110595094Y-156609211D01*
X110595094Y-156609211D02*
X110642713Y-156633021D01*
X110642713Y-156633021D02*
X110737951Y-156656830D01*
X110737951Y-156656830D02*
X110809379Y-156656830D01*
X110809379Y-156656830D02*
X110904617Y-156633021D01*
X110904617Y-156633021D02*
X110952236Y-156609211D01*
X110952236Y-156609211D02*
X110999856Y-156561592D01*
X110999856Y-156561592D02*
X111023665Y-156490164D01*
X111023665Y-156490164D02*
X111023665Y-156371116D01*
X110976046Y-157156830D02*
X110999856Y-157133021D01*
X110999856Y-157133021D02*
X111023665Y-157061592D01*
X111023665Y-157061592D02*
X111023665Y-157013973D01*
X111023665Y-157013973D02*
X110999856Y-156942545D01*
X110999856Y-156942545D02*
X110952236Y-156894926D01*
X110952236Y-156894926D02*
X110904617Y-156871116D01*
X110904617Y-156871116D02*
X110809379Y-156847307D01*
X110809379Y-156847307D02*
X110737951Y-156847307D01*
X110737951Y-156847307D02*
X110642713Y-156871116D01*
X110642713Y-156871116D02*
X110595094Y-156894926D01*
X110595094Y-156894926D02*
X110547475Y-156942545D01*
X110547475Y-156942545D02*
X110523665Y-157013973D01*
X110523665Y-157013973D02*
X110523665Y-157061592D01*
X110523665Y-157061592D02*
X110547475Y-157133021D01*
X110547475Y-157133021D02*
X110571284Y-157156830D01*
X111071284Y-157252069D02*
X111071284Y-157633021D01*
X110571284Y-157728259D02*
X110547475Y-157752068D01*
X110547475Y-157752068D02*
X110523665Y-157799687D01*
X110523665Y-157799687D02*
X110523665Y-157918735D01*
X110523665Y-157918735D02*
X110547475Y-157966354D01*
X110547475Y-157966354D02*
X110571284Y-157990163D01*
X110571284Y-157990163D02*
X110618903Y-158013973D01*
X110618903Y-158013973D02*
X110666522Y-158013973D01*
X110666522Y-158013973D02*
X110737951Y-157990163D01*
X110737951Y-157990163D02*
X111023665Y-157704449D01*
X111023665Y-157704449D02*
X111023665Y-158013973D01*
X112157419Y-156966353D02*
X112133609Y-156918734D01*
X112133609Y-156918734D02*
X112133609Y-156847305D01*
X112133609Y-156847305D02*
X112157419Y-156775877D01*
X112157419Y-156775877D02*
X112205038Y-156728258D01*
X112205038Y-156728258D02*
X112252657Y-156704448D01*
X112252657Y-156704448D02*
X112347895Y-156680639D01*
X112347895Y-156680639D02*
X112419323Y-156680639D01*
X112419323Y-156680639D02*
X112514561Y-156704448D01*
X112514561Y-156704448D02*
X112562180Y-156728258D01*
X112562180Y-156728258D02*
X112609800Y-156775877D01*
X112609800Y-156775877D02*
X112633609Y-156847305D01*
X112633609Y-156847305D02*
X112633609Y-156894924D01*
X112633609Y-156894924D02*
X112609800Y-156966353D01*
X112609800Y-156966353D02*
X112585990Y-156990162D01*
X112585990Y-156990162D02*
X112419323Y-156990162D01*
X112419323Y-156990162D02*
X112419323Y-156894924D01*
X112633609Y-157204448D02*
X112133609Y-157204448D01*
X112133609Y-157204448D02*
X112633609Y-157490162D01*
X112633609Y-157490162D02*
X112133609Y-157490162D01*
X112633609Y-157728258D02*
X112133609Y-157728258D01*
X112133609Y-157728258D02*
X112133609Y-157847306D01*
X112133609Y-157847306D02*
X112157419Y-157918734D01*
X112157419Y-157918734D02*
X112205038Y-157966353D01*
X112205038Y-157966353D02*
X112252657Y-157990163D01*
X112252657Y-157990163D02*
X112347895Y-158013972D01*
X112347895Y-158013972D02*
X112419323Y-158013972D01*
X112419323Y-158013972D02*
X112514561Y-157990163D01*
X112514561Y-157990163D02*
X112562180Y-157966353D01*
X112562180Y-157966353D02*
X112609800Y-157918734D01*
X112609800Y-157918734D02*
X112633609Y-157847306D01*
X112633609Y-157847306D02*
X112633609Y-157728258D01*
X150333609Y-154063408D02*
X150333609Y-154349122D01*
X150833609Y-154206265D02*
X150333609Y-154206265D01*
X150809800Y-154706264D02*
X150833609Y-154658645D01*
X150833609Y-154658645D02*
X150833609Y-154563407D01*
X150833609Y-154563407D02*
X150809800Y-154515788D01*
X150809800Y-154515788D02*
X150762180Y-154491979D01*
X150762180Y-154491979D02*
X150571704Y-154491979D01*
X150571704Y-154491979D02*
X150524085Y-154515788D01*
X150524085Y-154515788D02*
X150500276Y-154563407D01*
X150500276Y-154563407D02*
X150500276Y-154658645D01*
X150500276Y-154658645D02*
X150524085Y-154706264D01*
X150524085Y-154706264D02*
X150571704Y-154730074D01*
X150571704Y-154730074D02*
X150619323Y-154730074D01*
X150619323Y-154730074D02*
X150666942Y-154491979D01*
X150833609Y-154944359D02*
X150500276Y-154944359D01*
X150547895Y-154944359D02*
X150524085Y-154968169D01*
X150524085Y-154968169D02*
X150500276Y-155015788D01*
X150500276Y-155015788D02*
X150500276Y-155087216D01*
X150500276Y-155087216D02*
X150524085Y-155134835D01*
X150524085Y-155134835D02*
X150571704Y-155158645D01*
X150571704Y-155158645D02*
X150833609Y-155158645D01*
X150571704Y-155158645D02*
X150524085Y-155182454D01*
X150524085Y-155182454D02*
X150500276Y-155230073D01*
X150500276Y-155230073D02*
X150500276Y-155301502D01*
X150500276Y-155301502D02*
X150524085Y-155349121D01*
X150524085Y-155349121D02*
X150571704Y-155372931D01*
X150571704Y-155372931D02*
X150833609Y-155372931D01*
X150500276Y-155611026D02*
X151000276Y-155611026D01*
X150524085Y-155611026D02*
X150500276Y-155658645D01*
X150500276Y-155658645D02*
X150500276Y-155753883D01*
X150500276Y-155753883D02*
X150524085Y-155801502D01*
X150524085Y-155801502D02*
X150547895Y-155825312D01*
X150547895Y-155825312D02*
X150595514Y-155849121D01*
X150595514Y-155849121D02*
X150738371Y-155849121D01*
X150738371Y-155849121D02*
X150785990Y-155825312D01*
X150785990Y-155825312D02*
X150809800Y-155801502D01*
X150809800Y-155801502D02*
X150833609Y-155753883D01*
X150833609Y-155753883D02*
X150833609Y-155658645D01*
X150833609Y-155658645D02*
X150809800Y-155611026D01*
X150833609Y-156444359D02*
X150500276Y-156444359D01*
X150547895Y-156444359D02*
X150524085Y-156468169D01*
X150524085Y-156468169D02*
X150500276Y-156515788D01*
X150500276Y-156515788D02*
X150500276Y-156587216D01*
X150500276Y-156587216D02*
X150524085Y-156634835D01*
X150524085Y-156634835D02*
X150571704Y-156658645D01*
X150571704Y-156658645D02*
X150833609Y-156658645D01*
X150571704Y-156658645D02*
X150524085Y-156682454D01*
X150524085Y-156682454D02*
X150500276Y-156730073D01*
X150500276Y-156730073D02*
X150500276Y-156801502D01*
X150500276Y-156801502D02*
X150524085Y-156849121D01*
X150524085Y-156849121D02*
X150571704Y-156872931D01*
X150571704Y-156872931D02*
X150833609Y-156872931D01*
X150833609Y-157182455D02*
X150809800Y-157134836D01*
X150809800Y-157134836D02*
X150785990Y-157111026D01*
X150785990Y-157111026D02*
X150738371Y-157087217D01*
X150738371Y-157087217D02*
X150595514Y-157087217D01*
X150595514Y-157087217D02*
X150547895Y-157111026D01*
X150547895Y-157111026D02*
X150524085Y-157134836D01*
X150524085Y-157134836D02*
X150500276Y-157182455D01*
X150500276Y-157182455D02*
X150500276Y-157253883D01*
X150500276Y-157253883D02*
X150524085Y-157301502D01*
X150524085Y-157301502D02*
X150547895Y-157325312D01*
X150547895Y-157325312D02*
X150595514Y-157349121D01*
X150595514Y-157349121D02*
X150738371Y-157349121D01*
X150738371Y-157349121D02*
X150785990Y-157325312D01*
X150785990Y-157325312D02*
X150809800Y-157301502D01*
X150809800Y-157301502D02*
X150833609Y-157253883D01*
X150833609Y-157253883D02*
X150833609Y-157182455D01*
X150500276Y-157491979D02*
X150500276Y-157682455D01*
X150333609Y-157563407D02*
X150762180Y-157563407D01*
X150762180Y-157563407D02*
X150809800Y-157587217D01*
X150809800Y-157587217D02*
X150833609Y-157634836D01*
X150833609Y-157634836D02*
X150833609Y-157682455D01*
X150833609Y-157920550D02*
X150809800Y-157872931D01*
X150809800Y-157872931D02*
X150785990Y-157849121D01*
X150785990Y-157849121D02*
X150738371Y-157825312D01*
X150738371Y-157825312D02*
X150595514Y-157825312D01*
X150595514Y-157825312D02*
X150547895Y-157849121D01*
X150547895Y-157849121D02*
X150524085Y-157872931D01*
X150524085Y-157872931D02*
X150500276Y-157920550D01*
X150500276Y-157920550D02*
X150500276Y-157991978D01*
X150500276Y-157991978D02*
X150524085Y-158039597D01*
X150524085Y-158039597D02*
X150547895Y-158063407D01*
X150547895Y-158063407D02*
X150595514Y-158087216D01*
X150595514Y-158087216D02*
X150738371Y-158087216D01*
X150738371Y-158087216D02*
X150785990Y-158063407D01*
X150785990Y-158063407D02*
X150809800Y-158039597D01*
X150809800Y-158039597D02*
X150833609Y-157991978D01*
X150833609Y-157991978D02*
X150833609Y-157920550D01*
X150833609Y-158301502D02*
X150500276Y-158301502D01*
X150595514Y-158301502D02*
X150547895Y-158325312D01*
X150547895Y-158325312D02*
X150524085Y-158349121D01*
X150524085Y-158349121D02*
X150500276Y-158396740D01*
X150500276Y-158396740D02*
X150500276Y-158444359D01*
X103885990Y-156870550D02*
X103909800Y-156846741D01*
X103909800Y-156846741D02*
X103933609Y-156775312D01*
X103933609Y-156775312D02*
X103933609Y-156727693D01*
X103933609Y-156727693D02*
X103909800Y-156656265D01*
X103909800Y-156656265D02*
X103862180Y-156608646D01*
X103862180Y-156608646D02*
X103814561Y-156584836D01*
X103814561Y-156584836D02*
X103719323Y-156561027D01*
X103719323Y-156561027D02*
X103647895Y-156561027D01*
X103647895Y-156561027D02*
X103552657Y-156584836D01*
X103552657Y-156584836D02*
X103505038Y-156608646D01*
X103505038Y-156608646D02*
X103457419Y-156656265D01*
X103457419Y-156656265D02*
X103433609Y-156727693D01*
X103433609Y-156727693D02*
X103433609Y-156775312D01*
X103433609Y-156775312D02*
X103457419Y-156846741D01*
X103457419Y-156846741D02*
X103481228Y-156870550D01*
X103933609Y-157299122D02*
X103671704Y-157299122D01*
X103671704Y-157299122D02*
X103624085Y-157275312D01*
X103624085Y-157275312D02*
X103600276Y-157227693D01*
X103600276Y-157227693D02*
X103600276Y-157132455D01*
X103600276Y-157132455D02*
X103624085Y-157084836D01*
X103909800Y-157299122D02*
X103933609Y-157251503D01*
X103933609Y-157251503D02*
X103933609Y-157132455D01*
X103933609Y-157132455D02*
X103909800Y-157084836D01*
X103909800Y-157084836D02*
X103862180Y-157061027D01*
X103862180Y-157061027D02*
X103814561Y-157061027D01*
X103814561Y-157061027D02*
X103766942Y-157084836D01*
X103766942Y-157084836D02*
X103743133Y-157132455D01*
X103743133Y-157132455D02*
X103743133Y-157251503D01*
X103743133Y-157251503D02*
X103719323Y-157299122D01*
X103600276Y-157537217D02*
X103933609Y-157537217D01*
X103647895Y-157537217D02*
X103624085Y-157561027D01*
X103624085Y-157561027D02*
X103600276Y-157608646D01*
X103600276Y-157608646D02*
X103600276Y-157680074D01*
X103600276Y-157680074D02*
X103624085Y-157727693D01*
X103624085Y-157727693D02*
X103671704Y-157751503D01*
X103671704Y-157751503D02*
X103933609Y-157751503D01*
X103933609Y-157989598D02*
X103433609Y-157989598D01*
X103671704Y-157989598D02*
X103671704Y-158275312D01*
X103933609Y-158275312D02*
X103433609Y-158275312D01*
X92682419Y-157121741D02*
X92658609Y-157074122D01*
X92658609Y-157074122D02*
X92658609Y-157002693D01*
X92658609Y-157002693D02*
X92682419Y-156931265D01*
X92682419Y-156931265D02*
X92730038Y-156883646D01*
X92730038Y-156883646D02*
X92777657Y-156859836D01*
X92777657Y-156859836D02*
X92872895Y-156836027D01*
X92872895Y-156836027D02*
X92944323Y-156836027D01*
X92944323Y-156836027D02*
X93039561Y-156859836D01*
X93039561Y-156859836D02*
X93087180Y-156883646D01*
X93087180Y-156883646D02*
X93134800Y-156931265D01*
X93134800Y-156931265D02*
X93158609Y-157002693D01*
X93158609Y-157002693D02*
X93158609Y-157050312D01*
X93158609Y-157050312D02*
X93134800Y-157121741D01*
X93134800Y-157121741D02*
X93110990Y-157145550D01*
X93110990Y-157145550D02*
X92944323Y-157145550D01*
X92944323Y-157145550D02*
X92944323Y-157050312D01*
X93158609Y-157359836D02*
X92658609Y-157359836D01*
X92658609Y-157359836D02*
X93158609Y-157645550D01*
X93158609Y-157645550D02*
X92658609Y-157645550D01*
X93158609Y-157883646D02*
X92658609Y-157883646D01*
X92658609Y-157883646D02*
X92658609Y-158002694D01*
X92658609Y-158002694D02*
X92682419Y-158074122D01*
X92682419Y-158074122D02*
X92730038Y-158121741D01*
X92730038Y-158121741D02*
X92777657Y-158145551D01*
X92777657Y-158145551D02*
X92872895Y-158169360D01*
X92872895Y-158169360D02*
X92944323Y-158169360D01*
X92944323Y-158169360D02*
X93039561Y-158145551D01*
X93039561Y-158145551D02*
X93087180Y-158121741D01*
X93087180Y-158121741D02*
X93134800Y-158074122D01*
X93134800Y-158074122D02*
X93158609Y-158002694D01*
X93158609Y-158002694D02*
X93158609Y-157883646D01*
X141407419Y-157221741D02*
X141383609Y-157174122D01*
X141383609Y-157174122D02*
X141383609Y-157102693D01*
X141383609Y-157102693D02*
X141407419Y-157031265D01*
X141407419Y-157031265D02*
X141455038Y-156983646D01*
X141455038Y-156983646D02*
X141502657Y-156959836D01*
X141502657Y-156959836D02*
X141597895Y-156936027D01*
X141597895Y-156936027D02*
X141669323Y-156936027D01*
X141669323Y-156936027D02*
X141764561Y-156959836D01*
X141764561Y-156959836D02*
X141812180Y-156983646D01*
X141812180Y-156983646D02*
X141859800Y-157031265D01*
X141859800Y-157031265D02*
X141883609Y-157102693D01*
X141883609Y-157102693D02*
X141883609Y-157150312D01*
X141883609Y-157150312D02*
X141859800Y-157221741D01*
X141859800Y-157221741D02*
X141835990Y-157245550D01*
X141835990Y-157245550D02*
X141669323Y-157245550D01*
X141669323Y-157245550D02*
X141669323Y-157150312D01*
X141883609Y-157459836D02*
X141383609Y-157459836D01*
X141383609Y-157459836D02*
X141883609Y-157745550D01*
X141883609Y-157745550D02*
X141383609Y-157745550D01*
X141883609Y-157983646D02*
X141383609Y-157983646D01*
X141383609Y-157983646D02*
X141383609Y-158102694D01*
X141383609Y-158102694D02*
X141407419Y-158174122D01*
X141407419Y-158174122D02*
X141455038Y-158221741D01*
X141455038Y-158221741D02*
X141502657Y-158245551D01*
X141502657Y-158245551D02*
X141597895Y-158269360D01*
X141597895Y-158269360D02*
X141669323Y-158269360D01*
X141669323Y-158269360D02*
X141764561Y-158245551D01*
X141764561Y-158245551D02*
X141812180Y-158221741D01*
X141812180Y-158221741D02*
X141859800Y-158174122D01*
X141859800Y-158174122D02*
X141883609Y-158102694D01*
X141883609Y-158102694D02*
X141883609Y-157983646D01*
D14*
X32328094Y-145647319D02*
X32328094Y-146456842D01*
X32328094Y-146456842D02*
X32280475Y-146552080D01*
X32280475Y-146552080D02*
X32232856Y-146599700D01*
X32232856Y-146599700D02*
X32137618Y-146647319D01*
X32137618Y-146647319D02*
X31947142Y-146647319D01*
X31947142Y-146647319D02*
X31851904Y-146599700D01*
X31851904Y-146599700D02*
X31804285Y-146552080D01*
X31804285Y-146552080D02*
X31756666Y-146456842D01*
X31756666Y-146456842D02*
X31756666Y-145647319D01*
X31328094Y-145742557D02*
X31280475Y-145694938D01*
X31280475Y-145694938D02*
X31185237Y-145647319D01*
X31185237Y-145647319D02*
X30947142Y-145647319D01*
X30947142Y-145647319D02*
X30851904Y-145694938D01*
X30851904Y-145694938D02*
X30804285Y-145742557D01*
X30804285Y-145742557D02*
X30756666Y-145837795D01*
X30756666Y-145837795D02*
X30756666Y-145933033D01*
X30756666Y-145933033D02*
X30804285Y-146075890D01*
X30804285Y-146075890D02*
X31375713Y-146647319D01*
X31375713Y-146647319D02*
X30756666Y-146647319D01*
X29851904Y-145647319D02*
X30328094Y-145647319D01*
X30328094Y-145647319D02*
X30375713Y-146123509D01*
X30375713Y-146123509D02*
X30328094Y-146075890D01*
X30328094Y-146075890D02*
X30232856Y-146028271D01*
X30232856Y-146028271D02*
X29994761Y-146028271D01*
X29994761Y-146028271D02*
X29899523Y-146075890D01*
X29899523Y-146075890D02*
X29851904Y-146123509D01*
X29851904Y-146123509D02*
X29804285Y-146218747D01*
X29804285Y-146218747D02*
X29804285Y-146456842D01*
X29804285Y-146456842D02*
X29851904Y-146552080D01*
X29851904Y-146552080D02*
X29899523Y-146599700D01*
X29899523Y-146599700D02*
X29994761Y-146647319D01*
X29994761Y-146647319D02*
X30232856Y-146647319D01*
X30232856Y-146647319D02*
X30328094Y-146599700D01*
X30328094Y-146599700D02*
X30375713Y-146552080D01*
X73698094Y-162682319D02*
X73698094Y-163491842D01*
X73698094Y-163491842D02*
X73650475Y-163587080D01*
X73650475Y-163587080D02*
X73602856Y-163634700D01*
X73602856Y-163634700D02*
X73507618Y-163682319D01*
X73507618Y-163682319D02*
X73317142Y-163682319D01*
X73317142Y-163682319D02*
X73221904Y-163634700D01*
X73221904Y-163634700D02*
X73174285Y-163587080D01*
X73174285Y-163587080D02*
X73126666Y-163491842D01*
X73126666Y-163491842D02*
X73126666Y-162682319D01*
X72126666Y-163682319D02*
X72698094Y-163682319D01*
X72412380Y-163682319D02*
X72412380Y-162682319D01*
X72412380Y-162682319D02*
X72507618Y-162825176D01*
X72507618Y-162825176D02*
X72602856Y-162920414D01*
X72602856Y-162920414D02*
X72698094Y-162968033D01*
X71555237Y-163110890D02*
X71650475Y-163063271D01*
X71650475Y-163063271D02*
X71698094Y-163015652D01*
X71698094Y-163015652D02*
X71745713Y-162920414D01*
X71745713Y-162920414D02*
X71745713Y-162872795D01*
X71745713Y-162872795D02*
X71698094Y-162777557D01*
X71698094Y-162777557D02*
X71650475Y-162729938D01*
X71650475Y-162729938D02*
X71555237Y-162682319D01*
X71555237Y-162682319D02*
X71364761Y-162682319D01*
X71364761Y-162682319D02*
X71269523Y-162729938D01*
X71269523Y-162729938D02*
X71221904Y-162777557D01*
X71221904Y-162777557D02*
X71174285Y-162872795D01*
X71174285Y-162872795D02*
X71174285Y-162920414D01*
X71174285Y-162920414D02*
X71221904Y-163015652D01*
X71221904Y-163015652D02*
X71269523Y-163063271D01*
X71269523Y-163063271D02*
X71364761Y-163110890D01*
X71364761Y-163110890D02*
X71555237Y-163110890D01*
X71555237Y-163110890D02*
X71650475Y-163158509D01*
X71650475Y-163158509D02*
X71698094Y-163206128D01*
X71698094Y-163206128D02*
X71745713Y-163301366D01*
X71745713Y-163301366D02*
X71745713Y-163491842D01*
X71745713Y-163491842D02*
X71698094Y-163587080D01*
X71698094Y-163587080D02*
X71650475Y-163634700D01*
X71650475Y-163634700D02*
X71555237Y-163682319D01*
X71555237Y-163682319D02*
X71364761Y-163682319D01*
X71364761Y-163682319D02*
X71269523Y-163634700D01*
X71269523Y-163634700D02*
X71221904Y-163587080D01*
X71221904Y-163587080D02*
X71174285Y-163491842D01*
X71174285Y-163491842D02*
X71174285Y-163301366D01*
X71174285Y-163301366D02*
X71221904Y-163206128D01*
X71221904Y-163206128D02*
X71269523Y-163158509D01*
X71269523Y-163158509D02*
X71364761Y-163110890D01*
D15*
%TO.C,R85*%
X123899500Y-109203258D02*
X123899500Y-108728742D01*
X124944500Y-109203258D02*
X124944500Y-108728742D01*
D16*
%TO.C,Q14*%
X76398000Y-79944000D02*
X76398000Y-69644000D01*
X86498000Y-79944000D02*
X86498000Y-69644000D01*
D13*
X86638000Y-83974000D02*
G75*
G02*
X86438000Y-83974000I-100000J0D01*
G01*
X86438000Y-83974000D02*
G75*
G02*
X86638000Y-83974000I100000J0D01*
G01*
D16*
%TO.C,Q10*%
X88626000Y-104328000D02*
X88626000Y-94028000D01*
X98726000Y-104328000D02*
X98726000Y-94028000D01*
D13*
X98866000Y-108358000D02*
G75*
G02*
X98666000Y-108358000I-100000J0D01*
G01*
X98666000Y-108358000D02*
G75*
G02*
X98866000Y-108358000I100000J0D01*
G01*
D15*
%TO.C,R87*%
X147267500Y-109203258D02*
X147267500Y-108728742D01*
X148312500Y-109203258D02*
X148312500Y-108728742D01*
%TO.C,U1*%
X134336000Y-138146000D02*
X135286000Y-138146000D01*
X134336000Y-139096000D02*
X134336000Y-138146000D01*
X134336000Y-147416000D02*
X134336000Y-148366000D01*
X134336000Y-148366000D02*
X135286000Y-148366000D01*
X144556000Y-138146000D02*
X143606000Y-138146000D01*
X144556000Y-139096000D02*
X144556000Y-138146000D01*
X144556000Y-147416000D02*
X144556000Y-148366000D01*
X144556000Y-148366000D02*
X143606000Y-148366000D01*
X144076000Y-149321000D02*
X143606000Y-148981000D01*
X144076000Y-148641000D01*
X144076000Y-149321000D01*
G36*
X144076000Y-149321000D02*
G01*
X143606000Y-148981000D01*
X144076000Y-148641000D01*
X144076000Y-149321000D01*
G37*
%TO.C,R89*%
X100061500Y-109203258D02*
X100061500Y-108728742D01*
X101106500Y-109203258D02*
X101106500Y-108728742D01*
%TO.C,R60*%
X87047500Y-77655276D02*
X87047500Y-78164724D01*
X88092500Y-77655276D02*
X88092500Y-78164724D01*
D16*
%TO.C,Q8*%
X88626000Y-79944000D02*
X88626000Y-69644000D01*
X98726000Y-79944000D02*
X98726000Y-69644000D01*
D13*
X98866000Y-83974000D02*
G75*
G02*
X98666000Y-83974000I-100000J0D01*
G01*
X98666000Y-83974000D02*
G75*
G02*
X98866000Y-83974000I100000J0D01*
G01*
D16*
%TO.C,Q1*%
X124216000Y-79944000D02*
X124216000Y-69644000D01*
X134316000Y-79944000D02*
X134316000Y-69644000D01*
D13*
X134456000Y-83974000D02*
G75*
G02*
X134256000Y-83974000I-100000J0D01*
G01*
X134256000Y-83974000D02*
G75*
G02*
X134456000Y-83974000I100000J0D01*
G01*
D15*
%TO.C,C12*%
X138250000Y-153397836D02*
X138250000Y-153182164D01*
X138970000Y-153397836D02*
X138970000Y-153182164D01*
%TO.C,R92*%
X64533500Y-109203258D02*
X64533500Y-108728742D01*
X65578500Y-109203258D02*
X65578500Y-108728742D01*
%TO.C,JP2*%
X123070000Y-156010000D02*
X123070000Y-157410000D01*
X123770000Y-158110000D02*
X124370000Y-158110000D01*
X124370000Y-155310000D02*
X123770000Y-155310000D01*
X125070000Y-157410000D02*
X125070000Y-156010000D01*
X123070000Y-156010000D02*
G75*
G02*
X123770000Y-155310000I699999J1D01*
G01*
X123770000Y-158110000D02*
G75*
G02*
X123070000Y-157410000I0J700000D01*
G01*
X124370000Y-155310000D02*
G75*
G02*
X125070000Y-156010000I1J-699999D01*
G01*
X125070000Y-157410000D02*
G75*
G02*
X124370000Y-158110000I-700000J0D01*
G01*
%TO.C,J14*%
X149560000Y-144760000D02*
X149560000Y-145360000D01*
X150260000Y-146060000D02*
X151660000Y-146060000D01*
X151660000Y-144060000D02*
X150260000Y-144060000D01*
X152360000Y-145360000D02*
X152360000Y-144760000D01*
X149560000Y-144760000D02*
G75*
G02*
X150260000Y-144060000I700000J0D01*
G01*
X150260000Y-146060000D02*
G75*
G02*
X149560000Y-145360000I0J700000D01*
G01*
X151660000Y-144060000D02*
G75*
G02*
X152360000Y-144760000I1J-699999D01*
G01*
X152360000Y-145360000D02*
G75*
G02*
X151660000Y-146060000I-699999J-1D01*
G01*
%TO.C,R86*%
X135583500Y-109203258D02*
X135583500Y-108728742D01*
X136628500Y-109203258D02*
X136628500Y-108728742D01*
D16*
%TO.C,Q11*%
X100276000Y-104328000D02*
X100276000Y-94028000D01*
X110376000Y-104328000D02*
X110376000Y-94028000D01*
D13*
X110516000Y-108358000D02*
G75*
G02*
X110316000Y-108358000I-100000J0D01*
G01*
X110316000Y-108358000D02*
G75*
G02*
X110516000Y-108358000I100000J0D01*
G01*
D16*
%TO.C,Q3*%
X147516000Y-79944000D02*
X147516000Y-69644000D01*
X157616000Y-79944000D02*
X157616000Y-69644000D01*
D13*
X157756000Y-83974000D02*
G75*
G02*
X157556000Y-83974000I-100000J0D01*
G01*
X157556000Y-83974000D02*
G75*
G02*
X157756000Y-83974000I100000J0D01*
G01*
D16*
%TO.C,Q12*%
X111926000Y-104328000D02*
X111926000Y-94028000D01*
X122026000Y-104328000D02*
X122026000Y-94028000D01*
D13*
X122166000Y-108358000D02*
G75*
G02*
X121966000Y-108358000I-100000J0D01*
G01*
X121966000Y-108358000D02*
G75*
G02*
X122166000Y-108358000I100000J0D01*
G01*
D16*
%TO.C,Q18*%
X76398000Y-104328000D02*
X76398000Y-94028000D01*
X86498000Y-104328000D02*
X86498000Y-94028000D01*
D13*
X86638000Y-108358000D02*
G75*
G02*
X86438000Y-108358000I-100000J0D01*
G01*
X86438000Y-108358000D02*
G75*
G02*
X86638000Y-108358000I100000J0D01*
G01*
D15*
%TO.C,R88*%
X88377500Y-109203258D02*
X88377500Y-108728742D01*
X89422500Y-109203258D02*
X89422500Y-108728742D01*
D16*
%TO.C,Q7*%
X111926000Y-79944000D02*
X111926000Y-69644000D01*
X122026000Y-79944000D02*
X122026000Y-69644000D01*
D13*
X122166000Y-83974000D02*
G75*
G02*
X121966000Y-83974000I-100000J0D01*
G01*
X121966000Y-83974000D02*
G75*
G02*
X122166000Y-83974000I100000J0D01*
G01*
D15*
%TO.C,R93*%
X76217500Y-109203258D02*
X76217500Y-108728742D01*
X77262500Y-109203258D02*
X77262500Y-108728742D01*
D16*
%TO.C,Q2*%
X135866000Y-79944000D02*
X135866000Y-69644000D01*
X145966000Y-79944000D02*
X145966000Y-69644000D01*
D13*
X146106000Y-83974000D02*
G75*
G02*
X145906000Y-83974000I-100000J0D01*
G01*
X145906000Y-83974000D02*
G75*
G02*
X146106000Y-83974000I100000J0D01*
G01*
D16*
%TO.C,Q6*%
X147516000Y-104328000D02*
X147516000Y-94028000D01*
X157616000Y-104328000D02*
X157616000Y-94028000D01*
D13*
X157756000Y-108358000D02*
G75*
G02*
X157556000Y-108358000I-100000J0D01*
G01*
X157556000Y-108358000D02*
G75*
G02*
X157756000Y-108358000I100000J0D01*
G01*
D14*
%TO.C,U25*%
X29015000Y-140117500D02*
X33165000Y-140117500D01*
X29015000Y-145267500D02*
X33165000Y-145267500D01*
D15*
X28580000Y-145522500D02*
X28100000Y-145522500D01*
X28340000Y-145192500D01*
X28580000Y-145522500D01*
G36*
X28580000Y-145522500D02*
G01*
X28100000Y-145522500D01*
X28340000Y-145192500D01*
X28580000Y-145522500D01*
G37*
%TO.C,C11*%
X142896000Y-153054164D02*
X142896000Y-153269836D01*
X143616000Y-153054164D02*
X143616000Y-153269836D01*
%TO.C,Y1*%
X139259999Y-155222000D02*
X139259999Y-151102000D01*
X142680001Y-155222000D02*
X139259999Y-155222000D01*
%TO.C,R90*%
X111745500Y-109203258D02*
X111745500Y-108728742D01*
X112790500Y-109203258D02*
X112790500Y-108728742D01*
D16*
%TO.C,Q5*%
X135866000Y-104328000D02*
X135866000Y-94028000D01*
X145966000Y-104328000D02*
X145966000Y-94028000D01*
D13*
X146106000Y-108358000D02*
G75*
G02*
X145906000Y-108358000I-100000J0D01*
G01*
X145906000Y-108358000D02*
G75*
G02*
X146106000Y-108358000I100000J0D01*
G01*
D16*
%TO.C,Q16*%
X53098000Y-104328000D02*
X53098000Y-94028000D01*
X63198000Y-104328000D02*
X63198000Y-94028000D01*
D13*
X63338000Y-108358000D02*
G75*
G02*
X63138000Y-108358000I-100000J0D01*
G01*
X63138000Y-108358000D02*
G75*
G02*
X63338000Y-108358000I100000J0D01*
G01*
D15*
%TO.C,J15*%
X135825000Y-152375000D02*
X135825000Y-153775000D01*
X136525000Y-154475000D02*
X137125000Y-154475000D01*
X137125000Y-151675000D02*
X136525000Y-151675000D01*
X137825000Y-153775000D02*
X137825000Y-152375000D01*
X135825000Y-152375000D02*
G75*
G02*
X136525000Y-151675000I700000J0D01*
G01*
X136525000Y-154475000D02*
G75*
G02*
X135825000Y-153775000I-1J699999D01*
G01*
X137125000Y-151675000D02*
G75*
G02*
X137825000Y-152375000I0J-700000D01*
G01*
X137825000Y-153775000D02*
G75*
G02*
X137125000Y-154475000I-699999J-1D01*
G01*
D16*
%TO.C,Q13*%
X64748000Y-79944000D02*
X64748000Y-69644000D01*
X74848000Y-79944000D02*
X74848000Y-69644000D01*
D13*
X74988000Y-83974000D02*
G75*
G02*
X74788000Y-83974000I-100000J0D01*
G01*
X74788000Y-83974000D02*
G75*
G02*
X74988000Y-83974000I100000J0D01*
G01*
D15*
%TO.C,JP3*%
X155325000Y-145125000D02*
X155325000Y-146525000D01*
X156025000Y-147225000D02*
X156625000Y-147225000D01*
X156625000Y-144425000D02*
X156025000Y-144425000D01*
X157325000Y-146525000D02*
X157325000Y-145125000D01*
X155325000Y-145125000D02*
G75*
G02*
X156025000Y-144425000I699999J1D01*
G01*
X156025000Y-147225000D02*
G75*
G02*
X155325000Y-146525000I0J700000D01*
G01*
X156625000Y-144425000D02*
G75*
G02*
X157325000Y-145125000I1J-699999D01*
G01*
X157325000Y-146525000D02*
G75*
G02*
X156625000Y-147225000I-700000J0D01*
G01*
D16*
%TO.C,Q9*%
X100276000Y-79944000D02*
X100276000Y-69644000D01*
X110376000Y-79944000D02*
X110376000Y-69644000D01*
D13*
X110516000Y-83974000D02*
G75*
G02*
X110316000Y-83974000I-100000J0D01*
G01*
X110316000Y-83974000D02*
G75*
G02*
X110516000Y-83974000I100000J0D01*
G01*
D16*
%TO.C,U18*%
X69175000Y-138225000D02*
X69175000Y-140575000D01*
X69175000Y-160625000D02*
X69175000Y-160925000D01*
X73675000Y-160925000D02*
X69175000Y-160925000D01*
X73675000Y-162225000D02*
X73675000Y-160925000D01*
X82675000Y-162225000D02*
X73675000Y-162225000D01*
X82675000Y-162225000D02*
X82675000Y-160925000D01*
X87175000Y-138225000D02*
X69175000Y-138225000D01*
X87175000Y-138225000D02*
X87175000Y-140575000D01*
X87175000Y-160625000D02*
X87175000Y-160925000D01*
X87175000Y-160925000D02*
X82675000Y-160925000D01*
D15*
%TO.C,JP1*%
X145821000Y-153075000D02*
X145821000Y-153675000D01*
X146371000Y-151875000D02*
X146971000Y-151875000D01*
X146471000Y-154375000D02*
X149271000Y-154375000D01*
X146671000Y-152175000D02*
X146371000Y-151875000D01*
X146671000Y-152175000D02*
X146971000Y-151875000D01*
X149271000Y-152375000D02*
X146471000Y-152375000D01*
X149921000Y-153675000D02*
X149921000Y-153075000D01*
X145821000Y-153075000D02*
G75*
G02*
X146521000Y-152375000I699999J1D01*
G01*
X146521000Y-154375000D02*
G75*
G02*
X145821000Y-153675000I-1J699999D01*
G01*
X149221000Y-152375000D02*
G75*
G02*
X149921000Y-153075000I0J-700000D01*
G01*
X149921000Y-153675000D02*
G75*
G02*
X149221000Y-154375000I-700000J0D01*
G01*
D16*
%TO.C,Q17*%
X64748000Y-104328000D02*
X64748000Y-94028000D01*
X74848000Y-104328000D02*
X74848000Y-94028000D01*
D13*
X74988000Y-108358000D02*
G75*
G02*
X74788000Y-108358000I-100000J0D01*
G01*
X74788000Y-108358000D02*
G75*
G02*
X74988000Y-108358000I100000J0D01*
G01*
D15*
%TO.C,R58*%
X87047500Y-103635276D02*
X87047500Y-104144724D01*
X88092500Y-103635276D02*
X88092500Y-104144724D01*
D16*
%TO.C,Q15*%
X53098000Y-79944000D02*
X53098000Y-69644000D01*
X63198000Y-79944000D02*
X63198000Y-69644000D01*
D13*
X63338000Y-83974000D02*
G75*
G02*
X63138000Y-83974000I-100000J0D01*
G01*
X63138000Y-83974000D02*
G75*
G02*
X63338000Y-83974000I100000J0D01*
G01*
D15*
%TO.C,R59*%
X122587500Y-104085276D02*
X122587500Y-104594724D01*
X123632500Y-104085276D02*
X123632500Y-104594724D01*
D16*
%TO.C,Q4*%
X124216000Y-104328000D02*
X124216000Y-94028000D01*
X134316000Y-104328000D02*
X134316000Y-94028000D01*
D13*
X134456000Y-108358000D02*
G75*
G02*
X134256000Y-108358000I-100000J0D01*
G01*
X134256000Y-108358000D02*
G75*
G02*
X134456000Y-108358000I100000J0D01*
G01*
D15*
%TO.C,R91*%
X52849500Y-109203258D02*
X52849500Y-108728742D01*
X53894500Y-109203258D02*
X53894500Y-108728742D01*
%TD*%
M02*
