%TF.GenerationSoftware,KiCad,Pcbnew,9.0.4*%
%TF.CreationDate,2025-12-22T21:15:50+01:00*%
%TF.ProjectId,tolt,746f6c74-2e6b-4696-9361-645f70636258,rev?*%
%TF.SameCoordinates,Original*%
%TF.FileFunction,Paste,Bot*%
%TF.FilePolarity,Positive*%
%FSLAX46Y46*%
G04 Gerber Fmt 4.6, Leading zero omitted, Abs format (unit mm)*
G04 Created by KiCad (PCBNEW 9.0.4) date 2025-12-22 21:15:50*
%MOMM*%
%LPD*%
G01*
G04 APERTURE LIST*
G04 Aperture macros list*
%AMRoundRect*
0 Rectangle with rounded corners*
0 $1 Rounding radius*
0 $2 $3 $4 $5 $6 $7 $8 $9 X,Y pos of 4 corners*
0 Add a 4 corners polygon primitive as box body*
4,1,4,$2,$3,$4,$5,$6,$7,$8,$9,$2,$3,0*
0 Add four circle primitives for the rounded corners*
1,1,$1+$1,$2,$3*
1,1,$1+$1,$4,$5*
1,1,$1+$1,$6,$7*
1,1,$1+$1,$8,$9*
0 Add four rect primitives between the rounded corners*
20,1,$1+$1,$2,$3,$4,$5,0*
20,1,$1+$1,$4,$5,$6,$7,0*
20,1,$1+$1,$6,$7,$8,$9,0*
20,1,$1+$1,$8,$9,$2,$3,0*%
G04 Aperture macros list end*
%ADD10RoundRect,0.200000X0.275000X-0.200000X0.275000X0.200000X-0.275000X0.200000X-0.275000X-0.200000X0*%
%ADD11RoundRect,0.111250X0.333750X-1.108750X0.333750X1.108750X-0.333750X1.108750X-0.333750X-1.108750X0*%
%ADD12R,8.800000X5.500000*%
%ADD13RoundRect,0.075000X0.075000X-0.700000X0.075000X0.700000X-0.075000X0.700000X-0.075000X-0.700000X0*%
%ADD14RoundRect,0.075000X0.700000X-0.075000X0.700000X0.075000X-0.700000X0.075000X-0.700000X-0.075000X0*%
%ADD15RoundRect,0.237500X-0.237500X0.250000X-0.237500X-0.250000X0.237500X-0.250000X0.237500X0.250000X0*%
%ADD16RoundRect,0.140000X0.170000X-0.140000X0.170000X0.140000X-0.170000X0.140000X-0.170000X-0.140000X0*%
%ADD17R,2.000000X0.600000*%
%ADD18RoundRect,0.140000X-0.170000X0.140000X-0.170000X-0.140000X0.170000X-0.140000X0.170000X0.140000X0*%
%ADD19RoundRect,0.250000X0.350000X-0.450000X0.350000X0.450000X-0.350000X0.450000X-0.350000X-0.450000X0*%
%ADD20R,3.025000X1.524000*%
G04 APERTURE END LIST*
D10*
%TO.C,R85*%
X124422000Y-109791000D03*
X124422000Y-108141000D03*
%TD*%
D11*
%TO.C,Q14*%
X77248000Y-68054000D03*
X78448000Y-68054000D03*
X79648000Y-68054000D03*
X80848000Y-68054000D03*
X82048000Y-68054000D03*
X83248000Y-68054000D03*
X84448000Y-68054000D03*
X85648000Y-68054000D03*
X77248000Y-81534000D03*
X78448000Y-81534000D03*
X79648000Y-81534000D03*
X80848000Y-81534000D03*
X82048000Y-81534000D03*
X83248000Y-81534000D03*
X84448000Y-81534000D03*
X85648000Y-81534000D03*
%TD*%
D12*
%TO.C,R21*%
X105930000Y-110750000D03*
X105930000Y-121550000D03*
%TD*%
D11*
%TO.C,Q10*%
X89476000Y-92438000D03*
X90676000Y-92438000D03*
X91876000Y-92438000D03*
X93076000Y-92438000D03*
X94276000Y-92438000D03*
X95476000Y-92438000D03*
X96676000Y-92438000D03*
X97876000Y-92438000D03*
X89476000Y-105918000D03*
X90676000Y-105918000D03*
X91876000Y-105918000D03*
X93076000Y-105918000D03*
X94276000Y-105918000D03*
X95476000Y-105918000D03*
X96676000Y-105918000D03*
X97876000Y-105918000D03*
%TD*%
D10*
%TO.C,R87*%
X147790000Y-109791000D03*
X147790000Y-108141000D03*
%TD*%
D12*
%TO.C,R31*%
X70442000Y-110750000D03*
X70442000Y-121550000D03*
%TD*%
D13*
%TO.C,U1*%
X143196000Y-148931000D03*
X142696000Y-148931000D03*
X142196000Y-148931000D03*
X141696000Y-148931000D03*
X141196000Y-148931000D03*
X140696000Y-148931000D03*
X140196000Y-148931000D03*
X139696000Y-148931000D03*
X139196000Y-148931000D03*
X138696000Y-148931000D03*
X138196000Y-148931000D03*
X137696000Y-148931000D03*
X137196000Y-148931000D03*
X136696000Y-148931000D03*
X136196000Y-148931000D03*
X135696000Y-148931000D03*
D14*
X133771000Y-147006000D03*
X133771000Y-146506000D03*
X133771000Y-146006000D03*
X133771000Y-145506000D03*
X133771000Y-145006000D03*
X133771000Y-144506000D03*
X133771000Y-144006000D03*
X133771000Y-143506000D03*
X133771000Y-143006000D03*
X133771000Y-142506000D03*
X133771000Y-142006000D03*
X133771000Y-141506000D03*
X133771000Y-141006000D03*
X133771000Y-140506000D03*
X133771000Y-140006000D03*
X133771000Y-139506000D03*
D13*
X135696000Y-137581000D03*
X136196000Y-137581000D03*
X136696000Y-137581000D03*
X137196000Y-137581000D03*
X137696000Y-137581000D03*
X138196000Y-137581000D03*
X138696000Y-137581000D03*
X139196000Y-137581000D03*
X139696000Y-137581000D03*
X140196000Y-137581000D03*
X140696000Y-137581000D03*
X141196000Y-137581000D03*
X141696000Y-137581000D03*
X142196000Y-137581000D03*
X142696000Y-137581000D03*
X143196000Y-137581000D03*
D14*
X145121000Y-139506000D03*
X145121000Y-140006000D03*
X145121000Y-140506000D03*
X145121000Y-141006000D03*
X145121000Y-141506000D03*
X145121000Y-142006000D03*
X145121000Y-142506000D03*
X145121000Y-143006000D03*
X145121000Y-143506000D03*
X145121000Y-144006000D03*
X145121000Y-144506000D03*
X145121000Y-145006000D03*
X145121000Y-145506000D03*
X145121000Y-146006000D03*
X145121000Y-146506000D03*
X145121000Y-147006000D03*
%TD*%
D12*
%TO.C,R20*%
X94330000Y-110750000D03*
X94330000Y-121550000D03*
%TD*%
%TO.C,R22*%
X117580000Y-110750000D03*
X117580000Y-121550000D03*
%TD*%
D10*
%TO.C,R89*%
X100584000Y-109791000D03*
X100584000Y-108141000D03*
%TD*%
D15*
%TO.C,R60*%
X87570000Y-76997500D03*
X87570000Y-78822500D03*
%TD*%
D11*
%TO.C,Q8*%
X89476000Y-68054000D03*
X90676000Y-68054000D03*
X91876000Y-68054000D03*
X93076000Y-68054000D03*
X94276000Y-68054000D03*
X95476000Y-68054000D03*
X96676000Y-68054000D03*
X97876000Y-68054000D03*
X89476000Y-81534000D03*
X90676000Y-81534000D03*
X91876000Y-81534000D03*
X93076000Y-81534000D03*
X94276000Y-81534000D03*
X95476000Y-81534000D03*
X96676000Y-81534000D03*
X97876000Y-81534000D03*
%TD*%
%TO.C,Q1*%
X125066000Y-68054000D03*
X126266000Y-68054000D03*
X127466000Y-68054000D03*
X128666000Y-68054000D03*
X129866000Y-68054000D03*
X131066000Y-68054000D03*
X132266000Y-68054000D03*
X133466000Y-68054000D03*
X125066000Y-81534000D03*
X126266000Y-81534000D03*
X127466000Y-81534000D03*
X128666000Y-81534000D03*
X129866000Y-81534000D03*
X131066000Y-81534000D03*
X132266000Y-81534000D03*
X133466000Y-81534000D03*
%TD*%
D16*
%TO.C,C12*%
X138610000Y-153770000D03*
X138610000Y-152810000D03*
%TD*%
D10*
%TO.C,R92*%
X65056000Y-109791000D03*
X65056000Y-108141000D03*
%TD*%
%TO.C,R86*%
X136106000Y-109791000D03*
X136106000Y-108141000D03*
%TD*%
D12*
%TO.C,R13*%
X153162000Y-110750000D03*
X153162000Y-121550000D03*
%TD*%
%TO.C,R12*%
X141512000Y-110750000D03*
X141512000Y-121550000D03*
%TD*%
D11*
%TO.C,Q11*%
X101126000Y-92438000D03*
X102326000Y-92438000D03*
X103526000Y-92438000D03*
X104726000Y-92438000D03*
X105926000Y-92438000D03*
X107126000Y-92438000D03*
X108326000Y-92438000D03*
X109526000Y-92438000D03*
X101126000Y-105918000D03*
X102326000Y-105918000D03*
X103526000Y-105918000D03*
X104726000Y-105918000D03*
X105926000Y-105918000D03*
X107126000Y-105918000D03*
X108326000Y-105918000D03*
X109526000Y-105918000D03*
%TD*%
%TO.C,Q3*%
X148366000Y-68054000D03*
X149566000Y-68054000D03*
X150766000Y-68054000D03*
X151966000Y-68054000D03*
X153166000Y-68054000D03*
X154366000Y-68054000D03*
X155566000Y-68054000D03*
X156766000Y-68054000D03*
X148366000Y-81534000D03*
X149566000Y-81534000D03*
X150766000Y-81534000D03*
X151966000Y-81534000D03*
X153166000Y-81534000D03*
X154366000Y-81534000D03*
X155566000Y-81534000D03*
X156766000Y-81534000D03*
%TD*%
%TO.C,Q12*%
X112776000Y-92438000D03*
X113976000Y-92438000D03*
X115176000Y-92438000D03*
X116376000Y-92438000D03*
X117576000Y-92438000D03*
X118776000Y-92438000D03*
X119976000Y-92438000D03*
X121176000Y-92438000D03*
X112776000Y-105918000D03*
X113976000Y-105918000D03*
X115176000Y-105918000D03*
X116376000Y-105918000D03*
X117576000Y-105918000D03*
X118776000Y-105918000D03*
X119976000Y-105918000D03*
X121176000Y-105918000D03*
%TD*%
%TO.C,Q18*%
X77248000Y-92438000D03*
X78448000Y-92438000D03*
X79648000Y-92438000D03*
X80848000Y-92438000D03*
X82048000Y-92438000D03*
X83248000Y-92438000D03*
X84448000Y-92438000D03*
X85648000Y-92438000D03*
X77248000Y-105918000D03*
X78448000Y-105918000D03*
X79648000Y-105918000D03*
X80848000Y-105918000D03*
X82048000Y-105918000D03*
X83248000Y-105918000D03*
X84448000Y-105918000D03*
X85648000Y-105918000D03*
%TD*%
D10*
%TO.C,R88*%
X88900000Y-109791000D03*
X88900000Y-108141000D03*
%TD*%
D11*
%TO.C,Q7*%
X112776000Y-68054000D03*
X113976000Y-68054000D03*
X115176000Y-68054000D03*
X116376000Y-68054000D03*
X117576000Y-68054000D03*
X118776000Y-68054000D03*
X119976000Y-68054000D03*
X121176000Y-68054000D03*
X112776000Y-81534000D03*
X113976000Y-81534000D03*
X115176000Y-81534000D03*
X116376000Y-81534000D03*
X117576000Y-81534000D03*
X118776000Y-81534000D03*
X119976000Y-81534000D03*
X121176000Y-81534000D03*
%TD*%
D10*
%TO.C,R93*%
X76740000Y-109791000D03*
X76740000Y-108141000D03*
%TD*%
D11*
%TO.C,Q2*%
X136716000Y-68054000D03*
X137916000Y-68054000D03*
X139116000Y-68054000D03*
X140316000Y-68054000D03*
X141516000Y-68054000D03*
X142716000Y-68054000D03*
X143916000Y-68054000D03*
X145116000Y-68054000D03*
X136716000Y-81534000D03*
X137916000Y-81534000D03*
X139116000Y-81534000D03*
X140316000Y-81534000D03*
X141516000Y-81534000D03*
X142716000Y-81534000D03*
X143916000Y-81534000D03*
X145116000Y-81534000D03*
%TD*%
%TO.C,Q6*%
X148366000Y-92438000D03*
X149566000Y-92438000D03*
X150766000Y-92438000D03*
X151966000Y-92438000D03*
X153166000Y-92438000D03*
X154366000Y-92438000D03*
X155566000Y-92438000D03*
X156766000Y-92438000D03*
X148366000Y-105918000D03*
X149566000Y-105918000D03*
X150766000Y-105918000D03*
X151966000Y-105918000D03*
X153166000Y-105918000D03*
X154366000Y-105918000D03*
X155566000Y-105918000D03*
X156766000Y-105918000D03*
%TD*%
D17*
%TO.C,U25*%
X28640000Y-144597500D03*
X28640000Y-143327500D03*
X28640000Y-140787500D03*
X33540000Y-140787500D03*
X33540000Y-142057500D03*
X33540000Y-143327500D03*
X33540000Y-144597500D03*
%TD*%
D18*
%TO.C,C11*%
X143256000Y-152682000D03*
X143256000Y-153642000D03*
%TD*%
D19*
%TO.C,Y1*%
X140120000Y-154262000D03*
X140120000Y-152062000D03*
X141820000Y-152062000D03*
X141820000Y-154262000D03*
%TD*%
D12*
%TO.C,R11*%
X129862000Y-110750000D03*
X129862000Y-121550000D03*
%TD*%
D10*
%TO.C,R90*%
X112268000Y-109791000D03*
X112268000Y-108141000D03*
%TD*%
D11*
%TO.C,Q5*%
X136716000Y-92438000D03*
X137916000Y-92438000D03*
X139116000Y-92438000D03*
X140316000Y-92438000D03*
X141516000Y-92438000D03*
X142716000Y-92438000D03*
X143916000Y-92438000D03*
X145116000Y-92438000D03*
X136716000Y-105918000D03*
X137916000Y-105918000D03*
X139116000Y-105918000D03*
X140316000Y-105918000D03*
X141516000Y-105918000D03*
X142716000Y-105918000D03*
X143916000Y-105918000D03*
X145116000Y-105918000D03*
%TD*%
D12*
%TO.C,R32*%
X82042000Y-110750000D03*
X82042000Y-121550000D03*
%TD*%
D11*
%TO.C,Q16*%
X53948000Y-92438000D03*
X55148000Y-92438000D03*
X56348000Y-92438000D03*
X57548000Y-92438000D03*
X58748000Y-92438000D03*
X59948000Y-92438000D03*
X61148000Y-92438000D03*
X62348000Y-92438000D03*
X53948000Y-105918000D03*
X55148000Y-105918000D03*
X56348000Y-105918000D03*
X57548000Y-105918000D03*
X58748000Y-105918000D03*
X59948000Y-105918000D03*
X61148000Y-105918000D03*
X62348000Y-105918000D03*
%TD*%
D12*
%TO.C,R30*%
X58792000Y-110750000D03*
X58792000Y-121550000D03*
%TD*%
D11*
%TO.C,Q13*%
X65598000Y-68054000D03*
X66798000Y-68054000D03*
X67998000Y-68054000D03*
X69198000Y-68054000D03*
X70398000Y-68054000D03*
X71598000Y-68054000D03*
X72798000Y-68054000D03*
X73998000Y-68054000D03*
X65598000Y-81534000D03*
X66798000Y-81534000D03*
X67998000Y-81534000D03*
X69198000Y-81534000D03*
X70398000Y-81534000D03*
X71598000Y-81534000D03*
X72798000Y-81534000D03*
X73998000Y-81534000D03*
%TD*%
%TO.C,Q9*%
X101126000Y-68054000D03*
X102326000Y-68054000D03*
X103526000Y-68054000D03*
X104726000Y-68054000D03*
X105926000Y-68054000D03*
X107126000Y-68054000D03*
X108326000Y-68054000D03*
X109526000Y-68054000D03*
X101126000Y-81534000D03*
X102326000Y-81534000D03*
X103526000Y-81534000D03*
X104726000Y-81534000D03*
X105926000Y-81534000D03*
X107126000Y-81534000D03*
X108326000Y-81534000D03*
X109526000Y-81534000D03*
%TD*%
D20*
%TO.C,U18*%
X86160000Y-141695000D03*
X86160000Y-144235000D03*
X86160000Y-146775000D03*
X86160000Y-149315000D03*
X86160000Y-154395000D03*
X86160000Y-151855000D03*
X70190000Y-159475000D03*
X86160000Y-159475000D03*
X70190000Y-156935000D03*
X70190000Y-154395000D03*
X70190000Y-151855000D03*
X70190000Y-149315000D03*
X70190000Y-146775000D03*
X70190000Y-144235000D03*
X70190000Y-141695000D03*
X86160000Y-156935000D03*
%TD*%
D11*
%TO.C,Q17*%
X65598000Y-92438000D03*
X66798000Y-92438000D03*
X67998000Y-92438000D03*
X69198000Y-92438000D03*
X70398000Y-92438000D03*
X71598000Y-92438000D03*
X72798000Y-92438000D03*
X73998000Y-92438000D03*
X65598000Y-105918000D03*
X66798000Y-105918000D03*
X67998000Y-105918000D03*
X69198000Y-105918000D03*
X70398000Y-105918000D03*
X71598000Y-105918000D03*
X72798000Y-105918000D03*
X73998000Y-105918000D03*
%TD*%
D15*
%TO.C,R58*%
X87570000Y-102977500D03*
X87570000Y-104802500D03*
%TD*%
D11*
%TO.C,Q15*%
X53948000Y-68054000D03*
X55148000Y-68054000D03*
X56348000Y-68054000D03*
X57548000Y-68054000D03*
X58748000Y-68054000D03*
X59948000Y-68054000D03*
X61148000Y-68054000D03*
X62348000Y-68054000D03*
X53948000Y-81534000D03*
X55148000Y-81534000D03*
X56348000Y-81534000D03*
X57548000Y-81534000D03*
X58748000Y-81534000D03*
X59948000Y-81534000D03*
X61148000Y-81534000D03*
X62348000Y-81534000D03*
%TD*%
D15*
%TO.C,R59*%
X123110000Y-103427500D03*
X123110000Y-105252500D03*
%TD*%
D11*
%TO.C,Q4*%
X125066000Y-92438000D03*
X126266000Y-92438000D03*
X127466000Y-92438000D03*
X128666000Y-92438000D03*
X129866000Y-92438000D03*
X131066000Y-92438000D03*
X132266000Y-92438000D03*
X133466000Y-92438000D03*
X125066000Y-105918000D03*
X126266000Y-105918000D03*
X127466000Y-105918000D03*
X128666000Y-105918000D03*
X129866000Y-105918000D03*
X131066000Y-105918000D03*
X132266000Y-105918000D03*
X133466000Y-105918000D03*
%TD*%
D10*
%TO.C,R91*%
X53372000Y-109791000D03*
X53372000Y-108141000D03*
%TD*%
G36*
X96460797Y-58653183D02*
G01*
X96506552Y-58705987D01*
X96517758Y-58757165D01*
X96537853Y-66232165D01*
X96518348Y-66299257D01*
X96465667Y-66345153D01*
X96413853Y-66356498D01*
X96086957Y-66356498D01*
X96019918Y-66336813D01*
X95974163Y-66284009D01*
X95962957Y-66232165D01*
X95983052Y-58757165D01*
X96002917Y-58690178D01*
X96055844Y-58644566D01*
X96107052Y-58633498D01*
X96393758Y-58633498D01*
X96460797Y-58653183D01*
G37*
G36*
X150351415Y-58637166D02*
G01*
X150397170Y-58689970D01*
X150408376Y-58741148D01*
X150428471Y-66216148D01*
X150408966Y-66283240D01*
X150356285Y-66329136D01*
X150304471Y-66340481D01*
X149977575Y-66340481D01*
X149910536Y-66320796D01*
X149864781Y-66267992D01*
X149853575Y-66216148D01*
X149873670Y-58741148D01*
X149893535Y-58674161D01*
X149946462Y-58628549D01*
X149997670Y-58617481D01*
X150284376Y-58617481D01*
X150351415Y-58637166D01*
G37*
G36*
X112484048Y-124718681D02*
G01*
X112529803Y-124771485D01*
X112541009Y-124823329D01*
X112518696Y-133123329D01*
X112498831Y-133190316D01*
X112445904Y-133235928D01*
X112394696Y-133246996D01*
X112107990Y-133246996D01*
X112040951Y-133227311D01*
X111995196Y-133174507D01*
X111983990Y-133123329D01*
X111961677Y-124823329D01*
X111981182Y-124756237D01*
X112033862Y-124710341D01*
X112085677Y-124698996D01*
X112417009Y-124698996D01*
X112484048Y-124718681D01*
G37*
G36*
X129680600Y-58655175D02*
G01*
X129726355Y-58707979D01*
X129737561Y-58759157D01*
X129757656Y-66234157D01*
X129738151Y-66301249D01*
X129685470Y-66347145D01*
X129633656Y-66358490D01*
X129306760Y-66358490D01*
X129239721Y-66338805D01*
X129193966Y-66286001D01*
X129182760Y-66234157D01*
X129202855Y-58759157D01*
X129222720Y-58692170D01*
X129275647Y-58646558D01*
X129326855Y-58635490D01*
X129613561Y-58635490D01*
X129680600Y-58655175D01*
G37*
G36*
X151825342Y-58662187D02*
G01*
X151871097Y-58714991D01*
X151882303Y-58766169D01*
X151902398Y-66241169D01*
X151882893Y-66308261D01*
X151830212Y-66354157D01*
X151778398Y-66365502D01*
X151451502Y-66365502D01*
X151384463Y-66345817D01*
X151338708Y-66293013D01*
X151327502Y-66241169D01*
X151347597Y-58766169D01*
X151367462Y-58699182D01*
X151420389Y-58653570D01*
X151471597Y-58642502D01*
X151758303Y-58642502D01*
X151825342Y-58662187D01*
G37*
G36*
X125320422Y-124719677D02*
G01*
X125366177Y-124772481D01*
X125377383Y-124824325D01*
X125355070Y-133124325D01*
X125335205Y-133191312D01*
X125282278Y-133236924D01*
X125231070Y-133247992D01*
X124944364Y-133247992D01*
X124877325Y-133228307D01*
X124831570Y-133175503D01*
X124820364Y-133124325D01*
X124798051Y-124824325D01*
X124817556Y-124757233D01*
X124870236Y-124711337D01*
X124922051Y-124699992D01*
X125253383Y-124699992D01*
X125320422Y-124719677D01*
G37*
G36*
X99599593Y-124736401D02*
G01*
X99645348Y-124789205D01*
X99656554Y-124841049D01*
X99634241Y-133141049D01*
X99614376Y-133208036D01*
X99561449Y-133253648D01*
X99510241Y-133264716D01*
X99223535Y-133264716D01*
X99156496Y-133245031D01*
X99110741Y-133192227D01*
X99099535Y-133141049D01*
X99077222Y-124841049D01*
X99096727Y-124773957D01*
X99149407Y-124728061D01*
X99201222Y-124716716D01*
X99532554Y-124716716D01*
X99599593Y-124736401D01*
G37*
G36*
X64655434Y-124734409D02*
G01*
X64701189Y-124787213D01*
X64712395Y-124839057D01*
X64690082Y-133139057D01*
X64670217Y-133206044D01*
X64617290Y-133251656D01*
X64566082Y-133262724D01*
X64279376Y-133262724D01*
X64212337Y-133243039D01*
X64166582Y-133190235D01*
X64155376Y-133139057D01*
X64133063Y-124839057D01*
X64152568Y-124771965D01*
X64205248Y-124726069D01*
X64257063Y-124714724D01*
X64588395Y-124714724D01*
X64655434Y-124734409D01*
G37*
G36*
X141246974Y-58656171D02*
G01*
X141292729Y-58708975D01*
X141303935Y-58760153D01*
X141324030Y-66235153D01*
X141304525Y-66302245D01*
X141251844Y-66348141D01*
X141200030Y-66359486D01*
X140873134Y-66359486D01*
X140806095Y-66339801D01*
X140760340Y-66286997D01*
X140749134Y-66235153D01*
X140769229Y-58760153D01*
X140789094Y-58693166D01*
X140842021Y-58647554D01*
X140893229Y-58636486D01*
X141179935Y-58636486D01*
X141246974Y-58656171D01*
G37*
G36*
X72411808Y-124723405D02*
G01*
X72457563Y-124776209D01*
X72468769Y-124828053D01*
X72446456Y-133128053D01*
X72426591Y-133195040D01*
X72373664Y-133240652D01*
X72322456Y-133251720D01*
X72035750Y-133251720D01*
X71968711Y-133232035D01*
X71922956Y-133179231D01*
X71911750Y-133128053D01*
X71889437Y-124828053D01*
X71908942Y-124760961D01*
X71961622Y-124715065D01*
X72013437Y-124703720D01*
X72344769Y-124703720D01*
X72411808Y-124723405D01*
G37*
G36*
X68425279Y-58640187D02*
G01*
X68471034Y-58692991D01*
X68482240Y-58744835D01*
X68462145Y-66219835D01*
X68442280Y-66286822D01*
X68389353Y-66332434D01*
X68338145Y-66343502D01*
X68051439Y-66343502D01*
X67984400Y-66323817D01*
X67938645Y-66271013D01*
X67927439Y-66219835D01*
X67907344Y-58744835D01*
X67926849Y-58677743D01*
X67979530Y-58631847D01*
X68031344Y-58620502D01*
X68358240Y-58620502D01*
X68425279Y-58640187D01*
G37*
G36*
X55688880Y-46808689D02*
G01*
X55734635Y-46861493D01*
X55745841Y-46913337D01*
X55693958Y-66213337D01*
X55674093Y-66280324D01*
X55621166Y-66325936D01*
X55569958Y-66337004D01*
X55283252Y-66337004D01*
X55216213Y-66317319D01*
X55170458Y-66264515D01*
X55159252Y-66213337D01*
X55107369Y-46913337D01*
X55126874Y-46846245D01*
X55179555Y-46800349D01*
X55231369Y-46789004D01*
X55621841Y-46789004D01*
X55688880Y-46808689D01*
G37*
G36*
X72235279Y-58640187D02*
G01*
X72281034Y-58692991D01*
X72292240Y-58744835D01*
X72272145Y-66219835D01*
X72252280Y-66286822D01*
X72199353Y-66332434D01*
X72148145Y-66343502D01*
X71861439Y-66343502D01*
X71794400Y-66323817D01*
X71748645Y-66271013D01*
X71737439Y-66219835D01*
X71717344Y-58744835D01*
X71736849Y-58677743D01*
X71789530Y-58631847D01*
X71841344Y-58620502D01*
X72168240Y-58620502D01*
X72235279Y-58640187D01*
G37*
G36*
X83624423Y-58652187D02*
G01*
X83670178Y-58704991D01*
X83681384Y-58756169D01*
X83701479Y-66231169D01*
X83681974Y-66298261D01*
X83629293Y-66344157D01*
X83577479Y-66355502D01*
X83250583Y-66355502D01*
X83183544Y-66335817D01*
X83137789Y-66283013D01*
X83126583Y-66231169D01*
X83146678Y-58756169D01*
X83166543Y-58689182D01*
X83219470Y-58643570D01*
X83270678Y-58632502D01*
X83557384Y-58632502D01*
X83624423Y-58652187D01*
G37*
G36*
X109944048Y-124718681D02*
G01*
X109989803Y-124771485D01*
X110001009Y-124823329D01*
X109978696Y-133123329D01*
X109958831Y-133190316D01*
X109905904Y-133235928D01*
X109854696Y-133246996D01*
X109567990Y-133246996D01*
X109500951Y-133227311D01*
X109455196Y-133174507D01*
X109443990Y-133123329D01*
X109421677Y-124823329D01*
X109441182Y-124756237D01*
X109493862Y-124710341D01*
X109545677Y-124698996D01*
X109877009Y-124698996D01*
X109944048Y-124718681D01*
G37*
G36*
X77315279Y-58652187D02*
G01*
X77361034Y-58704991D01*
X77372240Y-58756835D01*
X77352145Y-66231835D01*
X77332280Y-66298822D01*
X77279353Y-66344434D01*
X77228145Y-66355502D01*
X76941439Y-66355502D01*
X76874400Y-66335817D01*
X76828645Y-66283013D01*
X76817439Y-66231835D01*
X76797344Y-58756835D01*
X76816849Y-58689743D01*
X76869530Y-58643847D01*
X76921344Y-58632502D01*
X77248240Y-58632502D01*
X77315279Y-58652187D01*
G37*
G36*
X102947171Y-58642179D02*
G01*
X102992926Y-58694983D01*
X103004132Y-58746161D01*
X103024227Y-66221161D01*
X103004722Y-66288253D01*
X102952041Y-66334149D01*
X102900227Y-66345494D01*
X102573331Y-66345494D01*
X102506292Y-66325809D01*
X102460537Y-66273005D01*
X102449331Y-66221161D01*
X102469426Y-58746161D01*
X102489291Y-58679174D01*
X102542218Y-58633562D01*
X102593426Y-58622494D01*
X102880132Y-58622494D01*
X102947171Y-58642179D01*
G37*
G36*
X113175358Y-58648677D02*
G01*
X113221113Y-58701481D01*
X113232319Y-58752659D01*
X113252414Y-66227659D01*
X113232909Y-66294751D01*
X113180228Y-66340647D01*
X113128414Y-66351992D01*
X112728573Y-66351992D01*
X112661534Y-66332307D01*
X112615779Y-66279503D01*
X112604573Y-66227659D01*
X112624668Y-58752659D01*
X112644533Y-58685672D01*
X112697460Y-58640060D01*
X112748668Y-58628992D01*
X113108319Y-58628992D01*
X113175358Y-58648677D01*
G37*
G36*
X65885279Y-58640187D02*
G01*
X65931034Y-58692991D01*
X65942240Y-58744835D01*
X65922145Y-66219835D01*
X65902280Y-66286822D01*
X65849353Y-66332434D01*
X65798145Y-66343502D01*
X65511439Y-66343502D01*
X65444400Y-66323817D01*
X65398645Y-66271013D01*
X65387439Y-66219835D01*
X65367344Y-58744835D01*
X65386849Y-58677743D01*
X65439530Y-58631847D01*
X65491344Y-58620502D01*
X65818240Y-58620502D01*
X65885279Y-58640187D01*
G37*
G36*
X88704423Y-58664187D02*
G01*
X88750178Y-58716991D01*
X88761384Y-58768169D01*
X88781479Y-66243169D01*
X88761974Y-66310261D01*
X88709293Y-66356157D01*
X88657479Y-66367502D01*
X88330583Y-66367502D01*
X88263544Y-66347817D01*
X88217789Y-66295013D01*
X88206583Y-66243169D01*
X88226678Y-58768169D01*
X88246543Y-58701182D01*
X88299470Y-58655570D01*
X88350678Y-58644502D01*
X88637384Y-58644502D01*
X88704423Y-58664187D01*
G37*
G36*
X104080797Y-58665183D02*
G01*
X104126552Y-58717987D01*
X104137758Y-58769165D01*
X104157853Y-66244165D01*
X104138348Y-66311257D01*
X104085667Y-66357153D01*
X104033853Y-66368498D01*
X103706957Y-66368498D01*
X103639918Y-66348813D01*
X103594163Y-66296009D01*
X103582957Y-66244165D01*
X103603052Y-58769165D01*
X103622917Y-58702178D01*
X103675844Y-58656566D01*
X103727052Y-58645498D01*
X104013758Y-58645498D01*
X104080797Y-58665183D01*
G37*
G36*
X86232610Y-58646685D02*
G01*
X86278365Y-58699489D01*
X86289571Y-58750667D01*
X86309666Y-66225667D01*
X86290161Y-66292759D01*
X86237480Y-66338655D01*
X86185666Y-66350000D01*
X85858770Y-66350000D01*
X85791731Y-66330315D01*
X85745976Y-66277511D01*
X85734770Y-66225667D01*
X85754865Y-58750667D01*
X85774730Y-58683680D01*
X85827657Y-58638068D01*
X85878865Y-58627000D01*
X86165571Y-58627000D01*
X86232610Y-58646685D01*
G37*
G36*
X86763219Y-124735405D02*
G01*
X86808974Y-124788209D01*
X86820180Y-124840053D01*
X86797867Y-133140053D01*
X86778002Y-133207040D01*
X86725075Y-133252652D01*
X86673867Y-133263720D01*
X86387161Y-133263720D01*
X86320122Y-133244035D01*
X86274367Y-133191231D01*
X86263161Y-133140053D01*
X86240848Y-124840053D01*
X86260353Y-124772961D01*
X86313033Y-124727065D01*
X86364848Y-124715720D01*
X86696180Y-124715720D01*
X86763219Y-124735405D01*
G37*
G36*
X104747780Y-124730899D02*
G01*
X104793535Y-124783703D01*
X104804741Y-124835547D01*
X104782428Y-133135547D01*
X104762563Y-133202534D01*
X104709636Y-133248146D01*
X104658428Y-133259214D01*
X104371722Y-133259214D01*
X104304683Y-133239529D01*
X104258928Y-133186725D01*
X104247722Y-133135547D01*
X104225409Y-124835547D01*
X104244914Y-124768455D01*
X104297594Y-124722559D01*
X104349409Y-124711214D01*
X104680741Y-124711214D01*
X104747780Y-124730899D01*
G37*
G36*
X105997674Y-124729685D02*
G01*
X106043429Y-124782489D01*
X106054635Y-124834333D01*
X106032322Y-133134333D01*
X106012457Y-133201320D01*
X105959530Y-133246932D01*
X105908322Y-133258000D01*
X105621616Y-133258000D01*
X105554577Y-133238315D01*
X105508822Y-133185511D01*
X105497616Y-133134333D01*
X105475303Y-124834333D01*
X105494808Y-124767241D01*
X105547488Y-124721345D01*
X105599303Y-124710000D01*
X105930635Y-124710000D01*
X105997674Y-124729685D01*
G37*
G36*
X138333646Y-124737179D02*
G01*
X138379401Y-124789983D01*
X138390607Y-124841827D01*
X138368294Y-133141827D01*
X138348429Y-133208814D01*
X138295502Y-133254426D01*
X138244294Y-133265494D01*
X137957588Y-133265494D01*
X137890549Y-133245809D01*
X137844794Y-133193005D01*
X137833588Y-133141827D01*
X137811275Y-124841827D01*
X137830780Y-124774735D01*
X137883460Y-124728839D01*
X137935275Y-124717494D01*
X138266607Y-124717494D01*
X138333646Y-124737179D01*
G37*
G36*
X131915459Y-124730681D02*
G01*
X131961214Y-124783485D01*
X131972420Y-124835329D01*
X131950107Y-133135329D01*
X131930242Y-133202316D01*
X131877315Y-133247928D01*
X131826107Y-133258996D01*
X131539401Y-133258996D01*
X131472362Y-133239311D01*
X131426607Y-133186507D01*
X131415401Y-133135329D01*
X131393088Y-124835329D01*
X131412593Y-124768237D01*
X131465273Y-124722341D01*
X131517088Y-124710996D01*
X131848420Y-124710996D01*
X131915459Y-124730681D01*
G37*
G36*
X129375459Y-124730681D02*
G01*
X129421214Y-124783485D01*
X129432420Y-124835329D01*
X129410107Y-133135329D01*
X129390242Y-133202316D01*
X129337315Y-133247928D01*
X129286107Y-133258996D01*
X128999401Y-133258996D01*
X128932362Y-133239311D01*
X128886607Y-133186507D01*
X128875401Y-133135329D01*
X128853088Y-124835329D01*
X128872593Y-124768237D01*
X128925273Y-124722341D01*
X128977088Y-124710996D01*
X129308420Y-124710996D01*
X129375459Y-124730681D01*
G37*
G36*
X139908787Y-58661673D02*
G01*
X139954542Y-58714477D01*
X139965748Y-58765655D01*
X139985843Y-66240655D01*
X139966338Y-66307747D01*
X139913657Y-66353643D01*
X139861843Y-66364988D01*
X139534947Y-66364988D01*
X139467908Y-66345303D01*
X139422153Y-66292499D01*
X139410947Y-66240655D01*
X139431042Y-58765655D01*
X139450907Y-58698668D01*
X139503834Y-58653056D01*
X139555042Y-58641988D01*
X139841748Y-58641988D01*
X139908787Y-58661673D01*
G37*
G36*
X85425032Y-124740907D02*
G01*
X85470787Y-124793711D01*
X85481993Y-124845555D01*
X85459680Y-133145555D01*
X85439815Y-133212542D01*
X85386888Y-133258154D01*
X85335680Y-133269222D01*
X85048974Y-133269222D01*
X84981935Y-133249537D01*
X84936180Y-133196733D01*
X84924974Y-133145555D01*
X84902661Y-124845555D01*
X84922166Y-124778463D01*
X84974846Y-124732567D01*
X85026661Y-124721222D01*
X85357993Y-124721222D01*
X85425032Y-124740907D01*
G37*
G36*
X154406228Y-47237376D02*
G01*
X154451983Y-47290180D01*
X154463189Y-47341358D01*
X154513996Y-66241358D01*
X154494491Y-66308450D01*
X154441810Y-66354346D01*
X154389996Y-66365691D01*
X154063100Y-66365691D01*
X153996061Y-66346006D01*
X153950306Y-66293202D01*
X153939100Y-66241358D01*
X153989909Y-47341358D01*
X154009774Y-47274371D01*
X154062701Y-47228759D01*
X154113909Y-47217691D01*
X154339189Y-47217691D01*
X154406228Y-47237376D01*
G37*
G36*
X88033219Y-124735405D02*
G01*
X88078974Y-124788209D01*
X88090180Y-124840053D01*
X88067867Y-133140053D01*
X88048002Y-133207040D01*
X87995075Y-133252652D01*
X87943867Y-133263720D01*
X87657161Y-133263720D01*
X87590122Y-133244035D01*
X87544367Y-133191231D01*
X87533161Y-133140053D01*
X87510848Y-124840053D01*
X87530353Y-124772961D01*
X87583033Y-124727065D01*
X87634848Y-124715720D01*
X87966180Y-124715720D01*
X88033219Y-124735405D01*
G37*
G36*
X134523646Y-124725179D02*
G01*
X134569401Y-124777983D01*
X134580607Y-124829827D01*
X134558294Y-133129827D01*
X134538429Y-133196814D01*
X134485502Y-133242426D01*
X134434294Y-133253494D01*
X134147588Y-133253494D01*
X134080549Y-133233809D01*
X134034794Y-133181005D01*
X134023588Y-133129827D01*
X134001275Y-124829827D01*
X134020780Y-124762735D01*
X134073460Y-124716839D01*
X134125275Y-124705494D01*
X134456607Y-124705494D01*
X134523646Y-124725179D01*
G37*
G36*
X158284481Y-47256874D02*
G01*
X158330236Y-47309678D01*
X158341442Y-47360856D01*
X158392183Y-66235856D01*
X158372678Y-66302948D01*
X158319997Y-66348844D01*
X158268183Y-66360189D01*
X157941287Y-66360189D01*
X157874248Y-66340504D01*
X157828493Y-66287700D01*
X157817287Y-66235856D01*
X157868027Y-47360856D01*
X157887892Y-47293869D01*
X157940819Y-47248257D01*
X157992027Y-47237189D01*
X158217442Y-47237189D01*
X158284481Y-47256874D01*
G37*
G36*
X126767272Y-124736183D02*
G01*
X126813027Y-124788987D01*
X126824233Y-124840831D01*
X126801920Y-133140831D01*
X126782055Y-133207818D01*
X126729128Y-133253430D01*
X126677920Y-133264498D01*
X126391214Y-133264498D01*
X126324175Y-133244813D01*
X126278420Y-133192009D01*
X126267214Y-133140831D01*
X126244901Y-124840831D01*
X126264406Y-124773739D01*
X126317086Y-124727843D01*
X126368901Y-124716498D01*
X126700233Y-124716498D01*
X126767272Y-124736183D01*
G37*
G36*
X124532413Y-58660677D02*
G01*
X124578168Y-58713481D01*
X124589374Y-58764659D01*
X124609469Y-66239659D01*
X124589964Y-66306751D01*
X124537283Y-66352647D01*
X124485469Y-66363992D01*
X124158573Y-66363992D01*
X124091534Y-66344307D01*
X124045779Y-66291503D01*
X124034573Y-66239659D01*
X124054668Y-58764659D01*
X124074533Y-58697672D01*
X124127460Y-58652060D01*
X124178668Y-58640992D01*
X124465374Y-58640992D01*
X124532413Y-58660677D01*
G37*
G36*
X60805279Y-58628187D02*
G01*
X60851034Y-58680991D01*
X60862240Y-58732835D01*
X60842145Y-66207835D01*
X60822280Y-66274822D01*
X60769353Y-66320434D01*
X60718145Y-66331502D01*
X60431439Y-66331502D01*
X60364400Y-66311817D01*
X60318645Y-66259013D01*
X60307439Y-66207835D01*
X60287344Y-58732835D01*
X60306849Y-58665743D01*
X60359530Y-58619847D01*
X60411344Y-58608502D01*
X60738240Y-58608502D01*
X60805279Y-58628187D01*
G37*
G36*
X65993621Y-124728907D02*
G01*
X66039376Y-124781711D01*
X66050582Y-124833555D01*
X66028269Y-133133555D01*
X66008404Y-133200542D01*
X65955477Y-133246154D01*
X65904269Y-133257222D01*
X65617563Y-133257222D01*
X65550524Y-133237537D01*
X65504769Y-133184733D01*
X65493563Y-133133555D01*
X65471250Y-124833555D01*
X65490755Y-124766463D01*
X65543435Y-124720567D01*
X65595250Y-124709222D01*
X65926582Y-124709222D01*
X65993621Y-124728907D01*
G37*
G36*
X136098787Y-58661673D02*
G01*
X136144542Y-58714477D01*
X136155748Y-58765655D01*
X136175843Y-66240655D01*
X136156338Y-66307747D01*
X136103657Y-66353643D01*
X136051843Y-66364988D01*
X135724947Y-66364988D01*
X135657908Y-66345303D01*
X135612153Y-66292499D01*
X135600947Y-66240655D01*
X135621042Y-58765655D01*
X135640907Y-58698668D01*
X135693834Y-58653056D01*
X135745042Y-58641988D01*
X136031748Y-58641988D01*
X136098787Y-58661673D01*
G37*
G36*
X135861833Y-124719677D02*
G01*
X135907588Y-124772481D01*
X135918794Y-124824325D01*
X135896481Y-133124325D01*
X135876616Y-133191312D01*
X135823689Y-133236924D01*
X135772481Y-133247992D01*
X135485775Y-133247992D01*
X135418736Y-133228307D01*
X135372981Y-133175503D01*
X135361775Y-133124325D01*
X135339462Y-124824325D01*
X135358967Y-124757233D01*
X135411647Y-124711337D01*
X135463462Y-124699992D01*
X135794794Y-124699992D01*
X135861833Y-124719677D01*
G37*
G36*
X118834048Y-124730681D02*
G01*
X118879803Y-124783485D01*
X118891009Y-124835329D01*
X118868696Y-133135329D01*
X118848831Y-133202316D01*
X118795904Y-133247928D01*
X118744696Y-133258996D01*
X118457990Y-133258996D01*
X118390951Y-133239311D01*
X118345196Y-133186507D01*
X118333990Y-133135329D01*
X118311677Y-124835329D01*
X118331182Y-124768237D01*
X118383862Y-124722341D01*
X118435677Y-124710996D01*
X118767009Y-124710996D01*
X118834048Y-124730681D01*
G37*
G36*
X58074493Y-46819685D02*
G01*
X58120248Y-46872489D01*
X58131454Y-46924333D01*
X58079571Y-66224333D01*
X58059706Y-66291320D01*
X58006779Y-66336932D01*
X57955571Y-66348000D01*
X57668865Y-66348000D01*
X57601826Y-66328315D01*
X57556071Y-66275511D01*
X57544865Y-66224333D01*
X57492982Y-46924333D01*
X57512487Y-46857241D01*
X57565168Y-46811345D01*
X57616982Y-46800000D01*
X58007454Y-46800000D01*
X58074493Y-46819685D01*
G37*
G36*
X146090020Y-124726175D02*
G01*
X146135775Y-124778979D01*
X146146981Y-124830823D01*
X146124668Y-133130823D01*
X146104803Y-133197810D01*
X146051876Y-133243422D01*
X146000668Y-133254490D01*
X145713962Y-133254490D01*
X145646923Y-133234805D01*
X145601168Y-133182001D01*
X145589962Y-133130823D01*
X145567649Y-124830823D01*
X145587154Y-124763731D01*
X145639834Y-124717835D01*
X145691649Y-124706490D01*
X146022981Y-124706490D01*
X146090020Y-124726175D01*
G37*
G36*
X113754048Y-124718681D02*
G01*
X113799803Y-124771485D01*
X113811009Y-124823329D01*
X113788696Y-133123329D01*
X113768831Y-133190316D01*
X113715904Y-133235928D01*
X113664696Y-133246996D01*
X113377990Y-133246996D01*
X113310951Y-133227311D01*
X113265196Y-133174507D01*
X113253990Y-133123329D01*
X113231677Y-124823329D01*
X113251182Y-124756237D01*
X113303862Y-124710341D01*
X113355677Y-124698996D01*
X113687009Y-124698996D01*
X113754048Y-124718681D01*
G37*
G36*
X84962610Y-58646685D02*
G01*
X85008365Y-58699489D01*
X85019571Y-58750667D01*
X85039666Y-66225667D01*
X85020161Y-66292759D01*
X84967480Y-66338655D01*
X84915666Y-66350000D01*
X84588770Y-66350000D01*
X84521731Y-66330315D01*
X84475976Y-66277511D01*
X84464770Y-66225667D01*
X84484865Y-58750667D01*
X84504730Y-58683680D01*
X84557657Y-58638068D01*
X84608865Y-58627000D01*
X84895571Y-58627000D01*
X84962610Y-58646685D01*
G37*
G36*
X109228984Y-58659681D02*
G01*
X109274739Y-58712485D01*
X109285945Y-58763663D01*
X109306040Y-66238663D01*
X109286535Y-66305755D01*
X109233854Y-66351651D01*
X109182040Y-66362996D01*
X108855144Y-66362996D01*
X108788105Y-66343311D01*
X108742350Y-66290507D01*
X108731144Y-66238663D01*
X108751239Y-58763663D01*
X108771104Y-58696676D01*
X108824031Y-58651064D01*
X108875239Y-58639996D01*
X109161945Y-58639996D01*
X109228984Y-58659681D01*
G37*
G36*
X89371406Y-124729903D02*
G01*
X89417161Y-124782707D01*
X89428367Y-124834551D01*
X89406054Y-133134551D01*
X89386189Y-133201538D01*
X89333262Y-133247150D01*
X89282054Y-133258218D01*
X88995348Y-133258218D01*
X88928309Y-133238533D01*
X88882554Y-133185729D01*
X88871348Y-133134551D01*
X88849035Y-124834551D01*
X88868540Y-124767459D01*
X88921220Y-124721563D01*
X88973035Y-124710218D01*
X89304367Y-124710218D01*
X89371406Y-124729903D01*
G37*
G36*
X106688984Y-58659681D02*
G01*
X106734739Y-58712485D01*
X106745945Y-58763663D01*
X106766040Y-66238663D01*
X106746535Y-66305755D01*
X106693854Y-66351651D01*
X106642040Y-66362996D01*
X106315144Y-66362996D01*
X106248105Y-66343311D01*
X106202350Y-66290507D01*
X106191144Y-66238663D01*
X106211239Y-58763663D01*
X106231104Y-58696676D01*
X106284031Y-58651064D01*
X106335239Y-58639996D01*
X106621945Y-58639996D01*
X106688984Y-58659681D01*
G37*
G36*
X90573219Y-124735405D02*
G01*
X90618974Y-124788209D01*
X90630180Y-124840053D01*
X90607867Y-133140053D01*
X90588002Y-133207040D01*
X90535075Y-133252652D01*
X90483867Y-133263720D01*
X90197161Y-133263720D01*
X90130122Y-133244035D01*
X90084367Y-133191231D01*
X90073161Y-133140053D01*
X90050848Y-124840053D01*
X90070353Y-124772961D01*
X90123033Y-124727065D01*
X90174848Y-124715720D01*
X90506180Y-124715720D01*
X90573219Y-124735405D01*
G37*
G36*
X76221808Y-124735405D02*
G01*
X76267563Y-124788209D01*
X76278769Y-124840053D01*
X76256456Y-133140053D01*
X76236591Y-133207040D01*
X76183664Y-133252652D01*
X76132456Y-133263720D01*
X75845750Y-133263720D01*
X75778711Y-133244035D01*
X75732956Y-133191231D01*
X75721750Y-133140053D01*
X75699437Y-124840053D01*
X75718942Y-124772961D01*
X75771622Y-124727065D01*
X75823437Y-124715720D01*
X76154769Y-124715720D01*
X76221808Y-124735405D01*
G37*
G36*
X132288787Y-58649673D02*
G01*
X132334542Y-58702477D01*
X132345748Y-58753655D01*
X132365843Y-66228655D01*
X132346338Y-66295747D01*
X132293657Y-66341643D01*
X132241843Y-66352988D01*
X131914947Y-66352988D01*
X131847908Y-66333303D01*
X131802153Y-66280499D01*
X131790947Y-66228655D01*
X131811042Y-58753655D01*
X131830907Y-58686668D01*
X131883834Y-58641056D01*
X131935042Y-58629988D01*
X132221748Y-58629988D01*
X132288787Y-58649673D01*
G37*
G36*
X90042610Y-58658685D02*
G01*
X90088365Y-58711489D01*
X90099571Y-58762667D01*
X90119666Y-66237667D01*
X90100161Y-66304759D01*
X90047480Y-66350655D01*
X89995666Y-66362000D01*
X89668770Y-66362000D01*
X89601731Y-66342315D01*
X89555976Y-66289511D01*
X89544770Y-66237667D01*
X89564865Y-58762667D01*
X89584730Y-58695680D01*
X89637657Y-58650068D01*
X89688865Y-58639000D01*
X89975571Y-58639000D01*
X90042610Y-58658685D01*
G37*
G36*
X119384226Y-58666179D02*
G01*
X119429981Y-58718983D01*
X119441187Y-58770161D01*
X119461282Y-66245161D01*
X119441777Y-66312253D01*
X119389096Y-66358149D01*
X119337282Y-66369494D01*
X119010386Y-66369494D01*
X118943347Y-66349809D01*
X118897592Y-66297005D01*
X118886386Y-66245161D01*
X118906481Y-58770161D01*
X118926346Y-58703174D01*
X118979273Y-58657562D01*
X119030481Y-58646494D01*
X119317187Y-58646494D01*
X119384226Y-58666179D01*
G37*
G36*
X71141808Y-124723405D02*
G01*
X71187563Y-124776209D01*
X71198769Y-124828053D01*
X71176456Y-133128053D01*
X71156591Y-133195040D01*
X71103664Y-133240652D01*
X71052456Y-133251720D01*
X70765750Y-133251720D01*
X70698711Y-133232035D01*
X70652956Y-133179231D01*
X70641750Y-133128053D01*
X70619437Y-124828053D01*
X70638942Y-124760961D01*
X70691622Y-124715065D01*
X70743437Y-124703720D01*
X71074769Y-124703720D01*
X71141808Y-124723405D01*
G37*
G36*
X142516974Y-58656171D02*
G01*
X142562729Y-58708975D01*
X142573935Y-58760153D01*
X142594030Y-66235153D01*
X142574525Y-66302245D01*
X142521844Y-66348141D01*
X142470030Y-66359486D01*
X142143134Y-66359486D01*
X142076095Y-66339801D01*
X142030340Y-66286997D01*
X142019134Y-66235153D01*
X142039229Y-58760153D01*
X142059094Y-58693166D01*
X142112021Y-58647554D01*
X142163229Y-58636486D01*
X142449935Y-58636486D01*
X142516974Y-58656171D01*
G37*
G36*
X111145861Y-124724183D02*
G01*
X111191616Y-124776987D01*
X111202822Y-124828831D01*
X111180509Y-133128831D01*
X111160644Y-133195818D01*
X111107717Y-133241430D01*
X111056509Y-133252498D01*
X110769803Y-133252498D01*
X110702764Y-133232813D01*
X110657009Y-133180009D01*
X110645803Y-133128831D01*
X110623490Y-124828831D01*
X110642995Y-124761739D01*
X110695675Y-124715843D01*
X110747490Y-124704498D01*
X111078822Y-124704498D01*
X111145861Y-124724183D01*
G37*
G36*
X82639995Y-124729903D02*
G01*
X82685750Y-124782707D01*
X82696956Y-124834551D01*
X82674643Y-133134551D01*
X82654778Y-133201538D01*
X82601851Y-133247150D01*
X82550643Y-133258218D01*
X82263937Y-133258218D01*
X82196898Y-133238533D01*
X82151143Y-133185729D01*
X82139937Y-133134551D01*
X82117624Y-124834551D01*
X82137129Y-124767459D01*
X82189809Y-124721563D01*
X82241624Y-124710218D01*
X82572956Y-124710218D01*
X82639995Y-124729903D01*
G37*
G36*
X59386199Y-58633689D02*
G01*
X59431954Y-58686493D01*
X59443160Y-58738337D01*
X59423065Y-66213337D01*
X59403200Y-66280324D01*
X59350273Y-66325936D01*
X59299065Y-66337004D01*
X59012359Y-66337004D01*
X58945320Y-66317319D01*
X58899565Y-66264515D01*
X58888359Y-66213337D01*
X58868264Y-58738337D01*
X58887769Y-58671245D01*
X58940450Y-58625349D01*
X58992264Y-58614004D01*
X59319160Y-58614004D01*
X59386199Y-58633689D01*
G37*
G36*
X100338984Y-58647681D02*
G01*
X100384739Y-58700485D01*
X100395945Y-58751663D01*
X100416040Y-66226663D01*
X100396535Y-66293755D01*
X100343854Y-66339651D01*
X100292040Y-66350996D01*
X99965144Y-66350996D01*
X99898105Y-66331311D01*
X99852350Y-66278507D01*
X99841144Y-66226663D01*
X99861239Y-58751663D01*
X99881104Y-58684676D01*
X99934031Y-58639064D01*
X99985239Y-58627996D01*
X100271945Y-58627996D01*
X100338984Y-58647681D01*
G37*
G36*
X69695279Y-58640187D02*
G01*
X69741034Y-58692991D01*
X69752240Y-58744835D01*
X69732145Y-66219835D01*
X69712280Y-66286822D01*
X69659353Y-66332434D01*
X69608145Y-66343502D01*
X69321439Y-66343502D01*
X69254400Y-66323817D01*
X69208645Y-66271013D01*
X69197439Y-66219835D01*
X69177344Y-58744835D01*
X69196849Y-58677743D01*
X69249530Y-58631847D01*
X69301344Y-58620502D01*
X69628240Y-58620502D01*
X69695279Y-58640187D01*
G37*
G36*
X136995459Y-124742681D02*
G01*
X137041214Y-124795485D01*
X137052420Y-124847329D01*
X137030107Y-133147329D01*
X137010242Y-133214316D01*
X136957315Y-133259928D01*
X136906107Y-133270996D01*
X136619401Y-133270996D01*
X136552362Y-133251311D01*
X136506607Y-133198507D01*
X136495401Y-133147329D01*
X136473088Y-124847329D01*
X136492593Y-124780237D01*
X136545273Y-124734341D01*
X136597088Y-124722996D01*
X136928420Y-124722996D01*
X136995459Y-124742681D01*
G37*
G36*
X54350760Y-46789191D02*
G01*
X54396515Y-46841995D01*
X54407721Y-46893839D01*
X54355771Y-66218839D01*
X54335906Y-66285826D01*
X54282979Y-66331438D01*
X54231771Y-66342506D01*
X53945065Y-66342506D01*
X53878026Y-66322821D01*
X53832271Y-66270017D01*
X53821065Y-66218839D01*
X53769114Y-46893839D01*
X53788619Y-46826747D01*
X53841300Y-46780851D01*
X53893114Y-46769506D01*
X54283721Y-46769506D01*
X54350760Y-46789191D01*
G37*
G36*
X78653466Y-58646685D02*
G01*
X78699221Y-58699489D01*
X78710427Y-58751333D01*
X78690332Y-66226333D01*
X78670467Y-66293320D01*
X78617540Y-66338932D01*
X78566332Y-66350000D01*
X78279626Y-66350000D01*
X78212587Y-66330315D01*
X78166832Y-66277511D01*
X78155626Y-66226333D01*
X78135531Y-58751333D01*
X78155036Y-58684241D01*
X78207717Y-58638345D01*
X78259531Y-58627000D01*
X78586427Y-58627000D01*
X78653466Y-58646685D01*
G37*
G36*
X117564048Y-124730681D02*
G01*
X117609803Y-124783485D01*
X117621009Y-124835329D01*
X117598696Y-133135329D01*
X117578831Y-133202316D01*
X117525904Y-133247928D01*
X117474696Y-133258996D01*
X117187990Y-133258996D01*
X117120951Y-133239311D01*
X117075196Y-133186507D01*
X117063990Y-133135329D01*
X117041677Y-124835329D01*
X117061182Y-124768237D01*
X117113862Y-124722341D01*
X117165677Y-124710996D01*
X117497009Y-124710996D01*
X117564048Y-124730681D01*
G37*
G36*
X63277092Y-58645689D02*
G01*
X63322847Y-58698493D01*
X63334053Y-58750337D01*
X63313958Y-66225337D01*
X63294093Y-66292324D01*
X63241166Y-66337936D01*
X63189958Y-66349004D01*
X62903252Y-66349004D01*
X62836213Y-66329319D01*
X62790458Y-66276515D01*
X62779252Y-66225337D01*
X62759157Y-58750337D01*
X62778662Y-58683245D01*
X62831343Y-58637349D01*
X62883157Y-58626004D01*
X63210053Y-58626004D01*
X63277092Y-58645689D01*
G37*
G36*
X159554483Y-47256874D02*
G01*
X159600238Y-47309678D01*
X159611444Y-47360856D01*
X159662183Y-66235856D01*
X159642678Y-66302948D01*
X159589997Y-66348844D01*
X159538183Y-66360189D01*
X159211287Y-66360189D01*
X159144248Y-66340504D01*
X159098493Y-66287700D01*
X159087287Y-66235856D01*
X159138028Y-47360856D01*
X159157893Y-47293869D01*
X159210820Y-47248257D01*
X159262028Y-47237189D01*
X159487444Y-47237189D01*
X159554483Y-47256874D01*
G37*
G36*
X67263621Y-124728907D02*
G01*
X67309376Y-124781711D01*
X67320582Y-124833555D01*
X67298269Y-133133555D01*
X67278404Y-133200542D01*
X67225477Y-133246154D01*
X67174269Y-133257222D01*
X66887563Y-133257222D01*
X66820524Y-133237537D01*
X66774769Y-133184733D01*
X66763563Y-133133555D01*
X66741250Y-124833555D01*
X66760755Y-124766463D01*
X66813435Y-124720567D01*
X66865250Y-124709222D01*
X67196582Y-124709222D01*
X67263621Y-124728907D01*
G37*
G36*
X103409593Y-124736401D02*
G01*
X103455348Y-124789205D01*
X103466554Y-124841049D01*
X103444241Y-133141049D01*
X103424376Y-133208036D01*
X103371449Y-133253648D01*
X103320241Y-133264716D01*
X103033535Y-133264716D01*
X102966496Y-133245031D01*
X102920741Y-133192227D01*
X102909535Y-133141049D01*
X102887222Y-124841049D01*
X102906727Y-124773957D01*
X102959407Y-124728061D01*
X103011222Y-124716716D01*
X103342554Y-124716716D01*
X103409593Y-124736401D01*
G37*
G36*
X73749995Y-124717903D02*
G01*
X73795750Y-124770707D01*
X73806956Y-124822551D01*
X73784643Y-133122551D01*
X73764778Y-133189538D01*
X73711851Y-133235150D01*
X73660643Y-133246218D01*
X73373937Y-133246218D01*
X73306898Y-133226533D01*
X73261143Y-133173729D01*
X73249937Y-133122551D01*
X73227624Y-124822551D01*
X73247129Y-124755459D01*
X73299809Y-124709563D01*
X73351624Y-124698218D01*
X73682956Y-124698218D01*
X73749995Y-124717903D01*
G37*
G36*
X123982235Y-124725179D02*
G01*
X124027990Y-124777983D01*
X124039196Y-124829827D01*
X124016883Y-133129827D01*
X123997018Y-133196814D01*
X123944091Y-133242426D01*
X123892883Y-133253494D01*
X123606177Y-133253494D01*
X123539138Y-133233809D01*
X123493383Y-133181005D01*
X123482177Y-133129827D01*
X123459864Y-124829827D01*
X123479369Y-124762735D01*
X123532049Y-124716839D01*
X123583864Y-124705494D01*
X123915196Y-124705494D01*
X123982235Y-124725179D01*
G37*
G36*
X128478787Y-58649673D02*
G01*
X128524542Y-58702477D01*
X128535748Y-58753655D01*
X128555843Y-66228655D01*
X128536338Y-66295747D01*
X128483657Y-66341643D01*
X128431843Y-66352988D01*
X128104947Y-66352988D01*
X128037908Y-66333303D01*
X127992153Y-66280499D01*
X127980947Y-66228655D01*
X128001042Y-58753655D01*
X128020907Y-58686668D01*
X128073834Y-58641056D01*
X128125042Y-58629988D01*
X128411748Y-58629988D01*
X128478787Y-58649673D01*
G37*
G36*
X95190797Y-58653183D02*
G01*
X95236552Y-58705987D01*
X95247758Y-58757165D01*
X95267853Y-66232165D01*
X95248348Y-66299257D01*
X95195667Y-66345153D01*
X95143853Y-66356498D01*
X94816957Y-66356498D01*
X94749918Y-66336813D01*
X94704163Y-66284009D01*
X94692957Y-66232165D01*
X94713052Y-58757165D01*
X94732917Y-58690178D01*
X94785844Y-58644566D01*
X94837052Y-58633498D01*
X95123758Y-58633498D01*
X95190797Y-58653183D01*
G37*
G36*
X108027171Y-58654179D02*
G01*
X108072926Y-58706983D01*
X108084132Y-58758161D01*
X108104227Y-66233161D01*
X108084722Y-66300253D01*
X108032041Y-66346149D01*
X107980227Y-66357494D01*
X107653331Y-66357494D01*
X107586292Y-66337809D01*
X107540537Y-66285005D01*
X107529331Y-66233161D01*
X107549426Y-58758161D01*
X107569291Y-58691174D01*
X107622218Y-58645562D01*
X107673426Y-58634494D01*
X107960132Y-58634494D01*
X108027171Y-58654179D01*
G37*
G36*
X144751833Y-124731677D02*
G01*
X144797588Y-124784481D01*
X144808794Y-124836325D01*
X144786481Y-133136325D01*
X144766616Y-133203312D01*
X144713689Y-133248924D01*
X144662481Y-133259992D01*
X144375775Y-133259992D01*
X144308736Y-133240307D01*
X144262981Y-133187503D01*
X144251775Y-133136325D01*
X144229462Y-124836325D01*
X144248967Y-124769233D01*
X144301647Y-124723337D01*
X144353462Y-124711992D01*
X144684794Y-124711992D01*
X144751833Y-124731677D01*
G37*
G36*
X137368787Y-58661673D02*
G01*
X137414542Y-58714477D01*
X137425748Y-58765655D01*
X137445843Y-66240655D01*
X137426338Y-66307747D01*
X137373657Y-66353643D01*
X137321843Y-66364988D01*
X136994947Y-66364988D01*
X136927908Y-66345303D01*
X136882153Y-66292499D01*
X136870947Y-66240655D01*
X136891042Y-58765655D01*
X136910907Y-58698668D01*
X136963834Y-58653056D01*
X137015042Y-58641988D01*
X137301748Y-58641988D01*
X137368787Y-58661673D01*
G37*
G36*
X123330600Y-58655175D02*
G01*
X123376355Y-58707979D01*
X123387561Y-58759157D01*
X123407656Y-66234157D01*
X123388151Y-66301249D01*
X123335470Y-66347145D01*
X123283656Y-66358490D01*
X122956760Y-66358490D01*
X122889721Y-66338805D01*
X122843966Y-66286001D01*
X122832760Y-66234157D01*
X122852855Y-58759157D01*
X122872720Y-58692170D01*
X122925647Y-58646558D01*
X122976855Y-58635490D01*
X123263561Y-58635490D01*
X123330600Y-58655175D01*
G37*
G36*
X91312610Y-58658685D02*
G01*
X91358365Y-58711489D01*
X91369571Y-58762667D01*
X91389666Y-66237667D01*
X91370161Y-66304759D01*
X91317480Y-66350655D01*
X91265666Y-66362000D01*
X90938770Y-66362000D01*
X90871731Y-66342315D01*
X90825976Y-66289511D01*
X90814770Y-66237667D01*
X90834865Y-58762667D01*
X90854730Y-58695680D01*
X90907657Y-58650068D01*
X90958865Y-58639000D01*
X91245571Y-58639000D01*
X91312610Y-58658685D01*
G37*
G36*
X133253646Y-124725179D02*
G01*
X133299401Y-124777983D01*
X133310607Y-124829827D01*
X133288294Y-133129827D01*
X133268429Y-133196814D01*
X133215502Y-133242426D01*
X133164294Y-133253494D01*
X132877588Y-133253494D01*
X132810549Y-133233809D01*
X132764794Y-133181005D01*
X132753588Y-133129827D01*
X132731275Y-124829827D01*
X132750780Y-124762735D01*
X132803460Y-124716839D01*
X132855275Y-124705494D01*
X133186607Y-124705494D01*
X133253646Y-124725179D01*
G37*
G36*
X74843466Y-58634685D02*
G01*
X74889221Y-58687489D01*
X74900427Y-58739333D01*
X74880332Y-66214333D01*
X74860467Y-66281320D01*
X74807540Y-66326932D01*
X74756332Y-66338000D01*
X74469626Y-66338000D01*
X74402587Y-66318315D01*
X74356832Y-66265511D01*
X74345626Y-66214333D01*
X74325531Y-58739333D01*
X74345036Y-58672241D01*
X74397717Y-58626345D01*
X74449531Y-58615000D01*
X74776427Y-58615000D01*
X74843466Y-58634685D01*
G37*
G36*
X139603646Y-124737179D02*
G01*
X139649401Y-124789983D01*
X139660607Y-124841827D01*
X139638294Y-133141827D01*
X139618429Y-133208814D01*
X139565502Y-133254426D01*
X139514294Y-133265494D01*
X139227588Y-133265494D01*
X139160549Y-133245809D01*
X139114794Y-133193005D01*
X139103588Y-133141827D01*
X139081275Y-124841827D01*
X139100780Y-124774735D01*
X139153460Y-124728839D01*
X139205275Y-124717494D01*
X139536607Y-124717494D01*
X139603646Y-124737179D01*
G37*
G36*
X74883621Y-124740907D02*
G01*
X74929376Y-124793711D01*
X74940582Y-124845555D01*
X74918269Y-133145555D01*
X74898404Y-133212542D01*
X74845477Y-133258154D01*
X74794269Y-133269222D01*
X74507563Y-133269222D01*
X74440524Y-133249537D01*
X74394769Y-133196733D01*
X74383563Y-133145555D01*
X74361250Y-124845555D01*
X74380755Y-124778463D01*
X74433435Y-124732567D01*
X74485250Y-124721222D01*
X74816582Y-124721222D01*
X74883621Y-124740907D01*
G37*
G36*
X122712235Y-124725179D02*
G01*
X122757990Y-124777983D01*
X122769196Y-124829827D01*
X122746883Y-133129827D01*
X122727018Y-133196814D01*
X122674091Y-133242426D01*
X122622883Y-133253494D01*
X122336177Y-133253494D01*
X122269138Y-133233809D01*
X122223383Y-133181005D01*
X122212177Y-133129827D01*
X122189864Y-124829827D01*
X122209369Y-124762735D01*
X122262049Y-124716839D01*
X122313864Y-124705494D01*
X122645196Y-124705494D01*
X122712235Y-124725179D01*
G37*
G36*
X115642413Y-58648677D02*
G01*
X115688168Y-58701481D01*
X115699374Y-58752659D01*
X115719469Y-66227659D01*
X115699964Y-66294751D01*
X115647283Y-66340647D01*
X115595469Y-66351992D01*
X115268573Y-66351992D01*
X115201534Y-66332307D01*
X115155779Y-66279503D01*
X115144573Y-66227659D01*
X115164668Y-58752659D01*
X115184533Y-58685672D01*
X115237460Y-58640060D01*
X115288668Y-58628992D01*
X115575374Y-58628992D01*
X115642413Y-58648677D01*
G37*
G36*
X113175358Y-58648677D02*
G01*
X113221113Y-58701481D01*
X113232319Y-58752659D01*
X113252414Y-66227659D01*
X113232909Y-66294751D01*
X113180228Y-66340647D01*
X113128414Y-66351992D01*
X112728573Y-66351992D01*
X112661534Y-66332307D01*
X112615779Y-66279503D01*
X112604573Y-66227659D01*
X112624668Y-58752659D01*
X112644533Y-58685672D01*
X112697460Y-58640060D01*
X112748668Y-58628992D01*
X113108319Y-58628992D01*
X113175358Y-58648677D01*
G37*
G36*
X82463466Y-58646685D02*
G01*
X82509221Y-58699489D01*
X82520427Y-58751333D01*
X82500332Y-66226333D01*
X82480467Y-66293320D01*
X82427540Y-66338932D01*
X82376332Y-66350000D01*
X82089626Y-66350000D01*
X82022587Y-66330315D01*
X81976832Y-66277511D01*
X81965626Y-66226333D01*
X81945531Y-58751333D01*
X81965036Y-58684241D01*
X82017717Y-58638345D01*
X82069531Y-58627000D01*
X82396427Y-58627000D01*
X82463466Y-58646685D01*
G37*
G36*
X107335861Y-124724183D02*
G01*
X107381616Y-124776987D01*
X107392822Y-124828831D01*
X107370509Y-133128831D01*
X107350644Y-133195818D01*
X107297717Y-133241430D01*
X107246509Y-133252498D01*
X106959803Y-133252498D01*
X106892764Y-133232813D01*
X106847009Y-133180009D01*
X106835803Y-133128831D01*
X106813490Y-124828831D01*
X106832995Y-124761739D01*
X106885675Y-124715843D01*
X106937490Y-124704498D01*
X107268822Y-124704498D01*
X107335861Y-124724183D01*
G37*
G36*
X99000797Y-58653183D02*
G01*
X99046552Y-58705987D01*
X99057758Y-58757165D01*
X99077853Y-66232165D01*
X99058348Y-66299257D01*
X99005667Y-66345153D01*
X98953853Y-66356498D01*
X98626957Y-66356498D01*
X98559918Y-66336813D01*
X98514163Y-66284009D01*
X98502957Y-66232165D01*
X98523052Y-58757165D01*
X98542917Y-58690178D01*
X98595844Y-58644566D01*
X98647052Y-58633498D01*
X98933758Y-58633498D01*
X99000797Y-58653183D01*
G37*
G36*
X61938905Y-58651191D02*
G01*
X61984660Y-58703995D01*
X61995866Y-58755839D01*
X61975771Y-66230839D01*
X61955906Y-66297826D01*
X61902979Y-66343438D01*
X61851771Y-66354506D01*
X61565065Y-66354506D01*
X61498026Y-66334821D01*
X61452271Y-66282017D01*
X61441065Y-66230839D01*
X61420970Y-58755839D01*
X61440475Y-58688747D01*
X61493156Y-58642851D01*
X61544970Y-58631506D01*
X61871866Y-58631506D01*
X61938905Y-58651191D01*
G37*
G36*
X108605861Y-124724183D02*
G01*
X108651616Y-124776987D01*
X108662822Y-124828831D01*
X108640509Y-133128831D01*
X108620644Y-133195818D01*
X108567717Y-133241430D01*
X108516509Y-133252498D01*
X108229803Y-133252498D01*
X108162764Y-133232813D01*
X108117009Y-133180009D01*
X108105803Y-133128831D01*
X108083490Y-124828831D01*
X108102995Y-124761739D01*
X108155675Y-124715843D01*
X108207490Y-124704498D01*
X108538822Y-124704498D01*
X108605861Y-124724183D01*
G37*
G36*
X131018787Y-58649673D02*
G01*
X131064542Y-58702477D01*
X131075748Y-58753655D01*
X131095843Y-66228655D01*
X131076338Y-66295747D01*
X131023657Y-66341643D01*
X130971843Y-66352988D01*
X130644947Y-66352988D01*
X130577908Y-66333303D01*
X130532153Y-66280499D01*
X130520947Y-66228655D01*
X130541042Y-58753655D01*
X130560907Y-58686668D01*
X130613834Y-58641056D01*
X130665042Y-58629988D01*
X130951748Y-58629988D01*
X131018787Y-58649673D01*
G37*
G36*
X64547092Y-58645689D02*
G01*
X64592847Y-58698493D01*
X64604053Y-58750337D01*
X64583958Y-66225337D01*
X64564093Y-66292324D01*
X64511166Y-66337936D01*
X64459958Y-66349004D01*
X64173252Y-66349004D01*
X64106213Y-66329319D01*
X64060458Y-66276515D01*
X64049252Y-66225337D01*
X64029157Y-58750337D01*
X64048662Y-58683245D01*
X64101343Y-58637349D01*
X64153157Y-58626004D01*
X64480053Y-58626004D01*
X64547092Y-58645689D01*
G37*
G36*
X142143646Y-124737179D02*
G01*
X142189401Y-124789983D01*
X142200607Y-124841827D01*
X142178294Y-133141827D01*
X142158429Y-133208814D01*
X142105502Y-133254426D01*
X142054294Y-133265494D01*
X141767588Y-133265494D01*
X141700549Y-133245809D01*
X141654794Y-133193005D01*
X141643588Y-133141827D01*
X141621275Y-124841827D01*
X141640780Y-124774735D01*
X141693460Y-124728839D01*
X141745275Y-124717494D01*
X142076607Y-124717494D01*
X142143646Y-124737179D01*
G37*
G36*
X138706974Y-58656171D02*
G01*
X138752729Y-58708975D01*
X138763935Y-58760153D01*
X138784030Y-66235153D01*
X138764525Y-66302245D01*
X138711844Y-66348141D01*
X138660030Y-66359486D01*
X138333134Y-66359486D01*
X138266095Y-66339801D01*
X138220340Y-66286997D01*
X138209134Y-66235153D01*
X138229229Y-58760153D01*
X138249094Y-58693166D01*
X138302021Y-58647554D01*
X138353229Y-58636486D01*
X138639935Y-58636486D01*
X138706974Y-58656171D01*
G37*
G36*
X92650797Y-58653183D02*
G01*
X92696552Y-58705987D01*
X92707758Y-58757165D01*
X92727853Y-66232165D01*
X92708348Y-66299257D01*
X92655667Y-66345153D01*
X92603853Y-66356498D01*
X92276957Y-66356498D01*
X92209918Y-66336813D01*
X92164163Y-66284009D01*
X92152957Y-66232165D01*
X92173052Y-58757165D01*
X92192917Y-58690178D01*
X92245844Y-58644566D01*
X92297052Y-58633498D01*
X92583758Y-58633498D01*
X92650797Y-58653183D01*
G37*
G36*
X116225861Y-124736183D02*
G01*
X116271616Y-124788987D01*
X116282822Y-124840831D01*
X116260509Y-133140831D01*
X116240644Y-133207818D01*
X116187717Y-133253430D01*
X116136509Y-133264498D01*
X115849803Y-133264498D01*
X115782764Y-133244813D01*
X115737009Y-133192009D01*
X115725803Y-133140831D01*
X115703490Y-124840831D01*
X115722995Y-124773739D01*
X115775675Y-124727843D01*
X115827490Y-124716498D01*
X116158822Y-124716498D01*
X116225861Y-124736183D01*
G37*
G36*
X102139593Y-124736401D02*
G01*
X102185348Y-124789205D01*
X102196554Y-124841049D01*
X102174241Y-133141049D01*
X102154376Y-133208036D01*
X102101449Y-133253648D01*
X102050241Y-133264716D01*
X101763535Y-133264716D01*
X101696496Y-133245031D01*
X101650741Y-133192227D01*
X101639535Y-133141049D01*
X101617222Y-124841049D01*
X101636727Y-124773957D01*
X101689407Y-124728061D01*
X101741222Y-124716716D01*
X102072554Y-124716716D01*
X102139593Y-124736401D01*
G37*
G36*
X120172235Y-124725179D02*
G01*
X120217990Y-124777983D01*
X120229196Y-124829827D01*
X120206883Y-133129827D01*
X120187018Y-133196814D01*
X120134091Y-133242426D01*
X120082883Y-133253494D01*
X119796177Y-133253494D01*
X119729138Y-133233809D01*
X119683383Y-133181005D01*
X119672177Y-133129827D01*
X119649864Y-124829827D01*
X119669369Y-124762735D01*
X119722049Y-124716839D01*
X119773864Y-124705494D01*
X120105196Y-124705494D01*
X120172235Y-124725179D01*
G37*
G36*
X153136227Y-47237376D02*
G01*
X153181982Y-47290180D01*
X153193188Y-47341358D01*
X153243996Y-66241358D01*
X153224491Y-66308450D01*
X153171810Y-66354346D01*
X153119996Y-66365691D01*
X152793100Y-66365691D01*
X152726061Y-66346006D01*
X152680306Y-66293202D01*
X152669100Y-66241358D01*
X152719907Y-47341358D01*
X152739772Y-47274371D01*
X152792699Y-47228759D01*
X152843907Y-47217691D01*
X153069188Y-47217691D01*
X153136227Y-47237376D01*
G37*
G36*
X95653219Y-124747405D02*
G01*
X95698974Y-124800209D01*
X95710180Y-124852053D01*
X95687867Y-133152053D01*
X95668002Y-133219040D01*
X95615075Y-133264652D01*
X95563867Y-133275720D01*
X95277161Y-133275720D01*
X95210122Y-133256035D01*
X95164367Y-133203231D01*
X95153161Y-133152053D01*
X95130848Y-124852053D01*
X95150353Y-124784961D01*
X95203033Y-124739065D01*
X95254848Y-124727720D01*
X95586180Y-124727720D01*
X95653219Y-124747405D01*
G37*
G36*
X98261406Y-124741903D02*
G01*
X98307161Y-124794707D01*
X98318367Y-124846551D01*
X98296054Y-133146551D01*
X98276189Y-133213538D01*
X98223262Y-133259150D01*
X98172054Y-133270218D01*
X97885348Y-133270218D01*
X97818309Y-133250533D01*
X97772554Y-133197729D01*
X97761348Y-133146551D01*
X97739035Y-124846551D01*
X97758540Y-124779459D01*
X97811220Y-124733563D01*
X97863035Y-124722218D01*
X98194367Y-124722218D01*
X98261406Y-124741903D01*
G37*
G36*
X76181653Y-58629183D02*
G01*
X76227408Y-58681987D01*
X76238614Y-58733831D01*
X76218519Y-66208831D01*
X76198654Y-66275818D01*
X76145727Y-66321430D01*
X76094519Y-66332498D01*
X75807813Y-66332498D01*
X75740774Y-66312813D01*
X75695019Y-66260009D01*
X75683813Y-66208831D01*
X75663718Y-58733831D01*
X75683223Y-58666739D01*
X75735904Y-58620843D01*
X75787718Y-58609498D01*
X76114614Y-58609498D01*
X76181653Y-58629183D01*
G37*
G36*
X146254226Y-58650187D02*
G01*
X146299981Y-58702991D01*
X146311187Y-58754169D01*
X146331282Y-66229169D01*
X146311777Y-66296261D01*
X146259096Y-66342157D01*
X146207282Y-66353502D01*
X145880386Y-66353502D01*
X145813347Y-66333817D01*
X145767592Y-66281013D01*
X145756386Y-66229169D01*
X145776481Y-58754169D01*
X145796346Y-58687182D01*
X145849273Y-58641570D01*
X145900481Y-58630502D01*
X146187187Y-58630502D01*
X146254226Y-58650187D01*
G37*
G36*
X73573466Y-58634685D02*
G01*
X73619221Y-58687489D01*
X73630427Y-58739333D01*
X73610332Y-66214333D01*
X73590467Y-66281320D01*
X73537540Y-66326932D01*
X73486332Y-66338000D01*
X73199626Y-66338000D01*
X73132587Y-66318315D01*
X73086832Y-66265511D01*
X73075626Y-66214333D01*
X73055531Y-58739333D01*
X73075036Y-58672241D01*
X73127717Y-58626345D01*
X73179531Y-58615000D01*
X73506427Y-58615000D01*
X73573466Y-58634685D01*
G37*
G36*
X115092235Y-124713179D02*
G01*
X115137990Y-124765983D01*
X115149196Y-124817827D01*
X115126883Y-133117827D01*
X115107018Y-133184814D01*
X115054091Y-133230426D01*
X115002883Y-133241494D01*
X114716177Y-133241494D01*
X114649138Y-133221809D01*
X114603383Y-133169005D01*
X114592177Y-133117827D01*
X114569864Y-124817827D01*
X114589369Y-124750735D01*
X114642049Y-124704839D01*
X114693864Y-124693494D01*
X115025196Y-124693494D01*
X115092235Y-124713179D01*
G37*
G36*
X68601808Y-124723405D02*
G01*
X68647563Y-124776209D01*
X68658769Y-124828053D01*
X68636456Y-133128053D01*
X68616591Y-133195040D01*
X68563664Y-133240652D01*
X68512456Y-133251720D01*
X68225750Y-133251720D01*
X68158711Y-133232035D01*
X68112956Y-133179231D01*
X68101750Y-133128053D01*
X68079437Y-124828053D01*
X68098942Y-124760961D01*
X68151622Y-124715065D01*
X68203437Y-124703720D01*
X68534769Y-124703720D01*
X68601808Y-124723405D01*
G37*
G36*
X114304226Y-58654179D02*
G01*
X114349981Y-58706983D01*
X114361187Y-58758161D01*
X114381282Y-66233161D01*
X114361777Y-66300253D01*
X114309096Y-66346149D01*
X114257282Y-66357494D01*
X113930386Y-66357494D01*
X113863347Y-66337809D01*
X113817592Y-66285005D01*
X113806386Y-66233161D01*
X113826481Y-58758161D01*
X113846346Y-58691174D01*
X113899273Y-58645562D01*
X113950481Y-58634494D01*
X114237187Y-58634494D01*
X114304226Y-58654179D01*
G37*
G36*
X111837171Y-58654179D02*
G01*
X111882926Y-58706983D01*
X111894132Y-58758161D01*
X111914227Y-66233161D01*
X111894722Y-66300253D01*
X111842041Y-66346149D01*
X111790227Y-66357494D01*
X111463331Y-66357494D01*
X111396292Y-66337809D01*
X111350537Y-66285005D01*
X111339331Y-66233161D01*
X111359426Y-58758161D01*
X111379291Y-58691174D01*
X111432218Y-58645562D01*
X111483426Y-58634494D01*
X111770132Y-58634494D01*
X111837171Y-58654179D01*
G37*
G36*
X148862413Y-58644685D02*
G01*
X148908168Y-58697489D01*
X148919374Y-58748667D01*
X148939469Y-66223667D01*
X148919964Y-66290759D01*
X148867283Y-66336655D01*
X148815469Y-66348000D01*
X148488573Y-66348000D01*
X148421534Y-66328315D01*
X148375779Y-66275511D01*
X148364573Y-66223667D01*
X148384668Y-58748667D01*
X148404533Y-58681680D01*
X148457460Y-58636068D01*
X148508668Y-58625000D01*
X148795374Y-58625000D01*
X148862413Y-58644685D01*
G37*
G36*
X101608984Y-58647681D02*
G01*
X101654739Y-58700485D01*
X101665945Y-58751663D01*
X101686040Y-66226663D01*
X101666535Y-66293755D01*
X101613854Y-66339651D01*
X101562040Y-66350996D01*
X101235144Y-66350996D01*
X101168105Y-66331311D01*
X101122350Y-66278507D01*
X101111144Y-66226663D01*
X101131239Y-58751663D01*
X101151104Y-58684676D01*
X101204031Y-58639064D01*
X101255239Y-58627996D01*
X101541945Y-58627996D01*
X101608984Y-58647681D01*
G37*
G36*
X96991406Y-124741903D02*
G01*
X97037161Y-124794707D01*
X97048367Y-124846551D01*
X97026054Y-133146551D01*
X97006189Y-133213538D01*
X96953262Y-133259150D01*
X96902054Y-133270218D01*
X96615348Y-133270218D01*
X96548309Y-133250533D01*
X96502554Y-133197729D01*
X96491348Y-133146551D01*
X96469035Y-124846551D01*
X96488540Y-124779459D01*
X96541220Y-124733563D01*
X96593035Y-124722218D01*
X96924367Y-124722218D01*
X96991406Y-124741903D01*
G37*
G36*
X56890693Y-46814191D02*
G01*
X56936448Y-46866995D01*
X56947654Y-46918839D01*
X56895771Y-66218839D01*
X56875906Y-66285826D01*
X56822979Y-66331438D01*
X56771771Y-66342506D01*
X56485065Y-66342506D01*
X56418026Y-66322821D01*
X56372271Y-66270017D01*
X56361065Y-66218839D01*
X56309181Y-46918839D01*
X56328686Y-46851747D01*
X56381367Y-46805851D01*
X56433181Y-46794506D01*
X56823654Y-46794506D01*
X56890693Y-46814191D01*
G37*
G36*
X94519593Y-124724401D02*
G01*
X94565348Y-124777205D01*
X94576554Y-124829049D01*
X94554241Y-133129049D01*
X94534376Y-133196036D01*
X94481449Y-133241648D01*
X94430241Y-133252716D01*
X94143535Y-133252716D01*
X94076496Y-133233031D01*
X94030741Y-133180227D01*
X94019535Y-133129049D01*
X93997222Y-124829049D01*
X94016727Y-124761957D01*
X94069407Y-124716061D01*
X94121222Y-124704716D01*
X94452554Y-124704716D01*
X94519593Y-124724401D01*
G37*
G36*
X143855161Y-58650669D02*
G01*
X143900916Y-58703473D01*
X143912122Y-58754651D01*
X143932217Y-66229651D01*
X143912712Y-66296743D01*
X143860031Y-66342639D01*
X143808217Y-66353984D01*
X143481321Y-66353984D01*
X143414282Y-66334299D01*
X143368527Y-66281495D01*
X143357321Y-66229651D01*
X143377416Y-58754651D01*
X143397281Y-58687664D01*
X143450208Y-58642052D01*
X143501416Y-58630984D01*
X143788122Y-58630984D01*
X143855161Y-58650669D01*
G37*
G36*
X67087092Y-58645689D02*
G01*
X67132847Y-58698493D01*
X67144053Y-58750337D01*
X67123958Y-66225337D01*
X67104093Y-66292324D01*
X67051166Y-66337936D01*
X66999958Y-66349004D01*
X66713252Y-66349004D01*
X66646213Y-66329319D01*
X66600458Y-66276515D01*
X66589252Y-66225337D01*
X66569157Y-58750337D01*
X66588662Y-58683245D01*
X66641343Y-58637349D01*
X66693157Y-58626004D01*
X67020053Y-58626004D01*
X67087092Y-58645689D01*
G37*
G36*
X116912413Y-58648677D02*
G01*
X116958168Y-58701481D01*
X116969374Y-58752659D01*
X116989469Y-66227659D01*
X116969964Y-66294751D01*
X116917283Y-66340647D01*
X116865469Y-66351992D01*
X116538573Y-66351992D01*
X116471534Y-66332307D01*
X116425779Y-66279503D01*
X116414573Y-66227659D01*
X116434668Y-58752659D01*
X116454533Y-58685672D01*
X116507460Y-58640060D01*
X116558668Y-58628992D01*
X116845374Y-58628992D01*
X116912413Y-58648677D01*
G37*
G36*
X121374048Y-124730681D02*
G01*
X121419803Y-124783485D01*
X121431009Y-124835329D01*
X121408696Y-133135329D01*
X121388831Y-133202316D01*
X121335904Y-133247928D01*
X121284696Y-133258996D01*
X120997990Y-133258996D01*
X120930951Y-133239311D01*
X120885196Y-133186507D01*
X120873990Y-133135329D01*
X120851677Y-124835329D01*
X120871182Y-124768237D01*
X120923862Y-124722341D01*
X120975677Y-124710996D01*
X121307009Y-124710996D01*
X121374048Y-124730681D01*
G37*
G36*
X71033466Y-58634685D02*
G01*
X71079221Y-58687489D01*
X71090427Y-58739333D01*
X71070332Y-66214333D01*
X71050467Y-66281320D01*
X70997540Y-66326932D01*
X70946332Y-66338000D01*
X70659626Y-66338000D01*
X70592587Y-66318315D01*
X70546832Y-66265511D01*
X70535626Y-66214333D01*
X70515531Y-58739333D01*
X70535036Y-58672241D01*
X70587717Y-58626345D01*
X70639531Y-58615000D01*
X70966427Y-58615000D01*
X71033466Y-58634685D01*
G37*
G36*
X51742708Y-46744693D02*
G01*
X51788463Y-46797497D01*
X51799669Y-46849341D01*
X51747584Y-66224341D01*
X51727719Y-66291328D01*
X51674792Y-66336940D01*
X51623584Y-66348008D01*
X51336878Y-66348008D01*
X51269839Y-66328323D01*
X51224084Y-66275519D01*
X51212878Y-66224341D01*
X51160794Y-46849341D01*
X51180299Y-46782249D01*
X51232980Y-46736353D01*
X51284794Y-46725008D01*
X51675669Y-46725008D01*
X51742708Y-46744693D01*
G37*
G36*
X147592413Y-58644685D02*
G01*
X147638168Y-58697489D01*
X147649374Y-58748667D01*
X147669469Y-66223667D01*
X147649964Y-66290759D01*
X147597283Y-66336655D01*
X147545469Y-66348000D01*
X147218573Y-66348000D01*
X147151534Y-66328315D01*
X147105779Y-66275511D01*
X147094573Y-66223667D01*
X147114668Y-58748667D01*
X147134533Y-58681680D01*
X147187460Y-58636068D01*
X147238668Y-58625000D01*
X147525374Y-58625000D01*
X147592413Y-58644685D01*
G37*
G36*
X80031808Y-124735405D02*
G01*
X80077563Y-124788209D01*
X80088769Y-124840053D01*
X80066456Y-133140053D01*
X80046591Y-133207040D01*
X79993664Y-133252652D01*
X79942456Y-133263720D01*
X79655750Y-133263720D01*
X79588711Y-133244035D01*
X79542956Y-133191231D01*
X79531750Y-133140053D01*
X79509437Y-124840053D01*
X79528942Y-124772961D01*
X79581622Y-124727065D01*
X79633437Y-124715720D01*
X79964769Y-124715720D01*
X80031808Y-124735405D01*
G37*
G36*
X143481833Y-124731677D02*
G01*
X143527588Y-124784481D01*
X143538794Y-124836325D01*
X143516481Y-133136325D01*
X143496616Y-133203312D01*
X143443689Y-133248924D01*
X143392481Y-133259992D01*
X143105775Y-133259992D01*
X143038736Y-133240307D01*
X142992981Y-133187503D01*
X142981775Y-133136325D01*
X142959462Y-124836325D01*
X142978967Y-124769233D01*
X143031647Y-124723337D01*
X143083462Y-124711992D01*
X143414794Y-124711992D01*
X143481833Y-124731677D01*
G37*
G36*
X105418984Y-58659681D02*
G01*
X105464739Y-58712485D01*
X105475945Y-58763663D01*
X105496040Y-66238663D01*
X105476535Y-66305755D01*
X105423854Y-66351651D01*
X105372040Y-66362996D01*
X105045144Y-66362996D01*
X104978105Y-66343311D01*
X104932350Y-66290507D01*
X104921144Y-66238663D01*
X104941239Y-58763663D01*
X104961104Y-58696676D01*
X105014031Y-58651064D01*
X105065239Y-58639996D01*
X105351945Y-58639996D01*
X105418984Y-58659681D01*
G37*
G36*
X120722413Y-58660677D02*
G01*
X120768168Y-58713481D01*
X120779374Y-58764659D01*
X120799469Y-66239659D01*
X120779964Y-66306751D01*
X120727283Y-66352647D01*
X120675469Y-66363992D01*
X120348573Y-66363992D01*
X120281534Y-66344307D01*
X120235779Y-66291503D01*
X120224573Y-66239659D01*
X120244668Y-58764659D01*
X120264533Y-58697672D01*
X120317460Y-58652060D01*
X120368668Y-58640992D01*
X120655374Y-58640992D01*
X120722413Y-58660677D01*
G37*
G36*
X127140600Y-58655175D02*
G01*
X127186355Y-58707979D01*
X127197561Y-58759157D01*
X127217656Y-66234157D01*
X127198151Y-66301249D01*
X127145470Y-66347145D01*
X127093656Y-66358490D01*
X126766760Y-66358490D01*
X126699721Y-66338805D01*
X126653966Y-66286001D01*
X126642760Y-66234157D01*
X126662855Y-58759157D01*
X126682720Y-58692170D01*
X126735647Y-58646558D01*
X126786855Y-58635490D01*
X127073561Y-58635490D01*
X127140600Y-58655175D01*
G37*
G36*
X83978182Y-124724401D02*
G01*
X84023937Y-124777205D01*
X84035143Y-124829049D01*
X84012830Y-133129049D01*
X83992965Y-133196036D01*
X83940038Y-133241648D01*
X83888830Y-133252716D01*
X83602124Y-133252716D01*
X83535085Y-133233031D01*
X83489330Y-133180227D01*
X83478124Y-133129049D01*
X83455811Y-124829049D01*
X83475316Y-124761957D01*
X83527996Y-124716061D01*
X83579811Y-124704716D01*
X83911143Y-124704716D01*
X83978182Y-124724401D01*
G37*
G36*
X87570797Y-58641183D02*
G01*
X87616552Y-58693987D01*
X87627758Y-58745165D01*
X87647853Y-66220165D01*
X87628348Y-66287257D01*
X87575667Y-66333153D01*
X87523853Y-66344498D01*
X87196957Y-66344498D01*
X87129918Y-66324813D01*
X87084163Y-66272009D01*
X87072957Y-66220165D01*
X87093052Y-58745165D01*
X87112917Y-58678178D01*
X87165844Y-58632566D01*
X87217052Y-58621498D01*
X87503758Y-58621498D01*
X87570797Y-58641183D01*
G37*
G36*
X97798984Y-58647681D02*
G01*
X97844739Y-58700485D01*
X97855945Y-58751663D01*
X97876040Y-66226663D01*
X97856535Y-66293755D01*
X97803854Y-66339651D01*
X97752040Y-66350996D01*
X97425144Y-66350996D01*
X97358105Y-66331311D01*
X97312350Y-66278507D01*
X97301144Y-66226663D01*
X97321239Y-58751663D01*
X97341104Y-58684676D01*
X97394031Y-58639064D01*
X97445239Y-58627996D01*
X97731945Y-58627996D01*
X97798984Y-58647681D01*
G37*
G36*
X130713646Y-124725179D02*
G01*
X130759401Y-124777983D01*
X130770607Y-124829827D01*
X130748294Y-133129827D01*
X130728429Y-133196814D01*
X130675502Y-133242426D01*
X130624294Y-133253494D01*
X130337588Y-133253494D01*
X130270549Y-133233809D01*
X130224794Y-133181005D01*
X130213588Y-133129827D01*
X130191275Y-124829827D01*
X130210780Y-124762735D01*
X130263460Y-124716839D01*
X130315275Y-124705494D01*
X130646607Y-124705494D01*
X130713646Y-124725179D01*
G37*
G36*
X134760600Y-58667175D02*
G01*
X134806355Y-58719979D01*
X134817561Y-58771157D01*
X134837656Y-66246157D01*
X134818151Y-66313249D01*
X134765470Y-66359145D01*
X134713656Y-66370490D01*
X134386760Y-66370490D01*
X134319721Y-66350805D01*
X134273966Y-66298001D01*
X134262760Y-66246157D01*
X134282855Y-58771157D01*
X134302720Y-58704170D01*
X134355647Y-58658558D01*
X134406855Y-58647490D01*
X134693561Y-58647490D01*
X134760600Y-58667175D01*
G37*
G36*
X133626974Y-58644171D02*
G01*
X133672729Y-58696975D01*
X133683935Y-58748153D01*
X133704030Y-66223153D01*
X133684525Y-66290245D01*
X133631844Y-66336141D01*
X133580030Y-66347486D01*
X133253134Y-66347486D01*
X133186095Y-66327801D01*
X133140340Y-66274997D01*
X133129134Y-66223153D01*
X133149229Y-58748153D01*
X133169094Y-58681166D01*
X133222021Y-58635554D01*
X133273229Y-58624486D01*
X133559935Y-58624486D01*
X133626974Y-58644171D01*
G37*
G36*
X156946296Y-47262376D02*
G01*
X156992051Y-47315180D01*
X157003257Y-47366358D01*
X157053996Y-66241358D01*
X157034491Y-66308450D01*
X156981810Y-66354346D01*
X156929996Y-66365691D01*
X156603100Y-66365691D01*
X156536061Y-66346006D01*
X156490306Y-66293202D01*
X156479100Y-66241358D01*
X156529841Y-47366358D01*
X156549706Y-47299371D01*
X156602633Y-47253759D01*
X156653841Y-47242691D01*
X156879257Y-47242691D01*
X156946296Y-47262376D01*
G37*
G36*
X79923466Y-58646685D02*
G01*
X79969221Y-58699489D01*
X79980427Y-58751333D01*
X79960332Y-66226333D01*
X79940467Y-66293320D01*
X79887540Y-66338932D01*
X79836332Y-66350000D01*
X79549626Y-66350000D01*
X79482587Y-66330315D01*
X79436832Y-66277511D01*
X79425626Y-66226333D01*
X79405531Y-58751333D01*
X79425036Y-58684241D01*
X79477717Y-58638345D01*
X79529531Y-58627000D01*
X79856427Y-58627000D01*
X79923466Y-58646685D01*
G37*
G36*
X81369995Y-124729903D02*
G01*
X81415750Y-124782707D01*
X81426956Y-124834551D01*
X81404643Y-133134551D01*
X81384778Y-133201538D01*
X81331851Y-133247150D01*
X81280643Y-133258218D01*
X80993937Y-133258218D01*
X80926898Y-133238533D01*
X80881143Y-133185729D01*
X80869937Y-133134551D01*
X80847624Y-124834551D01*
X80867129Y-124767459D01*
X80919809Y-124721563D01*
X80971624Y-124710218D01*
X81302956Y-124710218D01*
X81369995Y-124729903D01*
G37*
G36*
X110567171Y-58654179D02*
G01*
X110612926Y-58706983D01*
X110624132Y-58758161D01*
X110644227Y-66233161D01*
X110624722Y-66300253D01*
X110572041Y-66346149D01*
X110520227Y-66357494D01*
X110193331Y-66357494D01*
X110126292Y-66337809D01*
X110080537Y-66285005D01*
X110069331Y-66233161D01*
X110089426Y-58758161D01*
X110109291Y-58691174D01*
X110162218Y-58645562D01*
X110213426Y-58634494D01*
X110500132Y-58634494D01*
X110567171Y-58654179D01*
G37*
G36*
X69803621Y-124728907D02*
G01*
X69849376Y-124781711D01*
X69860582Y-124833555D01*
X69838269Y-133133555D01*
X69818404Y-133200542D01*
X69765477Y-133246154D01*
X69714269Y-133257222D01*
X69427563Y-133257222D01*
X69360524Y-133237537D01*
X69314769Y-133184733D01*
X69303563Y-133133555D01*
X69281250Y-124833555D01*
X69300755Y-124766463D01*
X69353435Y-124720567D01*
X69405250Y-124709222D01*
X69736582Y-124709222D01*
X69803621Y-124728907D01*
G37*
G36*
X155744414Y-47231874D02*
G01*
X155790169Y-47284678D01*
X155801375Y-47335856D01*
X155852183Y-66235856D01*
X155832678Y-66302948D01*
X155779997Y-66348844D01*
X155728183Y-66360189D01*
X155401287Y-66360189D01*
X155334248Y-66340504D01*
X155288493Y-66287700D01*
X155277287Y-66235856D01*
X155328095Y-47335856D01*
X155347960Y-47268869D01*
X155400887Y-47223257D01*
X155452095Y-47212189D01*
X155677375Y-47212189D01*
X155744414Y-47231874D01*
G37*
G36*
X91911406Y-124729903D02*
G01*
X91957161Y-124782707D01*
X91968367Y-124834551D01*
X91946054Y-133134551D01*
X91926189Y-133201538D01*
X91873262Y-133247150D01*
X91822054Y-133258218D01*
X91535348Y-133258218D01*
X91468309Y-133238533D01*
X91422554Y-133185729D01*
X91411348Y-133134551D01*
X91389035Y-124834551D01*
X91408540Y-124767459D01*
X91461220Y-124721563D01*
X91513035Y-124710218D01*
X91844367Y-124710218D01*
X91911406Y-124729903D01*
G37*
G36*
X93852610Y-58658685D02*
G01*
X93898365Y-58711489D01*
X93909571Y-58762667D01*
X93929666Y-66237667D01*
X93910161Y-66304759D01*
X93857480Y-66350655D01*
X93805666Y-66362000D01*
X93478770Y-66362000D01*
X93411731Y-66342315D01*
X93365976Y-66289511D01*
X93354770Y-66237667D01*
X93374865Y-58762667D01*
X93394730Y-58695680D01*
X93447657Y-58650068D01*
X93498865Y-58639000D01*
X93785571Y-58639000D01*
X93852610Y-58658685D01*
G37*
G36*
X145052413Y-58644685D02*
G01*
X145098168Y-58697489D01*
X145109374Y-58748667D01*
X145129469Y-66223667D01*
X145109964Y-66290759D01*
X145057283Y-66336655D01*
X145005469Y-66348000D01*
X144678573Y-66348000D01*
X144611534Y-66328315D01*
X144565779Y-66275511D01*
X144554573Y-66223667D01*
X144574668Y-58748667D01*
X144594533Y-58681680D01*
X144647460Y-58636068D01*
X144698668Y-58625000D01*
X144985374Y-58625000D01*
X145052413Y-58644685D01*
G37*
G36*
X100801406Y-124741903D02*
G01*
X100847161Y-124794707D01*
X100858367Y-124846551D01*
X100836054Y-133146551D01*
X100816189Y-133213538D01*
X100763262Y-133259150D01*
X100712054Y-133270218D01*
X100425348Y-133270218D01*
X100358309Y-133250533D01*
X100312554Y-133197729D01*
X100301348Y-133146551D01*
X100279035Y-124846551D01*
X100298540Y-124779459D01*
X100351220Y-124733563D01*
X100403035Y-124722218D01*
X100734367Y-124722218D01*
X100801406Y-124741903D01*
G37*
G36*
X53080828Y-46764191D02*
G01*
X53126583Y-46816995D01*
X53137789Y-46868839D01*
X53085771Y-66218839D01*
X53065906Y-66285826D01*
X53012979Y-66331438D01*
X52961771Y-66342506D01*
X52675065Y-66342506D01*
X52608026Y-66322821D01*
X52562271Y-66270017D01*
X52551065Y-66218839D01*
X52499048Y-46868839D01*
X52518553Y-46801747D01*
X52571234Y-46755851D01*
X52623048Y-46744506D01*
X53013789Y-46744506D01*
X53080828Y-46764191D01*
G37*
G36*
X81261653Y-58641183D02*
G01*
X81307408Y-58693987D01*
X81318614Y-58745831D01*
X81298519Y-66220831D01*
X81278654Y-66287818D01*
X81225727Y-66333430D01*
X81174519Y-66344498D01*
X80887813Y-66344498D01*
X80820774Y-66324813D01*
X80775019Y-66272009D01*
X80763813Y-66220831D01*
X80743718Y-58745831D01*
X80763223Y-58678739D01*
X80815904Y-58632843D01*
X80867718Y-58621498D01*
X81194614Y-58621498D01*
X81261653Y-58641183D01*
G37*
G36*
X128105459Y-124730681D02*
G01*
X128151214Y-124783485D01*
X128162420Y-124835329D01*
X128140107Y-133135329D01*
X128120242Y-133202316D01*
X128067315Y-133247928D01*
X128016107Y-133258996D01*
X127729401Y-133258996D01*
X127662362Y-133239311D01*
X127616607Y-133186507D01*
X127605401Y-133135329D01*
X127583088Y-124835329D01*
X127602593Y-124768237D01*
X127655273Y-124722341D01*
X127707088Y-124710996D01*
X128038420Y-124710996D01*
X128105459Y-124730681D01*
G37*
G36*
X125870600Y-58655175D02*
G01*
X125916355Y-58707979D01*
X125927561Y-58759157D01*
X125947656Y-66234157D01*
X125928151Y-66301249D01*
X125875470Y-66347145D01*
X125823656Y-66358490D01*
X125496760Y-66358490D01*
X125429721Y-66338805D01*
X125383966Y-66286001D01*
X125372760Y-66234157D01*
X125392855Y-58759157D01*
X125412720Y-58692170D01*
X125465647Y-58646558D01*
X125516855Y-58635490D01*
X125803561Y-58635490D01*
X125870600Y-58655175D01*
G37*
G36*
X78829995Y-124729903D02*
G01*
X78875750Y-124782707D01*
X78886956Y-124834551D01*
X78864643Y-133134551D01*
X78844778Y-133201538D01*
X78791851Y-133247150D01*
X78740643Y-133258218D01*
X78453937Y-133258218D01*
X78386898Y-133238533D01*
X78341143Y-133185729D01*
X78329937Y-133134551D01*
X78307624Y-124834551D01*
X78327129Y-124767459D01*
X78379809Y-124721563D01*
X78431624Y-124710218D01*
X78762956Y-124710218D01*
X78829995Y-124729903D01*
G37*
G36*
X140941833Y-124731677D02*
G01*
X140987588Y-124784481D01*
X140998794Y-124836325D01*
X140976481Y-133136325D01*
X140956616Y-133203312D01*
X140903689Y-133248924D01*
X140852481Y-133259992D01*
X140565775Y-133259992D01*
X140498736Y-133240307D01*
X140452981Y-133187503D01*
X140441775Y-133136325D01*
X140419462Y-124836325D01*
X140438967Y-124769233D01*
X140491647Y-124723337D01*
X140543462Y-124711992D01*
X140874794Y-124711992D01*
X140941833Y-124731677D01*
G37*
G36*
X118250600Y-58643175D02*
G01*
X118296355Y-58695979D01*
X118307561Y-58747157D01*
X118327656Y-66222157D01*
X118308151Y-66289249D01*
X118255470Y-66335145D01*
X118203656Y-66346490D01*
X117876760Y-66346490D01*
X117809721Y-66326805D01*
X117763966Y-66274001D01*
X117752760Y-66222157D01*
X117772855Y-58747157D01*
X117792720Y-58680170D01*
X117845647Y-58634558D01*
X117896855Y-58623490D01*
X118183561Y-58623490D01*
X118250600Y-58643175D01*
G37*
G36*
X77491808Y-124735405D02*
G01*
X77537563Y-124788209D01*
X77548769Y-124840053D01*
X77526456Y-133140053D01*
X77506591Y-133207040D01*
X77453664Y-133252652D01*
X77402456Y-133263720D01*
X77115750Y-133263720D01*
X77048711Y-133244035D01*
X77002956Y-133191231D01*
X76991750Y-133140053D01*
X76969437Y-124840053D01*
X76988942Y-124772961D01*
X77041622Y-124727065D01*
X77093437Y-124715720D01*
X77424769Y-124715720D01*
X77491808Y-124735405D01*
G37*
G36*
X93181406Y-124729903D02*
G01*
X93227161Y-124782707D01*
X93238367Y-124834551D01*
X93216054Y-133134551D01*
X93196189Y-133201538D01*
X93143262Y-133247150D01*
X93092054Y-133258218D01*
X92805348Y-133258218D01*
X92738309Y-133238533D01*
X92692554Y-133185729D01*
X92681348Y-133134551D01*
X92659035Y-124834551D01*
X92678540Y-124767459D01*
X92731220Y-124721563D01*
X92783035Y-124710218D01*
X93114367Y-124710218D01*
X93181406Y-124729903D01*
G37*
G36*
X121992413Y-58660677D02*
G01*
X122038168Y-58713481D01*
X122049374Y-58764659D01*
X122069469Y-66239659D01*
X122049964Y-66306751D01*
X121997283Y-66352647D01*
X121945469Y-66363992D01*
X121618573Y-66363992D01*
X121551534Y-66344307D01*
X121505779Y-66291503D01*
X121494573Y-66239659D01*
X121514668Y-58764659D01*
X121534533Y-58697672D01*
X121587460Y-58652060D01*
X121638668Y-58640992D01*
X121925374Y-58640992D01*
X121992413Y-58660677D01*
G37*
M02*
